<?xml version="1.0" standalone="no"?>
<!DOCTYPE svg PUBLIC "-//W3C//DTD SVG 1.1//EN" "http://www.w3.org/Graphics/SVG/1.1/DTD/svg11.dtd" >
<svg xmlns="http://www.w3.org/2000/svg" xmlns:xlink="http://www.w3.org/1999/xlink" version="1.1">
<metadata>
Created by FontForge 20141024 at Fri Mar 27 14:13:39 2015
 By System Administrator
Copyright (c) 2008 by TypeTogether. All rights reserved.
</metadata>
<defs>
<font id="Bree-BoldOblique" horiz-adv-x="535" >
  <font-face 
    font-family="Bree Rg"
    font-weight="700"
    font-style="oblique"
    font-stretch="normal"
    units-per-em="1000"
    panose-1="2 0 8 6 0 0 0 9 0 4"
    ascent="720"
    descent="-280"
    x-height="511"
    cap-height="665"
    bbox="-135 -289 1058 924"
    underline-thickness="50"
    underline-position="-50"
    slope="-10"
    stemh="150"
    stemv="167"
    unicode-range="U+000D-FB04"
  />
<missing-glyph horiz-adv-x="500" 
 />
    <glyph glyph-name="ff" unicode="ff" horiz-adv-x="640" 
d="M286 381l-103 -591h-167l130 732c19 107 54 198 224 198c46 0 104 -16 144 -36c31 22 75 36 136 36c47 0 112 -18 151 -43l-56 -106c-30 17 -64 26 -85 26c-33 0 -53 -15 -62 -58l-6 -27h138l-23 -131h-138l-104 -591h-167l104 591h-116zM315 539l-5 -27h115
c6 29 10 50 17 71c-24 10 -45 14 -63 14c-34 0 -56 -14 -64 -58z" />
    <glyph glyph-name="fi" unicode="fi" horiz-adv-x="543" 
d="M286 381l-103 -591h-167l129 733c19 108 56 198 226 198c75 0 152 -28 189 -50l-56 -107c-34 20 -86 34 -116 34c-37 0 -63 -14 -72 -58l-6 -28h277l-90 -512h-168l67 381h-110z" />
    <glyph glyph-name="fl" unicode="fl" horiz-adv-x="630" 
d="M286 381l-103 -591h-167l130 733c17 97 51 198 222 198c59 0 117 -16 173 -41h79l-88 -500c-2 -11 -3 -20 -3 -28c0 -25 10 -37 34 -37c16 0 37 5 62 15l16 -110c-40 -25 -101 -36 -145 -36c-113 0 -139 52 -139 117c0 29 5 59 10 90l33 190h-114zM315 540l-5 -28h114
l13 75c-21 8 -41 11 -58 11c-34 0 -56 -14 -64 -58z" />
    <glyph glyph-name="ffi" unicode="ffi" horiz-adv-x="824" 
d="M567 381l-103 -591h-167l104 591h-115l-103 -591h-167l130 732c19 107 54 198 224 198c44 0 99 -15 139 -34c33 22 78 35 143 35c75 0 152 -28 189 -50l-56 -107c-34 20 -86 34 -116 34c-37 0 -63 -14 -72 -58l-6 -28h277l-90 -512h-168l67 381h-110zM315 539l-5 -27h114
l2 11c3 21 8 41 14 61c-23 9 -44 13 -61 13c-34 0 -56 -14 -64 -58z" />
    <glyph glyph-name="ffl" unicode="ffl" horiz-adv-x="911" 
d="M567 381l-103 -591h-167l105 591h-116l-103 -591h-167l130 732c19 107 54 198 224 198c44 0 100 -16 140 -35c32 22 76 36 139 36c59 0 117 -16 173 -41h79l-88 -500c-2 -11 -3 -20 -3 -28c0 -25 10 -37 34 -37c16 0 37 5 62 15l16 -110c-40 -25 -101 -36 -145 -36
c-113 0 -139 52 -139 117c0 29 5 59 10 90l33 190h-114zM596 540l-5 -28h114l13 75c-21 8 -41 11 -58 11c-34 0 -56 -14 -64 -58zM315 539l-5 -27h115c5 31 10 52 16 71c-24 10 -45 14 -62 14c-34 0 -56 -14 -64 -58z" />
    <glyph glyph-name="tt" unicode="tt" horiz-adv-x="669" 
d="M469 695h169l-32 -183h125l-23 -131h-125l-36 -202c-2 -11 -3 -21 -3 -29c0 -31 15 -40 47 -40c19 0 38 7 57 16l23 -107c-34 -20 -94 -35 -150 -35c-123 0 -151 56 -151 122c0 25 5 52 9 77l35 198h-125l-37 -210c-2 -11 -3 -21 -3 -30c0 -21 7 -34 29 -34
c12 0 30 3 52 12l18 -105c-32 -17 -88 -30 -131 -30c-113 0 -141 52 -141 118c0 26 4 53 9 81l90 512h169l-32 -183h125z" />
    <glyph glyph-name=".notdef" horiz-adv-x="500" 
 />
    <glyph glyph-name=".null" horiz-adv-x="0" 
 />
    <glyph glyph-name=".null" horiz-adv-x="0" 
 />
    <glyph glyph-name="CR" unicode="&#xd;" horiz-adv-x="220" 
 />
    <glyph glyph-name="space" unicode=" " horiz-adv-x="197" 
 />
    <glyph glyph-name="quotesingle" unicode="'" horiz-adv-x="202" 
d="M162 665h111l-51 -236h-91z" />
    <glyph glyph-name="quotedbl" unicode="&#x22;" horiz-adv-x="348" 
d="M162 665h111l-51 -236h-91zM307 665h113l-52 -236h-92z" />
    <glyph glyph-name="numbersign" unicode="#" horiz-adv-x="529" 
d="M281 0l39 152h-94l-40 -152h-86l40 152h-89l14 79h95l38 141h-88l13 79h95l42 154h86l-42 -154h95l42 154h86l-42 -154h91l-14 -79h-97l-37 -141h90l-14 -79h-98l-39 -152h-86zM284 372l-38 -141h95l38 141h-95z" />
    <glyph glyph-name="ampersand" unicode="&#x26;" horiz-adv-x="831" 
d="M900 595c-63 -134 -139 -234 -252 -296h183l-22 -126h-98c-74 -117 -168 -188 -352 -188c-187 0 -262 116 -262 249c0 172 108 332 310 332c98 0 155 -47 155 -111c0 -41 -22 -80 -49 -105c109 64 194 184 245 290zM397 124c64 0 170 44 206 152
c-86 -37 -203 -56 -332 -55c2 -56 33 -97 126 -97zM382 444c-41 0 -88 -49 -101 -126c70 5 126 42 133 84c5 27 -5 42 -32 42z" />
    <glyph glyph-name="asterisk" unicode="*" horiz-adv-x="448" 
d="M338 542c38 -6 118 -33 118 -92c0 -34 -26 -56 -60 -56c-49 0 -64 47 -64 84c0 19 1 43 6 64zM349 567c27 45 77 93 127 93c34 0 48 -22 48 -50c0 -45 -45 -65 -87 -65c-25 0 -59 7 -88 22zM302 542c-6 -54 -34 -143 -98 -143c-25 0 -49 19 -49 50c0 59 102 90 147 93z
M297 567c-31 -12 -62 -16 -87 -16c-32 0 -74 16 -74 58c0 23 19 51 57 51c55 0 92 -51 104 -93zM326 588c-24 30 -37 66 -37 94c0 46 27 79 66 79c34 0 48 -17 48 -46c0 -55 -40 -98 -77 -127z" />
    <glyph glyph-name="comma" unicode="," horiz-adv-x="244" 
d="M233 75l-161 -253l-83 29c37 132 62 196 75 224c16 34 36 54 73 54c42 0 82 -35 96 -54z" />
    <glyph glyph-name="hyphen" unicode="-" horiz-adv-x="322" 
d="M68 222l22 123h262l-22 -123h-262z" />
    <glyph glyph-name="period" unicode="." horiz-adv-x="232" 
d="M43 48c0 51 38 94 97 94c47 0 71 -26 71 -64c0 -50 -35 -95 -96 -95c-50 0 -72 28 -72 65z" />
    <glyph glyph-name="colon" unicode=":" horiz-adv-x="232" 
d="M43 48c0 51 38 94 97 94c47 0 71 -26 71 -64c0 -50 -35 -95 -96 -95c-50 0 -72 28 -72 65zM107 416c0 50 39 93 97 93c49 0 73 -26 73 -64c0 -50 -37 -94 -98 -94c-49 0 -72 27 -72 65z" />
    <glyph glyph-name="semicolon" unicode=";" horiz-adv-x="244" 
d="M232 75l-160 -253l-83 29c37 132 62 196 75 224c16 34 35 54 73 54c42 0 82 -35 95 -54zM128 416c0 50 38 93 97 93c49 0 72 -26 72 -64c0 -50 -36 -94 -97 -94c-49 0 -72 27 -72 65z" />
    <glyph glyph-name="question" unicode="?" horiz-adv-x="405" 
d="M299 535c0 28 -19 41 -50 41c-30 0 -62 -8 -89 -15l-3 110c28 11 91 24 144 24c139 0 167 -69 167 -132c0 -102 -63 -148 -172 -216c-34 -21 -50 -44 -56 -80l-13 -71h-125c1 29 5 86 10 111c16 89 65 114 116 147c42 27 71 43 71 81zM57 50c0 48 43 91 98 91
c47 0 72 -28 72 -65c0 -47 -39 -93 -98 -93c-49 0 -72 30 -72 67z" />
    <glyph glyph-name="exclam" unicode="!" horiz-adv-x="267" 
d="M155 529l19 106c6 33 31 60 84 60s68 -28 62 -62l-19 -104l-83 -333h-97zM59 50c0 48 43 91 98 91c47 0 72 -28 72 -65c0 -47 -39 -93 -98 -93c-49 0 -72 30 -72 67z" />
    <glyph glyph-name="exclamdown" unicode="&#xa1;" horiz-adv-x="266" 
d="M210 -21l-19 -106c-6 -33 -31 -60 -84 -60s-68 28 -62 62l19 104l83 333h97zM306 458c0 -48 -43 -91 -98 -91c-47 0 -72 28 -72 65c0 47 39 93 98 93c49 0 72 -30 72 -67z" />
    <glyph glyph-name="questiondown" unicode="&#xbf;" horiz-adv-x="390" 
d="M186 -27c0 38 29 54 71 81c51 33 100 58 116 147c5 25 9 82 10 111h-125l-13 -71c-6 -36 -22 -59 -56 -80c-109 -68 -172 -114 -172 -216c0 -63 28 -132 167 -132c53 0 116 13 144 24l-3 110c-27 -7 -59 -15 -89 -15c-31 0 -50 13 -50 41zM428 458c0 -48 -43 -91 -98 -91
c-47 0 -72 28 -72 65c0 47 39 93 98 93c49 0 72 -30 72 -67z" />
    <glyph glyph-name="at" unicode="@" horiz-adv-x="950" 
d="M829 332c0 129 -75 213 -237 213c-255 0 -380 -184 -380 -391c0 -141 70 -250 224 -250c47 0 88 5 145 27l14 -94c-55 -21 -112 -31 -180 -31c-233 0 -324 165 -324 338c0 327 232 507 507 507c199 0 349 -109 349 -305c0 -222 -128 -346 -303 -346h-81v50
c-2 0 -3 1 -5 1c-25 -26 -53 -52 -113 -52c-95 0 -126 75 -126 152c0 166 97 283 265 283c29 0 89 -7 150 -32l-54 -310c76 3 149 76 149 240zM559 159l31 177c-8 3 -18 5 -31 5c-73 0 -107 -99 -107 -176c0 -32 8 -66 52 -66c29 0 49 22 55 60z" />
    <glyph glyph-name="A" unicode="A" horiz-adv-x="647" 
d="M182 0h-179l332 665h199l109 -665h-171l-20 142h-199zM410 505l-109 -237h140l-25 237h-6z" />
    <glyph glyph-name="B" unicode="B" horiz-adv-x="593" 
d="M173 665h254c109 0 198 -30 198 -139c0 -79 -46 -131 -102 -168c51 -22 85 -63 85 -126c0 -144 -112 -232 -311 -232h-241zM278 282l-27 -152h65c87 0 108 44 108 92c0 40 -28 60 -77 60h-69zM323 540l-24 -137h48c68 0 99 39 99 84c0 41 -29 53 -68 53h-55z" />
    <glyph glyph-name="C" unicode="C" horiz-adv-x="593" 
d="M374 128c51 0 101 27 152 66l67 -111c-84 -66 -161 -95 -253 -95c-160 0 -256 98 -256 270c0 314 190 418 357 418c111 0 185 -59 231 -146l-124 -77c-30 54 -67 81 -119 81c-94 0 -166 -95 -166 -254c0 -94 34 -152 111 -152z" />
    <glyph glyph-name="D" unicode="D" horiz-adv-x="646" 
d="M56 0l117 665h233c173 0 276 -89 276 -256c0 -296 -179 -409 -389 -409h-237zM322 531l-71 -398h67c115 0 188 100 188 258c0 109 -58 140 -128 140h-56z" />
    <glyph glyph-name="E" unicode="E" horiz-adv-x="527" 
d="M56 0l117 665h435l-27 -150h-262l-18 -102h225l-26 -148h-225l-21 -115h270l-26 -150h-442z" />
    <glyph glyph-name="F" unicode="F" horiz-adv-x="538" 
d="M173 665h459l-27 -150h-286l-20 -109h238l-26 -150h-238l-45 -256h-172z" />
    <glyph glyph-name="G" unicode="G" horiz-adv-x="633" 
d="M649 342l-50 -286c-62 -37 -159 -68 -260 -68c-159 0 -255 88 -255 274c0 305 190 414 362 414c92 0 191 -37 236 -140l-134 -81c-35 59 -71 78 -116 78c-98 0 -169 -95 -169 -261c0 -90 32 -146 107 -146c31 0 58 8 73 17l35 199h171z" />
    <glyph glyph-name="H" unicode="H" horiz-adv-x="667" 
d="M555 665h173l-117 -665h-173l46 258h-211l-45 -258h-172l117 665h172l-45 -257h210z" />
    <glyph glyph-name="I" unicode="I" horiz-adv-x="292" 
d="M232 0h-172l117 665h172z" />
    <glyph glyph-name="J" unicode="J" horiz-adv-x="443" 
d="M11 39l67 125c24 -17 59 -32 94 -32c47 0 73 16 84 78l80 455h172l-77 -439c-5 -26 -13 -67 -24 -98c-35 -102 -104 -140 -217 -140c-74 0 -141 25 -179 51z" />
    <glyph glyph-name="K" unicode="K" horiz-adv-x="596" 
d="M706 665l-238 -281l133 -384h-188l-79 251l-78 -86l-29 -165h-171l117 665h171l-47 -258l4 -1l217 259h188z" />
    <glyph glyph-name="L" unicode="L" horiz-adv-x="515" 
d="M57 0l117 665h171l-90 -514h265l-27 -151h-436z" />
    <glyph glyph-name="M" unicode="M" horiz-adv-x="792" 
d="M449 291l204 374h178l-83 -665h-162l42 347h-4l-156 -280h-121l-58 275h-3l-80 -342h-162l155 665h178l68 -374h4z" />
    <glyph glyph-name="N" unicode="N" horiz-adv-x="663" 
d="M554 665h170l-117 -665h-152l-161 370h-4l-65 -370h-169l117 665h158l155 -362h4z" />
    <glyph glyph-name="O" unicode="O" horiz-adv-x="666" 
d="M692 319c-39 -231 -179 -331 -365 -331c-157 0 -244 96 -244 257c0 30 2 67 8 103c45 256 217 329 366 329c131 0 242 -79 242 -257c0 -30 -1 -64 -7 -101zM270 344c-5 -26 -8 -56 -8 -83c0 -68 21 -131 97 -131c92 0 138 91 155 192c4 23 6 52 6 78
c0 67 -20 134 -93 134c-90 0 -139 -91 -157 -190z" />
    <glyph glyph-name="P" unicode="P" horiz-adv-x="572" 
d="M266 220l-38 -220h-172l117 665h242c139 0 221 -62 221 -180c0 -170 -126 -265 -317 -265h-53zM291 354h39c72 0 126 25 126 111c0 57 -38 65 -94 65h-40z" />
    <glyph glyph-name="Q" unicode="Q" horiz-adv-x="670" 
d="M359 380l-15 -104c-100 -19 -227 23 -227 161c0 136 105 239 293 239c158 0 270 -87 270 -262c0 -122 -46 -226 -115 -315c55 -67 113 -135 216 -150l-55 -126c-110 15 -209 86 -274 173c-73 -59 -135 -73 -207 -73c-123 0 -181 62 -181 143c0 87 54 163 184 163
c67 0 138 -25 182 -48c37 58 70 139 70 216c0 76 -31 139 -117 139c-65 0 -98 -34 -98 -83c0 -35 14 -66 74 -73zM353 83c-23 15 -56 31 -89 31c-25 0 -45 -11 -45 -38c0 -21 16 -35 48 -35s67 19 86 42z" />
    <glyph glyph-name="R" unicode="R" horiz-adv-x="607" 
d="M272 253l-44 -253h-172l117 665h238c141 0 227 -49 227 -163c0 -105 -65 -168 -141 -195c22 -11 31 -29 41 -63l66 -244h-185l-52 216c-7 26 -21 37 -47 37h-48zM294 374h65c60 0 99 38 99 101c0 44 -30 56 -85 56h-51z" />
    <glyph glyph-name="S" unicode="S" horiz-adv-x="544" 
d="M32 63l80 136c40 -28 119 -64 175 -64c43 0 80 16 80 62c0 45 -58 61 -117 84c-68 26 -136 67 -136 175c0 144 107 220 262 220c102 0 193 -51 240 -105l-102 -106c-46 39 -97 68 -146 68c-40 0 -70 -16 -70 -52c0 -49 43 -61 116 -91c70 -29 142 -71 142 -174
c0 -140 -114 -230 -276 -230c-114 0 -210 47 -248 77z" />
    <glyph glyph-name="T" unicode="T" horiz-adv-x="563" 
d="M132 665h533l-27 -150h-183l-91 -515h-171l90 515h-177z" />
    <glyph glyph-name="U" unicode="U" horiz-adv-x="629" 
d="M168 665h171l-77 -436c-2 -10 -3 -19 -3 -28c0 -42 22 -70 81 -70c60 0 95 29 106 93l78 441h171l-81 -460c-26 -145 -120 -219 -287 -219c-164 0 -241 61 -241 180c0 18 2 38 6 59z" />
    <glyph glyph-name="V" unicode="V" horiz-adv-x="621" 
d="M404 0h-186l-98 665h167l52 -467h4l214 467h178z" />
    <glyph glyph-name="W" unicode="W" horiz-adv-x="820" 
d="M500 0l-16 359h-6l-146 -359h-183l-24 665h166l3 -427h3l143 377h172l6 -363h4l135 413h171l-249 -665h-179z" />
    <glyph glyph-name="X" unicode="X" horiz-adv-x="651" 
d="M563 665h197l-270 -320l168 -345h-193l-97 214l-171 -214h-205l295 353l-151 312h192l82 -193z" />
    <glyph glyph-name="Y" unicode="Y" horiz-adv-x="597" 
d="M530 665h189l-294 -409l-44 -256h-172l45 255l-142 410h177l72 -249h3z" />
    <glyph glyph-name="Z" unicode="Z" horiz-adv-x="525" 
d="M596 566l-344 -434h278l-23 -132h-485l19 106l339 428h-259l23 131h470z" />
    <glyph glyph-name="a" unicode="a" horiz-adv-x="543" 
d="M577 487l-67 -379l-7 -108h-141v47l-5 1c-35 -41 -80 -63 -140 -63c-107 0 -155 79 -155 187c0 205 114 355 323 355c42 0 117 -10 192 -40zM356 161l42 241c-11 5 -27 8 -45 8c-91 0 -124 -137 -124 -219c0 -48 11 -87 59 -87c34 0 58 22 68 57z" />
    <glyph glyph-name="b" unicode="b" horiz-adv-x="538" 
d="M54 26l119 669h167l-35 -199c26 18 63 31 106 31c100 0 159 -62 159 -187c0 -221 -113 -356 -313 -356c-75 0 -161 19 -203 42zM281 361l-44 -253c14 -6 30 -7 47 -7c64 0 118 109 118 216c0 48 -14 92 -60 92c-28 0 -56 -18 -61 -48z" />
    <glyph glyph-name="c" unicode="c" horiz-adv-x="470" 
d="M317 114c35 0 66 12 111 41l40 -113c-52 -36 -120 -58 -199 -58c-128 0 -203 78 -203 217c0 233 148 326 285 326c78 0 153 -34 190 -116l-112 -74c-19 33 -40 58 -77 58c-74 0 -116 -78 -116 -177c0 -65 26 -104 81 -104z" />
    <glyph glyph-name="d" unicode="d" horiz-adv-x="544" 
d="M368 527c21 0 41 -3 52 -6l31 174h164l-104 -586l-7 -109h-139l-2 48h-5c-32 -40 -76 -64 -133 -64c-129 0 -164 98 -164 188c0 201 112 355 307 355zM356 159l43 243c-9 1 -17 2 -25 2c-104 0 -145 -113 -145 -214c0 -53 15 -86 55 -86c41 0 68 29 72 55z" />
    <glyph glyph-name="e" unicode="e" horiz-adv-x="484" 
d="M382 377c0 22 -17 32 -35 32c-59 0 -92 -63 -105 -117c58 3 140 31 140 85zM371 527c98 0 158 -45 158 -131c0 -168 -190 -198 -297 -205c-1 -45 23 -83 84 -83c48 0 94 21 130 42l35 -107c-20 -14 -99 -59 -211 -59c-146 0 -206 88 -206 206c0 170 113 337 307 337z" />
    <glyph glyph-name="f" unicode="f" horiz-adv-x="358" 
d="M286 381l-103 -591h-167l129 732c20 114 53 198 212 198c58 0 123 -19 160 -43l-55 -106c-30 17 -65 26 -86 26c-33 0 -55 -13 -62 -58l-4 -27h137l-23 -131h-138z" />
    <glyph glyph-name="g" unicode="g" horiz-adv-x="537" 
d="M209 -265c-110 0 -162 55 -162 130c0 82 48 137 145 187c-69 11 -126 68 -126 175c0 188 128 300 308 300c64 0 150 -13 203 -37l-69 -392c-5 -27 -17 -90 -23 -116c-39 -171 -130 -247 -276 -247zM361 205l35 198c-12 3 -23 4 -34 4c-93 0 -131 -103 -131 -187
c0 -45 12 -85 55 -85c34 0 66 18 75 70zM199 -103c0 -29 15 -43 40 -43c55 0 72 47 88 141l10 58c-17 -16 -41 -32 -66 -50c-38 -28 -72 -60 -72 -106z" />
    <glyph glyph-name="h" unicode="h" horiz-adv-x="536" 
d="M213 0h-167l123 695h167l-36 -206c31 24 74 38 119 38c89 0 136 -42 136 -124c0 -19 -2 -42 -7 -68l-59 -335h-167l57 325c2 10 4 22 4 33c0 21 -7 41 -35 41c-46 0 -70 -31 -77 -71z" />
    <glyph glyph-name="i" unicode="i" horiz-adv-x="272" 
d="M221 0h-167l90 512h167zM163 644c0 52 44 97 104 97c47 0 76 -32 76 -71c0 -53 -46 -95 -105 -95c-48 0 -75 29 -75 69z" />
    <glyph glyph-name="j" unicode="j" horiz-adv-x="266" 
d="M51 -14l93 526h166l-95 -536c-18 -104 -43 -200 -198 -200c-51 0 -115 15 -152 39l60 116c20 -11 43 -19 63 -19c37 0 53 19 63 74zM166 644c0 52 44 97 104 97c47 0 76 -32 76 -71c0 -53 -46 -95 -105 -95c-48 0 -75 29 -75 69z" />
    <glyph glyph-name="k" unicode="k" horiz-adv-x="532" 
d="M351 0l-63 197l-37 -7l-33 -190h-168l123 695h168l-54 -278l4 -1c41 70 102 111 181 111c65 0 115 -38 115 -110c0 -91 -55 -141 -135 -176l83 -241h-184zM409 370c0 23 -13 34 -33 34c-45 0 -94 -59 -110 -128c72 11 143 46 143 94z" />
    <glyph glyph-name="l" unicode="l" horiz-adv-x="347" 
d="M173 695h167l-91 -514c-2 -12 -3 -24 -3 -33c1 -24 12 -33 35 -33c15 0 37 6 62 16l18 -111c-39 -23 -103 -36 -148 -36c-106 0 -137 49 -138 126c0 22 3 46 7 71z" />
    <glyph glyph-name="m" unicode="m" horiz-adv-x="802" 
d="M219 0h-166l72 409l7 103h137l2 -54c39 42 83 69 149 69c59 0 102 -21 121 -66c37 40 85 66 149 66c83 0 131 -40 131 -126c0 -16 -2 -35 -5 -53l-61 -348h-167l54 308c3 16 6 39 6 51c0 23 -7 40 -33 40c-41 0 -64 -33 -71 -76l-57 -323h-167l54 304c3 17 7 40 7 53
c0 22 -6 42 -34 42c-41 0 -63 -32 -71 -76z" />
    <glyph glyph-name="n" unicode="n" horiz-adv-x="543" 
d="M219 0h-166l72 409l6 103h138l2 -55c39 43 91 70 158 70c83 0 133 -38 134 -124c0 -16 -2 -36 -5 -55l-62 -348h-167l52 299c3 16 8 39 8 58c0 20 -8 42 -38 42c-43 0 -68 -32 -75 -74z" />
    <glyph glyph-name="o" unicode="o" horiz-adv-x="531" 
d="M280 106c49 0 78 43 95 141c6 32 8 61 8 83c0 48 -15 77 -50 77c-47 0 -78 -46 -93 -129c-6 -32 -9 -66 -9 -92c0 -44 12 -80 49 -80zM67 265c37 210 179 262 294 262c71 0 196 -27 196 -193c0 -22 -1 -48 -5 -75c-31 -196 -155 -275 -297 -275c-124 0 -194 72 -194 200
c0 24 1 53 6 81z" />
    <glyph glyph-name="p" unicode="p" horiz-adv-x="547" 
d="M220 0l-37 -210h-167l123 699c86 28 178 38 230 38c135 0 202 -73 202 -208c0 -206 -110 -335 -271 -335c-32 0 -62 8 -80 16zM290 396l-50 -284c17 -6 33 -9 47 -9c93 0 117 129 117 212c0 54 -14 89 -60 89c-21 0 -42 -3 -54 -8z" />
    <glyph glyph-name="q" unicode="q" horiz-adv-x="542" 
d="M578 487l-124 -697h-167l40 226h-3c-21 -18 -54 -32 -98 -32c-102 0 -163 71 -163 200c0 213 128 343 313 343c61 0 139 -14 202 -40zM353 158l43 245c-9 2 -18 2 -26 2c-104 0 -142 -119 -142 -218c0 -44 13 -83 58 -83c35 0 58 17 67 54z" />
    <glyph glyph-name="r" unicode="r" horiz-adv-x="389" 
d="M277 313l-56 -313h-167l73 415l4 97h134l3 -71c37 63 89 86 131 86c29 0 60 -7 80 -20l-48 -139c-19 10 -43 18 -68 18c-43 0 -77 -26 -86 -73z" />
    <glyph glyph-name="s" unicode="s" horiz-adv-x="446" 
d="M26 44l62 113c34 -23 96 -51 143 -51c33 0 54 13 54 40c0 28 -44 41 -84 56c-53 20 -119 50 -119 146c0 117 95 179 218 179c80 0 156 -37 196 -83l-85 -87c-38 33 -76 51 -109 51c-34 0 -52 -17 -52 -38c0 -35 33 -45 93 -69c53 -21 111 -54 111 -139
c0 -115 -92 -178 -228 -178c-96 0 -172 37 -200 60z" />
    <glyph glyph-name="t" unicode="t" horiz-adv-x="373" 
d="M175 695h168l-33 -183h125l-22 -131h-126l-36 -199c-1 -10 -2 -23 -2 -31c1 -35 23 -41 50 -41c20 0 40 8 57 18l22 -107c-35 -20 -97 -37 -152 -37c-120 0 -149 58 -150 122c0 24 4 48 9 75z" />
    <glyph glyph-name="u" unicode="u" horiz-adv-x="545" 
d="M416 512h167l-72 -415l-7 -97h-140v49l-6 1c-45 -49 -94 -63 -140 -63c-96 0 -143 43 -143 130c0 15 2 35 5 53l60 342h167l-57 -322c-2 -14 -4 -27 -4 -38c0 -23 8 -39 40 -39c35 0 66 29 73 70z" />
    <glyph glyph-name="v" unicode="v" horiz-adv-x="525" 
d="M387 511h164c3 -27 5 -80 5 -113c0 -285 -106 -411 -310 -411c-109 0 -167 48 -169 135c0 16 1 35 4 54l59 335h168l-57 -322c-3 -15 -5 -29 -5 -40c1 -22 10 -34 34 -34c68 0 111 143 111 280c0 35 -2 89 -4 116z" />
    <glyph glyph-name="w" unicode="w" horiz-adv-x="779" 
d="M641 511h164c3 -25 5 -78 5 -110c0 -263 -93 -414 -282 -414c-74 0 -115 29 -132 69c-47 -49 -103 -69 -167 -69c-98 0 -153 42 -154 130c0 15 2 32 5 51l60 343h167l-58 -331c-2 -11 -4 -21 -4 -31c0 -20 8 -35 34 -35c34 0 58 27 64 64l59 333h166l-59 -327
c-2 -11 -4 -27 -4 -36c0 -20 6 -34 32 -34c68 0 107 128 107 288c0 31 -1 84 -3 109z" />
    <glyph glyph-name="x" unicode="x" horiz-adv-x="504" 
d="M421 511h176l-206 -249l124 -262h-176l-60 136l-108 -136h-183l222 265l-115 246h168l55 -133z" />
    <glyph glyph-name="y" unicode="y" horiz-adv-x="540" 
d="M584 511l-71 -399c-5 -27 -22 -108 -30 -139c-39 -157 -127 -239 -270 -239c-107 0 -162 50 -162 126c0 69 36 126 132 182c-69 13 -101 50 -101 115c0 13 1 28 4 44l54 310h167l-53 -302c-2 -12 -4 -24 -4 -34c0 -24 9 -40 43 -40c33 0 61 26 69 68l54 308h168z
M203 -107c0 -28 14 -39 40 -39c45 0 66 34 78 96l18 101c-18 -15 -38 -28 -64 -46c-41 -30 -72 -66 -72 -112z" />
    <glyph glyph-name="z" unicode="z" horiz-adv-x="435" 
d="M133 -92c0 -30 14 -50 46 -50c56 0 90 61 90 125c0 26 -6 50 -23 63c-71 -33 -113 -87 -113 -138zM514 512l-16 -93l-238 -202l50 -23c83 -39 119 -107 119 -193c0 -170 -121 -266 -272 -266c-119 0 -176 52 -176 143c0 97 58 173 186 232c-27 17 -56 29 -81 39l15 86
l179 148h-196l23 129h407z" />
    <glyph glyph-name="bracketleft" unicode="[" horiz-adv-x="303" 
d="M28 -179l160 906h238l-19 -105h-87l-123 -696h87l-18 -105h-238z" />
    <glyph glyph-name="bracketright" unicode="]" horiz-adv-x="303" 
d="M373 727l-160 -906h-238l18 105h86l123 696h-86l19 105h238z" />
    <glyph glyph-name="parenleft" unicode="(" horiz-adv-x="333" 
d="M83 158c0 205 91 405 232 588l130 -70c-127 -186 -197 -335 -197 -515c0 -96 20 -207 50 -300l-139 -60c-50 107 -76 240 -76 357z" />
    <glyph glyph-name="parenright" unicode=")" horiz-adv-x="333" 
d="M332 376c0 -211 -78 -389 -236 -578l-123 79c130 192 195 320 195 512c0 94 -19 206 -49 297l145 52c45 -105 68 -242 68 -362z" />
    <glyph glyph-name="braceleft" unicode="{" horiz-adv-x="340" 
d="M226 281c36 -13 53 -36 53 -82c0 -54 -52 -186 -52 -233c0 -27 10 -46 40 -46c11 0 23 2 40 5l-7 -101c-38 -9 -70 -9 -95 -9c-73 0 -131 35 -131 107c0 50 29 148 43 207c5 20 8 37 8 51c0 34 -16 52 -54 53l17 102c59 3 80 30 89 112c7 60 13 126 18 154
c12 98 74 129 169 129c24 0 63 -2 99 -11l-30 -97c-17 3 -25 4 -36 4c-44 0 -54 -19 -62 -73c-7 -44 -9 -101 -17 -150c-11 -63 -42 -101 -92 -122z" />
    <glyph glyph-name="braceright" unicode="}" horiz-adv-x="340" 
d="M214 281c-34 16 -53 47 -53 92c0 72 44 162 44 209c0 26 -10 44 -40 44c-11 0 -21 -1 -39 -4l6 99c38 8 71 9 94 9c82 0 133 -29 133 -95c0 -58 -24 -125 -40 -201c-4 -18 -6 -33 -6 -46c0 -36 16 -55 55 -56l-17 -102c-59 -3 -78 -36 -86 -114c-6 -59 -13 -147 -17 -174
c-15 -99 -72 -127 -173 -127c-25 0 -59 5 -93 14l25 96c17 -3 27 -5 38 -5c44 0 54 23 62 75c6 43 8 121 17 171c13 70 36 98 90 115z" />
    <glyph glyph-name="backslash" unicode="\" horiz-adv-x="461" 
d="M113 716l153 36l186 -812l-153 -36z" />
    <glyph glyph-name="slash" unicode="/" horiz-adv-x="461" 
d="M114 -133l-126 68l464 815l130 -65z" />
    <glyph glyph-name="brokenbar" unicode="&#xa6;" horiz-adv-x="332" 
d="M79 -88l66 372h142l-66 -372h-142zM165 401l61 346h142l-61 -346h-142z" />
    <glyph glyph-name="bar" unicode="|" horiz-adv-x="331" 
d="M79 -88l148 835h142l-148 -835h-142z" />
    <glyph glyph-name="asciicircum" unicode="^" horiz-adv-x="575" 
d="M586 295l-137 -20l-67 233l-148 -233l-134 21l259 389h107z" />
    <glyph glyph-name="underscore" unicode="_" horiz-adv-x="500" 
d="M-29 -164l16 90h500l-16 -90h-500z" />
    <glyph glyph-name="asciitilde" unicode="~" horiz-adv-x="624" 
d="M467 215c-95 0 -147 71 -203 71c-37 0 -74 -31 -113 -70l-81 81c55 62 117 122 197 122c84 0 135 -75 206 -75c36 0 70 23 110 70l82 -80c-53 -75 -121 -119 -198 -119z" />
    <glyph glyph-name="uni00A0" unicode="&#xa0;" horiz-adv-x="216" 
 />
    <glyph glyph-name="zero" unicode="0" 
d="M380 657c128 0 199 -79 199 -224c0 -34 -2 -69 -9 -112c-38 -246 -146 -330 -303 -330c-129 0 -198 79 -198 223c0 36 1 78 9 124c41 232 161 319 302 319zM288 123c48 0 88 31 115 195c7 45 10 82 10 110c0 66 -21 93 -53 93c-48 0 -87 -37 -115 -197
c-7 -42 -9 -80 -9 -107c0 -65 17 -94 52 -94z" />
    <glyph glyph-name="one" unicode="1" horiz-adv-x="491" 
d="M104 126h109l59 336l-115 -54l-41 110l227 126h140l-34 -123l-69 -395h106l-23 -126h-382z" />
    <glyph glyph-name="two" unicode="2" horiz-adv-x="520" 
d="M190 437l-72 111c76 64 166 109 258 109c119 0 182 -70 182 -161c0 -85 -36 -151 -122 -228l-148 -133h229l-25 -135h-466l18 101l252 230c55 50 79 82 79 127c0 32 -24 48 -50 48c-43 0 -85 -29 -135 -69z" />
    <glyph glyph-name="three" unicode="3" horiz-adv-x="516" 
d="M182 455l-60 105c40 32 149 97 265 97c118 0 169 -63 169 -138c0 -65 -33 -119 -106 -163c29 -39 61 -93 61 -157c0 -106 -72 -211 -254 -211c-90 0 -176 29 -222 56l67 127c42 -25 113 -44 153 -44c47 0 87 21 87 68c0 25 -11 49 -27 76c-32 -10 -71 -20 -115 -27
l-22 117c109 23 201 50 201 112c0 29 -21 40 -46 40c-37 0 -90 -23 -151 -58z" />
    <glyph glyph-name="four" unicode="4" horiz-adv-x="556" 
d="M430 430h96l-28 -159h82l-23 -132h-83l-24 -139h-168l24 139h-246l24 138l262 387l132 -72l-224 -321h82z" />
    <glyph glyph-name="five" unicode="5" horiz-adv-x="523" 
d="M127 291l106 353h349l-25 -137h-216l-34 -114c111 -10 202 -59 202 -181c0 -109 -68 -222 -269 -222c-80 0 -172 28 -213 57l69 127c38 -22 100 -46 148 -46c59 0 90 29 90 77c0 78 -125 85 -207 86z" />
    <glyph glyph-name="six" unicode="6" horiz-adv-x="534" 
d="M505 675l15 -129c-107 -13 -216 -59 -253 -166c32 20 87 37 130 37c90 0 142 -61 142 -154c0 -157 -87 -273 -260 -273c-137 0 -200 87 -200 219c0 7 1 14 1 21c8 165 77 411 425 445zM374 238c0 42 -17 65 -47 65c-22 0 -58 -12 -78 -24c-3 -25 -6 -51 -6 -86
c0 -48 13 -76 49 -76c42 0 82 40 82 121z" />
    <glyph glyph-name="seven" unicode="7" horiz-adv-x="492" 
d="M110 507l25 137h456l-20 -110c-228 -161 -272 -383 -286 -472l-10 -62h-176l12 70c21 115 59 295 238 437h-239z" />
    <glyph glyph-name="eight" unicode="8" horiz-adv-x="538" 
d="M63 141c0 98 73 156 137 198c-31 26 -63 68 -63 122c0 108 89 196 244 196c135 0 184 -67 184 -137c0 -72 -50 -131 -112 -172c51 -40 82 -87 82 -145c0 -115 -81 -213 -271 -213c-153 0 -201 79 -201 151zM358 184c0 39 -30 64 -61 88c-37 -29 -75 -61 -75 -108
c0 -29 16 -55 60 -55c47 0 76 34 76 75zM366 547c-37 0 -66 -23 -66 -62c0 -30 23 -54 51 -74c37 26 64 57 64 93c0 32 -25 43 -49 43z" />
    <glyph glyph-name="nine" unicode="9" 
d="M142 -16l-12 125c114 14 204 56 239 152c-29 -17 -73 -30 -117 -30c-97 0 -147 63 -147 157c0 159 97 269 263 269c137 0 196 -90 196 -211c0 -258 -135 -434 -422 -462zM270 408c0 -40 17 -64 49 -64c20 0 54 10 74 24c5 24 9 50 9 88c0 47 -14 74 -51 74
c-42 0 -81 -40 -81 -122z" />
    <glyph glyph-name="dollar" unicode="$" 
d="M35 69l76 129c38 -27 115 -61 169 -61c40 0 76 15 76 59c0 43 -53 58 -109 80c-64 24 -127 63 -127 166c0 119 78 189 196 205l16 100h155l-18 -113c54 -18 99 -50 128 -83l-97 -101c-44 37 -92 65 -139 65c-38 0 -66 -15 -66 -49c0 -47 40 -56 108 -87
c64 -28 132 -67 132 -165c0 -108 -71 -183 -179 -209l-18 -103h-155l17 100c-76 13 -138 44 -165 67z" />
    <glyph glyph-name="Euro" unicode="&#x20ac;" 
d="M74 263l22 124h104c-23 13 -38 48 -38 83c0 128 110 187 247 187c67 0 159 -31 208 -84l-92 -101c-38 35 -77 50 -121 50c-48 0 -92 -20 -92 -73c0 -28 17 -62 75 -62h129l-22 -124h-126c-51 0 -105 -18 -105 -78c0 -39 28 -69 81 -69c46 0 94 13 156 51l47 -112
c-85 -55 -156 -72 -246 -72c-147 0 -205 64 -205 144c0 65 32 102 82 136h-104z" />
    <glyph glyph-name="cent" unicode="&#xa2;" 
d="M357 180c34 0 63 20 96 50l80 -98c-44 -44 -91 -67 -143 -77l-20 -115h-155l21 121c-76 27 -119 96 -119 200c0 188 99 282 208 309l21 115h155l-21 -120c39 -17 77 -49 100 -99l-109 -72c-18 32 -39 57 -75 57c-72 0 -113 -77 -113 -173c0 -64 20 -98 74 -98z" />
    <glyph glyph-name="sterling" unicode="&#xa3;" horiz-adv-x="578" 
d="M61 128l20 112h87l84 218c59 154 119 199 248 199c98 0 159 -59 182 -89l-96 -90c-23 26 -50 50 -87 50c-48 0 -69 -26 -95 -93l-75 -195h138l-19 -111h-160l-19 -47c-22 -53 -54 -96 -103 -130l1 -3c34 11 66 17 90 17c63 0 110 -20 170 -20c26 0 54 3 84 14l-40 -135
c-27 -4 -53 -7 -76 -7c-96 0 -182 35 -280 35c-47 0 -106 -14 -153 -35l22 130c48 17 86 44 114 110l30 70h-67z" />
    <glyph glyph-name="yen" unicode="&#xa5;" horiz-adv-x="573" 
d="M217 125h-134l17 98h135l11 62h-135l18 98h81l-82 261h166l58 -233h4l146 233h172l-182 -261h79l-17 -98h-137l-11 -62h137l-18 -98h-136l-22 -125h-171z" />
    <glyph glyph-name="florin" unicode="&#x192;" horiz-adv-x="587" 
d="M112 258l44 131h117l26 82c34 105 77 186 227 186c64 0 130 -25 165 -49l-65 -97c-18 11 -49 21 -77 21c-37 0 -67 -17 -86 -71l-25 -72h139l-46 -131h-138l-88 -270c-40 -123 -91 -198 -230 -198c-74 0 -131 19 -164 43l60 107c19 -13 54 -25 83 -25c40 0 66 16 82 66
l90 277h-114z" />
    <glyph glyph-name="section" unicode="&#xa7;" horiz-adv-x="563" 
d="M538 96l-128 -35c12 -22 19 -47 19 -77c0 -113 -77 -187 -202 -187c-50 0 -108 14 -134 27l38 105c24 -9 52 -16 78 -16c47 0 73 18 73 50c0 76 -184 125 -184 321c0 25 3 53 10 84l128 34c-12 22 -19 47 -19 78c0 113 77 187 208 187c44 0 102 -14 128 -27l-38 -105
c-24 9 -52 16 -78 16c-47 0 -73 -18 -73 -50c0 -76 184 -125 184 -321c0 -25 -3 -53 -10 -84zM231 344c0 -152 128 -190 178 -282c4 21 6 40 6 58c0 152 -129 190 -179 281c-4 -20 -5 -40 -5 -57z" />
    <glyph glyph-name="copyright" unicode="&#xa9;" horiz-adv-x="815" 
d="M622 456l-72 -57c-15 19 -47 47 -84 47c-49 0 -79 -46 -79 -117c0 -76 34 -119 83 -119c43 0 67 18 95 42l52 -66c-32 -34 -84 -66 -148 -66c-147 0 -191 117 -191 206c0 137 79 212 191 212c72 0 130 -42 153 -82zM820 332c0 -206 -150 -352 -362 -352
c-219 0 -353 146 -353 346c0 201 146 350 353 350c213 0 362 -149 362 -344zM736 326c0 163 -117 278 -277 278c-164 0 -269 -115 -269 -278c0 -162 111 -274 269 -274c162 0 277 108 277 274z" />
    <glyph glyph-name="registered" unicode="&#xae;" horiz-adv-x="463" 
d="M367 459l36 -81h-55l-31 70c-4 9 -8 14 -16 14h-9v-84h-50v211h76c43 0 70 -18 70 -57c0 -31 -15 -49 -34 -58c7 -3 11 -10 13 -15zM292 500h6c23 0 36 6 36 28c0 21 -15 23 -36 23h-6v-51zM513 483c0 -115 -84 -197 -204 -197c-123 0 -199 82 -199 195
c0 112 82 196 199 196c120 0 204 -84 204 -194zM456 481c0 84 -63 145 -147 145c-86 0 -142 -61 -142 -145c0 -86 60 -146 142 -146c85 0 147 58 147 146z" />
    <glyph glyph-name="trademark" unicode="&#x2122;" horiz-adv-x="702" 
d="M104 665h279v-87h-91v-249h-101v249h-87v87zM645 665h102l18 -336h-90l-7 169h-4l-44 -140h-73l-45 140h-3l-10 -169h-88l20 336h103l60 -197h3z" />
    <glyph glyph-name="ordfeminine" unicode="&#xaa;" horiz-adv-x="429" 
d="M478 585l-43 -246l-5 -73h-104l2 38h-5c-20 -23 -49 -48 -97 -48c-83 0 -111 58 -111 128c0 130 81 227 214 227c40 0 97 -6 149 -26zM319 373l27 150c-7 3 -17 4 -29 4c-62 0 -79 -90 -79 -132c0 -33 10 -55 37 -55c25 0 42 16 44 33z" />
    <glyph glyph-name="ordmasculine" unicode="&#xba;" horiz-adv-x="413" 
d="M269 342c32 0 50 22 62 87c3 19 5 34 5 47c0 32 -11 50 -35 50c-32 0 -51 -28 -60 -78c-4 -20 -5 -42 -5 -58c0 -29 8 -48 33 -48zM114 443c22 139 132 168 201 168c59 0 145 -30 145 -137c0 -14 -2 -30 -5 -47c-21 -122 -106 -171 -202 -171c-86 0 -142 52 -142 138
c0 14 0 33 3 49z" />
    <glyph glyph-name="guillemotleft" unicode="&#xab;" horiz-adv-x="594" 
d="M391 403l-145 -148l79 -155l-69 -52c-49 40 -137 132 -157 183c-5 9 -6 19 -6 27c0 28 19 47 45 67c52 43 124 96 198 145zM638 403l-145 -148l79 -155l-69 -52c-49 40 -137 132 -157 183c-5 9 -6 19 -6 27c0 28 19 47 45 67c52 43 124 96 198 145z" />
    <glyph glyph-name="guillemotright" unicode="&#xbb;" horiz-adv-x="595" 
d="M195 267l-87 145l69 58c58 -49 110 -102 148 -145c14 -15 24 -32 24 -50c0 -13 -6 -29 -18 -44c-39 -51 -159 -143 -222 -183l-55 62zM442 267l-87 145l69 58c58 -49 110 -102 148 -145c14 -15 24 -32 24 -50c0 -13 -6 -29 -18 -44c-39 -51 -159 -143 -222 -183l-55 62z
" />
    <glyph glyph-name="guilsinglleft" unicode="&#x2039;" horiz-adv-x="347" 
d="M391 403l-145 -148l79 -155l-69 -52c-49 40 -137 132 -157 183c-5 9 -6 19 -6 27c0 28 19 47 45 67c52 43 124 96 198 145z" />
    <glyph glyph-name="guilsinglright" unicode="&#x203a;" horiz-adv-x="347" 
d="M194 267l-87 145l69 58c58 -49 110 -102 148 -145c14 -15 24 -32 24 -50c0 -13 -6 -29 -18 -44c-39 -51 -159 -143 -222 -183l-55 62z" />
    <glyph glyph-name="quoteleft" unicode="&#x2018;" horiz-adv-x="245" 
d="M256 459c-16 -2 -34 -4 -52 -4c-36 1 -78 12 -78 54c0 59 93 171 147 230l80 -31z" />
    <glyph glyph-name="quoteright" unicode="&#x2019;" horiz-adv-x="245" 
d="M206 726c12 3 41 5 59 5c40 -1 75 -11 75 -51c0 -57 -93 -176 -141 -233l-81 27z" />
    <glyph glyph-name="quotesinglbase" unicode="&#x201a;" horiz-adv-x="232" 
d="M226 72l-151 -236l-82 28c38 126 58 178 71 207c13 32 34 51 70 51c39 0 78 -33 92 -50z" />
    <glyph glyph-name="quotedblleft" unicode="&#x201c;" horiz-adv-x="450" 
d="M252 459c-16 -2 -34 -4 -52 -4c-36 1 -78 12 -78 54c0 59 93 171 147 230l80 -31zM452 459c-16 -2 -34 -4 -52 -4c-36 1 -78 12 -78 54c0 59 93 171 147 230l80 -31z" />
    <glyph glyph-name="quotedblright" unicode="&#x201d;" horiz-adv-x="453" 
d="M206 726c12 3 41 5 59 5c40 -1 75 -11 75 -51c0 -57 -93 -176 -141 -233l-81 27zM406 726c12 3 41 5 59 5c40 -1 75 -11 75 -51c0 -57 -93 -176 -141 -233l-81 27z" />
    <glyph glyph-name="quotedblbase" unicode="&#x201e;" horiz-adv-x="428" 
d="M226 72l-151 -236l-82 28c38 126 58 178 71 207c13 32 34 51 70 51c39 0 78 -33 92 -50zM426 72l-151 -236l-82 28c38 126 58 178 71 207c13 32 34 51 70 51c39 0 78 -33 92 -50z" />
    <glyph glyph-name="dagger" unicode="&#x2020;" horiz-adv-x="486" 
d="M321 444c-47 -29 -70 -62 -80 -119l-63 -357c-9 -51 4 -109 34 -139c36 24 71 66 80 119l64 364c7 42 3 98 -35 132zM328 486c-22 21 -40 67 -40 103c0 41 18 85 70 85c35 0 52 -23 52 -55c0 -54 -38 -100 -82 -133zM344 465c47 37 97 56 133 56c34 0 58 -16 58 -55
c0 -43 -32 -61 -73 -61c-44 0 -102 31 -118 60zM304 465c-36 -40 -92 -60 -123 -60c-40 0 -66 19 -66 52c0 42 32 64 79 64c34 0 81 -16 110 -56z" />
    <glyph glyph-name="daggerdbl" unicode="&#x2021;" horiz-adv-x="486" 
d="M244 2c22 -21 40 -67 40 -103c0 -41 -18 -85 -70 -85c-35 0 -52 23 -52 55c0 54 38 100 82 133zM228 23c-47 -37 -97 -56 -133 -56c-34 0 -58 16 -58 55c0 43 32 61 73 61c44 0 102 -31 118 -60zM268 23c36 40 92 60 123 60c40 0 66 -19 66 -52c0 -42 -32 -64 -79 -64
c-34 0 -81 16 -110 56zM321 444c-47 -29 -70 -62 -80 -119l-25 -142c-9 -51 4 -109 34 -139c36 24 71 66 80 119l26 149c7 42 3 98 -35 132zM328 486c-22 21 -40 67 -40 103c0 41 18 85 70 85c35 0 52 -23 52 -55c0 -54 -38 -100 -82 -133zM344 465c47 37 97 56 133 56
c34 0 58 -16 58 -55c0 -43 -32 -61 -73 -61c-44 0 -102 31 -118 60zM304 465c-36 -40 -92 -60 -123 -60c-40 0 -66 19 -66 52c0 42 32 64 79 64c34 0 81 -16 110 -56z" />
    <glyph glyph-name="bullet" unicode="&#x2022;" horiz-adv-x="500" 
d="M174 290c0 94 71 161 155 161c65 0 108 -45 108 -113c0 -95 -71 -161 -154 -161c-67 0 -109 45 -109 113z" />
    <glyph glyph-name="ellipsis" unicode="&#x2026;" horiz-adv-x="797" 
d="M327 48c0 51 38 94 97 94c47 0 71 -26 71 -64c0 -50 -35 -95 -96 -95c-50 0 -72 28 -72 65zM608 48c0 51 38 94 97 94c47 0 71 -26 71 -64c0 -50 -35 -95 -96 -95c-50 0 -72 28 -72 65zM43 48c0 51 38 94 97 94c47 0 71 -26 71 -64c0 -50 -35 -95 -96 -95
c-50 0 -72 28 -72 65z" />
    <glyph glyph-name="paragraph" unicode="&#xb6;" horiz-adv-x="565" 
d="M362 76l84 472h-69l-59 -337c-114 1 -210 52 -210 180c0 219 154 274 350 274h168l-99 -567c-30 -172 -70 -270 -328 -306l-19 138c138 23 168 62 182 146z" />
    <glyph glyph-name="periodcentered" unicode="&#xb7;" horiz-adv-x="315" 
d="M127 293c0 51 38 93 97 93c48 0 72 -26 72 -64c0 -50 -35 -94 -97 -94c-49 0 -72 27 -72 65z" />
    <glyph glyph-name="uni00AD" unicode="&#xad;" horiz-adv-x="322" 
d="M73 222l22 124h254l-22 -124h-254z" />
    <glyph glyph-name="endash" unicode="&#x2013;" horiz-adv-x="500" 
d="M39 222l19 107h500l-19 -107h-500z" />
    <glyph glyph-name="emdash" unicode="&#x2014;" horiz-adv-x="1000" 
d="M39 222l19 107h1000l-19 -107h-1000z" />
    <glyph glyph-name="hyphen.case" horiz-adv-x="322" 
d="M75 257l21 123h262l-21 -123h-262z" />
    <glyph glyph-name="Agrave" unicode="&#xc0;" horiz-adv-x="647" 
d="M182 0h-179l332 665h199l109 -665h-171l-20 142h-199zM410 505l-109 -237h140l-25 237h-6zM407 909l156 -163l-42 -46c-37 18 -102 48 -144 75c-27 17 -38 33 -38 52c0 36 33 61 68 82z" />
    <glyph glyph-name="Aacute" unicode="&#xc1;" horiz-adv-x="647" 
d="M182 0h-179l332 665h199l109 -665h-171l-20 142h-199zM410 505l-109 -237h140l-25 237h-6zM337 749l184 156c29 -18 55 -46 55 -74c0 -26 -14 -42 -53 -62c-52 -28 -108 -49 -156 -68z" />
    <glyph glyph-name="Acircumflex" unicode="&#xc2;" horiz-adv-x="647" 
d="M182 0h-179l332 665h199l109 -665h-171l-20 142h-199zM410 505l-109 -237h140l-25 237h-6zM326 700l-49 46c39 39 88 84 127 117c26 22 41 33 67 33c19 0 34 -13 53 -33c30 -31 66 -82 90 -117l-53 -45l-104 86z" />
    <glyph glyph-name="Atilde" unicode="&#xc3;" horiz-adv-x="647" 
d="M182 0h-179l332 665h199l109 -665h-171l-20 142h-199zM410 505l-109 -237h140l-25 237h-6zM303 726l4 92c33 22 65 31 92 31c55 0 89 -26 137 -26c22 0 46 7 68 18l-7 -98c-24 -12 -44 -19 -74 -19c-45 0 -98 23 -139 23c-28 0 -52 -6 -81 -21z" />
    <glyph glyph-name="Adieresis" unicode="&#xc4;" horiz-adv-x="647" 
d="M182 0h-179l332 665h199l109 -665h-171l-20 142h-199zM410 505l-109 -237h140l-25 237h-6zM475 773c0 45 38 83 91 83c41 0 65 -26 65 -61c0 -45 -39 -83 -91 -83c-41 0 -65 26 -65 61zM257 773c0 45 38 83 91 83c41 0 65 -26 65 -61c0 -45 -39 -83 -91 -83
c-41 0 -65 26 -65 61z" />
    <glyph glyph-name="Aring" unicode="&#xc5;" horiz-adv-x="647" 
d="M337 664v11c0 70 46 118 116 118c60 0 86 -37 86 -80c0 -18 -3 -35 -9 -49l113 -664h-171l-20 142h-200l-71 -142h-178zM410 505l-110 -237h141l-25 237h-6zM443 731c-24 0 -38 -18 -38 -45c0 -17 11 -29 29 -29c23 0 37 22 37 45c0 18 -9 29 -28 29z" />
    <glyph glyph-name="AE" unicode="&#xc6;" horiz-adv-x="836" 
d="M464 0l-21 159h-191l-78 -159h-172l324 665h590l-26 -150h-317l17 -102h245l-27 -148h-206l19 -115h211l-26 -150h-342zM401 499l-102 -214h131l-25 214h-4z" />
    <glyph glyph-name="Ccedilla" unicode="&#xc7;" horiz-adv-x="593" 
d="M374 128c51 0 101 27 152 66l67 -111c-75 -59 -145 -88 -225 -94l-22 -47c51 -4 85 -33 85 -82c0 -89 -85 -109 -147 -109c-43 0 -80 10 -101 20l31 67c13 -5 42 -14 68 -14c30 0 53 9 53 33c0 27 -40 32 -86 31l50 102c-135 15 -215 111 -215 268c0 314 190 418 357 418
c111 0 185 -59 231 -146l-124 -77c-30 54 -67 81 -119 81c-94 0 -166 -95 -166 -254c0 -94 34 -152 111 -152z" />
    <glyph glyph-name="Egrave" unicode="&#xc8;" horiz-adv-x="528" 
d="M56 0l117 665h435l-27 -150h-262l-18 -102h225l-26 -148h-225l-21 -115h270l-26 -150h-442zM349 909l156 -163l-42 -46c-37 18 -102 48 -144 75c-27 17 -38 33 -38 52c0 36 33 61 68 82z" />
    <glyph glyph-name="Eacute" unicode="&#xc9;" horiz-adv-x="528" 
d="M56 0l117 665h435l-27 -150h-262l-18 -102h225l-26 -148h-225l-21 -115h270l-26 -150h-442zM298 749l184 156c29 -18 55 -46 55 -74c0 -26 -14 -42 -53 -62c-52 -28 -108 -49 -156 -68z" />
    <glyph glyph-name="Ecircumflex" unicode="&#xca;" horiz-adv-x="528" 
d="M56 0l117 665h435l-27 -150h-262l-18 -102h225l-26 -148h-225l-21 -115h270l-26 -150h-442zM283 700l-49 46c39 39 88 84 127 117c26 22 41 33 67 33c19 0 34 -13 53 -33c30 -31 66 -82 90 -117l-53 -45l-104 86z" />
    <glyph glyph-name="Edieresis" unicode="&#xcb;" horiz-adv-x="528" 
d="M56 0l117 665h435l-27 -150h-262l-18 -102h225l-26 -148h-225l-21 -115h270l-26 -150h-442zM430 773c0 45 38 83 91 83c41 0 65 -26 65 -61c0 -45 -39 -83 -91 -83c-41 0 -65 26 -65 61zM212 773c0 45 38 83 91 83c41 0 65 -26 65 -61c0 -45 -39 -83 -91 -83
c-41 0 -65 26 -65 61z" />
    <glyph glyph-name="Igrave" unicode="&#xcc;" horiz-adv-x="292" 
d="M232 0h-172l117 665h172zM227 909l156 -163l-42 -46c-37 18 -102 48 -144 75c-27 17 -38 33 -38 52c0 36 33 61 68 82z" />
    <glyph glyph-name="Iacute" unicode="&#xcd;" horiz-adv-x="292" 
d="M232 0h-172l117 665h172zM166 749l184 156c29 -18 55 -46 55 -74c0 -26 -14 -42 -53 -62c-52 -28 -108 -49 -156 -68z" />
    <glyph glyph-name="Icircumflex" unicode="&#xce;" horiz-adv-x="292" 
d="M232 0h-172l117 665h172zM158 700l-49 46c39 39 88 84 127 117c26 22 41 33 67 33c19 0 34 -13 53 -33c30 -31 66 -82 90 -117l-53 -45l-104 86z" />
    <glyph glyph-name="Idieresis" unicode="&#xcf;" horiz-adv-x="292" 
d="M232 0h-172l117 665h172zM309 773c0 45 38 83 91 83c41 0 65 -26 65 -61c0 -45 -39 -83 -91 -83c-41 0 -65 26 -65 61zM91 773c0 45 38 83 91 83c41 0 65 -26 65 -61c0 -45 -39 -83 -91 -83c-41 0 -65 26 -65 61z" />
    <glyph glyph-name="Eth" unicode="&#xd0;" horiz-adv-x="657" 
d="M67 0l48 274h-55l19 115h56l49 276h233c173 0 276 -89 276 -256c0 -296 -179 -409 -389 -409h-237zM333 531l-26 -142h118l-19 -115h-119l-25 -141h67c115 0 188 100 188 258c0 109 -58 140 -128 140h-56z" />
    <glyph glyph-name="Ntilde" unicode="&#xd1;" horiz-adv-x="663" 
d="M554 665h170l-117 -665h-152l-161 370h-4l-65 -370h-169l117 665h158l155 -362h4zM323 726l4 92c33 22 65 31 92 31c55 0 89 -26 137 -26c22 0 46 7 68 18l-7 -98c-24 -12 -44 -19 -74 -19c-45 0 -98 23 -139 23c-28 0 -52 -6 -81 -21z" />
    <glyph glyph-name="Ograve" unicode="&#xd2;" horiz-adv-x="666" 
d="M692 319c-39 -231 -179 -331 -365 -331c-157 0 -244 96 -244 257c0 30 2 67 8 103c45 256 217 329 366 329c131 0 242 -79 242 -257c0 -30 -1 -64 -7 -101zM270 344c-5 -26 -8 -56 -8 -83c0 -68 21 -131 97 -131c92 0 138 91 155 192c4 23 6 52 6 78
c0 67 -20 134 -93 134c-90 0 -139 -91 -157 -190zM417 909l156 -163l-42 -46c-37 18 -102 48 -144 75c-27 17 -38 33 -38 52c0 36 33 61 68 82z" />
    <glyph glyph-name="Oacute" unicode="&#xd3;" horiz-adv-x="666" 
d="M692 319c-39 -231 -179 -331 -365 -331c-157 0 -244 96 -244 257c0 30 2 67 8 103c45 256 217 329 366 329c131 0 242 -79 242 -257c0 -30 -1 -64 -7 -101zM270 344c-5 -26 -8 -56 -8 -83c0 -68 21 -131 97 -131c92 0 138 91 155 192c4 23 6 52 6 78
c0 67 -20 134 -93 134c-90 0 -139 -91 -157 -190zM357 749l184 156c29 -18 55 -46 55 -74c0 -26 -14 -42 -53 -62c-52 -28 -108 -49 -156 -68z" />
    <glyph glyph-name="Ocircumflex" unicode="&#xd4;" horiz-adv-x="666" 
d="M692 319c-39 -231 -179 -331 -365 -331c-157 0 -244 96 -244 257c0 30 2 67 8 103c45 256 217 329 366 329c131 0 242 -79 242 -257c0 -30 -1 -64 -7 -101zM270 344c-5 -26 -8 -56 -8 -83c0 -68 21 -131 97 -131c92 0 138 91 155 192c4 23 6 52 6 78
c0 67 -20 134 -93 134c-90 0 -139 -91 -157 -190zM348 700l-49 46c39 39 88 84 127 117c26 22 41 33 67 33c19 0 34 -13 53 -33c30 -31 66 -82 90 -117l-53 -45l-104 86z" />
    <glyph glyph-name="Otilde" unicode="&#xd5;" horiz-adv-x="666" 
d="M692 319c-39 -231 -179 -331 -365 -331c-157 0 -244 96 -244 257c0 30 2 67 8 103c45 256 217 329 366 329c131 0 242 -79 242 -257c0 -30 -1 -64 -7 -101zM270 344c-5 -26 -8 -56 -8 -83c0 -68 21 -131 97 -131c92 0 138 91 155 192c4 23 6 52 6 78
c0 67 -20 134 -93 134c-90 0 -139 -91 -157 -190zM320 726l4 92c33 22 65 31 92 31c55 0 89 -26 137 -26c22 0 46 7 68 18l-7 -98c-24 -12 -44 -19 -74 -19c-45 0 -98 23 -139 23c-28 0 -52 -6 -81 -21z" />
    <glyph glyph-name="Odieresis" unicode="&#xd6;" horiz-adv-x="666" 
d="M692 319c-39 -231 -179 -331 -365 -331c-157 0 -244 96 -244 257c0 30 2 67 8 103c45 256 217 329 366 329c131 0 242 -79 242 -257c0 -30 -1 -64 -7 -101zM270 344c-5 -26 -8 -56 -8 -83c0 -68 21 -131 97 -131c92 0 138 91 155 192c4 23 6 52 6 78
c0 67 -20 134 -93 134c-90 0 -139 -91 -157 -190zM496 773c0 45 38 83 91 83c41 0 65 -26 65 -61c0 -45 -39 -83 -91 -83c-41 0 -65 26 -65 61zM278 773c0 45 38 83 91 83c41 0 65 -26 65 -61c0 -45 -39 -83 -91 -83c-41 0 -65 26 -65 61z" />
    <glyph glyph-name="Oslash" unicode="&#xd8;" horiz-adv-x="666" 
d="M692 319c-39 -231 -179 -331 -365 -331c-16 0 -32 1 -46 3l-58 -106l-127 61l55 105c-45 44 -68 110 -68 194c0 30 2 67 8 103c45 256 217 329 366 329c16 0 31 -1 46 -4v1l56 100l128 -60l-57 -102c42 -42 69 -105 69 -192c0 -30 -1 -64 -7 -101zM270 344
c-5 -26 -8 -56 -8 -83c0 -68 21 -131 97 -131c92 0 138 91 155 192c4 23 6 52 6 78c0 67 -20 134 -93 134c-90 0 -139 -91 -157 -190z" />
    <glyph glyph-name="Ugrave" unicode="&#xd9;" horiz-adv-x="629" 
d="M168 665h171l-77 -436c-2 -10 -3 -19 -3 -28c0 -42 22 -70 81 -70c60 0 95 29 106 93l78 441h171l-81 -460c-26 -145 -120 -219 -287 -219c-164 0 -241 61 -241 180c0 18 2 38 6 59zM388 909l156 -163l-42 -46c-37 18 -102 48 -144 75c-27 17 -38 33 -38 52
c0 36 33 61 68 82z" />
    <glyph glyph-name="Uacute" unicode="&#xda;" horiz-adv-x="629" 
d="M168 665h171l-77 -436c-2 -10 -3 -19 -3 -28c0 -42 22 -70 81 -70c60 0 95 29 106 93l78 441h171l-81 -460c-26 -145 -120 -219 -287 -219c-164 0 -241 61 -241 180c0 18 2 38 6 59zM336 749l184 156c29 -18 55 -46 55 -74c0 -26 -14 -42 -53 -62
c-52 -28 -108 -49 -156 -68z" />
    <glyph glyph-name="Ucircumflex" unicode="&#xdb;" horiz-adv-x="629" 
d="M168 665h171l-77 -436c-2 -10 -3 -19 -3 -28c0 -42 22 -70 81 -70c60 0 95 29 106 93l78 441h171l-81 -460c-26 -145 -120 -219 -287 -219c-164 0 -241 61 -241 180c0 18 2 38 6 59zM329 700l-49 46c39 39 88 84 127 117c26 22 41 33 67 33c19 0 34 -13 53 -33
c30 -31 66 -82 90 -117l-53 -45l-104 86z" />
    <glyph glyph-name="Udieresis" unicode="&#xdc;" horiz-adv-x="629" 
d="M168 665h171l-77 -436c-2 -10 -3 -19 -3 -28c0 -42 22 -70 81 -70c60 0 95 29 106 93l78 441h171l-81 -460c-26 -145 -120 -219 -287 -219c-164 0 -241 61 -241 180c0 18 2 38 6 59zM477 773c0 45 38 83 91 83c41 0 65 -26 65 -61c0 -45 -39 -83 -91 -83
c-41 0 -65 26 -65 61zM259 773c0 45 38 83 91 83c41 0 65 -26 65 -61c0 -45 -39 -83 -91 -83c-41 0 -65 26 -65 61z" />
    <glyph glyph-name="Yacute" unicode="&#xdd;" horiz-adv-x="594" 
d="M530 665h189l-294 -409l-44 -256h-172l45 255l-142 410h177l72 -249h3zM324 749l184 156c29 -18 55 -46 55 -74c0 -26 -14 -42 -53 -62c-52 -28 -108 -49 -156 -68z" />
    <glyph glyph-name="Thorn" unicode="&#xde;" horiz-adv-x="573" 
d="M249 121l-21 -121h-172l117 665h172l-17 -100h73c138 0 217 -67 217 -182c0 -179 -131 -262 -311 -262h-58zM273 255h39c78 0 126 24 126 109c0 51 -32 67 -79 67h-55z" />
    <glyph glyph-name="germandbls" unicode="&#xdf;" horiz-adv-x="612" 
d="M412 -16c-58 0 -118 16 -147 32l51 114c28 -14 60 -24 87 -24c35 0 56 15 56 48c0 59 -122 61 -122 165c1 121 163 164 163 243c0 36 -36 51 -79 51c-68 0 -101 -42 -110 -95l-128 -728h-167l130 734c18 100 67 212 289 212c149 0 225 -66 225 -148
c0 -131 -162 -162 -162 -228c0 -58 129 -75 129 -189c0 -121 -87 -187 -215 -187z" />
    <glyph glyph-name="agrave" unicode="&#xe0;" horiz-adv-x="543" 
d="M577 487l-67 -379l-7 -108h-141v47l-5 1c-35 -41 -80 -63 -140 -63c-107 0 -155 79 -155 187c0 205 114 355 323 355c42 0 117 -10 192 -40zM356 161l42 241c-11 5 -27 8 -45 8c-91 0 -124 -137 -124 -219c0 -48 11 -87 59 -87c34 0 58 22 68 57zM371 806l104 -206
l-53 -36c-29 25 -83 73 -116 111c-15 20 -23 37 -23 52c0 48 52 68 88 79z" />
    <glyph glyph-name="aacute" unicode="&#xe1;" horiz-adv-x="543" 
d="M577 487l-67 -379l-7 -108h-141v47l-5 1c-35 -41 -80 -63 -140 -63c-107 0 -155 79 -155 187c0 205 114 355 323 355c42 0 117 -10 192 -40zM356 161l42 241c-11 5 -27 8 -45 8c-91 0 -124 -137 -124 -219c0 -48 11 -87 59 -87c34 0 58 22 68 57zM305 604l148 195
c30 -9 78 -29 78 -70c0 -20 -11 -36 -44 -63c-43 -36 -105 -77 -143 -102z" />
    <glyph glyph-name="acircumflex" unicode="&#xe2;" horiz-adv-x="543" 
d="M577 487l-67 -379l-7 -108h-141v47l-5 1c-35 -41 -80 -63 -140 -63c-107 0 -155 79 -155 187c0 205 114 355 323 355c42 0 117 -10 192 -40zM356 161l42 241c-11 5 -27 8 -45 8c-91 0 -124 -137 -124 -219c0 -48 11 -87 59 -87c34 0 58 22 68 57zM265 568l-51 43
c35 43 94 106 135 145c32 29 44 39 73 39c31 0 39 -10 60 -39c27 -39 66 -107 86 -145l-55 -42l-107 106z" />
    <glyph glyph-name="atilde" unicode="&#xe3;" horiz-adv-x="543" 
d="M577 487l-67 -379l-7 -108h-141v47l-5 1c-35 -41 -80 -63 -140 -63c-107 0 -155 79 -155 187c0 205 114 355 323 355c42 0 117 -10 192 -40zM356 161l42 241c-11 5 -27 8 -45 8c-91 0 -124 -137 -124 -219c0 -48 11 -87 59 -87c34 0 58 22 68 57zM248 612l5 93
c33 22 65 31 93 31c54 0 88 -27 136 -27c22 0 46 8 68 19l-8 -98c-24 -13 -45 -20 -74 -20c-46 0 -98 24 -139 24c-29 0 -52 -7 -81 -22z" />
    <glyph glyph-name="adieresis" unicode="&#xe4;" horiz-adv-x="543" 
d="M577 487l-67 -379l-7 -108h-141v47l-5 1c-35 -41 -80 -63 -140 -63c-107 0 -155 79 -155 187c0 205 114 355 323 355c42 0 117 -10 192 -40zM356 161l42 241c-11 5 -27 8 -45 8c-91 0 -124 -137 -124 -219c0 -48 11 -87 59 -87c34 0 58 22 68 57zM431 665
c0 45 38 83 91 83c41 0 65 -26 65 -61c0 -45 -39 -83 -91 -83c-41 0 -65 26 -65 61zM213 665c0 45 38 83 91 83c41 0 65 -26 65 -61c0 -45 -39 -83 -91 -83c-41 0 -65 26 -65 61z" />
    <glyph glyph-name="aring" unicode="&#xe5;" horiz-adv-x="543" 
d="M577 487l-67 -379l-7 -108h-141v47l-5 1c-35 -41 -80 -63 -140 -63c-107 0 -155 79 -155 187c0 205 114 355 323 355c42 0 117 -10 192 -40zM356 161l42 241c-11 5 -27 8 -45 8c-91 0 -124 -137 -124 -219c0 -48 11 -87 59 -87c34 0 58 22 68 57zM299 636
c0 66 44 108 114 108c60 0 88 -32 88 -78c0 -66 -44 -109 -110 -109c-59 0 -92 31 -92 79zM405 683c-23 0 -36 -15 -36 -37c0 -17 11 -27 28 -27c22 0 34 16 34 38c0 16 -8 26 -26 26z" />
    <glyph glyph-name="ae" unicode="&#xe6;" horiz-adv-x="748" 
d="M651 527c93 0 151 -43 151 -129c0 -168 -190 -200 -297 -207c-5 -46 23 -83 83 -83c49 0 90 19 126 40l35 -106c-7 -6 -89 -58 -203 -58c-83 0 -138 22 -169 61c-38 -31 -88 -61 -158 -61c-119 0 -158 86 -158 184c0 205 119 359 329 359c39 0 92 -10 135 -29
c37 18 80 29 126 29zM351 410c-85 0 -122 -134 -122 -218c0 -49 15 -88 56 -88c23 0 44 13 57 26c-3 11 -6 35 -6 52c0 81 26 151 74 216c-15 6 -33 12 -59 12zM655 377c0 20 -17 32 -35 32c-62 0 -95 -69 -105 -117c58 3 140 31 140 85z" />
    <glyph glyph-name="ccedilla" unicode="&#xe7;" horiz-adv-x="470" 
d="M317 114c35 0 66 12 111 41l40 -113c-44 -30 -98 -50 -160 -56l-21 -44c51 -4 85 -33 85 -82c0 -89 -85 -109 -147 -109c-43 0 -80 10 -101 20l31 67c13 -5 42 -14 68 -14c30 0 53 9 53 33c0 27 -40 32 -86 31l48 98c-109 12 -172 87 -172 215c0 233 148 326 285 326
c78 0 153 -34 190 -116l-112 -74c-19 33 -40 58 -77 58c-74 0 -116 -78 -116 -177c0 -65 26 -104 81 -104z" />
    <glyph glyph-name="egrave" unicode="&#xe8;" horiz-adv-x="484" 
d="M382 377c0 22 -17 32 -35 32c-59 0 -92 -63 -105 -117c58 3 140 31 140 85zM371 527c98 0 158 -45 158 -131c0 -168 -190 -198 -297 -205c-1 -45 23 -83 84 -83c48 0 94 21 130 42l35 -107c-20 -14 -99 -59 -211 -59c-146 0 -206 88 -206 206c0 170 113 337 307 337z
M344 806l104 -206l-53 -36c-29 25 -83 73 -116 111c-15 20 -23 37 -23 52c0 48 52 68 88 79z" />
    <glyph glyph-name="eacute" unicode="&#xe9;" horiz-adv-x="484" 
d="M382 377c0 22 -17 32 -35 32c-59 0 -92 -63 -105 -117c58 3 140 31 140 85zM371 527c98 0 158 -45 158 -131c0 -168 -190 -198 -297 -205c-1 -45 23 -83 84 -83c48 0 94 21 130 42l35 -107c-20 -14 -99 -59 -211 -59c-146 0 -206 88 -206 206c0 170 113 337 307 337z
M273 604l148 195c30 -9 78 -29 78 -70c0 -20 -11 -36 -44 -63c-43 -36 -105 -77 -143 -102z" />
    <glyph glyph-name="ecircumflex" unicode="&#xea;" horiz-adv-x="484" 
d="M382 377c0 22 -17 32 -35 32c-59 0 -92 -63 -105 -117c58 3 140 31 140 85zM371 527c98 0 158 -45 158 -131c0 -168 -190 -198 -297 -205c-1 -45 23 -83 84 -83c48 0 94 21 130 42l35 -107c-20 -14 -99 -59 -211 -59c-146 0 -206 88 -206 206c0 170 113 337 307 337z
M245 568l-51 43c35 43 94 106 135 145c32 29 44 39 73 39c31 0 39 -10 60 -39c27 -39 66 -107 86 -145l-55 -42l-107 106z" />
    <glyph glyph-name="edieresis" unicode="&#xeb;" horiz-adv-x="484" 
d="M382 377c0 22 -17 32 -35 32c-59 0 -92 -63 -105 -117c58 3 140 31 140 85zM371 527c98 0 158 -45 158 -131c0 -168 -190 -198 -297 -205c-1 -45 23 -83 84 -83c48 0 94 21 130 42l35 -107c-20 -14 -99 -59 -211 -59c-146 0 -206 88 -206 206c0 170 113 337 307 337z
M411 665c0 45 38 83 91 83c41 0 65 -26 65 -61c0 -45 -39 -83 -91 -83c-41 0 -65 26 -65 61zM193 665c0 45 38 83 91 83c41 0 65 -26 65 -61c0 -45 -39 -83 -91 -83c-41 0 -65 26 -65 61z" />
    <glyph glyph-name="igrave" unicode="&#xec;" horiz-adv-x="272" 
d="M221 0h-167l90 512h167zM237 806l104 -206l-53 -36c-29 25 -83 73 -116 111c-15 20 -23 37 -23 52c0 48 52 68 88 79z" />
    <glyph glyph-name="iacute" unicode="&#xed;" horiz-adv-x="272" 
d="M221 0h-167l90 512h167zM149 604l148 195c30 -9 78 -29 78 -70c0 -20 -11 -36 -44 -63c-43 -36 -105 -77 -143 -102z" />
    <glyph glyph-name="icircumflex" unicode="&#xee;" horiz-adv-x="272" 
d="M221 0h-167l90 512h167zM119 568l-51 43c35 43 94 106 135 145c32 29 44 39 73 39c31 0 39 -10 60 -39c27 -39 66 -107 86 -145l-55 -42l-107 106z" />
    <glyph glyph-name="idieresis" unicode="&#xef;" horiz-adv-x="272" 
d="M221 0h-167l90 512h167zM287 665c0 45 38 83 91 83c41 0 65 -26 65 -61c0 -45 -39 -83 -91 -83c-41 0 -65 26 -65 61zM69 665c0 45 38 83 91 83c41 0 65 -26 65 -61c0 -45 -39 -83 -91 -83c-41 0 -65 26 -65 61z" />
    <glyph glyph-name="eth" unicode="&#xf0;" horiz-adv-x="538" 
d="M228 594l55 125c68 -8 120 -26 159 -54l101 63l55 -104l-75 -46c30 -56 41 -124 41 -191c0 -39 -4 -87 -10 -123c-31 -172 -124 -279 -296 -279c-138 0 -197 78 -197 180c0 18 2 46 5 66c28 157 128 216 240 216c37 0 80 -14 100 -29c0 104 -70 159 -178 176zM239 216
c-3 -15 -4 -33 -4 -44c0 -40 17 -58 49 -58c73 0 93 128 101 187c-22 13 -42 19 -60 19c-44 0 -74 -32 -86 -104z" />
    <glyph glyph-name="ntilde" unicode="&#xf1;" horiz-adv-x="542" 
d="M219 0h-166l72 409l6 103h138l2 -55c39 43 91 70 158 70c83 0 133 -38 134 -124c0 -16 -2 -36 -5 -55l-62 -348h-167l52 299c3 16 8 39 8 58c0 20 -8 42 -38 42c-43 0 -68 -32 -75 -74zM242 612l5 93c33 22 65 31 93 31c54 0 88 -27 136 -27c22 0 46 8 68 19l-8 -98
c-24 -13 -45 -20 -74 -20c-46 0 -98 24 -139 24c-29 0 -52 -7 -81 -22z" />
    <glyph glyph-name="ograve" unicode="&#xf2;" horiz-adv-x="531" 
d="M280 106c-37 0 -49 36 -49 80c0 26 3 60 9 92c15 83 46 129 93 129c35 0 50 -29 50 -77c0 -22 -2 -51 -8 -83c-17 -98 -46 -141 -95 -141zM67 265c-5 -28 -6 -57 -6 -81c0 -128 70 -200 194 -200c142 0 266 79 297 275c4 27 5 53 5 75c0 166 -125 193 -196 193
c-115 0 -257 -52 -294 -262zM359 806l104 -206l-53 -36c-29 25 -83 73 -116 111c-15 20 -23 37 -23 52c0 48 52 68 88 79z" />
    <glyph glyph-name="oacute" unicode="&#xf3;" horiz-adv-x="531" 
d="M280 106c49 0 78 43 95 141c6 32 8 61 8 83c0 48 -15 77 -50 77c-47 0 -78 -46 -93 -129c-6 -32 -9 -66 -9 -92c0 -44 12 -80 49 -80zM67 265c37 210 179 262 294 262c71 0 196 -27 196 -193c0 -22 -1 -48 -5 -75c-31 -196 -155 -275 -297 -275c-124 0 -194 72 -194 200
c0 24 1 53 6 81zM280 604l148 195c30 -9 78 -29 78 -70c0 -20 -11 -36 -44 -63c-43 -36 -105 -77 -143 -102z" />
    <glyph glyph-name="ocircumflex" unicode="&#xf4;" horiz-adv-x="531" 
d="M280 106c-37 0 -49 36 -49 80c0 26 3 60 9 92c15 83 46 129 93 129c35 0 50 -29 50 -77c0 -22 -2 -51 -8 -83c-17 -98 -46 -141 -95 -141zM67 265c-5 -28 -6 -57 -6 -81c0 -128 70 -200 194 -200c142 0 266 79 297 275c4 27 5 53 5 75c0 166 -125 193 -196 193
c-115 0 -257 -52 -294 -262zM244 568l-51 43c35 43 94 106 135 145c32 29 44 39 73 39c31 0 39 -10 60 -39c27 -39 66 -107 86 -145l-55 -42l-107 106z" />
    <glyph glyph-name="otilde" unicode="&#xf5;" horiz-adv-x="531" 
d="M280 106c49 0 78 43 95 141c6 32 8 61 8 83c0 48 -15 77 -50 77c-47 0 -78 -46 -93 -129c-6 -32 -9 -66 -9 -92c0 -44 12 -80 49 -80zM67 265c37 210 179 262 294 262c71 0 196 -27 196 -193c0 -22 -1 -48 -5 -75c-31 -196 -155 -275 -297 -275c-124 0 -194 72 -194 200
c0 24 1 53 6 81zM229 612l5 93c33 22 65 31 93 31c54 0 88 -27 136 -27c22 0 46 8 68 19l-8 -98c-24 -13 -45 -20 -74 -20c-46 0 -98 24 -139 24c-29 0 -52 -7 -81 -22z" />
    <glyph glyph-name="odieresis" unicode="&#xf6;" horiz-adv-x="531" 
d="M280 106c-37 0 -49 36 -49 80c0 26 3 60 9 92c15 83 46 129 93 129c35 0 50 -29 50 -77c0 -22 -2 -51 -8 -83c-17 -98 -46 -141 -95 -141zM67 265c-5 -28 -6 -57 -6 -81c0 -128 70 -200 194 -200c142 0 266 79 297 275c4 27 5 53 5 75c0 166 -125 193 -196 193
c-115 0 -257 -52 -294 -262zM415 665c0 45 38 83 91 83c41 0 65 -26 65 -61c0 -45 -39 -83 -91 -83c-41 0 -65 26 -65 61zM197 665c0 45 38 83 91 83c41 0 65 -26 65 -61c0 -45 -39 -83 -91 -83c-41 0 -65 26 -65 61z" />
    <glyph glyph-name="oslash" unicode="&#xf8;" horiz-adv-x="531" 
d="M67 265c37 210 179 262 294 262c15 0 33 -1 52 -5l56 89l111 -57l-60 -95c22 -28 37 -69 37 -125c0 -22 -1 -48 -5 -75c-31 -196 -155 -275 -297 -275c-18 0 -34 2 -49 5l-56 -93l-108 56l59 96c-26 33 -40 79 -40 136c0 24 1 53 6 81zM280 106c49 0 78 43 95 141
c6 32 8 61 8 83c0 48 -15 77 -50 77c-47 0 -78 -46 -93 -129c-6 -32 -9 -66 -9 -92c0 -44 12 -80 49 -80z" />
    <glyph glyph-name="ugrave" unicode="&#xf9;" horiz-adv-x="545" 
d="M416 512h167l-72 -415l-7 -97h-140v49l-6 1c-45 -49 -94 -63 -140 -63c-96 0 -143 43 -143 130c0 15 2 35 5 53l60 342h167l-57 -322c-2 -14 -4 -27 -4 -38c0 -23 8 -39 40 -39c35 0 66 29 73 70zM368 806l104 -206l-53 -36c-29 25 -83 73 -116 111c-15 20 -23 37 -23 52
c0 48 52 68 88 79z" />
    <glyph glyph-name="uacute" unicode="&#xfa;" horiz-adv-x="545" 
d="M416 512h167l-72 -415l-7 -97h-140v49l-6 1c-45 -49 -94 -63 -140 -63c-96 0 -143 43 -143 130c0 15 2 35 5 53l60 342h167l-57 -322c-2 -14 -4 -27 -4 -38c0 -23 8 -39 40 -39c35 0 66 29 73 70zM285 604l148 195c30 -9 78 -29 78 -70c0 -20 -11 -36 -44 -63
c-43 -36 -105 -77 -143 -102z" />
    <glyph glyph-name="ucircumflex" unicode="&#xfb;" horiz-adv-x="545" 
d="M416 512h167l-72 -415l-7 -97h-140v49l-6 1c-45 -49 -94 -63 -140 -63c-96 0 -143 43 -143 130c0 15 2 35 5 53l60 342h167l-57 -322c-2 -14 -4 -27 -4 -38c0 -23 8 -39 40 -39c35 0 66 29 73 70zM250 568l-51 43c35 43 94 106 135 145c32 29 44 39 73 39
c31 0 39 -10 60 -39c27 -39 66 -107 86 -145l-55 -42l-107 106z" />
    <glyph glyph-name="udieresis" unicode="&#xfc;" horiz-adv-x="545" 
d="M416 512h167l-72 -415l-7 -97h-140v49l-6 1c-45 -49 -94 -63 -140 -63c-96 0 -143 43 -143 130c0 15 2 35 5 53l60 342h167l-57 -322c-2 -14 -4 -27 -4 -38c0 -23 8 -39 40 -39c35 0 66 29 73 70zM419 665c0 45 38 83 91 83c41 0 65 -26 65 -61c0 -45 -39 -83 -91 -83
c-41 0 -65 26 -65 61zM201 665c0 45 38 83 91 83c41 0 65 -26 65 -61c0 -45 -39 -83 -91 -83c-41 0 -65 26 -65 61z" />
    <glyph glyph-name="yacute" unicode="&#xfd;" horiz-adv-x="540" 
d="M584 511l-71 -399c-5 -27 -22 -108 -30 -139c-39 -157 -127 -239 -270 -239c-107 0 -162 50 -162 126c0 69 36 126 132 182c-69 13 -101 50 -101 115c0 13 1 28 4 44l54 310h167l-53 -302c-2 -12 -4 -24 -4 -34c0 -24 9 -40 43 -40c33 0 61 26 69 68l54 308h168z
M203 -107c0 -28 14 -39 40 -39c45 0 66 34 78 96l18 101c-18 -15 -38 -28 -64 -46c-41 -30 -72 -66 -72 -112zM282 604l148 195c30 -9 78 -29 78 -70c0 -20 -11 -36 -44 -63c-43 -36 -105 -77 -143 -102z" />
    <glyph glyph-name="thorn" unicode="&#xfe;" horiz-adv-x="533" 
d="M213 -1l-37 -209h-167l160 905h167l-32 -181c35 8 66 12 95 12c110 0 166 -72 166 -197c0 -215 -107 -345 -274 -345c-26 0 -61 7 -78 15zM396 310c0 53 -17 92 -67 92c-14 0 -30 -1 -46 -5l-49 -279c16 -8 32 -11 51 -11c71 0 111 108 111 203z" />
    <glyph glyph-name="ydieresis" unicode="&#xff;" horiz-adv-x="540" 
d="M584 511l-71 -399c-5 -27 -22 -108 -30 -139c-39 -157 -127 -239 -270 -239c-107 0 -162 50 -162 126c0 69 36 126 132 182c-69 13 -101 50 -101 115c0 13 1 28 4 44l54 310h167l-53 -302c-2 -12 -4 -24 -4 -34c0 -24 9 -40 43 -40c33 0 61 26 69 68l54 308h168z
M203 -107c0 -28 14 -39 40 -39c45 0 66 34 78 96l18 101c-18 -15 -38 -28 -64 -46c-41 -30 -72 -66 -72 -112zM422 665c0 45 38 83 91 83c41 0 65 -26 65 -61c0 -45 -39 -83 -91 -83c-41 0 -65 26 -65 61zM204 665c0 45 38 83 91 83c41 0 65 -26 65 -61
c0 -45 -39 -83 -91 -83c-41 0 -65 26 -65 61z" />
    <glyph glyph-name="Amacron" unicode="&#x100;" horiz-adv-x="647" 
d="M182 0h-179l332 665h199l109 -665h-171l-20 142h-199zM410 505l-109 -237h140l-25 237h-6zM284 725l20 113h318l-20 -113h-318z" />
    <glyph glyph-name="amacron" unicode="&#x101;" horiz-adv-x="543" 
d="M577 487l-67 -379l-7 -108h-141v47l-5 1c-35 -41 -80 -63 -140 -63c-107 0 -155 79 -155 187c0 205 114 355 323 355c42 0 117 -10 192 -40zM356 161l42 241c-11 5 -27 8 -45 8c-91 0 -124 -137 -124 -219c0 -48 11 -87 59 -87c34 0 58 22 68 57zM229 618l20 113h317
l-20 -113h-317z" />
    <glyph glyph-name="Abreve" unicode="&#x102;" horiz-adv-x="647" 
d="M182 0h-179l332 665h199l109 -665h-171l-20 142h-199zM410 505l-109 -237h140l-25 237h-6zM562 896l87 -41c-31 -71 -92 -136 -204 -136c-114 0 -157 78 -164 134l95 39c12 -47 35 -74 85 -74c47 0 73 25 101 78z" />
    <glyph glyph-name="abreve" unicode="&#x103;" horiz-adv-x="543" 
d="M577 487l-67 -379l-7 -108h-141v47l-5 1c-35 -41 -80 -63 -140 -63c-107 0 -155 79 -155 187c0 205 114 355 323 355c42 0 117 -10 192 -40zM356 161l42 241c-11 5 -27 8 -45 8c-91 0 -124 -137 -124 -219c0 -48 11 -87 59 -87c34 0 58 22 68 57zM499 771l90 -23
c-34 -96 -93 -154 -201 -154c-114 0 -154 81 -159 154l89 23c12 -58 37 -79 84 -79c41 0 68 19 97 79z" />
    <glyph glyph-name="Aogonek" unicode="&#x104;" horiz-adv-x="647" 
d="M181 0h-178l335 665h192l113 -665c-52 -30 -102 -88 -102 -126c0 -14 7 -27 30 -27c20 0 32 4 50 11l14 -83c-25 -13 -65 -22 -106 -22c-76 0 -106 39 -106 84c0 73 70 135 105 163h-56l-20 142h-200zM410 505l-110 -237h141l-25 237h-6z" />
    <glyph glyph-name="aogonek" unicode="&#x105;" horiz-adv-x="543" 
d="M577 487l-67 -379l-7 -108c-50 -30 -100 -88 -100 -126c0 -14 7 -27 30 -27c20 0 32 4 50 11l14 -83c-25 -13 -65 -22 -106 -22c-76 0 -106 39 -106 84c0 73 70 135 105 163h-28v47l-5 1c-35 -41 -80 -63 -140 -63c-107 0 -155 79 -155 187c0 205 114 355 323 355
c42 0 117 -10 192 -40zM356 161l42 241c-11 5 -27 8 -45 8c-91 0 -124 -137 -124 -219c0 -48 11 -87 59 -87c34 0 58 22 68 57z" />
    <glyph glyph-name="Cacute" unicode="&#x106;" horiz-adv-x="593" 
d="M374 128c51 0 101 27 152 66l67 -111c-84 -66 -161 -95 -253 -95c-160 0 -256 98 -256 270c0 314 190 418 357 418c111 0 185 -59 231 -146l-124 -77c-30 54 -67 81 -119 81c-94 0 -166 -95 -166 -254c0 -94 34 -152 111 -152zM359 749l184 156c29 -18 55 -46 55 -74
c0 -26 -14 -42 -53 -62c-52 -28 -108 -49 -156 -68z" />
    <glyph glyph-name="cacute" unicode="&#x107;" horiz-adv-x="470" 
d="M317 114c35 0 66 12 111 41l40 -113c-52 -36 -120 -58 -199 -58c-128 0 -203 78 -203 217c0 233 148 326 285 326c78 0 153 -34 190 -116l-112 -74c-19 33 -40 58 -77 58c-74 0 -116 -78 -116 -177c0 -65 26 -104 81 -104zM286 604l148 195c30 -9 78 -29 78 -70
c0 -20 -11 -36 -44 -63c-43 -36 -105 -77 -143 -102z" />
    <glyph glyph-name="Ccircumflex" unicode="&#x108;" horiz-adv-x="593" 
d="M374 128c51 0 101 27 152 66l67 -111c-84 -66 -161 -95 -253 -95c-160 0 -256 98 -256 270c0 314 190 418 357 418c111 0 185 -59 231 -146l-124 -77c-30 54 -67 81 -119 81c-94 0 -166 -95 -166 -254c0 -94 34 -152 111 -152zM336 700l-49 46c39 39 88 84 127 117
c26 22 41 33 67 33c19 0 34 -13 53 -33c30 -31 66 -82 90 -117l-53 -45l-104 86z" />
    <glyph glyph-name="ccircumflex" unicode="&#x109;" horiz-adv-x="470" 
d="M317 114c35 0 66 12 111 41l40 -113c-52 -36 -120 -58 -199 -58c-128 0 -203 78 -203 217c0 233 148 326 285 326c78 0 153 -34 190 -116l-112 -74c-19 33 -40 58 -77 58c-74 0 -116 -78 -116 -177c0 -65 26 -104 81 -104zM245 568l-51 43c35 43 94 106 135 145
c32 29 44 39 73 39c31 0 39 -10 60 -39c27 -39 66 -107 86 -145l-55 -42l-107 106z" />
    <glyph glyph-name="Cdotaccent" unicode="&#x10a;" horiz-adv-x="593" 
d="M374 128c51 0 101 27 152 66l67 -111c-84 -66 -161 -95 -253 -95c-160 0 -256 98 -256 270c0 314 190 418 357 418c111 0 185 -59 231 -146l-124 -77c-30 54 -67 81 -119 81c-94 0 -166 -95 -166 -254c0 -94 34 -152 111 -152zM383 789c0 52 44 97 104 97
c48 0 76 -32 76 -72c0 -53 -46 -95 -104 -95c-49 0 -76 29 -76 70z" />
    <glyph glyph-name="cdotaccent" unicode="&#x10b;" horiz-adv-x="470" 
d="M317 114c35 0 66 12 111 41l40 -113c-52 -36 -120 -58 -199 -58c-128 0 -203 78 -203 217c0 233 148 326 285 326c78 0 153 -34 190 -116l-112 -74c-19 33 -40 58 -77 58c-74 0 -116 -78 -116 -177c0 -65 26 -104 81 -104zM289 644c0 52 44 97 104 97c47 0 76 -32 76 -71
c0 -53 -46 -95 -105 -95c-48 0 -75 29 -75 69z" />
    <glyph glyph-name="Ccaron" unicode="&#x10c;" horiz-adv-x="593" 
d="M374 128c51 0 101 27 152 66l67 -111c-84 -66 -161 -95 -253 -95c-160 0 -256 98 -256 270c0 314 190 418 357 418c111 0 185 -59 231 -146l-124 -77c-30 54 -67 81 -119 81c-94 0 -166 -95 -166 -254c0 -94 34 -152 111 -152zM366 896l101 -88l132 89l48 -48
c-40 -41 -82 -79 -122 -112c-30 -26 -52 -38 -73 -38s-39 12 -61 39c-30 37 -53 69 -81 111z" />
    <glyph glyph-name="ccaron" unicode="&#x10d;" horiz-adv-x="470" 
d="M317 114c35 0 66 12 111 41l40 -113c-52 -36 -120 -58 -199 -58c-128 0 -203 78 -203 217c0 233 148 326 285 326c78 0 153 -34 190 -116l-112 -74c-19 33 -40 58 -77 58c-74 0 -116 -78 -116 -177c0 -65 26 -104 81 -104zM522 795l51 -43c-36 -42 -94 -106 -136 -145
c-31 -29 -44 -39 -73 -39c-31 0 -39 10 -60 39c-27 40 -66 105 -87 145l58 42l106 -105z" />
    <glyph glyph-name="Dcaron" unicode="&#x10e;" horiz-adv-x="646" 
d="M56 0l117 665h233c173 0 276 -89 276 -256c0 -296 -179 -409 -389 -409h-237zM322 531l-71 -398h67c115 0 188 100 188 258c0 109 -58 140 -128 140h-56zM321 896l101 -88l132 89l48 -48c-40 -41 -82 -79 -122 -112c-30 -26 -52 -38 -73 -38s-39 12 -61 39
c-30 37 -53 69 -81 111z" />
    <glyph glyph-name="dcaron" unicode="&#x10f;" horiz-adv-x="632" 
d="M368 527c21 0 41 -3 52 -6l31 174h164l-104 -586l-7 -109h-139l-2 48h-5c-32 -40 -76 -64 -133 -64c-129 0 -164 98 -164 188c0 201 112 355 307 355zM356 159l43 243c-9 1 -17 2 -25 2c-104 0 -145 -113 -145 -214c0 -53 15 -86 55 -86c41 0 68 29 72 55zM671 687
l-39 -223l59 -12c15 24 42 70 63 115c17 35 30 68 30 88c0 27 -17 40 -52 40c-22 0 -42 -4 -61 -8z" />
    <glyph glyph-name="Dcroat" unicode="&#x110;" horiz-adv-x="657" 
d="M67 0l48 274h-55l19 115h56l49 276h233c173 0 276 -89 276 -256c0 -296 -179 -409 -389 -409h-237zM333 531l-26 -142h118l-19 -115h-119l-25 -141h67c115 0 188 100 188 258c0 109 -58 140 -128 140h-56z" />
    <glyph glyph-name="dcroat" unicode="&#x111;" horiz-adv-x="544" 
d="M359 496c21 0 44 -3 55 -6l9 49h-132l18 103h132l10 53h164l-10 -53h52l-18 -103h-52l-76 -430l-7 -109h-139l-2 48h-5c-32 -40 -76 -64 -133 -64c-129 0 -164 98 -164 188c0 201 103 324 298 324zM356 159l37 212c-9 1 -17 2 -25 2c-104 0 -139 -82 -139 -183
c0 -53 15 -86 55 -86c41 0 68 29 72 55z" />
    <glyph glyph-name="Emacron" unicode="&#x112;" horiz-adv-x="528" 
d="M56 0l117 665h435l-27 -150h-262l-18 -102h225l-26 -148h-225l-21 -115h270l-26 -150h-442zM237 725l20 113h318l-20 -113h-318z" />
    <glyph glyph-name="emacron" unicode="&#x113;" horiz-adv-x="484" 
d="M382 377c0 22 -17 32 -35 32c-59 0 -92 -63 -105 -117c58 3 140 31 140 85zM371 527c98 0 158 -45 158 -131c0 -168 -190 -198 -297 -205c-1 -45 23 -83 84 -83c48 0 94 21 130 42l35 -107c-20 -14 -99 -59 -211 -59c-146 0 -206 88 -206 206c0 170 113 337 307 337z
M217 618l20 113h317l-20 -113h-317z" />
    <glyph glyph-name="Ebreve" unicode="&#x114;" horiz-adv-x="528" 
d="M56 0l117 665h435l-27 -150h-262l-18 -102h225l-26 -148h-225l-21 -115h270l-26 -150h-442zM522 896l87 -41c-31 -71 -92 -136 -204 -136c-114 0 -157 78 -164 134l95 39c12 -47 35 -74 85 -74c47 0 73 25 101 78z" />
    <glyph glyph-name="ebreve" unicode="&#x115;" horiz-adv-x="484" 
d="M382 377c0 22 -17 32 -35 32c-59 0 -92 -63 -105 -117c58 3 140 31 140 85zM371 527c98 0 158 -45 158 -131c0 -168 -190 -198 -297 -205c-1 -45 23 -83 84 -83c48 0 94 21 130 42l35 -107c-20 -14 -99 -59 -211 -59c-146 0 -206 88 -206 206c0 170 113 337 307 337z
M489 771l90 -23c-34 -96 -93 -154 -201 -154c-114 0 -154 81 -159 154l89 23c12 -58 37 -79 84 -79c41 0 68 19 97 79z" />
    <glyph glyph-name="Edotaccent" unicode="&#x116;" horiz-adv-x="528" 
d="M56 0l117 665h435l-27 -150h-262l-18 -102h225l-26 -148h-225l-21 -115h270l-26 -150h-442zM325 789c0 52 44 97 104 97c48 0 76 -32 76 -72c0 -53 -46 -95 -104 -95c-49 0 -76 29 -76 70z" />
    <glyph glyph-name="edotaccent" unicode="&#x117;" horiz-adv-x="484" 
d="M382 377c0 22 -17 32 -35 32c-59 0 -92 -63 -105 -117c58 3 140 31 140 85zM371 527c98 0 158 -45 158 -131c0 -168 -190 -198 -297 -205c-1 -45 23 -83 84 -83c48 0 94 21 130 42l35 -107c-20 -14 -99 -59 -211 -59c-146 0 -206 88 -206 206c0 170 113 337 307 337z
M300 644c0 52 44 97 104 97c47 0 76 -32 76 -71c0 -53 -46 -95 -105 -95c-48 0 -75 29 -75 69z" />
    <glyph glyph-name="Eogonek" unicode="&#x118;" horiz-adv-x="527" 
d="M56 0l117 665h435l-27 -150h-262l-18 -102h225l-26 -148h-225l-21 -115h270l-26 -150c-59 -30 -109 -88 -109 -126c0 -14 7 -27 30 -27c20 0 32 4 50 11l14 -83c-25 -13 -65 -22 -106 -22c-76 0 -106 39 -106 84c0 73 70 135 105 163h-320z" />
    <glyph glyph-name="eogonek" unicode="&#x119;" horiz-adv-x="484" 
d="M371 527c98 0 158 -45 158 -131c0 -168 -190 -198 -297 -205c-1 -45 23 -83 84 -83c48 0 94 21 130 42l35 -107c-12 -9 -44 -23 -87 -48c-68 -39 -97 -83 -97 -121c0 -14 7 -27 30 -27c20 0 32 4 50 11l14 -83c-25 -13 -65 -22 -106 -22c-76 0 -106 39 -106 84
c0 62 50 115 86 147c-143 2 -201 89 -201 206c0 170 113 337 307 337zM382 377c0 22 -17 32 -35 32c-59 0 -92 -63 -105 -117c58 3 140 31 140 85z" />
    <glyph glyph-name="Ecaron" unicode="&#x11a;" horiz-adv-x="528" 
d="M56 0l117 665h435l-27 -150h-262l-18 -102h225l-26 -148h-225l-21 -115h270l-26 -150h-442zM304 896l101 -88l132 89l48 -48c-40 -41 -82 -79 -122 -112c-30 -26 -52 -38 -73 -38s-39 12 -61 39c-30 37 -53 69 -81 111z" />
    <glyph glyph-name="ecaron" unicode="&#x11b;" horiz-adv-x="484" 
d="M382 377c0 22 -17 32 -35 32c-59 0 -92 -63 -105 -117c58 3 140 31 140 85zM371 527c98 0 158 -45 158 -131c0 -168 -190 -198 -297 -205c-1 -45 23 -83 84 -83c48 0 94 21 130 42l35 -107c-20 -14 -99 -59 -211 -59c-146 0 -206 88 -206 206c0 170 113 337 307 337z
M530 795l51 -43c-36 -42 -94 -106 -136 -145c-31 -29 -44 -39 -73 -39c-31 0 -39 10 -60 39c-27 40 -66 105 -87 145l58 42l106 -105z" />
    <glyph glyph-name="Gcircumflex" unicode="&#x11c;" horiz-adv-x="633" 
d="M649 342l-50 -286c-62 -37 -159 -68 -260 -68c-159 0 -255 88 -255 274c0 305 190 414 362 414c92 0 191 -37 236 -140l-134 -81c-35 59 -71 78 -116 78c-98 0 -169 -95 -169 -261c0 -90 32 -146 107 -146c31 0 58 8 73 17l35 199h171zM354 700l-49 46
c39 39 88 84 127 117c26 22 41 33 67 33c19 0 34 -13 53 -33c30 -31 66 -82 90 -117l-53 -45l-104 86z" />
    <glyph glyph-name="gcircumflex" unicode="&#x11d;" horiz-adv-x="537" 
d="M209 -265c-110 0 -162 55 -162 130c0 82 48 137 145 187c-69 11 -126 68 -126 175c0 188 128 300 308 300c64 0 150 -13 203 -37l-69 -392c-5 -27 -17 -90 -23 -116c-39 -171 -130 -247 -276 -247zM361 205l35 198c-12 3 -23 4 -34 4c-93 0 -131 -103 -131 -187
c0 -45 12 -85 55 -85c34 0 66 18 75 70zM199 -103c0 -29 15 -43 40 -43c55 0 72 47 88 141l10 58c-17 -16 -41 -32 -66 -50c-38 -28 -72 -60 -72 -106zM259 568l-51 43c35 43 94 106 135 145c32 29 44 39 73 39c31 0 39 -10 60 -39c27 -39 66 -107 86 -145l-55 -42l-107 106
z" />
    <glyph glyph-name="Gbreve" unicode="&#x11e;" horiz-adv-x="633" 
d="M649 342l-50 -286c-62 -37 -159 -68 -260 -68c-159 0 -255 88 -255 274c0 305 190 414 362 414c92 0 191 -37 236 -140l-134 -81c-35 59 -71 78 -116 78c-98 0 -169 -95 -169 -261c0 -90 32 -146 107 -146c31 0 58 8 73 17l35 199h171zM586 896l87 -41
c-31 -71 -92 -136 -204 -136c-114 0 -157 78 -164 134l95 39c12 -47 35 -74 85 -74c47 0 73 25 101 78z" />
    <glyph glyph-name="gbreve" unicode="&#x11f;" horiz-adv-x="537" 
d="M209 -265c-110 0 -162 55 -162 130c0 82 48 137 145 187c-69 11 -126 68 -126 175c0 188 128 300 308 300c64 0 150 -13 203 -37l-69 -392c-5 -27 -17 -90 -23 -116c-39 -171 -130 -247 -276 -247zM361 205l35 198c-12 3 -23 4 -34 4c-93 0 -131 -103 -131 -187
c0 -45 12 -85 55 -85c34 0 66 18 75 70zM199 -103c0 -29 15 -43 40 -43c55 0 72 47 88 141l10 58c-17 -16 -41 -32 -66 -50c-38 -28 -72 -60 -72 -106zM503 771l90 -23c-34 -96 -93 -154 -201 -154c-114 0 -154 81 -159 154l89 23c12 -58 37 -79 84 -79c41 0 68 19 97 79z
" />
    <glyph glyph-name="Gdotaccent" unicode="&#x120;" horiz-adv-x="633" 
d="M649 342l-50 -286c-62 -37 -159 -68 -260 -68c-159 0 -255 88 -255 274c0 305 190 414 362 414c92 0 191 -37 236 -140l-134 -81c-35 59 -71 78 -116 78c-98 0 -169 -95 -169 -261c0 -90 32 -146 107 -146c31 0 58 8 73 17l35 199h171zM390 789c0 52 44 97 104 97
c48 0 76 -32 76 -72c0 -53 -46 -95 -104 -95c-49 0 -76 29 -76 70z" />
    <glyph glyph-name="gdotaccent" unicode="&#x121;" horiz-adv-x="537" 
d="M209 -265c-110 0 -162 55 -162 130c0 82 48 137 145 187c-69 11 -126 68 -126 175c0 188 128 300 308 300c64 0 150 -13 203 -37l-69 -392c-5 -27 -17 -90 -23 -116c-39 -171 -130 -247 -276 -247zM361 205l35 198c-12 3 -23 4 -34 4c-93 0 -131 -103 -131 -187
c0 -45 12 -85 55 -85c34 0 66 18 75 70zM199 -103c0 -29 15 -43 40 -43c55 0 72 47 88 141l10 58c-17 -16 -41 -32 -66 -50c-38 -28 -72 -60 -72 -106zM313 644c0 52 44 97 104 97c47 0 76 -32 76 -71c0 -53 -46 -95 -105 -95c-48 0 -75 29 -75 69z" />
    <glyph glyph-name="Gcommaaccent" unicode="&#x122;" horiz-adv-x="633" 
d="M649 342l-50 -286c-62 -37 -159 -68 -260 -68c-159 0 -255 88 -255 274c0 305 190 414 362 414c92 0 191 -37 236 -140l-134 -81c-35 59 -71 78 -116 78c-98 0 -169 -95 -169 -261c0 -90 32 -146 107 -146c31 0 58 8 73 17l35 199h171zM279 -51l-98 -210l52 -28
c31 33 78 80 114 128c18 24 30 46 30 63c0 42 -59 46 -98 47z" />
    <glyph glyph-name="gcommaaccent" unicode="&#x123;" horiz-adv-x="537" 
d="M209 -265c-110 0 -162 55 -162 130c0 82 48 137 145 187c-69 11 -126 68 -126 175c0 188 128 300 308 300c64 0 150 -13 203 -37l-69 -392c-5 -27 -17 -90 -23 -116c-39 -171 -130 -247 -276 -247zM361 205l35 198c-12 3 -23 4 -34 4c-93 0 -131 -103 -131 -187
c0 -45 12 -85 55 -85c34 0 66 18 75 70zM199 -103c0 -29 15 -43 40 -43c55 0 72 47 88 141l10 58c-17 -16 -41 -32 -66 -50c-38 -28 -72 -60 -72 -106zM506 779l-98 -212c-39 3 -98 7 -98 50c0 17 12 38 30 63c36 46 83 95 114 127z" />
    <glyph glyph-name="Hcircumflex" unicode="&#x124;" horiz-adv-x="667" 
d="M555 665h173l-117 -665h-173l46 258h-211l-45 -258h-172l117 665h172l-45 -257h210zM342 700l-49 46c39 39 88 84 127 117c26 22 41 33 67 33c19 0 34 -13 53 -33c30 -31 66 -82 90 -117l-53 -45l-104 86z" />
    <glyph glyph-name="hcircumflex" unicode="&#x125;" 
d="M213 0h-167l123 695h167l-36 -206c31 24 74 38 119 38c89 0 136 -42 136 -124c0 -19 -2 -42 -7 -68l-59 -335h-167l57 325c2 10 4 22 4 33c0 21 -7 41 -35 41c-46 0 -70 -31 -77 -71zM224 720l-49 46c39 39 88 84 127 117c26 22 41 33 67 33c19 0 34 -13 53 -33
c30 -31 66 -82 90 -117l-53 -45l-104 86z" />
    <glyph glyph-name="Hbar" unicode="&#x126;" horiz-adv-x="676" 
d="M559 665h173l-13 -80h53l-18 -102h-53l-86 -483h-173l46 258h-210l-45 -258h-173l86 483h-54l18 102h54l13 80h173l-14 -80h210zM305 408h209l14 75h-210z" />
    <glyph glyph-name="hbar" unicode="&#x127;" horiz-adv-x="536" 
d="M213 0h-167l95 539h-47l18 103h47l10 53h167l-9 -53h138l-18 -103h-138l-15 -85c31 24 74 38 119 38c89 0 136 -42 136 -124c0 -19 -2 -42 -7 -68l-53 -300h-167l51 290c2 10 4 22 4 33c0 21 -7 41 -35 41c-46 0 -70 -31 -77 -71z" />
    <glyph glyph-name="Itilde" unicode="&#x128;" horiz-adv-x="292" 
d="M232 0h-172l117 665h172zM135 726l4 92c33 22 65 31 92 31c55 0 89 -26 137 -26c22 0 46 7 68 18l-7 -98c-24 -12 -44 -19 -74 -19c-45 0 -98 23 -139 23c-28 0 -52 -6 -81 -21z" />
    <glyph glyph-name="itilde" unicode="&#x129;" horiz-adv-x="272" 
d="M221 0h-167l90 512h167zM104 612l5 93c33 22 65 31 93 31c54 0 88 -27 136 -27c22 0 46 8 68 19l-8 -98c-24 -13 -45 -20 -74 -20c-46 0 -98 24 -139 24c-29 0 -52 -7 -81 -22z" />
    <glyph glyph-name="Imacron" unicode="&#x12a;" horiz-adv-x="292" 
d="M232 0h-172l117 665h172zM114 725l20 113h318l-20 -113h-318z" />
    <glyph glyph-name="imacron" unicode="&#x12b;" horiz-adv-x="272" 
d="M221 0h-167l90 512h167zM85 618l20 113h317l-20 -113h-317z" />
    <glyph glyph-name="Ibreve" unicode="&#x12c;" horiz-adv-x="292" 
d="M232 0h-172l117 665h172zM392 896l87 -41c-31 -71 -92 -136 -204 -136c-114 0 -157 78 -164 134l95 39c12 -47 35 -74 85 -74c47 0 73 25 101 78z" />
    <glyph glyph-name="ibreve" unicode="&#x12d;" horiz-adv-x="272" 
d="M221 0h-167l90 512h167zM360 771l90 -23c-34 -96 -93 -154 -201 -154c-114 0 -154 81 -159 154l89 23c12 -58 37 -79 84 -79c41 0 68 19 97 79z" />
    <glyph glyph-name="Iogonek" unicode="&#x12e;" horiz-adv-x="292" 
d="M232 0c-47 -30 -97 -88 -97 -126c0 -14 7 -27 30 -27c20 0 32 4 50 11l14 -83c-25 -13 -65 -22 -106 -22c-76 0 -106 39 -106 84c0 73 70 135 105 163h-62l117 665h172z" />
    <glyph glyph-name="iogonek" unicode="&#x12f;" horiz-adv-x="272" 
d="M221 0c-48 -30 -98 -88 -98 -126c0 -14 7 -27 30 -27c20 0 32 4 50 11l14 -83c-25 -13 -65 -22 -106 -22c-76 0 -106 39 -106 84c0 73 70 135 105 163h-56l90 512h167zM163 644c0 52 44 97 104 97c47 0 76 -32 76 -71c0 -53 -46 -95 -105 -95c-48 0 -75 29 -75 69z" />
    <glyph glyph-name="Idotaccent" unicode="&#x130;" horiz-adv-x="292" 
d="M232 0h-172l117 665h172zM199 789c0 52 44 97 104 97c48 0 76 -32 76 -72c0 -53 -46 -95 -104 -95c-49 0 -76 29 -76 70z" />
    <glyph glyph-name="dotlessi" unicode="&#x131;" horiz-adv-x="272" 
d="M221 0h-167l90 512h167z" />
    <glyph glyph-name="IJ" unicode="&#x132;" horiz-adv-x="735" 
d="M232 0h-172l117 665h172zM303 39l67 125c24 -17 59 -32 94 -32c47 0 73 16 84 78l80 455h172l-77 -439c-5 -26 -13 -67 -24 -98c-35 -102 -104 -140 -217 -140c-74 0 -141 25 -179 51z" />
    <glyph glyph-name="ij" unicode="&#x133;" horiz-adv-x="533" 
d="M221 0h-167l90 512h167zM163 644c0 52 44 97 104 97c47 0 76 -32 76 -71c0 -53 -46 -95 -105 -95c-48 0 -75 29 -75 69zM318 -14l93 526h166l-95 -536c-18 -104 -43 -200 -198 -200c-51 0 -115 15 -152 39l60 116c20 -11 43 -19 63 -19c37 0 53 19 63 74zM433 644
c0 52 44 97 104 97c47 0 76 -32 76 -71c0 -53 -46 -95 -105 -95c-48 0 -75 29 -75 69z" />
    <glyph glyph-name="Jcircumflex" unicode="&#x134;" horiz-adv-x="443" 
d="M11 39l67 125c24 -17 59 -32 94 -32c47 0 73 16 84 78l80 455h172l-77 -439c-5 -26 -13 -67 -24 -98c-35 -102 -104 -140 -217 -140c-74 0 -141 25 -179 51zM309 700l-49 46c39 39 88 84 127 117c26 22 41 33 67 33c19 0 34 -13 53 -33c30 -31 66 -82 90 -117l-53 -45
l-104 86z" />
    <glyph glyph-name="jcircumflex" unicode="&#x135;" horiz-adv-x="266" 
d="M51 -14l93 526h166l-95 -536c-18 -104 -43 -200 -198 -200c-51 0 -115 15 -152 39l60 116c20 -11 43 -19 63 -19c37 0 53 19 63 74zM104 568l-51 43c35 43 94 106 135 145c32 29 44 39 73 39c31 0 39 -10 60 -39c27 -39 66 -107 86 -145l-55 -42l-107 106z" />
    <glyph glyph-name="Kcommaaccent" unicode="&#x136;" horiz-adv-x="596" 
d="M706 665l-238 -281l133 -384h-188l-79 251l-78 -86l-29 -165h-171l117 665h171l-47 -258l4 -1l217 259h188zM268 -51l-98 -210l52 -28c31 33 78 80 114 128c18 24 30 46 30 63c0 42 -59 46 -98 47z" />
    <glyph glyph-name="kcommaaccent" unicode="&#x137;" horiz-adv-x="532" 
d="M351 0l-63 197l-37 -7l-33 -190h-168l123 695h168l-54 -278l4 -1c41 70 102 111 181 111c65 0 115 -38 115 -110c0 -91 -55 -141 -135 -176l83 -241h-184zM409 370c0 23 -13 34 -33 34c-45 0 -94 -59 -110 -128c72 11 143 46 143 94zM237 -51l-98 -210l52 -28
c31 33 78 80 114 128c18 24 30 46 30 63c0 42 -59 46 -98 47z" />
    <glyph glyph-name="kgreenlandic" unicode="&#x138;" horiz-adv-x="532" 
d="M351 0l-65 210c-9 -2 -21 -5 -32 -6l-36 -204h-168l90 512h167l-21 -103l4 -1c42 71 107 119 186 119c65 0 111 -38 111 -110c0 -86 -53 -144 -135 -174l83 -243h-184zM413 371c0 23 -11 36 -31 36c-45 0 -96 -65 -112 -128c78 5 143 44 143 92z" />
    <glyph glyph-name="Lacute" unicode="&#x139;" horiz-adv-x="515" 
d="M57 0l117 665h171l-90 -514h265l-27 -151h-436zM159 749l184 156c29 -18 55 -46 55 -74c0 -26 -14 -42 -53 -62c-52 -28 -108 -49 -156 -68z" />
    <glyph glyph-name="lacute" unicode="&#x13a;" horiz-adv-x="347" 
d="M173 695h167l-91 -514c-2 -12 -3 -24 -3 -33c1 -24 12 -33 35 -33c15 0 37 6 62 16l18 -111c-39 -23 -103 -36 -148 -36c-106 0 -137 49 -138 126c0 22 3 46 7 71zM156 768l184 156c29 -18 55 -46 55 -74c0 -26 -14 -42 -53 -62c-52 -28 -108 -49 -156 -68z" />
    <glyph glyph-name="Lcommaaccent" unicode="&#x13b;" horiz-adv-x="515" 
d="M57 0l117 665h171l-90 -514h265l-27 -151h-436zM204 -51l-98 -210l52 -28c31 33 78 80 114 128c18 24 30 46 30 63c0 42 -59 46 -98 47z" />
    <glyph glyph-name="lcommaaccent" unicode="&#x13c;" horiz-adv-x="347" 
d="M173 695h167l-91 -514c-2 -12 -3 -24 -3 -33c1 -24 12 -33 35 -33c15 0 37 6 62 16l18 -111c-39 -23 -103 -36 -148 -36c-106 0 -137 49 -138 126c0 22 3 46 7 71zM124 -51l-98 -210l52 -28c31 33 78 80 114 128c18 24 30 46 30 63c0 42 -59 46 -98 47z" />
    <glyph glyph-name="Lcaron" unicode="&#x13d;" horiz-adv-x="515" 
d="M57 0l117 665h171l-90 -514h265l-27 -151h-436zM457 657l-39 -223l59 -12c15 24 42 70 63 115c17 35 30 68 30 88c0 27 -17 40 -52 40c-22 0 -42 -4 -61 -8z" />
    <glyph glyph-name="lcaron" unicode="&#x13e;" horiz-adv-x="370" 
d="M173 695h167l-91 -514c-2 -12 -3 -24 -3 -33c1 -24 12 -33 35 -33c15 0 37 6 62 16l18 -111c-39 -23 -103 -36 -148 -36c-106 0 -137 49 -138 126c0 22 3 46 7 71zM392 687l-39 -223l59 -12c15 24 42 70 63 115c17 35 30 68 30 88c0 27 -17 40 -52 40
c-22 0 -42 -4 -61 -8z" />
    <glyph glyph-name="Ldot" unicode="&#x13f;" horiz-adv-x="515" 
d="M57 0l117 665h171l-90 -514h265l-27 -151h-436zM372 353c0 52 44 97 104 97c48 0 76 -32 76 -72c0 -53 -46 -95 -104 -95c-49 0 -76 29 -76 70z" />
    <glyph glyph-name="ldot" unicode="&#x140;" horiz-adv-x="440" 
d="M173 695h167l-91 -514c-2 -12 -3 -24 -3 -33c1 -24 12 -33 35 -33c15 0 37 6 62 16l18 -111c-39 -23 -103 -36 -148 -36c-106 0 -137 49 -138 126c0 22 3 46 7 71zM328 353c0 52 44 97 104 97c48 0 76 -32 76 -72c0 -53 -46 -95 -104 -95c-49 0 -76 29 -76 70z" />
    <glyph glyph-name="Lslash" unicode="&#x141;" horiz-adv-x="512" 
d="M44 226l-34 100l113 50l51 289h171l-40 -227l136 60l35 -99l-192 -85l-29 -163h265l-27 -151h-436l44 252z" />
    <glyph glyph-name="lslash" unicode="&#x142;" horiz-adv-x="413" 
d="M230 695h167l-42 -241l84 46l39 -90l-144 -77l-27 -152c-2 -11 -3 -20 -3 -28c0 -26 10 -38 34 -38c16 0 37 6 62 16l15 -110c-40 -26 -101 -37 -145 -37c-113 0 -139 53 -139 119c0 25 4 52 8 78l16 86l-62 -33l-40 90l123 64z" />
    <glyph glyph-name="Nacute" unicode="&#x143;" horiz-adv-x="663" 
d="M554 665h170l-117 -665h-152l-161 370h-4l-65 -370h-169l117 665h158l155 -362h4zM355 749l184 156c29 -18 55 -46 55 -74c0 -26 -14 -42 -53 -62c-52 -28 -108 -49 -156 -68z" />
    <glyph glyph-name="nacute" unicode="&#x144;" horiz-adv-x="542" 
d="M219 0h-166l72 409l6 103h138l2 -55c39 43 91 70 158 70c83 0 133 -38 134 -124c0 -16 -2 -36 -5 -55l-62 -348h-167l52 299c3 16 8 39 8 58c0 20 -8 42 -38 42c-43 0 -68 -32 -75 -74zM290 604l148 195c30 -9 78 -29 78 -70c0 -20 -11 -36 -44 -63
c-43 -36 -105 -77 -143 -102z" />
    <glyph glyph-name="Ncommaaccent" unicode="&#x145;" horiz-adv-x="663" 
d="M554 665h170l-117 -665h-152l-161 370h-4l-65 -370h-169l117 665h158l155 -362h4zM292 -51l-98 -210l52 -28c31 33 78 80 114 128c18 24 30 46 30 63c0 42 -59 46 -98 47z" />
    <glyph glyph-name="ncommaaccent" unicode="&#x146;" horiz-adv-x="542" 
d="M219 0h-166l72 409l6 103h138l2 -55c39 43 91 70 158 70c83 0 133 -38 134 -124c0 -16 -2 -36 -5 -55l-62 -348h-167l52 299c3 16 8 39 8 58c0 20 -8 42 -38 42c-43 0 -68 -32 -75 -74zM227 -51l-98 -210l52 -28c31 33 78 80 114 128c18 24 30 46 30 63
c0 42 -59 46 -98 47z" />
    <glyph glyph-name="Ncaron" unicode="&#x147;" horiz-adv-x="663" 
d="M554 665h170l-117 -665h-152l-161 370h-4l-65 -370h-169l117 665h158l155 -362h4zM365 896l101 -88l132 89l48 -48c-40 -41 -82 -79 -122 -112c-30 -26 -52 -38 -73 -38s-39 12 -61 39c-30 37 -53 69 -81 111z" />
    <glyph glyph-name="ncaron" unicode="&#x148;" horiz-adv-x="542" 
d="M219 0h-166l72 409l6 103h138l2 -55c39 43 91 70 158 70c83 0 133 -38 134 -124c0 -16 -2 -36 -5 -55l-62 -348h-167l52 299c3 16 8 39 8 58c0 20 -8 42 -38 42c-43 0 -68 -32 -75 -74zM538 795l51 -43c-36 -42 -94 -106 -136 -145c-31 -29 -44 -39 -73 -39
c-31 0 -39 10 -60 39c-27 40 -66 105 -87 145l58 42l106 -105z" />
    <glyph glyph-name="napostrophe" unicode="&#x149;" horiz-adv-x="587" 
d="M264 0h-166l72 409l6 103h138l2 -55c39 43 91 70 158 70c83 0 133 -38 134 -124c0 -16 -2 -36 -5 -55l-62 -348h-167l52 299c3 16 8 39 8 58c0 20 -8 42 -38 42c-43 0 -68 -32 -75 -74zM78 528l73 222c13 2 26 3 40 3c32 0 55 -10 55 -39c0 -20 -13 -47 -31 -78
c-24 -41 -58 -88 -86 -125z" />
    <glyph glyph-name="Eng" unicode="&#x14a;" horiz-adv-x="662" 
d="M553 665h171l-122 -689c-17 -98 -50 -198 -208 -198c-55 0 -117 19 -153 44l64 114c20 -13 43 -21 66 -21c36 0 58 22 67 74l6 36l-151 345h-3l-65 -370h-170l117 665h159l156 -362h2z" />
    <glyph glyph-name="eng" unicode="&#x14b;" horiz-adv-x="543" 
d="M219 0h-166l72 409l6 103h138l2 -55c39 43 91 70 158 70c83 0 133 -38 134 -124c0 -16 -2 -36 -5 -55l-66 -373c-17 -98 -46 -199 -203 -199c-49 0 -110 15 -147 39l62 114c19 -10 42 -17 61 -17c31 0 52 18 62 73l54 314c3 16 8 39 8 58c0 20 -8 42 -38 42
c-43 0 -68 -32 -75 -74z" />
    <glyph glyph-name="Omacron" unicode="&#x14c;" horiz-adv-x="666" 
d="M692 319c-39 -231 -179 -331 -365 -331c-157 0 -244 96 -244 257c0 30 2 67 8 103c45 256 217 329 366 329c131 0 242 -79 242 -257c0 -30 -1 -64 -7 -101zM270 344c-5 -26 -8 -56 -8 -83c0 -68 21 -131 97 -131c92 0 138 91 155 192c4 23 6 52 6 78
c0 67 -20 134 -93 134c-90 0 -139 -91 -157 -190zM302 725l20 113h318l-20 -113h-318z" />
    <glyph glyph-name="omacron" unicode="&#x14d;" horiz-adv-x="531" 
d="M280 106c-37 0 -49 36 -49 80c0 26 3 60 9 92c15 83 46 129 93 129c35 0 50 -29 50 -77c0 -22 -2 -51 -8 -83c-17 -98 -46 -141 -95 -141zM67 265c-5 -28 -6 -57 -6 -81c0 -128 70 -200 194 -200c142 0 266 79 297 275c4 27 5 53 5 75c0 166 -125 193 -196 193
c-115 0 -257 -52 -294 -262zM211 618l20 113h317l-20 -113h-317z" />
    <glyph glyph-name="Obreve" unicode="&#x14e;" horiz-adv-x="666" 
d="M692 319c-39 -231 -179 -331 -365 -331c-157 0 -244 96 -244 257c0 30 2 67 8 103c45 256 217 329 366 329c131 0 242 -79 242 -257c0 -30 -1 -64 -7 -101zM270 344c-5 -26 -8 -56 -8 -83c0 -68 21 -131 97 -131c92 0 138 91 155 192c4 23 6 52 6 78
c0 67 -20 134 -93 134c-90 0 -139 -91 -157 -190zM579 896l87 -41c-31 -71 -92 -136 -204 -136c-114 0 -157 78 -164 134l95 39c12 -47 35 -74 85 -74c47 0 73 25 101 78z" />
    <glyph glyph-name="obreve" unicode="&#x14f;" horiz-adv-x="531" 
d="M280 106c-37 0 -49 36 -49 80c0 26 3 60 9 92c15 83 46 129 93 129c35 0 50 -29 50 -77c0 -22 -2 -51 -8 -83c-17 -98 -46 -141 -95 -141zM67 265c-5 -28 -6 -57 -6 -81c0 -128 70 -200 194 -200c142 0 266 79 297 275c4 27 5 53 5 75c0 166 -125 193 -196 193
c-115 0 -257 -52 -294 -262zM482 771l90 -23c-34 -96 -93 -154 -201 -154c-114 0 -154 81 -159 154l89 23c12 -58 37 -79 84 -79c41 0 68 19 97 79z" />
    <glyph glyph-name="Ohungarumlaut" unicode="&#x150;" horiz-adv-x="666" 
d="M692 319c-39 -231 -179 -331 -365 -331c-157 0 -244 96 -244 257c0 30 2 67 8 103c45 256 217 329 366 329c131 0 242 -79 242 -257c0 -30 -1 -64 -7 -101zM270 344c-5 -26 -8 -56 -8 -83c0 -68 21 -131 97 -131c92 0 138 91 155 192c4 23 6 52 6 78
c0 67 -20 134 -93 134c-90 0 -139 -91 -157 -190zM502 749l184 156c29 -18 55 -46 55 -74c0 -26 -14 -42 -53 -62c-52 -28 -108 -49 -156 -68zM274 749l184 156c29 -18 55 -46 55 -74c0 -26 -14 -42 -53 -62c-52 -28 -108 -49 -156 -68z" />
    <glyph glyph-name="ohungarumlaut" unicode="&#x151;" horiz-adv-x="531" 
d="M280 106c49 0 78 43 95 141c6 32 8 61 8 83c0 48 -15 77 -50 77c-47 0 -78 -46 -93 -129c-6 -32 -9 -66 -9 -92c0 -44 12 -80 49 -80zM67 265c37 210 179 262 294 262c71 0 196 -27 196 -193c0 -22 -1 -48 -5 -75c-31 -196 -155 -275 -297 -275c-124 0 -194 72 -194 200
c0 24 1 53 6 81zM209 601l147 194c33 -10 73 -31 73 -65c0 -21 -12 -37 -45 -65c-45 -38 -100 -76 -138 -101zM403 601l151 194c30 -9 72 -30 72 -66c0 -20 -12 -36 -45 -64c-44 -38 -99 -76 -138 -101z" />
    <glyph glyph-name="OE" unicode="&#x152;" horiz-adv-x="900" 
d="M449 677c31 0 92 -5 123 -12h408l-27 -150h-262l-17 -102h224l-26 -148h-225l-20 -115h269l-26 -150h-420c-38 -9 -80 -15 -123 -15c-157 0 -243 104 -243 275c0 316 182 417 365 417zM262 271c0 -75 24 -145 109 -145c30 0 60 5 82 16l66 373c-15 8 -43 18 -80 18
c-135 0 -177 -152 -177 -262z" />
    <glyph glyph-name="oe" unicode="&#x153;" horiz-adv-x="779" 
d="M672 527c98 0 158 -45 158 -131c0 -168 -190 -198 -297 -205c-1 -45 23 -83 84 -83c48 0 94 21 130 42l35 -107c-20 -14 -99 -59 -211 -59c-76 0 -120 30 -147 69c-42 -44 -99 -69 -169 -69c-124 0 -194 72 -194 200c0 24 1 53 6 81c37 210 170 262 285 262
c47 0 107 -19 139 -68c44 42 104 68 181 68zM280 106c49 0 78 43 95 141c6 32 8 61 8 83c0 48 -15 77 -50 77c-47 0 -78 -46 -93 -129c-6 -32 -9 -66 -9 -92c0 -44 12 -80 49 -80zM683 377c0 22 -17 32 -35 32c-59 0 -92 -63 -105 -117c58 3 140 31 140 85z" />
    <glyph glyph-name="Racute" unicode="&#x154;" horiz-adv-x="607" 
d="M272 253l-44 -253h-172l117 665h238c141 0 227 -49 227 -163c0 -105 -65 -168 -141 -195c22 -11 31 -29 41 -63l66 -244h-185l-52 216c-7 26 -21 37 -47 37h-48zM294 374h65c60 0 99 38 99 101c0 44 -30 56 -85 56h-51zM321 749l184 156c29 -18 55 -46 55 -74
c0 -26 -14 -42 -53 -62c-52 -28 -108 -49 -156 -68z" />
    <glyph glyph-name="racute" unicode="&#x155;" horiz-adv-x="389" 
d="M277 313l-56 -313h-167l73 415l4 97h134l3 -71c37 63 89 86 131 86c29 0 60 -7 80 -20l-48 -139c-19 10 -43 18 -68 18c-43 0 -77 -26 -86 -73zM248 604l148 195c30 -9 78 -29 78 -70c0 -20 -11 -36 -44 -63c-43 -36 -105 -77 -143 -102z" />
    <glyph glyph-name="Rcommaaccent" unicode="&#x156;" horiz-adv-x="607" 
d="M272 253l-44 -253h-172l117 665h238c141 0 227 -49 227 -163c0 -105 -65 -168 -141 -195c22 -11 31 -29 41 -63l66 -244h-185l-52 216c-7 26 -21 37 -47 37h-48zM294 374h65c60 0 99 38 99 101c0 44 -30 56 -85 56h-51zM271 -51l-98 -210l52 -28c31 33 78 80 114 128
c18 24 30 46 30 63c0 42 -59 46 -98 47z" />
    <glyph glyph-name="rcommaaccent" unicode="&#x157;" horiz-adv-x="389" 
d="M277 313l-56 -313h-167l73 415l4 97h134l3 -71c37 63 89 86 131 86c29 0 60 -7 80 -20l-48 -139c-19 10 -43 18 -68 18c-43 0 -77 -26 -86 -73zM82 -51l-98 -210l52 -28c31 33 78 80 114 128c18 24 30 46 30 63c0 42 -59 46 -98 47z" />
    <glyph glyph-name="Rcaron" unicode="&#x158;" horiz-adv-x="607" 
d="M272 253l-44 -253h-172l117 665h238c141 0 227 -49 227 -163c0 -105 -65 -168 -141 -195c22 -11 31 -29 41 -63l66 -244h-185l-52 216c-7 26 -21 37 -47 37h-48zM294 374h65c60 0 99 38 99 101c0 44 -30 56 -85 56h-51zM305 896l101 -88l132 89l48 -48
c-40 -41 -82 -79 -122 -112c-30 -26 -52 -38 -73 -38s-39 12 -61 39c-30 37 -53 69 -81 111z" />
    <glyph glyph-name="rcaron" unicode="&#x159;" horiz-adv-x="389" 
d="M277 313l-56 -313h-167l73 415l4 97h134l3 -71c37 63 89 86 131 86c29 0 60 -7 80 -20l-48 -139c-19 10 -43 18 -68 18c-43 0 -77 -26 -86 -73zM467 795l51 -43c-36 -42 -94 -106 -136 -145c-31 -29 -44 -39 -73 -39c-31 0 -39 10 -60 39c-27 40 -66 105 -87 145l58 42
l106 -105z" />
    <glyph glyph-name="Sacute" unicode="&#x15a;" horiz-adv-x="544" 
d="M32 63l80 136c40 -28 119 -64 175 -64c43 0 80 16 80 62c0 45 -58 61 -117 84c-68 26 -136 67 -136 175c0 144 107 220 262 220c102 0 193 -51 240 -105l-102 -106c-46 39 -97 68 -146 68c-40 0 -70 -16 -70 -52c0 -49 43 -61 116 -91c70 -29 142 -71 142 -174
c0 -140 -114 -230 -276 -230c-114 0 -210 47 -248 77zM296 749l184 156c29 -18 55 -46 55 -74c0 -26 -14 -42 -53 -62c-52 -28 -108 -49 -156 -68z" />
    <glyph glyph-name="sacute" unicode="&#x15b;" horiz-adv-x="446" 
d="M26 44l62 113c34 -23 96 -51 143 -51c33 0 54 13 54 40c0 28 -44 41 -84 56c-53 20 -119 50 -119 146c0 117 95 179 218 179c80 0 156 -37 196 -83l-85 -87c-38 33 -76 51 -109 51c-34 0 -52 -17 -52 -38c0 -35 33 -45 93 -69c53 -21 111 -54 111 -139
c0 -115 -92 -178 -228 -178c-96 0 -172 37 -200 60zM244 604l148 195c30 -9 78 -29 78 -70c0 -20 -11 -36 -44 -63c-43 -36 -105 -77 -143 -102z" />
    <glyph glyph-name="Scircumflex" unicode="&#x15c;" horiz-adv-x="544" 
d="M32 63l80 136c40 -28 119 -64 175 -64c43 0 80 16 80 62c0 45 -58 61 -117 84c-68 26 -136 67 -136 175c0 144 107 220 262 220c102 0 193 -51 240 -105l-102 -106c-46 39 -97 68 -146 68c-40 0 -70 -16 -70 -52c0 -49 43 -61 116 -91c70 -29 142 -71 142 -174
c0 -140 -114 -230 -276 -230c-114 0 -210 47 -248 77zM291 700l-49 46c39 39 88 84 127 117c26 22 41 33 67 33c19 0 34 -13 53 -33c30 -31 66 -82 90 -117l-53 -45l-104 86z" />
    <glyph glyph-name="scircumflex" unicode="&#x15d;" horiz-adv-x="446" 
d="M26 44l62 113c34 -23 96 -51 143 -51c33 0 54 13 54 40c0 28 -44 41 -84 56c-53 20 -119 50 -119 146c0 117 95 179 218 179c80 0 156 -37 196 -83l-85 -87c-38 33 -76 51 -109 51c-34 0 -52 -17 -52 -38c0 -35 33 -45 93 -69c53 -21 111 -54 111 -139
c0 -115 -92 -178 -228 -178c-96 0 -172 37 -200 60zM209 568l-51 43c35 43 94 106 135 145c32 29 44 39 73 39c31 0 39 -10 60 -39c27 -39 66 -107 86 -145l-55 -42l-107 106z" />
    <glyph glyph-name="Scedilla" unicode="&#x15e;" horiz-adv-x="544" 
d="M26 63l80 136c40 -28 122 -64 178 -64c43 0 80 16 80 62c0 45 -55 61 -114 84c-68 26 -134 67 -134 175c0 144 109 220 264 220c102 0 191 -51 238 -105l-102 -106c-46 39 -97 68 -146 68c-40 0 -70 -16 -70 -52c0 -49 42 -59 114 -91c67 -30 139 -71 139 -174
c0 -131 -100 -218 -246 -229l-21 -45c51 -4 85 -33 85 -82c0 -89 -85 -109 -147 -109c-43 0 -80 10 -101 20l31 67c13 -5 42 -14 68 -14c30 0 53 9 53 33c0 27 -40 32 -86 31l49 100c-97 9 -179 48 -212 75z" />
    <glyph glyph-name="scedilla" unicode="&#x15f;" horiz-adv-x="446" 
d="M26 44l62 113c34 -23 96 -51 143 -51c33 0 54 13 54 40c0 28 -44 41 -84 56c-53 20 -119 50 -119 146c0 117 95 179 218 179c80 0 156 -37 196 -83l-85 -87c-38 33 -76 51 -109 51c-34 0 -52 -17 -52 -38c0 -35 33 -45 93 -69c53 -21 111 -54 111 -139
c0 -101 -71 -162 -180 -175l-21 -45c51 -4 85 -33 85 -82c0 -89 -85 -109 -147 -109c-43 0 -80 10 -101 20l31 67c13 -5 42 -14 68 -14c30 0 53 9 53 33c0 27 -40 32 -86 31l48 97c-86 5 -152 38 -178 59z" />
    <glyph glyph-name="Scaron" unicode="&#x160;" horiz-adv-x="544" 
d="M32 63l80 136c40 -28 119 -64 175 -64c43 0 80 16 80 62c0 45 -58 61 -117 84c-68 26 -136 67 -136 175c0 144 107 220 262 220c102 0 193 -51 240 -105l-102 -106c-46 39 -97 68 -146 68c-40 0 -70 -16 -70 -52c0 -49 43 -61 116 -91c70 -29 142 -71 142 -174
c0 -140 -114 -230 -276 -230c-114 0 -210 47 -248 77zM317 896l101 -88l132 89l48 -48c-40 -41 -82 -79 -122 -112c-30 -26 -52 -38 -73 -38s-39 12 -61 39c-30 37 -53 69 -81 111z" />
    <glyph glyph-name="scaron" unicode="&#x161;" horiz-adv-x="446" 
d="M26 44l62 113c34 -23 96 -51 143 -51c33 0 54 13 54 40c0 28 -44 41 -84 56c-53 20 -119 50 -119 146c0 117 95 179 218 179c80 0 156 -37 196 -83l-85 -87c-38 33 -76 51 -109 51c-34 0 -52 -17 -52 -38c0 -35 33 -45 93 -69c53 -21 111 -54 111 -139
c0 -115 -92 -178 -228 -178c-96 0 -172 37 -200 60zM486 795l51 -43c-36 -42 -94 -106 -136 -145c-31 -29 -44 -39 -73 -39c-31 0 -39 10 -60 39c-27 40 -66 105 -87 145l58 42l106 -105z" />
    <glyph glyph-name="Scommaaccent" unicode="&#x218;" horiz-adv-x="544" 
d="M32 63l80 136c40 -28 119 -64 175 -64c43 0 80 16 80 62c0 45 -58 61 -117 84c-68 26 -136 67 -136 175c0 144 107 220 262 220c102 0 193 -51 240 -105l-102 -106c-46 39 -97 68 -146 68c-40 0 -70 -16 -70 -52c0 -49 43 -61 116 -91c70 -29 142 -71 142 -174
c0 -140 -114 -230 -276 -230c-114 0 -210 47 -248 77zM211 -51l-98 -210l52 -28c31 33 78 80 114 128c18 24 30 46 30 63c0 42 -59 46 -98 47z" />
    <glyph glyph-name="scommaaccent" unicode="&#x219;" horiz-adv-x="446" 
d="M26 44l62 113c34 -23 96 -51 143 -51c33 0 54 13 54 40c0 28 -44 41 -84 56c-53 20 -119 50 -119 146c0 117 95 179 218 179c80 0 156 -37 196 -83l-85 -87c-38 33 -76 51 -109 51c-34 0 -52 -17 -52 -38c0 -35 33 -45 93 -69c53 -21 111 -54 111 -139
c0 -115 -92 -178 -228 -178c-96 0 -172 37 -200 60zM164 -51l-98 -210l52 -28c31 33 78 80 114 128c18 24 30 46 30 63c0 42 -59 46 -98 47z" />
    <glyph glyph-name="uni021A" unicode="&#x21a;" horiz-adv-x="563" 
d="M132 665h533l-27 -150h-183l-91 -515h-171l90 515h-177zM217 -51l-98 -210l52 -28c31 33 78 80 114 128c18 24 30 46 30 63c0 42 -59 46 -98 47z" />
    <glyph glyph-name="uni021B" unicode="&#x21b;" horiz-adv-x="373" 
d="M175 695h168l-33 -183h125l-22 -131h-126l-36 -199c-1 -10 -2 -23 -2 -31c1 -35 23 -41 50 -41c20 0 40 8 57 18l22 -107c-35 -20 -97 -37 -152 -37c-120 0 -149 58 -150 122c0 24 4 48 9 75zM139 -51l-98 -210l52 -28c31 33 78 80 114 128c18 24 30 46 30 63
c0 42 -59 46 -98 47z" />
    <glyph glyph-name="Tcaron" unicode="&#x164;" horiz-adv-x="563" 
d="M132 665h533l-27 -150h-183l-91 -515h-171l90 515h-177zM317 896l101 -88l132 89l48 -48c-40 -41 -82 -79 -122 -112c-30 -26 -52 -38 -73 -38s-39 12 -61 39c-30 37 -53 69 -81 111z" />
    <glyph glyph-name="tcaron" unicode="&#x165;" horiz-adv-x="373" 
d="M175 695h168l-33 -183h125l-22 -131h-126l-36 -199c-1 -10 -2 -23 -2 -31c1 -35 23 -41 50 -41c20 0 40 8 57 18l22 -107c-35 -20 -97 -37 -152 -37c-120 0 -149 58 -150 122c0 24 4 48 9 75zM376 575l39 223c19 4 39 8 61 8c35 0 52 -13 52 -40c0 -20 -13 -53 -30 -88
c-21 -45 -48 -91 -63 -115z" />
    <glyph glyph-name="Tbar" unicode="&#x166;" horiz-adv-x="563" 
d="M133 665h532l-27 -150h-183l-32 -181h98l-18 -103h-98l-41 -231h-171l41 231h-97l18 103h97l31 181h-176z" />
    <glyph glyph-name="tbar" unicode="&#x167;" horiz-adv-x="373" 
d="M175 695h168l-33 -184h125l-22 -129h-126l-11 -57h125l-22 -123h-125l-3 -20c-1 -10 -2 -23 -2 -31c1 -35 23 -41 50 -41c20 0 40 8 57 18l22 -107c-35 -20 -97 -37 -152 -37c-120 0 -149 58 -150 122c0 24 4 48 9 75z" />
    <glyph glyph-name="uni0162" unicode="&#x162;" horiz-adv-x="563" 
d="M132 665h533l-27 -150h-183l-91 -515h-66l-27 -58c51 -4 85 -33 85 -82c0 -89 -85 -109 -147 -109c-43 0 -80 10 -101 20l31 67c13 -5 42 -14 68 -14c30 0 53 9 53 33c0 27 -40 32 -86 31l55 112h-36l90 515h-177z" />
    <glyph glyph-name="uni0163" unicode="&#x163;" horiz-adv-x="373" 
d="M175 695h168l-33 -183h125l-22 -131h-126l-36 -199c-1 -10 -2 -23 -2 -31c1 -35 23 -41 50 -41c20 0 40 8 57 18l22 -107c-32 -18 -86 -34 -137 -36l-20 -43c51 -4 85 -33 85 -82c0 -89 -85 -109 -147 -109c-43 0 -80 10 -101 20l31 67c13 -5 42 -14 68 -14
c30 0 53 9 53 33c0 27 -40 32 -86 31l50 101c-77 14 -97 63 -98 117c0 24 4 48 9 75z" />
    <glyph glyph-name="Utilde" unicode="&#x168;" horiz-adv-x="629" 
d="M168 665h171l-77 -436c-2 -10 -3 -19 -3 -28c0 -42 22 -70 81 -70c60 0 95 29 106 93l78 441h171l-81 -460c-26 -145 -120 -219 -287 -219c-164 0 -241 61 -241 180c0 18 2 38 6 59zM300 726l4 92c33 22 65 31 92 31c55 0 89 -26 137 -26c22 0 46 7 68 18l-7 -98
c-24 -12 -44 -19 -74 -19c-45 0 -98 23 -139 23c-28 0 -52 -6 -81 -21z" />
    <glyph glyph-name="utilde" unicode="&#x169;" horiz-adv-x="545" 
d="M416 512h167l-72 -415l-7 -97h-140v49l-6 1c-45 -49 -94 -63 -140 -63c-96 0 -143 43 -143 130c0 15 2 35 5 53l60 342h167l-57 -322c-2 -14 -4 -27 -4 -38c0 -23 8 -39 40 -39c35 0 66 29 73 70zM244 612l5 93c33 22 65 31 93 31c54 0 88 -27 136 -27c22 0 46 8 68 19
l-8 -98c-24 -13 -45 -20 -74 -20c-46 0 -98 24 -139 24c-29 0 -52 -7 -81 -22z" />
    <glyph glyph-name="Umacron" unicode="&#x16a;" horiz-adv-x="629" 
d="M168 665h171l-77 -436c-2 -10 -3 -19 -3 -28c0 -42 22 -70 81 -70c60 0 95 29 106 93l78 441h171l-81 -460c-26 -145 -120 -219 -287 -219c-164 0 -241 61 -241 180c0 18 2 38 6 59zM285 725l20 113h318l-20 -113h-318z" />
    <glyph glyph-name="umacron" unicode="&#x16b;" horiz-adv-x="545" 
d="M416 512h167l-72 -415l-7 -97h-140v49l-6 1c-45 -49 -94 -63 -140 -63c-96 0 -143 43 -143 130c0 15 2 35 5 53l60 342h167l-57 -322c-2 -14 -4 -27 -4 -38c0 -23 8 -39 40 -39c35 0 66 29 73 70zM222 618l20 113h317l-20 -113h-317z" />
    <glyph glyph-name="Ubreve" unicode="&#x16c;" horiz-adv-x="629" 
d="M168 665h171l-77 -436c-2 -10 -3 -19 -3 -28c0 -42 22 -70 81 -70c60 0 95 29 106 93l78 441h171l-81 -460c-26 -145 -120 -219 -287 -219c-164 0 -241 61 -241 180c0 18 2 38 6 59zM561 896l87 -41c-31 -71 -92 -136 -204 -136c-114 0 -157 78 -164 134l95 39
c12 -47 35 -74 85 -74c47 0 73 25 101 78z" />
    <glyph glyph-name="ubreve" unicode="&#x16d;" horiz-adv-x="545" 
d="M416 512h167l-72 -415l-7 -97h-140v49l-6 1c-45 -49 -94 -63 -140 -63c-96 0 -143 43 -143 130c0 15 2 35 5 53l60 342h167l-57 -322c-2 -14 -4 -27 -4 -38c0 -23 8 -39 40 -39c35 0 66 29 73 70zM494 771l90 -23c-34 -96 -93 -154 -201 -154c-114 0 -154 81 -159 154
l89 23c12 -58 37 -79 84 -79c41 0 68 19 97 79z" />
    <glyph glyph-name="Uring" unicode="&#x16e;" horiz-adv-x="629" 
d="M168 665h171l-77 -436c-2 -10 -3 -19 -3 -28c0 -42 22 -70 81 -70c60 0 95 29 106 93l78 441h171l-81 -460c-26 -145 -120 -219 -287 -219c-164 0 -241 61 -241 180c0 18 2 38 6 59zM344 779c0 70 46 118 116 118c60 0 86 -37 86 -80c0 -70 -49 -118 -115 -118
c-59 0 -87 36 -87 80zM450 835c-24 0 -38 -18 -38 -45c0 -17 11 -29 29 -29c23 0 37 22 37 45c0 18 -9 29 -28 29z" />
    <glyph glyph-name="uring" unicode="&#x16f;" horiz-adv-x="545" 
d="M416 512h167l-72 -415l-7 -97h-140v49l-6 1c-45 -49 -94 -63 -140 -63c-96 0 -143 43 -143 130c0 15 2 35 5 53l60 342h167l-57 -322c-2 -14 -4 -27 -4 -38c0 -23 8 -39 40 -39c35 0 66 29 73 70zM289 636c0 66 44 108 114 108c60 0 88 -32 88 -78
c0 -66 -44 -109 -110 -109c-59 0 -92 31 -92 79zM395 683c-23 0 -36 -15 -36 -37c0 -17 11 -27 28 -27c22 0 34 16 34 38c0 16 -8 26 -26 26z" />
    <glyph glyph-name="Uhungarumlaut" unicode="&#x170;" horiz-adv-x="629" 
d="M168 665h171l-77 -436c-2 -10 -3 -19 -3 -28c0 -42 22 -70 81 -70c60 0 95 29 106 93l78 441h171l-81 -460c-26 -145 -120 -219 -287 -219c-164 0 -241 61 -241 180c0 18 2 38 6 59zM458 749l184 156c29 -18 55 -46 55 -74c0 -26 -14 -42 -53 -62
c-52 -28 -108 -49 -156 -68zM230 749l184 156c29 -18 55 -46 55 -74c0 -26 -14 -42 -53 -62c-52 -28 -108 -49 -156 -68z" />
    <glyph glyph-name="uhungarumlaut" unicode="&#x171;" horiz-adv-x="545" 
d="M416 512h167l-72 -415l-7 -97h-140v49l-6 1c-45 -49 -94 -63 -140 -63c-96 0 -143 43 -143 130c0 15 2 35 5 53l60 342h167l-57 -322c-2 -14 -4 -27 -4 -38c0 -23 8 -39 40 -39c35 0 66 29 73 70zM211 601l147 194c33 -10 73 -31 73 -65c0 -21 -12 -37 -45 -65
c-45 -38 -100 -76 -138 -101zM405 601l151 194c30 -9 72 -30 72 -66c0 -20 -12 -36 -45 -64c-44 -38 -99 -76 -138 -101z" />
    <glyph glyph-name="Uogonek" unicode="&#x172;" horiz-adv-x="629" 
d="M168 665h171l-77 -436c-2 -10 -3 -19 -3 -28c0 -42 22 -70 81 -70c60 0 95 29 106 93l78 441h171l-81 -460c-18 -103 -68 -159 -149 -201c-46 -24 -105 -92 -105 -130c0 -14 7 -27 30 -27c20 0 32 4 50 11l14 -83c-25 -13 -65 -22 -106 -22c-76 0 -106 39 -106 84
c0 63 51 117 88 149h-3c-164 0 -241 61 -241 180c0 18 2 38 6 59z" />
    <glyph glyph-name="uogonek" unicode="&#x173;" horiz-adv-x="545" 
d="M416 512h167l-72 -415l-7 -97c-48 -30 -98 -88 -98 -126c0 -14 7 -27 30 -27c20 0 32 4 50 11l14 -83c-25 -13 -65 -22 -106 -22c-76 0 -106 39 -106 84c0 73 70 135 105 163h-29v49l-6 1c-45 -49 -94 -63 -140 -63c-96 0 -143 43 -143 130c0 15 2 35 5 53l60 342h167
l-57 -322c-2 -14 -4 -27 -4 -38c0 -23 8 -39 40 -39c35 0 66 29 73 70z" />
    <glyph glyph-name="Wcircumflex" unicode="&#x174;" horiz-adv-x="820" 
d="M500 0l-16 359h-6l-146 -359h-183l-24 665h166l3 -427h3l143 377h172l6 -363h4l135 413h171l-249 -665h-179zM426 700l-49 46c39 39 88 84 127 117c26 22 41 33 67 33c19 0 34 -13 53 -33c30 -31 66 -82 90 -117l-53 -45l-104 86z" />
    <glyph glyph-name="wcircumflex" unicode="&#x175;" horiz-adv-x="779" 
d="M641 511h164c3 -25 5 -78 5 -110c0 -263 -93 -414 -282 -414c-74 0 -115 29 -132 69c-47 -49 -103 -69 -167 -69c-98 0 -153 42 -154 130c0 15 2 32 5 51l60 343h167l-58 -331c-2 -11 -4 -21 -4 -31c0 -20 8 -35 34 -35c34 0 58 27 64 64l59 333h166l-59 -327
c-2 -11 -4 -27 -4 -36c0 -20 6 -34 32 -34c68 0 107 128 107 288c0 31 -1 84 -3 109zM372 568l-51 43c35 43 94 106 135 145c32 29 44 39 73 39c31 0 39 -10 60 -39c27 -39 66 -107 86 -145l-55 -42l-107 106z" />
    <glyph glyph-name="Wgrave" unicode="&#x1e80;" horiz-adv-x="820" 
d="M500 0l-16 359h-6l-146 -359h-183l-24 665h166l3 -427h3l143 377h172l6 -363h4l135 413h171l-249 -665h-179zM492 909l156 -163l-42 -46c-37 18 -102 48 -144 75c-27 17 -38 33 -38 52c0 36 33 61 68 82z" />
    <glyph glyph-name="wgrave" unicode="&#x1e81;" horiz-adv-x="779" 
d="M641 511h164c3 -25 5 -78 5 -110c0 -263 -93 -414 -282 -414c-74 0 -115 29 -132 69c-47 -49 -103 -69 -167 -69c-98 0 -153 42 -154 130c0 15 2 32 5 51l60 343h167l-58 -331c-2 -11 -4 -21 -4 -31c0 -20 8 -35 34 -35c34 0 58 27 64 64l59 333h166l-59 -327
c-2 -11 -4 -27 -4 -36c0 -20 6 -34 32 -34c68 0 107 128 107 288c0 31 -1 84 -3 109zM487 806l104 -206l-53 -36c-29 25 -83 73 -116 111c-15 20 -23 37 -23 52c0 48 52 68 88 79z" />
    <glyph glyph-name="Wacute" unicode="&#x1e82;" horiz-adv-x="820" 
d="M500 0l-16 359h-6l-146 -359h-183l-24 665h166l3 -427h3l143 377h172l6 -363h4l135 413h171l-249 -665h-179zM436 749l184 156c29 -18 55 -46 55 -74c0 -26 -14 -42 -53 -62c-52 -28 -108 -49 -156 -68z" />
    <glyph glyph-name="wacute" unicode="&#x1e83;" horiz-adv-x="779" 
d="M641 511h164c3 -25 5 -78 5 -110c0 -263 -93 -414 -282 -414c-74 0 -115 29 -132 69c-47 -49 -103 -69 -167 -69c-98 0 -153 42 -154 130c0 15 2 32 5 51l60 343h167l-58 -331c-2 -11 -4 -21 -4 -31c0 -20 8 -35 34 -35c34 0 58 27 64 64l59 333h166l-59 -327
c-2 -11 -4 -27 -4 -36c0 -20 6 -34 32 -34c68 0 107 128 107 288c0 31 -1 84 -3 109zM396 604l148 195c30 -9 78 -29 78 -70c0 -20 -11 -36 -44 -63c-43 -36 -105 -77 -143 -102z" />
    <glyph glyph-name="Wdieresis" unicode="&#x1e84;" horiz-adv-x="820" 
d="M500 0l-16 359h-6l-146 -359h-183l-24 665h166l3 -427h3l143 377h172l6 -363h4l135 413h171l-249 -665h-179zM576 773c0 45 38 83 91 83c41 0 65 -26 65 -61c0 -45 -39 -83 -91 -83c-41 0 -65 26 -65 61zM358 773c0 45 38 83 91 83c41 0 65 -26 65 -61
c0 -45 -39 -83 -91 -83c-41 0 -65 26 -65 61z" />
    <glyph glyph-name="wdieresis" unicode="&#x1e85;" horiz-adv-x="779" 
d="M641 511h164c3 -25 5 -78 5 -110c0 -263 -93 -414 -282 -414c-74 0 -115 29 -132 69c-47 -49 -103 -69 -167 -69c-98 0 -153 42 -154 130c0 15 2 32 5 51l60 343h167l-58 -331c-2 -11 -4 -21 -4 -31c0 -20 8 -35 34 -35c34 0 58 27 64 64l59 333h166l-59 -327
c-2 -11 -4 -27 -4 -36c0 -20 6 -34 32 -34c68 0 107 128 107 288c0 31 -1 84 -3 109zM540 656c0 45 38 83 91 83c41 0 65 -26 65 -61c0 -45 -39 -83 -91 -83c-41 0 -65 26 -65 61zM322 656c0 45 38 83 91 83c41 0 65 -26 65 -61c0 -45 -39 -83 -91 -83c-41 0 -65 26 -65 61z
" />
    <glyph glyph-name="Ygrave" unicode="&#x1ef2;" horiz-adv-x="594" 
d="M719 665h-189l-166 -249h-3l-72 249h-177l142 -410l-45 -255h172l44 256zM368 909l156 -163l-42 -46c-37 18 -102 48 -144 75c-27 17 -38 33 -38 52c0 36 33 61 68 82z" />
    <glyph glyph-name="ygrave" unicode="&#x1ef3;" horiz-adv-x="540" 
d="M584 511l-71 -399c-5 -27 -22 -108 -30 -139c-39 -157 -127 -239 -270 -239c-107 0 -162 50 -162 126c0 69 36 126 132 182c-69 13 -101 50 -101 115c0 13 1 28 4 44l54 310h167l-53 -302c-2 -12 -4 -24 -4 -34c0 -24 9 -40 43 -40c33 0 61 26 69 68l54 308h168z
M203 -107c0 -28 14 -39 40 -39c45 0 66 34 78 96l18 101c-18 -15 -38 -28 -64 -46c-41 -30 -72 -66 -72 -112zM359 806l104 -206l-53 -36c-29 25 -83 73 -116 111c-15 20 -23 37 -23 52c0 48 52 68 88 79z" />
    <glyph glyph-name="Ycircumflex" unicode="&#x176;" horiz-adv-x="594" 
d="M719 665h-189l-166 -249h-3l-72 249h-177l142 -410l-45 -255h172l44 256zM309 700l-49 46c39 39 88 84 127 117c26 22 41 33 67 33c19 0 34 -13 53 -33c30 -31 66 -82 90 -117l-53 -45l-104 86z" />
    <glyph glyph-name="ycircumflex" unicode="&#x177;" horiz-adv-x="540" 
d="M584 511l-71 -399c-5 -27 -22 -108 -30 -139c-39 -157 -127 -239 -270 -239c-107 0 -162 50 -162 126c0 69 36 126 132 182c-69 13 -101 50 -101 115c0 13 1 28 4 44l54 310h167l-53 -302c-2 -12 -4 -24 -4 -34c0 -24 9 -40 43 -40c33 0 61 26 69 68l54 308h168z
M203 -107c0 -28 14 -39 40 -39c45 0 66 34 78 96l18 101c-18 -15 -38 -28 -64 -46c-41 -30 -72 -66 -72 -112zM256 568l-51 43c35 43 94 106 135 145c32 29 44 39 73 39c31 0 39 -10 60 -39c27 -39 66 -107 86 -145l-55 -42l-107 106z" />
    <glyph glyph-name="Ydieresis" unicode="&#x178;" horiz-adv-x="594" 
d="M719 665h-189l-166 -249h-3l-72 249h-177l142 -410l-45 -255h172l44 256zM462 773c0 45 38 83 91 83c41 0 65 -26 65 -61c0 -45 -39 -83 -91 -83c-41 0 -65 26 -65 61zM244 773c0 45 38 83 91 83c41 0 65 -26 65 -61c0 -45 -39 -83 -91 -83c-41 0 -65 26 -65 61z" />
    <glyph glyph-name="Zacute" unicode="&#x179;" horiz-adv-x="525" 
d="M596 566l-344 -434h278l-23 -132h-485l19 106l339 428h-259l23 131h470zM295 749l184 156c29 -18 55 -46 55 -74c0 -26 -14 -42 -53 -62c-52 -28 -108 -49 -156 -68z" />
    <glyph glyph-name="zacute" unicode="&#x17a;" horiz-adv-x="435" 
d="M133 -92c0 -30 14 -50 46 -50c56 0 90 61 90 125c0 26 -6 50 -23 63c-71 -33 -113 -87 -113 -138zM514 512l-16 -93l-238 -202l50 -23c83 -39 119 -107 119 -193c0 -170 -121 -266 -272 -266c-119 0 -176 52 -176 143c0 97 58 173 186 232c-27 17 -56 29 -81 39l15 86
l179 148h-196l23 129h407zM252 604l148 195c30 -9 78 -29 78 -70c0 -20 -11 -36 -44 -63c-43 -36 -105 -77 -143 -102z" />
    <glyph glyph-name="Zdotaccent" unicode="&#x17b;" horiz-adv-x="525" 
d="M596 566l-344 -434h278l-23 -132h-485l19 106l339 428h-259l23 131h470zM307 789c0 52 44 97 104 97c48 0 76 -32 76 -72c0 -53 -46 -95 -104 -95c-49 0 -76 29 -76 70z" />
    <glyph glyph-name="zdotaccent" unicode="&#x17c;" horiz-adv-x="435" 
d="M133 -92c0 51 42 105 113 138c17 -13 23 -37 23 -63c0 -64 -34 -125 -90 -125c-32 0 -46 20 -46 50zM498 419l16 93h-407l-23 -129h196l-179 -148l-15 -86c25 -10 54 -22 81 -39c-128 -59 -186 -135 -186 -232c0 -91 57 -143 176 -143c151 0 272 96 272 266
c0 86 -36 154 -119 193l-50 23zM242 644c0 52 44 97 104 97c47 0 76 -32 76 -71c0 -53 -46 -95 -105 -95c-48 0 -75 29 -75 69z" />
    <glyph glyph-name="Zcaron" unicode="&#x17d;" horiz-adv-x="525" 
d="M596 566l-344 -434h278l-23 -132h-485l19 106l339 428h-259l23 131h470zM291 896l101 -88l132 89l48 -48c-40 -41 -82 -79 -122 -112c-30 -26 -52 -38 -73 -38s-39 12 -61 39c-30 37 -53 69 -81 111z" />
    <glyph glyph-name="zcaron" unicode="&#x17e;" horiz-adv-x="435" 
d="M133 -92c0 51 42 105 113 138c17 -13 23 -37 23 -63c0 -64 -34 -125 -90 -125c-32 0 -46 20 -46 50zM498 419l16 93h-407l-23 -129h196l-179 -148l-15 -86c25 -10 54 -22 81 -39c-128 -59 -186 -135 -186 -232c0 -91 57 -143 176 -143c151 0 272 96 272 266
c0 86 -36 154 -119 193l-50 23zM478 795l51 -43c-36 -42 -94 -106 -136 -145c-31 -29 -44 -39 -73 -39c-31 0 -39 10 -60 39c-27 40 -66 105 -87 145l58 42l106 -105z" />
    <glyph glyph-name="longs" unicode="&#x17f;" horiz-adv-x="358" 
d="M317 555l-134 -765h-167l132 748c19 106 53 198 210 198c60 0 125 -19 162 -43l-55 -106c-30 17 -65 26 -86 26c-33 0 -53 -13 -62 -58z" />
    <glyph glyph-name="dotlessj" unicode="&#x237;" horiz-adv-x="266" 
d="M51 -14l93 526h166l-95 -536c-18 -104 -43 -200 -198 -200c-51 0 -115 15 -152 39l60 116c20 -11 43 -19 63 -19c37 0 53 19 63 74z" />
    <glyph glyph-name="circumflex" unicode="&#x2c6;" horiz-adv-x="500" 
d="M231 568l-51 43c35 43 94 106 135 145c32 29 44 39 73 39c31 0 39 -10 60 -39c27 -39 66 -107 86 -145l-55 -42l-107 106z" />
    <glyph glyph-name="caron" unicode="&#x2c7;" horiz-adv-x="500" 
d="M507 795l51 -43c-36 -42 -94 -106 -136 -145c-31 -29 -44 -39 -73 -39c-31 0 -39 10 -60 39c-27 40 -66 105 -87 145l58 42l106 -105z" />
    <glyph glyph-name="uni02C9" unicode="&#x2c9;" horiz-adv-x="500" 
d="M198 618l20 113h317l-20 -113h-317z" />
    <glyph glyph-name="breve" unicode="&#x2d8;" horiz-adv-x="500" 
d="M470 771l90 -23c-34 -96 -93 -154 -201 -154c-114 0 -154 81 -159 154l89 23c12 -58 37 -79 84 -79c41 0 68 19 97 79z" />
    <glyph glyph-name="dieresis" unicode="&#xa8;" horiz-adv-x="500" 
d="M400 665c0 45 38 83 91 83c41 0 65 -26 65 -61c0 -45 -39 -83 -91 -83c-41 0 -65 26 -65 61zM182 665c0 45 38 83 91 83c41 0 65 -26 65 -61c0 -45 -39 -83 -91 -83c-41 0 -65 26 -65 61z" />
    <glyph glyph-name="macron" unicode="&#xaf;" horiz-adv-x="500" 
d="M198 618l20 113h317l-20 -113h-317z" />
    <glyph glyph-name="degree" unicode="&#xb0;" horiz-adv-x="298" 
d="M130 577c0 82 67 147 147 147c67 0 103 -45 103 -101c0 -81 -66 -149 -150 -149c-66 0 -100 45 -100 103zM206 587c0 -25 12 -45 38 -45c37 0 60 34 60 69c0 26 -13 44 -40 44c-40 0 -58 -32 -58 -68z" />
    <glyph glyph-name="acute" unicode="&#xb4;" horiz-adv-x="500" 
d="M248 604l148 195c30 -9 78 -29 78 -70c0 -20 -11 -36 -44 -63c-43 -36 -105 -77 -143 -102z" />
    <glyph glyph-name="grave" unicode="`" horiz-adv-x="500" 
d="M359 806l104 -206l-53 -36c-29 25 -83 73 -116 111c-15 20 -23 37 -23 52c0 48 52 68 88 79z" />
    <glyph glyph-name="cedilla" unicode="&#xb8;" horiz-adv-x="500" 
d="M213 3h69l-29 -61c51 -4 85 -33 85 -82c0 -89 -85 -109 -147 -109c-43 0 -80 10 -101 20l31 67c13 -5 42 -14 68 -14c30 0 53 9 53 33c0 27 -40 32 -86 31z" />
    <glyph glyph-name="dotaccent" unicode="&#x2d9;" horiz-adv-x="500" 
d="M277 644c0 52 44 97 104 97c47 0 76 -32 76 -71c0 -53 -46 -95 -105 -95c-48 0 -75 29 -75 69z" />
    <glyph glyph-name="ring" unicode="&#x2da;" horiz-adv-x="500" 
d="M263 636c0 66 44 108 114 108c60 0 88 -32 88 -78c0 -66 -44 -109 -110 -109c-59 0 -92 31 -92 79zM369 683c-23 0 -36 -15 -36 -37c0 -17 11 -27 28 -27c22 0 34 16 34 38c0 16 -8 26 -26 26z" />
    <glyph glyph-name="ogonek" unicode="&#x2db;" horiz-adv-x="500" 
d="M218 2l103 -1c-42 -30 -93 -89 -93 -127c0 -14 7 -27 30 -27c20 0 32 4 50 11l14 -83c-25 -13 -65 -22 -106 -22c-76 0 -106 39 -106 84c0 75 74 138 108 165z" />
    <glyph glyph-name="tilde" unicode="&#x2dc;" horiz-adv-x="500" 
d="M216 612l5 93c33 22 65 31 93 31c54 0 88 -27 136 -27c22 0 46 8 68 19l-8 -98c-24 -13 -45 -20 -74 -20c-46 0 -98 24 -139 24c-29 0 -52 -7 -81 -22z" />
    <glyph glyph-name="hungarumlaut" unicode="&#x2dd;" horiz-adv-x="500" 
d="M146 601l147 194c33 -10 73 -31 73 -65c0 -21 -12 -37 -45 -65c-45 -38 -100 -76 -138 -101zM340 601l151 194c30 -9 72 -30 72 -66c0 -20 -12 -36 -45 -64c-44 -38 -99 -76 -138 -101z" />
    <glyph glyph-name="perthousand" unicode="&#x2030;" horiz-adv-x="970" 
d="M871 293c67 0 120 -43 120 -123c0 -123 -73 -185 -170 -185c-76 0 -120 47 -120 123c0 125 77 185 170 185zM831 55c28 0 59 29 60 117c0 37 -12 49 -32 49c-27 0 -58 -30 -58 -119c0 -33 11 -47 30 -47zM557 293c67 0 120 -43 120 -123c0 -123 -73 -185 -170 -185
c-76 0 -120 47 -120 123c0 125 77 185 170 185zM517 55c28 0 59 29 60 117c0 37 -12 49 -32 49c-27 0 -58 -30 -58 -119c0 -33 11 -47 30 -47zM270 657c67 0 120 -43 120 -123c0 -123 -73 -185 -170 -185c-76 0 -120 47 -120 123c0 125 77 185 170 185zM230 419
c28 0 59 29 60 117c0 37 -12 49 -32 49c-27 0 -58 -30 -58 -119c0 -33 11 -47 30 -47zM158 93l-55 86l506 368l57 -86z" />
    <glyph glyph-name="percent" unicode="%" horiz-adv-x="827" 
d="M717 347c79 0 131 -51 131 -136c0 -15 -1 -33 -4 -51c-23 -128 -97 -177 -191 -177c-92 0 -137 52 -137 133c0 17 1 40 5 61c22 125 102 170 196 170zM662 61c29 0 54 15 68 98c4 22 5 42 5 56c0 38 -14 53 -34 53c-30 0 -53 -18 -68 -102c-3 -19 -4 -41 -4 -54
c0 -37 13 -51 33 -51zM301 657c79 0 131 -51 131 -136c0 -15 -1 -33 -4 -51c-23 -128 -97 -177 -191 -177c-92 0 -137 52 -137 133c0 17 1 40 5 61c22 125 102 170 196 170zM246 371c29 0 54 15 68 98c4 22 5 42 5 56c0 38 -14 53 -34 53c-30 0 -53 -18 -68 -102
c-3 -19 -4 -41 -4 -54c0 -37 13 -51 33 -51zM320 -14l-95 44l402 626l98 -43z" />
    <glyph glyph-name="fraction" unicode="&#x2044;" horiz-adv-x="234" 
d="M11 -22l-91 52l402 626l93 -50z" />
    <glyph glyph-name="zerosuperior" unicode="&#x2070;" horiz-adv-x="377" 
d="M317 737c81 0 139 -45 139 -146c0 -18 -1 -37 -5 -59c-25 -138 -103 -196 -203 -196c-87 0 -139 49 -139 146c0 19 2 38 6 61c24 137 107 194 202 194zM262 425c34 0 61 24 75 107c4 20 5 39 5 53c0 42 -15 64 -40 64c-37 0 -62 -28 -77 -110c-3 -20 -5 -40 -5 -54
c0 -40 14 -60 42 -60z" />
    <glyph glyph-name="onesuperior" unicode="&#xb9;" horiz-adv-x="377" 
d="M150 431h71l33 182l-78 -30l-23 72l146 76h98l-21 -79l-40 -221h65l-15 -90h-252z" />
    <glyph glyph-name="twosuperior" unicode="&#xb2;" horiz-adv-x="377" 
d="M200 599l-49 71c52 39 110 67 172 67c80 0 119 -40 119 -98c0 -57 -26 -92 -83 -139l-73 -65h129l-16 -94h-290l13 71l148 132c33 29 44 47 44 70c0 18 -12 26 -27 26c-19 0 -52 -15 -87 -41z" />
    <glyph glyph-name="threesuperior" unicode="&#xb3;" horiz-adv-x="377" 
d="M190 614l-37 67c26 17 94 56 172 56c70 0 108 -36 108 -84c0 -41 -19 -72 -61 -97c16 -24 33 -56 33 -92c0 -65 -44 -128 -164 -128c-51 0 -109 17 -139 35l42 79c28 -18 65 -28 94 -28c32 0 50 12 50 37c0 13 -6 31 -13 47c-17 -6 -42 -12 -78 -17l-10 69
c40 7 125 24 125 64c0 17 -11 24 -28 24c-22 0 -62 -16 -94 -32z" />
    <glyph glyph-name="foursuperior" unicode="&#x2074;" horiz-adv-x="377" 
d="M338 601h65l-17 -100h53l-14 -81h-54l-14 -80h-113l14 82h-156l11 62l167 261l84 -43l-134 -201h47z" />
    <glyph glyph-name="fivesuperior" unicode="&#x2075;" horiz-adv-x="377" 
d="M161 521l64 210h213l-15 -85h-138l-17 -55c88 -3 144 -32 144 -109c0 -65 -41 -146 -172 -146c-69 0 -118 25 -135 36l45 79c19 -12 54 -27 89 -27c42 0 57 20 57 47c0 43 -54 50 -135 50z" />
    <glyph glyph-name="sixsuperior" unicode="&#x2076;" horiz-adv-x="377" 
d="M388 751l9 -81c-81 -10 -134 -45 -154 -98c26 15 57 27 91 27c59 0 95 -39 95 -99c0 -10 -1 -20 -3 -31c-13 -79 -75 -133 -171 -133c-87 0 -132 53 -132 134c0 15 1 34 4 52c19 108 92 212 261 229zM271 420c34 0 53 27 53 63c0 24 -11 39 -39 39c-19 0 -36 -7 -52 -16
c-2 -10 -3 -24 -3 -34c0 -28 9 -52 41 -52z" />
    <glyph glyph-name="sevensuperior" unicode="&#x2077;" horiz-adv-x="377" 
d="M171 646l15 85h288l-12 -70c-103 -76 -155 -173 -177 -299l-4 -21h-110l5 26c18 102 52 201 147 279h-152z" />
    <glyph glyph-name="eightsuperior" unicode="&#x2078;" horiz-adv-x="377" 
d="M120 428c0 69 55 103 98 120c-20 10 -49 36 -49 77c0 56 50 112 149 112c92 0 121 -43 121 -83c0 -54 -37 -78 -73 -100c34 -21 54 -51 54 -88c0 -60 -45 -130 -165 -130c-103 0 -135 48 -135 92zM314 451c0 22 -18 39 -36 47c-27 -12 -52 -32 -52 -57
c0 -15 10 -31 40 -31c31 0 48 20 48 41zM308 670c-28 0 -41 -19 -41 -34c0 -14 11 -33 32 -43c19 10 40 33 40 52c0 11 -7 25 -31 25z" />
    <glyph glyph-name="ninesuperior" unicode="&#x2079;" horiz-adv-x="377" 
d="M174 322l-9 81c81 10 134 45 154 98c-26 -15 -57 -27 -91 -27c-59 0 -95 39 -95 99c0 10 1 20 3 31c13 79 75 133 171 133c87 0 132 -53 132 -134c0 -15 -1 -34 -4 -52c-19 -108 -87 -211 -261 -229zM291 653c-34 0 -53 -27 -53 -63c0 -24 11 -39 39 -39c19 0 36 7 52 16
c2 10 3 24 3 34c0 28 -9 52 -41 52z" />
    <glyph glyph-name="zeroinferior" unicode="&#x2080;" horiz-adv-x="377" 
d="M257 316c81 0 139 -45 139 -146c0 -18 -1 -37 -5 -59c-25 -138 -103 -196 -203 -196c-87 0 -139 49 -139 146c0 19 2 38 6 61c24 137 107 194 202 194zM202 4c34 0 61 24 75 107c4 20 5 39 5 53c0 42 -15 64 -40 64c-37 0 -62 -28 -77 -110c-3 -20 -5 -40 -5 -54
c0 -40 14 -60 42 -60z" />
    <glyph glyph-name="oneinferior" unicode="&#x2081;" horiz-adv-x="377" 
d="M90 10h71l33 182l-78 -30l-23 72l146 76h98l-21 -79l-40 -221h65l-15 -90h-252z" />
    <glyph glyph-name="twoinferior" unicode="&#x2082;" horiz-adv-x="377" 
d="M140 178l-49 71c52 39 110 67 172 67c80 0 119 -40 119 -98c0 -57 -26 -92 -83 -139l-73 -65h129l-16 -94h-290l13 71l148 132c33 29 44 47 44 70c0 18 -12 26 -27 26c-19 0 -52 -15 -87 -41z" />
    <glyph glyph-name="threeinferior" unicode="&#x2083;" horiz-adv-x="377" 
d="M140 193l-37 67c26 17 94 56 172 56c70 0 108 -36 108 -84c0 -41 -19 -72 -61 -97c16 -24 33 -56 33 -92c0 -65 -44 -128 -164 -128c-51 0 -109 17 -139 35l42 79c28 -18 65 -28 94 -28c32 0 50 12 50 37c0 13 -6 31 -13 47c-17 -6 -42 -12 -78 -17l-10 69
c40 7 125 24 125 64c0 17 -11 24 -28 24c-22 0 -62 -16 -94 -32z" />
    <glyph glyph-name="fourinferior" unicode="&#x2084;" horiz-adv-x="377" 
d="M278 180h65l-17 -100h53l-14 -81h-54l-14 -80h-113l14 82h-156l11 62l167 261l84 -43l-134 -201h47z" />
    <glyph glyph-name="fiveinferior" unicode="&#x2085;" horiz-adv-x="377" 
d="M110 100l64 210h213l-15 -85h-138l-17 -55c88 -3 144 -32 144 -109c0 -65 -41 -146 -172 -146c-69 0 -118 25 -135 36l45 79c19 -12 54 -27 89 -27c42 0 57 20 57 47c0 43 -54 50 -135 50z" />
    <glyph glyph-name="sixinferior" unicode="&#x2086;" horiz-adv-x="377" 
d="M328 330l9 -81c-81 -10 -134 -45 -154 -98c26 15 57 27 91 27c59 0 95 -39 95 -99c0 -10 -1 -20 -3 -31c-13 -79 -75 -133 -171 -133c-87 0 -132 53 -132 134c0 15 1 34 4 52c19 108 92 212 261 229zM211 -1c34 0 53 27 53 63c0 24 -11 39 -39 39c-19 0 -36 -7 -52 -16
c-2 -10 -3 -24 -3 -34c0 -28 9 -52 41 -52z" />
    <glyph glyph-name="seveninferior" unicode="&#x2087;" horiz-adv-x="377" 
d="M111 225l15 85h288l-12 -70c-103 -76 -155 -173 -177 -299l-4 -21h-110l5 26c18 102 52 201 147 279h-152z" />
    <glyph glyph-name="eightinferior" unicode="&#x2088;" horiz-adv-x="377" 
d="M60 7c0 69 55 103 98 120c-20 10 -49 36 -49 77c0 56 50 112 149 112c92 0 121 -43 121 -83c0 -54 -37 -78 -73 -100c34 -21 54 -51 54 -88c0 -60 -45 -130 -165 -130c-103 0 -135 48 -135 92zM254 30c0 22 -18 39 -36 47c-27 -12 -52 -32 -52 -57c0 -15 10 -31 40 -31
c31 0 48 20 48 41zM248 249c-28 0 -41 -19 -41 -34c0 -14 11 -33 32 -43c19 10 40 33 40 52c0 11 -7 25 -31 25z" />
    <glyph glyph-name="nineinferior" unicode="&#x2089;" horiz-adv-x="377" 
d="M114 -99l-9 81c81 10 134 45 154 98c-26 -15 -57 -27 -91 -27c-59 0 -95 39 -95 99c0 10 1 20 3 31c13 79 75 133 171 133c87 0 132 -53 132 -134c0 -15 -1 -34 -4 -52c-19 -108 -87 -211 -261 -229zM231 232c-34 0 -53 -27 -53 -63c0 -24 11 -39 39 -39c19 0 36 7 52 16
c2 10 3 24 3 34c0 28 -9 52 -41 52z" />
    <glyph glyph-name="zero.num" horiz-adv-x="377" 
d="M300 657c81 0 139 -45 139 -146c0 -18 -1 -37 -5 -59c-25 -138 -103 -196 -203 -196c-87 0 -139 49 -139 146c0 19 2 38 6 61c24 137 107 194 202 194zM245 345c34 0 61 24 75 107c4 20 5 39 5 53c0 42 -15 64 -40 64c-37 0 -62 -28 -77 -110c-3 -20 -5 -40 -5 -54
c0 -40 14 -60 42 -60z" />
    <glyph glyph-name="one.num" horiz-adv-x="377" 
d="M133 351h71l33 182l-78 -30l-23 72l146 76h98l-21 -79l-40 -221h65l-15 -90h-252z" />
    <glyph glyph-name="two.num" horiz-adv-x="377" 
d="M183 519l-49 71c52 39 110 67 172 67c80 0 119 -40 119 -98c0 -57 -26 -92 -83 -139l-73 -65h129l-16 -94h-290l13 71l148 132c33 29 44 47 44 70c0 18 -12 26 -27 26c-19 0 -52 -15 -87 -41z" />
    <glyph glyph-name="three.num" horiz-adv-x="377" 
d="M183 534l-37 67c26 17 94 56 172 56c70 0 108 -36 108 -84c0 -41 -19 -72 -61 -97c16 -24 33 -56 33 -92c0 -65 -44 -128 -164 -128c-51 0 -109 17 -139 35l42 79c28 -18 65 -28 94 -28c32 0 50 12 50 37c0 13 -6 31 -13 47c-17 -6 -42 -12 -78 -17l-10 69
c40 7 125 24 125 64c0 17 -11 24 -28 24c-22 0 -62 -16 -94 -32z" />
    <glyph glyph-name="four.num" horiz-adv-x="377" 
d="M321 521h65l-17 -100h53l-14 -81h-54l-14 -80h-113l14 82h-156l11 62l167 261l84 -43l-134 -201h47z" />
    <glyph glyph-name="five.num" horiz-adv-x="377" 
d="M153 441l64 210h213l-15 -85h-138l-17 -55c88 -3 144 -32 144 -109c0 -65 -41 -146 -172 -146c-69 0 -118 25 -135 36l45 79c19 -12 54 -27 89 -27c42 0 57 20 57 47c0 43 -54 50 -135 50z" />
    <glyph glyph-name="six.num" horiz-adv-x="377" 
d="M371 671l9 -81c-81 -10 -134 -45 -154 -98c26 15 57 27 91 27c59 0 95 -39 95 -99c0 -10 -1 -20 -3 -31c-13 -79 -75 -133 -171 -133c-87 0 -132 53 -132 134c0 15 1 34 4 52c19 108 92 212 261 229zM254 340c34 0 53 27 53 63c0 24 -11 39 -39 39c-19 0 -36 -7 -52 -16
c-2 -10 -3 -24 -3 -34c0 -28 9 -52 41 -52z" />
    <glyph glyph-name="seven.num" horiz-adv-x="377" 
d="M154 566l15 85h288l-12 -70c-103 -76 -155 -173 -177 -299l-4 -21h-110l5 26c18 102 52 201 147 279h-152z" />
    <glyph glyph-name="eight.num" horiz-adv-x="377" 
d="M103 348c0 69 55 103 98 120c-20 10 -49 36 -49 77c0 56 50 112 149 112c92 0 121 -43 121 -83c0 -54 -37 -78 -73 -100c34 -21 54 -51 54 -88c0 -60 -45 -130 -165 -130c-103 0 -135 48 -135 92zM297 371c0 22 -18 39 -36 47c-27 -12 -52 -32 -52 -57
c0 -15 10 -31 40 -31c31 0 48 20 48 41zM291 590c-28 0 -41 -19 -41 -34c0 -14 11 -33 32 -43c19 10 40 33 40 52c0 11 -7 25 -31 25z" />
    <glyph glyph-name="nine.num" horiz-adv-x="377" 
d="M157 242l-9 81c81 10 134 45 154 98c-26 -15 -57 -27 -91 -27c-59 0 -95 39 -95 99c0 10 1 20 3 31c13 79 75 133 171 133c87 0 132 -53 132 -134c0 -15 -1 -34 -4 -52c-19 -108 -87 -211 -261 -229zM274 573c-34 0 -53 -27 -53 -63c0 -24 11 -39 39 -39c19 0 36 7 52 16
c2 10 3 24 3 34c0 28 -9 52 -41 52z" />
    <glyph glyph-name="zero.denom" horiz-adv-x="377" 
d="M260 396c81 0 139 -45 139 -146c0 -18 -1 -37 -5 -59c-25 -138 -103 -196 -203 -196c-87 0 -139 49 -139 146c0 19 2 38 6 61c24 137 107 194 202 194zM205 84c34 0 61 24 75 107c4 20 5 39 5 53c0 42 -15 64 -40 64c-37 0 -62 -28 -77 -110c-3 -20 -5 -40 -5 -54
c0 -40 14 -60 42 -60z" />
    <glyph glyph-name="one.denom" horiz-adv-x="377" 
d="M90 90h71l33 182l-78 -30l-23 72l146 76h98l-21 -79l-40 -221h65l-15 -90h-252z" />
    <glyph glyph-name="two.denom" horiz-adv-x="377" 
d="M140 258l-49 71c52 39 110 67 172 67c80 0 119 -40 119 -98c0 -57 -26 -92 -83 -139l-73 -65h129l-16 -94h-290l13 71l148 132c33 29 44 47 44 70c0 18 -12 26 -27 26c-19 0 -52 -15 -87 -41z" />
    <glyph glyph-name="three.denom" horiz-adv-x="377" 
d="M140 273l-37 67c26 17 94 56 172 56c70 0 108 -36 108 -84c0 -41 -19 -72 -61 -97c16 -24 33 -56 33 -92c0 -65 -44 -128 -164 -128c-51 0 -109 17 -139 35l42 79c28 -18 65 -28 94 -28c32 0 50 12 50 37c0 13 -6 31 -13 47c-17 -6 -42 -12 -78 -17l-10 69
c40 7 125 24 125 64c0 17 -11 24 -28 24c-22 0 -62 -16 -94 -32z" />
    <glyph glyph-name="four.denom" horiz-adv-x="377" 
d="M278 260h65l-17 -100h53l-14 -81h-54l-14 -80h-113l14 82h-156l11 62l167 261l84 -43l-134 -201h47z" />
    <glyph glyph-name="five.denom" horiz-adv-x="377" 
d="M110 180l64 210h213l-15 -85h-138l-17 -55c88 -3 144 -32 144 -109c0 -65 -41 -146 -172 -146c-69 0 -118 25 -135 36l45 79c19 -12 54 -27 89 -27c42 0 57 20 57 47c0 43 -54 50 -135 50z" />
    <glyph glyph-name="six.denom" horiz-adv-x="377" 
d="M328 410l9 -81c-81 -10 -134 -45 -154 -98c26 15 57 27 91 27c59 0 95 -39 95 -99c0 -10 -1 -20 -3 -31c-13 -79 -75 -133 -171 -133c-87 0 -132 53 -132 134c0 15 1 34 4 52c19 108 92 212 261 229zM211 79c34 0 53 27 53 63c0 24 -11 39 -39 39c-19 0 -36 -7 -52 -16
c-2 -10 -3 -24 -3 -34c0 -28 9 -52 41 -52z" />
    <glyph glyph-name="seven.denom" horiz-adv-x="377" 
d="M111 305l15 85h288l-12 -70c-103 -76 -155 -173 -177 -299l-4 -21h-110l5 26c18 102 52 201 147 279h-152z" />
    <glyph glyph-name="eight.denom" horiz-adv-x="377" 
d="M60 87c0 69 55 103 98 120c-20 10 -49 36 -49 77c0 56 50 112 149 112c92 0 121 -43 121 -83c0 -54 -37 -78 -73 -100c34 -21 54 -51 54 -88c0 -60 -45 -130 -165 -130c-103 0 -135 48 -135 92zM254 110c0 22 -18 39 -36 47c-27 -12 -52 -32 -52 -57c0 -15 10 -31 40 -31
c31 0 48 20 48 41zM248 329c-28 0 -41 -19 -41 -34c0 -14 11 -33 32 -43c19 10 40 33 40 52c0 11 -7 25 -31 25z" />
    <glyph glyph-name="nine.denom" horiz-adv-x="377" 
d="M114 -19l-9 81c81 10 134 45 154 98c-26 -15 -57 -27 -91 -27c-59 0 -95 39 -95 99c0 10 1 20 3 31c13 79 75 133 171 133c87 0 132 -53 132 -134c0 -15 -1 -34 -4 -52c-19 -108 -87 -211 -261 -229zM231 312c-34 0 -53 -27 -53 -63c0 -24 11 -39 39 -39c19 0 36 7 52 16
c2 10 3 24 3 34c0 28 -9 52 -41 52z" />
    <glyph glyph-name="onehalf" unicode="&#xbd;" horiz-adv-x="850" 
d="M106 351h71l33 182l-78 -30l-23 72l146 76h98l-21 -79l-40 -221h65l-15 -90h-252zM322 -22l-91 52l402 626l93 -50zM642 258l-49 71c52 39 110 67 172 67c80 0 119 -40 119 -98c0 -57 -26 -92 -83 -139l-73 -65h129l-16 -94h-290l13 71l148 132c33 29 44 47 44 70
c0 18 -12 26 -27 26c-19 0 -52 -15 -87 -41z" />
    <glyph glyph-name="onequarter" unicode="&#xbc;" horiz-adv-x="850" 
d="M117 351h71l33 182l-78 -30l-23 72l146 76h98l-21 -79l-40 -221h65l-15 -90h-252zM338 -22l-91 52l402 626l93 -50zM764 260h65l-17 -100h53l-14 -81h-54l-14 -80h-113l14 82h-156l11 62l167 261l84 -43l-134 -201h47z" />
    <glyph glyph-name="threequarters" unicode="&#xbe;" horiz-adv-x="850" 
d="M175 534l-37 67c26 17 94 56 172 56c70 0 108 -36 108 -84c0 -41 -19 -72 -61 -97c16 -24 33 -56 33 -92c0 -65 -44 -128 -164 -128c-51 0 -109 17 -139 35l42 79c28 -18 65 -28 94 -28c32 0 50 12 50 37c0 13 -6 31 -13 47c-17 -6 -42 -12 -78 -17l-10 69
c40 7 125 24 125 64c0 17 -11 24 -28 24c-22 0 -62 -16 -94 -32zM342 -22l-91 52l402 626l93 -50zM773 260h65l-17 -100h53l-14 -81h-54l-14 -80h-113l14 82h-156l11 62l167 261l84 -43l-134 -201h47z" />
    <glyph glyph-name="onethird" unicode="&#x2153;" horiz-adv-x="850" 
d="M104 351h71l33 182l-78 -30l-23 72l146 76h98l-21 -79l-40 -221h65l-15 -90h-252zM327 -22l-91 52l402 626l93 -50zM642 273l-37 67c26 17 94 56 172 56c70 0 108 -36 108 -84c0 -41 -19 -72 -61 -97c16 -24 33 -56 33 -92c0 -65 -44 -128 -164 -128
c-51 0 -109 17 -139 35l42 79c28 -18 65 -28 94 -28c32 0 50 12 50 37c0 13 -6 31 -13 47c-17 -6 -42 -12 -78 -17l-10 69c40 7 125 24 125 64c0 17 -11 24 -28 24c-22 0 -62 -16 -94 -32z" />
    <glyph glyph-name="twothirds" unicode="&#x2154;" horiz-adv-x="850" 
d="M165 519l-49 71c52 39 110 67 172 67c80 0 119 -40 119 -98c0 -57 -26 -92 -83 -139l-73 -65h129l-16 -94h-290l13 71l148 132c33 29 44 47 44 70c0 18 -12 26 -27 26c-19 0 -52 -15 -87 -41zM344 -22l-91 52l402 626l93 -50zM645 273l-37 67c26 17 94 56 172 56
c70 0 108 -36 108 -84c0 -41 -19 -72 -61 -97c16 -24 33 -56 33 -92c0 -65 -44 -128 -164 -128c-51 0 -109 17 -139 35l42 79c28 -18 65 -28 94 -28c32 0 50 12 50 37c0 13 -6 31 -13 47c-17 -6 -42 -12 -78 -17l-10 69c40 7 125 24 125 64c0 17 -11 24 -28 24
c-22 0 -62 -16 -94 -32z" />
    <glyph glyph-name="onefifth" unicode="&#xf500;" horiz-adv-x="850" 
d="M108 351h71l33 182l-78 -30l-23 72l146 76h98l-21 -79l-40 -221h65l-15 -90h-252zM339 -22l-91 52l402 626l93 -50zM608 180l64 210h213l-15 -85h-138l-17 -55c88 -3 144 -32 144 -109c0 -65 -41 -146 -172 -146c-69 0 -118 25 -135 36l45 79c19 -12 54 -27 89 -27
c42 0 57 20 57 47c0 43 -54 50 -135 50z" />
    <glyph glyph-name="twofifths" unicode="&#xf501;" horiz-adv-x="850" 
d="M170 519l-49 71c52 39 110 67 172 67c80 0 119 -40 119 -98c0 -57 -26 -92 -83 -139l-73 -65h129l-16 -94h-290l13 71l148 132c33 29 44 47 44 70c0 18 -12 26 -27 26c-19 0 -52 -15 -87 -41zM345 -22l-91 52l402 626l93 -50zM600 180l64 210h213l-15 -85h-138l-17 -55
c88 -3 144 -32 144 -109c0 -65 -41 -146 -172 -146c-69 0 -118 25 -135 36l45 79c19 -12 54 -27 89 -27c42 0 57 20 57 47c0 43 -54 50 -135 50z" />
    <glyph glyph-name="threefifths" unicode="&#xf502;" horiz-adv-x="850" 
d="M178 534l-37 67c26 17 94 56 172 56c70 0 108 -36 108 -84c0 -41 -19 -72 -61 -97c16 -24 33 -56 33 -92c0 -65 -44 -128 -164 -128c-51 0 -109 17 -139 35l42 79c28 -18 65 -28 94 -28c32 0 50 12 50 37c0 13 -6 31 -13 47c-17 -6 -42 -12 -78 -17l-10 69
c40 7 125 24 125 64c0 17 -11 24 -28 24c-22 0 -62 -16 -94 -32zM334 -22l-91 52l402 626l93 -50zM597 180l64 210h213l-15 -85h-138l-17 -55c88 -3 144 -32 144 -109c0 -65 -41 -146 -172 -146c-69 0 -118 25 -135 36l45 79c19 -12 54 -27 89 -27c42 0 57 20 57 47
c0 43 -54 50 -135 50z" />
    <glyph glyph-name="fourfifths" unicode="&#xf503;" horiz-adv-x="850" 
d="M326 521h65l-17 -100h53l-14 -81h-54l-14 -80h-113l14 82h-156l11 62l167 261l84 -43l-134 -201h47zM346 -22l-91 52l402 626l93 -50zM600 180l64 210h213l-15 -85h-138l-17 -55c88 -3 144 -32 144 -109c0 -65 -41 -146 -172 -146c-69 0 -118 25 -135 36l45 79
c19 -12 54 -27 89 -27c42 0 57 20 57 47c0 43 -54 50 -135 50z" />
    <glyph glyph-name="onesixth" unicode="&#xf504;" horiz-adv-x="850" 
d="M107 351h71l33 182l-78 -30l-23 72l146 76h98l-21 -79l-40 -221h65l-15 -90h-252zM324 -22l-91 52l402 626l93 -50zM824 410l9 -81c-81 -10 -134 -45 -154 -98c26 15 57 27 91 27c59 0 95 -39 95 -99c0 -10 -1 -20 -3 -31c-13 -79 -75 -133 -171 -133
c-87 0 -132 53 -132 134c0 15 1 34 4 52c19 108 92 212 261 229zM707 79c34 0 53 27 53 63c0 24 -11 39 -39 39c-19 0 -36 -7 -52 -16c-2 -10 -3 -24 -3 -34c0 -28 9 -52 41 -52z" />
    <glyph glyph-name="fivesixths" unicode="&#xf505;" horiz-adv-x="850" 
d="M334 -22l-91 52l402 626l93 -50zM828 410l9 -81c-81 -10 -134 -45 -154 -98c26 15 57 27 91 27c59 0 95 -39 95 -99c0 -10 -1 -20 -3 -31c-13 -79 -75 -133 -171 -133c-87 0 -132 53 -132 134c0 15 1 34 4 52c19 108 92 212 261 229zM711 79c34 0 53 27 53 63
c0 24 -11 39 -39 39c-19 0 -36 -7 -52 -16c-2 -10 -3 -24 -3 -34c0 -28 9 -52 41 -52zM142 441l64 210h213l-15 -85h-138l-17 -55c88 -3 144 -32 144 -109c0 -65 -41 -146 -172 -146c-69 0 -118 25 -135 36l45 79c19 -12 54 -27 89 -27c42 0 57 20 57 47
c0 43 -54 50 -135 50z" />
    <glyph glyph-name="oneeighth" unicode="&#x215b;" horiz-adv-x="850" 
d="M102 351h71l33 182l-78 -30l-23 72l146 76h98l-21 -79l-40 -221h65l-15 -90h-252zM319 -22l-91 52l402 626l93 -50zM552 87c0 69 55 103 98 120c-20 10 -49 36 -49 77c0 56 50 112 149 112c92 0 121 -43 121 -83c0 -54 -37 -78 -73 -100c34 -21 54 -51 54 -88
c0 -60 -45 -130 -165 -130c-103 0 -135 48 -135 92zM746 110c0 22 -18 39 -36 47c-27 -12 -52 -32 -52 -57c0 -15 10 -31 40 -31c31 0 48 20 48 41zM740 329c-28 0 -41 -19 -41 -34c0 -14 11 -33 32 -43c19 10 40 33 40 52c0 11 -7 25 -31 25z" />
    <glyph glyph-name="threeeighths" unicode="&#x215c;" horiz-adv-x="850" 
d="M168 534l-37 67c26 17 94 56 172 56c70 0 108 -36 108 -84c0 -41 -19 -72 -61 -97c16 -24 33 -56 33 -92c0 -65 -44 -128 -164 -128c-51 0 -109 17 -139 35l42 79c28 -18 65 -28 94 -28c32 0 50 12 50 37c0 13 -6 31 -13 47c-17 -6 -42 -12 -78 -17l-10 69
c40 7 125 24 125 64c0 17 -11 24 -28 24c-22 0 -62 -16 -94 -32zM330 -22l-91 52l402 626l93 -50zM558 87c0 69 55 103 98 120c-20 10 -49 36 -49 77c0 56 50 112 149 112c92 0 121 -43 121 -83c0 -54 -37 -78 -73 -100c34 -21 54 -51 54 -88c0 -60 -45 -130 -165 -130
c-103 0 -135 48 -135 92zM752 110c0 22 -18 39 -36 47c-27 -12 -52 -32 -52 -57c0 -15 10 -31 40 -31c31 0 48 20 48 41zM746 329c-28 0 -41 -19 -41 -34c0 -14 11 -33 32 -43c19 10 40 33 40 52c0 11 -7 25 -31 25z" />
    <glyph glyph-name="fiveeighths" unicode="&#x215d;" horiz-adv-x="850" 
d="M141 441l64 210h213l-15 -85h-138l-17 -55c88 -3 144 -32 144 -109c0 -65 -41 -146 -172 -146c-69 0 -118 25 -135 36l45 79c19 -12 54 -27 89 -27c42 0 57 20 57 47c0 43 -54 50 -135 50zM331 -22l-91 52l402 626l93 -50zM555 87c0 69 55 103 98 120
c-20 10 -49 36 -49 77c0 56 50 112 149 112c92 0 121 -43 121 -83c0 -54 -37 -78 -73 -100c34 -21 54 -51 54 -88c0 -60 -45 -130 -165 -130c-103 0 -135 48 -135 92zM749 110c0 22 -18 39 -36 47c-27 -12 -52 -32 -52 -57c0 -15 10 -31 40 -31c31 0 48 20 48 41zM743 329
c-28 0 -41 -19 -41 -34c0 -14 11 -33 32 -43c19 10 40 33 40 52c0 11 -7 25 -31 25z" />
    <glyph glyph-name="seveneighths" unicode="&#x215e;" horiz-adv-x="850" 
d="M126 566l15 85h288l-12 -70c-103 -76 -155 -173 -177 -299l-4 -21h-110l5 26c18 102 52 201 147 279h-152zM285 -22l-91 52l402 626l93 -50zM554 87c0 69 55 103 98 120c-20 10 -49 36 -49 77c0 56 50 112 149 112c92 0 121 -43 121 -83c0 -54 -37 -78 -73 -100
c34 -21 54 -51 54 -88c0 -60 -45 -130 -165 -130c-103 0 -135 48 -135 92zM748 110c0 22 -18 39 -36 47c-27 -12 -52 -32 -52 -57c0 -15 10 -31 40 -31c31 0 48 20 48 41zM742 329c-28 0 -41 -19 -41 -34c0 -14 11 -33 32 -43c19 10 40 33 40 52c0 11 -7 25 -31 25z" />
    <glyph glyph-name="oneseventh" unicode="&#xf506;" horiz-adv-x="850" 
d="M98 351h71l33 182l-78 -30l-23 72l146 76h98l-21 -79l-40 -221h65l-15 -90h-252zM318 -22l-91 52l402 626l93 -50zM602 305l15 85h288l-12 -70c-103 -76 -155 -173 -177 -299l-4 -21h-110l5 26c18 102 52 201 147 279h-152z" />
    <glyph glyph-name="twosevenths" unicode="&#xf507;" horiz-adv-x="850" 
d="M166 519l-49 71c52 39 110 67 172 67c80 0 119 -40 119 -98c0 -57 -26 -92 -83 -139l-73 -65h129l-16 -94h-290l13 71l148 132c33 29 44 47 44 70c0 18 -12 26 -27 26c-19 0 -52 -15 -87 -41zM333 -22l-91 52l402 626l93 -50zM606 305l15 85h288l-12 -70
c-103 -76 -155 -173 -177 -299l-4 -21h-110l5 26c18 102 52 201 147 279h-152z" />
    <glyph glyph-name="threesevenths" unicode="&#xf508;" horiz-adv-x="850" 
d="M154 534l-37 67c26 17 94 56 172 56c70 0 108 -36 108 -84c0 -41 -19 -72 -61 -97c16 -24 33 -56 33 -92c0 -65 -44 -128 -164 -128c-51 0 -109 17 -139 35l42 79c28 -18 65 -28 94 -28c32 0 50 12 50 37c0 13 -6 31 -13 47c-17 -6 -42 -12 -78 -17l-10 69
c40 7 125 24 125 64c0 17 -11 24 -28 24c-22 0 -62 -16 -94 -32zM312 -22l-91 52l402 626l93 -50zM591 305l15 85h288l-12 -70c-103 -76 -155 -173 -177 -299l-4 -21h-110l5 26c18 102 52 201 147 279h-152z" />
    <glyph glyph-name="foursevenths" unicode="&#xf509;" horiz-adv-x="850" 
d="M310 521h65l-17 -100h53l-14 -81h-54l-14 -80h-113l14 82h-156l11 62l167 261l84 -43l-134 -201h47zM324 -22l-91 52l402 626l93 -50zM602 305l15 85h288l-12 -70c-103 -76 -155 -173 -177 -299l-4 -21h-110l5 26c18 102 52 201 147 279h-152z" />
    <glyph glyph-name="fivesevenths" unicode="&#xf50a;" horiz-adv-x="850" 
d="M123 441l64 210h213l-15 -85h-138l-17 -55c88 -3 144 -32 144 -109c0 -65 -41 -146 -172 -146c-69 0 -118 25 -135 36l45 79c19 -12 54 -27 89 -27c42 0 57 20 57 47c0 43 -54 50 -135 50zM309 -22l-91 52l402 626l93 -50zM592 305l15 85h288l-12 -70
c-103 -76 -155 -173 -177 -299l-4 -21h-110l5 26c18 102 52 201 147 279h-152z" />
    <glyph glyph-name="sixsevenths" unicode="&#xf50b;" horiz-adv-x="850" 
d="M360 671l9 -81c-81 -10 -134 -45 -154 -98c26 15 57 27 91 27c59 0 95 -39 95 -99c0 -10 -1 -20 -3 -31c-13 -79 -75 -133 -171 -133c-87 0 -132 53 -132 134c0 15 1 34 4 52c19 108 92 212 261 229zM243 340c34 0 53 27 53 63c0 24 -11 39 -39 39c-19 0 -36 -7 -52 -16
c-2 -10 -3 -24 -3 -34c0 -28 9 -52 41 -52zM320 -22l-91 52l402 626l93 -50zM600 305l15 85h288l-12 -70c-103 -76 -155 -173 -177 -299l-4 -21h-110l5 26c18 102 52 201 147 279h-152z" />
    <glyph glyph-name="oneninth" unicode="&#xf50c;" horiz-adv-x="850" 
d="M99 351h71l33 182l-78 -30l-23 72l146 76h98l-21 -79l-40 -221h65l-15 -90h-252zM312 -22l-91 52l402 626l93 -50zM601 -19l-9 81c81 10 134 45 154 98c-26 -15 -57 -27 -91 -27c-59 0 -95 39 -95 99c0 10 1 20 3 31c13 79 75 133 171 133c87 0 132 -53 132 -134
c0 -15 -1 -34 -4 -52c-19 -108 -87 -211 -261 -229zM718 312c-34 0 -53 -27 -53 -63c0 -24 11 -39 39 -39c19 0 36 7 52 16c2 10 3 24 3 34c0 28 -9 52 -41 52z" />
    <glyph glyph-name="twoninths" unicode="&#xf50d;" horiz-adv-x="850" 
d="M157 519l-49 71c52 39 110 67 172 67c80 0 119 -40 119 -98c0 -57 -26 -92 -83 -139l-73 -65h129l-16 -94h-290l13 71l148 132c33 29 44 47 44 70c0 18 -12 26 -27 26c-19 0 -52 -15 -87 -41zM325 -22l-91 52l402 626l93 -50zM598 -19l-9 81c81 10 134 45 154 98
c-26 -15 -57 -27 -91 -27c-59 0 -95 39 -95 99c0 10 1 20 3 31c13 79 75 133 171 133c87 0 132 -53 132 -134c0 -15 -1 -34 -4 -52c-19 -108 -87 -211 -261 -229zM715 312c-34 0 -53 -27 -53 -63c0 -24 11 -39 39 -39c19 0 36 7 52 16c2 10 3 24 3 34c0 28 -9 52 -41 52z
" />
    <glyph glyph-name="fourninths" unicode="&#xf50e;" horiz-adv-x="850" 
d="M312 521h65l-17 -100h53l-14 -81h-54l-14 -80h-113l14 82h-156l11 62l167 261l84 -43l-134 -201h47zM328 -22l-91 52l402 626l93 -50zM610 -19l-9 81c81 10 134 45 154 98c-26 -15 -57 -27 -91 -27c-59 0 -95 39 -95 99c0 10 1 20 3 31c13 79 75 133 171 133
c87 0 132 -53 132 -134c0 -15 -1 -34 -4 -52c-19 -108 -87 -211 -261 -229zM727 312c-34 0 -53 -27 -53 -63c0 -24 11 -39 39 -39c19 0 36 7 52 16c2 10 3 24 3 34c0 28 -9 52 -41 52z" />
    <glyph glyph-name="fiveninths" unicode="&#xf50f;" horiz-adv-x="850" 
d="M128 441l64 210h213l-15 -85h-138l-17 -55c88 -3 144 -32 144 -109c0 -65 -41 -146 -172 -146c-69 0 -118 25 -135 36l45 79c19 -12 54 -27 89 -27c42 0 57 20 57 47c0 43 -54 50 -135 50zM311 -22l-91 52l402 626l93 -50zM605 -19l-9 81c81 10 134 45 154 98
c-26 -15 -57 -27 -91 -27c-59 0 -95 39 -95 99c0 10 1 20 3 31c13 79 75 133 171 133c87 0 132 -53 132 -134c0 -15 -1 -34 -4 -52c-19 -108 -87 -211 -261 -229zM722 312c-34 0 -53 -27 -53 -63c0 -24 11 -39 39 -39c19 0 36 7 52 16c2 10 3 24 3 34c0 28 -9 52 -41 52z
" />
    <glyph glyph-name="sevenninths" unicode="&#xf510;" horiz-adv-x="850" 
d="M130 566l15 85h288l-12 -70c-103 -76 -155 -173 -177 -299l-4 -21h-110l5 26c18 102 52 201 147 279h-152zM274 -22l-91 52l402 626l93 -50zM609 -19l-9 81c81 10 134 45 154 98c-26 -15 -57 -27 -91 -27c-59 0 -95 39 -95 99c0 10 1 20 3 31c13 79 75 133 171 133
c87 0 132 -53 132 -134c0 -15 -1 -34 -4 -52c-19 -108 -87 -211 -261 -229zM726 312c-34 0 -53 -27 -53 -63c0 -24 11 -39 39 -39c19 0 36 7 52 16c2 10 3 24 3 34c0 28 -9 52 -41 52z" />
    <glyph glyph-name="eightninths" unicode="&#xf511;" horiz-adv-x="850" 
d="M78 348c0 69 55 103 98 120c-20 10 -49 36 -49 77c0 56 50 112 149 112c92 0 121 -43 121 -83c0 -54 -37 -78 -73 -100c34 -21 54 -51 54 -88c0 -60 -45 -130 -165 -130c-103 0 -135 48 -135 92zM272 371c0 22 -18 39 -36 47c-27 -12 -52 -32 -52 -57
c0 -15 10 -31 40 -31c31 0 48 20 48 41zM266 590c-28 0 -41 -19 -41 -34c0 -14 11 -33 32 -43c19 10 40 33 40 52c0 11 -7 25 -31 25zM314 -22l-91 52l402 626l93 -50zM609 -19l-9 81c81 10 134 45 154 98c-26 -15 -57 -27 -91 -27c-59 0 -95 39 -95 99c0 10 1 20 3 31
c13 79 75 133 171 133c87 0 132 -53 132 -134c0 -15 -1 -34 -4 -52c-19 -108 -87 -211 -261 -229zM726 312c-34 0 -53 -27 -53 -63c0 -24 11 -39 39 -39c19 0 36 7 52 16c2 10 3 24 3 34c0 28 -9 52 -41 52z" />
    <glyph glyph-name="minus" unicode="&#x2212;" 
d="M536 376l-23 -133h-405l23 133h405z" />
    <glyph glyph-name="uni2215" unicode="&#x2215;" horiz-adv-x="476" 
d="M137 -133l-130 57l425 816l133 -56z" />
    <glyph glyph-name="uni2219" unicode="&#x2219;" horiz-adv-x="315" 
d="M133 292c0 51 38 93 97 93c48 0 72 -25 72 -63c0 -50 -35 -94 -97 -94c-49 0 -72 26 -72 64z" />
    <glyph glyph-name="approxequal" unicode="&#x2248;" horiz-adv-x="679" 
d="M474 102c-96 0 -149 69 -205 69c-38 0 -74 -31 -113 -69l-80 80c54 61 117 122 197 122c83 0 136 -73 209 -73c36 0 70 24 110 69l82 -80c-53 -72 -121 -118 -200 -118zM518 351c-96 0 -150 70 -206 70c-38 0 -75 -31 -113 -69l-80 80c55 61 117 123 198 123
c83 0 135 -73 208 -73c36 0 71 22 112 68l80 -80c-53 -71 -121 -119 -199 -119z" />
    <glyph glyph-name="notequal" unicode="&#x2260;" 
d="M517 262l-25 -133h-189l-34 -77h-133l34 77h-83l25 133h118l36 79h-141l24 133h178l37 80h127l-35 -80h98l-24 -133h-134l-34 -79h155z" />
    <glyph glyph-name="lessequal" unicode="&#x2264;" 
d="M491 133l-23 -133h-401l23 133h401zM558 487l-242 -104l207 -111l-72 -114l-324 175l19 106l371 173z" />
    <glyph glyph-name="greaterequal" unicode="&#x2265;" 
d="M80 0l23 133h401l-23 -133h-401zM365 400l-204 104l72 114l323 -179l-19 -106l-380 -173l-47 127z" />
    <glyph glyph-name="less" unicode="&#x3c;" 
d="M524 553l43 -123l-269 -113l226 -120l-76 -120l-341 192l17 98z" />
    <glyph glyph-name="equal" unicode="=" 
d="M553 474l-24 -134h-405l24 134h405zM517 262l-24 -133h-405l24 133h405z" />
    <glyph glyph-name="greater" unicode="&#x3e;" 
d="M350 328l-218 115l71 113l342 -189l-18 -98l-396 -186l-48 125z" />
    <glyph glyph-name="logicalnot" unicode="&#xac;" 
d="M378 140l26 150h-301l24 132h429l-50 -282h-128z" />
    <glyph glyph-name="plus" unicode="+" 
d="M265 377l26 148h137l-26 -148h135l-23 -134h-135l-26 -144h-137l26 144h-135l23 134h135z" />
    <glyph glyph-name="plusminus" unicode="&#xb1;" 
d="M265 367l26 145h138l-26 -145h134l-23 -135h-135l-17 -99h134l-23 -133h-405l23 133h133l18 99h-133l23 135h133z" />
    <glyph glyph-name="divide" unicode="&#xf7;" 
d="M274 482c0 47 34 95 90 95c41 0 64 -27 64 -65c0 -50 -39 -94 -92 -94c-42 0 -62 26 -62 64zM212 102c0 48 35 95 90 95c42 0 64 -27 64 -64c0 -51 -39 -94 -92 -94c-41 0 -62 26 -62 63zM536 376l-23 -133h-405l23 133h405z" />
    <glyph glyph-name="multiply" unicode="&#xd7;" 
d="M227 309l-86 105l114 96l86 -104l119 102l78 -96l-119 -102l84 -101l-114 -97l-84 101l-121 -103l-78 97z" />
    <glyph glyph-name="partialdiff" unicode="&#x2202;" horiz-adv-x="562" 
d="M220 554l52 117c213 -39 292 -156 292 -315c0 -171 -63 -372 -288 -372c-140 0 -197 83 -197 181c0 154 96 260 230 260c47 0 83 -13 111 -30c1 1 1 2 3 3c-13 76 -106 138 -203 156zM293 101c54 0 85 57 101 146c1 11 3 24 4 37c-18 16 -43 27 -68 27
c-63 0 -91 -71 -91 -137c0 -47 17 -73 54 -73z" />
    <glyph glyph-name="Omega" unicode="&#x2126;" horiz-adv-x="768" 
d="M285 293c0 -79 32 -145 77 -178l-20 -115h-303l27 149h132c-42 39 -81 118 -81 188c0 195 150 322 366 322c195 0 301 -92 301 -245c0 -128 -79 -212 -155 -265h126l-26 -149h-290l20 115c63 46 142 114 142 253c0 92 -49 148 -136 148c-89 0 -180 -53 -180 -223z" />
    <glyph glyph-name="Delta" unicode="&#x2206;" horiz-adv-x="674" 
d="M667 0h-660l363 657h168zM486 127l-59 351h-6l-180 -351h245z" />
    <glyph glyph-name="product" unicode="&#x220f;" horiz-adv-x="706" 
d="M624 -132h-174l113 637h-241l-112 -637h-174l139 789h588z" />
    <glyph glyph-name="summation" unicode="&#x2211;" horiz-adv-x="567" 
d="M535 -132h-542l21 128l284 273l-180 260l22 128h514l-27 -152h-293l162 -248l-243 -237h308z" />
    <glyph glyph-name="uni0394" unicode="&#x394;" horiz-adv-x="674" 
d="M667 0h-660l363 657h168zM486 127l-59 351h-6l-180 -351h245z" />
    <glyph glyph-name="uni03A9" unicode="&#x3a9;" horiz-adv-x="768" 
d="M285 293c0 -79 32 -145 77 -178l-20 -115h-303l27 149h132c-42 39 -81 118 -81 188c0 195 150 322 366 322c195 0 301 -92 301 -245c0 -128 -79 -212 -155 -265h126l-26 -149h-290l20 115c63 46 142 114 142 253c0 92 -49 148 -136 148c-89 0 -180 -53 -180 -223z" />
    <glyph glyph-name="uni03BC" unicode="&#x3bc;" horiz-adv-x="579" 
d="M605 512l-67 -384c-4 -22 1 -32 19 -32c7 0 17 2 29 7l1 -93c-35 -16 -71 -23 -101 -23c-48 0 -78 24 -85 61c-28 -40 -58 -59 -110 -59c-24 0 -62 10 -77 36l-43 -241h-146l128 728h154l-56 -320c-10 -57 4 -91 53 -91c41 0 78 28 92 108l53 303h156z" />
    <glyph glyph-name="pi" unicode="&#x3c0;" horiz-adv-x="637" 
d="M673 380h-72l-42 -234c-6 -33 -2 -45 19 -45c11 0 24 3 37 6l4 -95c-33 -16 -81 -24 -120 -24c-96 0 -112 59 -101 124l48 268h-109l-67 -380h-155l68 380h-73l22 132h564z" />
    <glyph glyph-name="mu" unicode="&#xb5;" horiz-adv-x="579" 
d="M605 512l-67 -384c-4 -22 1 -32 19 -32c7 0 17 2 29 7l1 -93c-35 -16 -71 -23 -101 -23c-48 0 -78 24 -85 61c-28 -40 -58 -59 -110 -59c-24 0 -62 10 -77 36l-43 -241h-146l128 728h154l-56 -320c-10 -57 4 -91 53 -91c41 0 78 28 92 108l53 303h156z" />
    <glyph glyph-name="radical" unicode="&#x221a;" horiz-adv-x="682" 
d="M843 731l-394 -745h-151l-64 367l-98 -45l-27 112l249 113l52 -332l271 530h162z" />
    <glyph glyph-name="infinity" unicode="&#x221e;" horiz-adv-x="764" 
d="M784 357c0 -101 -65 -171 -161 -171c-77 0 -141 45 -184 91c-54 -58 -110 -93 -177 -93c-113 0 -169 70 -169 161c0 87 62 168 169 168c77 0 125 -32 178 -101c62 67 111 102 189 102c107 0 155 -78 155 -157zM650 349c0 29 -14 48 -43 48s-50 -22 -73 -49
c20 -27 47 -48 73 -48c28 0 43 24 43 49zM342 346c-23 35 -44 50 -69 50c-34 0 -47 -22 -47 -48c0 -28 14 -48 45 -48c25 0 48 14 71 46z" />
    <glyph glyph-name="integral" unicode="&#x222b;" horiz-adv-x="390" 
d="M422 571c-27 7 -49 12 -66 12c-31 0 -42 -16 -39 -70c1 -28 2 -56 4 -82l23 -375c1 -18 3 -54 3 -67c3 -87 -53 -144 -148 -144c-47 0 -89 7 -132 22l16 94c27 -7 48 -12 65 -12c30 0 42 12 39 62c-1 17 -2 36 -3 51l-24 413c-1 17 -2 54 -2 66c0 87 51 145 147 145
c48 0 90 -7 133 -22z" />
    <glyph glyph-name="lozenge" unicode="&#x25ca;" horiz-adv-x="582" 
d="M599 330l-187 -330h-130l-187 328l188 329h129zM437 330l-90 167l-88 -169l91 -171z" />
    <glyph glyph-name="commaaccent" horiz-adv-x="500" 
d="M91 -261l98 210c39 -1 98 -5 98 -47c0 -17 -12 -39 -30 -63c-36 -48 -83 -95 -114 -128z" />
    <glyph glyph-name="revcommaaccent" horiz-adv-x="500" 
d="M471 779l-98 -212c-39 3 -98 7 -98 50c0 17 12 38 30 63c36 46 83 95 114 127z" />
    <glyph glyph-name="tilde.cap" horiz-adv-x="500" 
d="M236 726l4 92c33 22 65 31 92 31c55 0 89 -26 137 -26c22 0 46 7 68 18l-7 -98c-24 -12 -44 -19 -74 -19c-45 0 -98 23 -139 23c-28 0 -52 -6 -81 -21z" />
    <glyph glyph-name="ring.cap" horiz-adv-x="500" 
d="M277 742c0 70 46 118 116 118c60 0 86 -37 86 -80c0 -70 -49 -118 -115 -118c-59 0 -87 36 -87 80zM383 798c-24 0 -38 -18 -38 -45c0 -17 11 -29 29 -29c23 0 37 22 37 45c0 18 -9 29 -28 29z" />
    <glyph glyph-name="circumflex.cap" horiz-adv-x="500" 
d="M261 700l-49 46c39 39 88 84 127 117c26 22 41 33 67 33c19 0 34 -13 53 -33c30 -31 66 -82 90 -117l-53 -45l-104 86z" />
    <glyph glyph-name="acute.cap" horiz-adv-x="500" 
d="M268 749l184 156c29 -18 55 -46 55 -74c0 -26 -14 -42 -53 -62c-52 -28 -108 -49 -156 -68z" />
    <glyph glyph-name="grave.cap" horiz-adv-x="500" 
d="M352 909l156 -163l-42 -46c-37 18 -102 48 -144 75c-27 17 -38 33 -38 52c0 36 33 61 68 82z" />
    <glyph glyph-name="dieresis.cap" horiz-adv-x="500" 
d="M412 773c0 45 38 83 91 83c41 0 65 -26 65 -61c0 -45 -39 -83 -91 -83c-41 0 -65 26 -65 61zM194 773c0 45 38 83 91 83c41 0 65 -26 65 -61c0 -45 -39 -83 -91 -83c-41 0 -65 26 -65 61z" />
    <glyph glyph-name="caron.cap" horiz-adv-x="500" 
d="M286 896l101 -88l132 89l48 -48c-40 -41 -82 -79 -122 -112c-30 -26 -52 -38 -73 -38s-39 12 -61 39c-30 37 -53 69 -81 111z" />
    <glyph glyph-name="macron.cap" horiz-adv-x="500" 
d="M218 725l20 113h318l-20 -113h-318z" />
    <glyph glyph-name="dotaccent.cap" horiz-adv-x="500" 
d="M302 789c0 52 44 97 104 97c48 0 76 -32 76 -72c0 -53 -46 -95 -104 -95c-49 0 -76 29 -76 70z" />
    <glyph glyph-name="cedilla.cap" horiz-adv-x="500" 
d="M213 3h69l-29 -61c51 -4 85 -33 85 -82c0 -89 -85 -109 -147 -109c-43 0 -80 10 -101 20l31 67c13 -5 42 -14 68 -14c30 0 53 9 53 33c0 27 -40 32 -86 31z" />
    <glyph glyph-name="hungarumlaut.cap" horiz-adv-x="500" 
d="M394 749l184 156c29 -18 55 -46 55 -74c0 -26 -14 -42 -53 -62c-52 -28 -108 -49 -156 -68zM166 749l184 156c29 -18 55 -46 55 -74c0 -26 -14 -42 -53 -62c-52 -28 -108 -49 -156 -68z" />
    <glyph glyph-name="apostrophe" unicode="&#x2bc;" horiz-adv-x="252" 
d="M162 497l73 222c13 2 26 3 40 3c32 0 55 -10 55 -39c0 -20 -13 -47 -31 -78c-24 -41 -58 -88 -86 -125z" />
    <glyph glyph-name="commaaccent.cap" horiz-adv-x="500" 
d="M91 -261l98 210c39 -1 98 -5 98 -47c0 -17 -12 -39 -30 -63c-36 -48 -83 -95 -114 -128z" />
    <glyph glyph-name="breve.cap" horiz-adv-x="500" 
d="M498 896l87 -41c-31 -71 -92 -136 -204 -136c-114 0 -157 78 -164 134l95 39c12 -47 35 -74 85 -74c47 0 73 25 101 78z" />
    <glyph glyph-name="caron.alt" horiz-adv-x="252" 
d="M159 464l39 223c19 4 39 8 61 8c35 0 52 -13 52 -40c0 -20 -13 -53 -30 -88c-21 -45 -48 -91 -63 -115z" />
    <glyph glyph-name="ogonek.cap" horiz-adv-x="500" 
d="M218 2l103 -1c-42 -30 -93 -89 -93 -127c0 -14 7 -27 30 -27c20 0 32 4 50 11l14 -83c-25 -13 -65 -22 -106 -22c-76 0 -106 39 -106 84c0 75 74 138 108 165z" />
    <glyph glyph-name="zero.tf" 
d="M380 657c128 0 199 -79 199 -224c0 -34 -2 -69 -9 -112c-38 -246 -146 -330 -303 -330c-129 0 -198 79 -198 223c0 36 1 78 9 124c41 232 161 319 302 319zM288 123c48 0 88 31 115 195c7 45 10 82 10 110c0 66 -21 93 -53 93c-48 0 -87 -37 -115 -197
c-7 -42 -9 -80 -9 -107c0 -65 17 -94 52 -94z" />
    <glyph glyph-name="one.tf" 
d="M114 126h109l59 336l-115 -54l-41 110l227 126h140l-34 -123l-69 -395h106l-23 -126h-382z" />
    <glyph glyph-name="two.tf" 
d="M193 437l-72 111c76 64 166 109 258 109c119 0 182 -70 182 -161c0 -85 -36 -151 -122 -228l-148 -133h229l-25 -135h-466l18 101l252 230c55 50 79 82 79 127c0 32 -24 48 -50 48c-43 0 -85 -29 -135 -69z" />
    <glyph glyph-name="three.tf" 
d="M177 455l-60 105c40 32 149 97 265 97c118 0 169 -63 169 -138c0 -65 -33 -119 -106 -163c29 -39 61 -93 61 -157c0 -106 -72 -211 -254 -211c-90 0 -176 29 -222 56l67 127c42 -25 113 -44 153 -44c47 0 87 21 87 68c0 25 -11 49 -27 76c-32 -10 -71 -20 -115 -27
l-22 117c109 23 201 50 201 112c0 29 -21 40 -46 40c-37 0 -90 -23 -151 -58z" />
    <glyph glyph-name="four.tf" 
d="M411 430h96l-28 -159h82l-23 -132h-83l-24 -139h-168l24 139h-246l24 138l262 387l132 -72l-224 -321h82z" />
    <glyph glyph-name="five.tf" 
d="M130 291l106 353h349l-25 -137h-216l-34 -114c111 -10 202 -59 202 -181c0 -109 -68 -222 -269 -222c-80 0 -172 28 -213 57l69 127c38 -22 100 -46 148 -46c59 0 90 29 90 77c0 78 -125 85 -207 86z" />
    <glyph glyph-name="six.tf" 
d="M506 675l15 -129c-107 -13 -216 -59 -253 -166c32 20 87 37 130 37c90 0 142 -61 142 -154c0 -157 -87 -273 -260 -273c-137 0 -200 87 -200 219c0 7 1 14 1 21c8 165 77 411 425 445zM375 238c0 42 -17 65 -47 65c-22 0 -58 -12 -78 -24c-3 -25 -6 -51 -6 -86
c0 -48 13 -76 49 -76c42 0 82 40 82 121z" />
    <glyph glyph-name="seven.tf" 
d="M139 507l25 137h456l-20 -110c-228 -161 -272 -383 -286 -472l-10 -62h-176l12 70c21 115 59 295 238 437h-239z" />
    <glyph glyph-name="eight.tf" 
d="M59 141c0 98 73 156 137 198c-31 26 -63 68 -63 122c0 108 89 196 244 196c135 0 184 -67 184 -137c0 -72 -50 -131 -112 -172c51 -40 82 -87 82 -145c0 -115 -81 -213 -271 -213c-153 0 -201 79 -201 151zM354 184c0 39 -30 64 -61 88c-37 -29 -75 -61 -75 -108
c0 -29 16 -55 60 -55c47 0 76 34 76 75zM362 547c-37 0 -66 -23 -66 -62c0 -30 23 -54 51 -74c37 26 64 57 64 93c0 32 -25 43 -49 43z" />
    <glyph glyph-name="nine.tf" 
d="M142 -16l-12 125c114 14 204 56 239 152c-29 -17 -73 -30 -117 -30c-97 0 -147 63 -147 157c0 159 97 269 263 269c137 0 196 -90 196 -211c0 -258 -135 -434 -422 -462zM270 408c0 -40 17 -64 49 -64c20 0 54 10 74 24c5 24 9 50 9 88c0 47 -14 74 -51 74
c-42 0 -81 -40 -81 -122z" />
    <glyph glyph-name="dollar.tf" 
d="M31 69l76 129c38 -27 115 -61 169 -61c40 0 76 15 76 59c0 43 -53 58 -109 80c-64 24 -127 63 -127 166c0 119 78 189 196 205l16 100h155l-18 -113c54 -18 99 -50 128 -83l-97 -101c-44 37 -92 65 -139 65c-38 0 -66 -15 -66 -49c0 -47 40 -56 108 -87
c64 -28 132 -67 132 -165c0 -108 -71 -183 -179 -209l-18 -103h-155l17 100c-76 13 -138 44 -165 67z" />
    <glyph glyph-name="Euro.tf" 
d="M82 263l22 124h104c-23 13 -38 48 -38 83c0 128 110 187 247 187c67 0 159 -31 208 -84l-92 -101c-38 35 -77 50 -121 50c-48 0 -92 -20 -92 -73c0 -28 17 -62 75 -62h129l-22 -124h-126c-51 0 -105 -18 -105 -78c0 -39 28 -69 81 -69c46 0 94 13 156 51l47 -112
c-85 -55 -156 -72 -246 -72c-147 0 -205 64 -205 144c0 65 32 102 82 136h-104z" />
    <glyph glyph-name="cent.tf" 
d="M354 180c34 0 63 20 96 50l80 -98c-44 -44 -91 -67 -143 -77l-20 -115h-155l21 121c-76 27 -119 96 -119 200c0 188 99 282 208 309l21 115h155l-21 -120c39 -17 77 -49 100 -99l-109 -72c-18 32 -39 57 -75 57c-72 0 -113 -77 -113 -173c0 -64 20 -98 74 -98z" />
    <glyph glyph-name="sterling.tf" 
d="M34 128l20 112h87l84 218c59 154 119 199 248 199c98 0 159 -59 182 -89l-96 -90c-23 26 -50 50 -87 50c-48 0 -69 -26 -95 -93l-75 -195h138l-19 -111h-160l-19 -47c-22 -53 -54 -96 -103 -130l1 -3c34 11 66 17 90 17c63 0 110 -20 170 -20c26 0 54 3 84 14l-40 -135
c-27 -4 -53 -7 -76 -7c-96 0 -182 35 -280 35c-47 0 -106 -14 -153 -35l22 130c48 17 86 44 114 110l30 70h-67z" />
    <glyph glyph-name="yen.tf" 
d="M205 125h-134l17 98h135l11 62h-135l18 98h81l-82 261h166l58 -233h4l146 233h172l-182 -261h79l-17 -98h-137l-11 -62h137l-18 -98h-136l-22 -125h-171z" />
    <glyph glyph-name="florin.tf" horiz-adv-x="484" 
d="M91 258l44 131h117l26 82c34 105 77 186 227 186c64 0 130 -25 165 -49l-65 -97c-18 11 -49 21 -77 21c-37 0 -67 -17 -86 -71l-25 -72h139l-46 -131h-138l-88 -270c-40 -123 -91 -198 -230 -198c-74 0 -131 19 -164 43l60 107c19 -13 54 -25 83 -25c40 0 66 16 82 66
l90 277h-114z" />
    <glyph glyph-name="zero.osf" horiz-adv-x="543" 
d="M357 527c129 0 218 -81 218 -218c0 -203 -114 -325 -293 -325c-150 0 -223 88 -223 217c0 205 120 326 298 326zM293 107c92 0 111 133 111 208c0 59 -24 87 -63 87c-92 0 -112 -132 -112 -211c0 -55 23 -84 64 -84z" />
    <glyph glyph-name="one.osf" horiz-adv-x="498" 
d="M103 126h117l35 202l-113 -52l-42 110l227 125h139l-32 -122l-46 -263h114l-23 -126h-398z" />
    <glyph glyph-name="two.osf" horiz-adv-x="510" 
d="M156 316l-70 100c82 71 174 111 264 111c114 0 178 -56 178 -143c0 -95 -47 -148 -148 -212l-70 -44h199l-22 -128h-469l17 94l215 148c66 45 98 70 98 109c0 24 -15 39 -45 39c-42 0 -93 -33 -147 -74z" />
    <glyph glyph-name="three.osf" horiz-adv-x="487" 
d="M390 224c38 -47 61 -96 61 -143c0 -114 -76 -228 -426 -260l-6 127c184 24 260 59 260 124c0 24 -10 48 -26 70c-31 -10 -67 -19 -113 -27l-21 117c58 11 196 42 196 118c0 19 -10 36 -39 36c-35 0 -97 -27 -146 -55l-57 106c47 33 144 90 257 90c109 0 165 -64 165 -141
c0 -66 -33 -121 -105 -162z" />
    <glyph glyph-name="four.osf" horiz-adv-x="551" 
d="M415 291h96l-28 -159h82l-23 -132h-83l-27 -161h-168l27 161h-246l24 138l262 387l132 -72l-224 -321h82z" />
    <glyph glyph-name="five.osf" horiz-adv-x="485" 
d="M76 164l106 347h351l-23 -128h-213l-31 -101c116 -9 201 -62 201 -170c0 -153 -126 -267 -446 -294l-11 129c207 26 280 74 280 150c0 58 -79 71 -146 71c-26 0 -51 -2 -68 -4z" />
    <glyph glyph-name="six.osf" horiz-adv-x="550" 
d="M516 675l15 -129c-107 -13 -216 -59 -253 -166c32 20 87 37 130 37c90 0 142 -61 142 -154c0 -157 -87 -273 -260 -273c-137 0 -200 87 -200 219c0 7 1 14 1 21c8 165 77 411 425 445zM385 238c0 42 -17 65 -47 65c-22 0 -58 -12 -78 -24c-3 -25 -6 -51 -6 -86
c0 -48 13 -76 49 -76c42 0 82 40 82 121z" />
    <glyph glyph-name="seven.osf" horiz-adv-x="518" 
d="M78 374l24 137h463l-19 -110l-384 -562h-184l369 535h-269z" />
    <glyph glyph-name="eight.osf" horiz-adv-x="548" 
d="M72 141c0 98 73 156 137 198c-31 26 -63 68 -63 122c0 108 89 196 244 196c135 0 184 -67 184 -137c0 -72 -50 -131 -112 -172c51 -40 82 -87 82 -145c0 -115 -81 -213 -271 -213c-153 0 -201 79 -201 151zM367 184c0 39 -30 64 -61 88c-37 -29 -75 -61 -75 -108
c0 -29 16 -55 60 -55c47 0 76 34 76 75zM375 547c-37 0 -66 -23 -66 -62c0 -30 23 -54 51 -74c37 26 64 57 64 93c0 32 -25 43 -49 43z" />
    <glyph glyph-name="nine.osf" horiz-adv-x="550" 
d="M130 -146l-12 125c114 14 204 56 239 152c-29 -17 -73 -30 -117 -30c-97 0 -147 63 -147 157c0 159 97 269 263 269c137 0 196 -90 196 -211c0 -258 -135 -434 -422 -462zM258 278c0 -40 17 -64 49 -64c20 0 54 10 74 24c5 24 9 50 9 88c0 47 -14 74 -51 74
c-42 0 -81 -40 -81 -122z" />
    <glyph glyph-name="dollar.osf" 
d="M25 69l76 129c38 -27 115 -61 169 -61c40 0 76 15 76 59c0 43 -53 58 -109 80c-64 24 -127 63 -127 166c0 119 78 189 196 205l16 100h155l-18 -113c54 -18 99 -50 128 -83l-97 -101c-44 37 -92 65 -139 65c-38 0 -66 -15 -66 -49c0 -47 40 -56 108 -87
c64 -28 132 -67 132 -165c0 -108 -71 -183 -179 -209l-18 -103h-155l17 100c-76 13 -138 44 -165 67z" />
    <glyph glyph-name="Euro.osf" horiz-adv-x="549" 
d="M82 263l22 124h104c-23 13 -38 48 -38 83c0 128 110 187 247 187c67 0 159 -31 208 -84l-92 -101c-38 35 -77 50 -121 50c-48 0 -92 -20 -92 -73c0 -28 17 -62 75 -62h129l-22 -124h-126c-51 0 -105 -18 -105 -78c0 -39 28 -69 81 -69c46 0 94 13 156 51l47 -112
c-85 -55 -156 -72 -246 -72c-147 0 -205 64 -205 144c0 65 32 102 82 136h-104z" />
    <glyph glyph-name="cent.osf" 
d="M344 110c34 0 63 20 96 50l80 -98c-44 -44 -91 -67 -143 -77l-20 -115h-155l21 121c-76 27 -119 96 -119 200c0 188 99 282 208 309l21 115h155l-21 -120c39 -17 77 -49 100 -99l-109 -72c-18 32 -39 57 -75 57c-72 0 -113 -77 -113 -173c0 -64 20 -98 74 -98z" />
    <glyph glyph-name="sterling.osf" horiz-adv-x="544" 
d="M67 128l20 112h87l84 218c59 154 119 199 248 199c98 0 159 -59 182 -89l-96 -90c-23 26 -50 50 -87 50c-48 0 -69 -26 -95 -93l-75 -195h138l-19 -111h-160l-19 -47c-22 -53 -54 -96 -103 -130l1 -3c34 11 66 17 90 17c63 0 110 -20 170 -20c26 0 54 3 84 14l-40 -135
c-27 -4 -53 -7 -76 -7c-96 0 -182 35 -280 35c-47 0 -106 -14 -153 -35l22 130c48 17 86 44 114 110l30 70h-67z" />
    <glyph glyph-name="yen.osf" horiz-adv-x="517" 
d="M188 125h-134l17 98h135l11 62h-135l18 98h81l-82 261h166l58 -233h4l146 233h172l-182 -261h79l-17 -98h-137l-11 -62h137l-18 -98h-136l-22 -125h-171z" />
    <glyph glyph-name="florin.osf" horiz-adv-x="515" 
d="M85 258l44 131h117l26 82c34 105 77 186 227 186c64 0 130 -25 165 -49l-65 -97c-18 11 -49 21 -77 21c-37 0 -67 -17 -86 -71l-25 -72h139l-46 -131h-138l-88 -270c-40 -123 -91 -198 -230 -198c-74 0 -131 19 -164 43l60 107c19 -13 54 -25 83 -25c40 0 66 16 82 66
l90 277h-114z" />
    <glyph glyph-name="zero.tosf" unicode="&#xf81e;" 
d="M349 527c129 0 213 -81 213 -218c0 -203 -109 -325 -288 -325c-150 0 -218 88 -218 217c0 205 115 326 293 326zM285 107c92 0 106 133 106 208c0 59 -19 87 -58 87c-92 0 -107 -132 -107 -211c0 -55 18 -84 59 -84z" />
    <glyph glyph-name="one.tosf" unicode="&#xf81f;" 
d="M134 126h117l35 202l-113 -52l-42 110l227 125h139l-32 -122l-46 -263h114l-23 -126h-398z" />
    <glyph glyph-name="two.tosf" unicode="&#xf820;" 
d="M170 316l-70 100c82 71 174 111 264 111c114 0 178 -56 178 -143c0 -95 -47 -148 -148 -212l-70 -44h199l-22 -128h-469l17 94l215 148c66 45 98 70 98 109c0 24 -15 39 -45 39c-42 0 -93 -33 -147 -74z" />
    <glyph glyph-name="three.tosf" unicode="&#xf821;" 
d="M419 224c38 -47 61 -96 61 -143c0 -114 -76 -228 -426 -260l-6 127c184 24 260 59 260 124c0 24 -10 48 -26 70c-31 -10 -67 -19 -113 -27l-21 117c58 11 196 42 196 118c0 19 -10 36 -39 36c-35 0 -97 -27 -146 -55l-57 106c47 33 144 90 257 90c109 0 165 -64 165 -141
c0 -66 -33 -121 -105 -162z" />
    <glyph glyph-name="four.tosf" unicode="&#xf822;" 
d="M401 291h96l-28 -159h82l-23 -132h-83l-27 -161h-168l27 161h-246l24 138l262 387l132 -72l-224 -321h82z" />
    <glyph glyph-name="five.tosf" unicode="&#xf823;" 
d="M101 164l106 347h351l-23 -128h-213l-31 -101c116 -9 201 -62 201 -170c0 -153 -126 -267 -446 -294l-11 129c207 26 280 74 280 150c0 58 -79 71 -146 71c-26 0 -51 -2 -68 -4z" />
    <glyph glyph-name="six.tosf" unicode="&#xf824;" 
d="M502 675l15 -129c-107 -13 -216 -59 -253 -166c32 20 87 37 130 37c90 0 142 -61 142 -154c0 -157 -87 -273 -260 -273c-137 0 -200 87 -200 219c0 7 1 14 1 21c8 165 77 411 425 445zM371 238c0 42 -17 65 -47 65c-22 0 -58 -12 -78 -24c-3 -25 -6 -51 -6 -86
c0 -48 13 -76 49 -76c42 0 82 40 82 121z" />
    <glyph glyph-name="seven.tosf" unicode="&#xf825;" 
d="M87 374l24 137h463l-19 -110l-384 -562h-184l369 535h-269z" />
    <glyph glyph-name="eight.tosf" unicode="&#xf826;" 
d="M55 141c0 98 73 156 137 198c-31 26 -63 68 -63 122c0 108 89 196 244 196c135 0 184 -67 184 -137c0 -72 -50 -131 -112 -172c51 -40 82 -87 82 -145c0 -115 -81 -213 -271 -213c-153 0 -201 79 -201 151zM350 184c0 39 -30 64 -61 88c-37 -29 -75 -61 -75 -108
c0 -29 16 -55 60 -55c47 0 76 34 76 75zM358 547c-37 0 -66 -23 -66 -62c0 -30 23 -54 51 -74c37 26 64 57 64 93c0 32 -25 43 -49 43z" />
    <glyph glyph-name="nine.tosf" unicode="&#xf827;" 
d="M118 -146l-12 125c114 14 204 56 239 152c-29 -17 -73 -30 -117 -30c-97 0 -147 63 -147 157c0 159 97 269 263 269c137 0 196 -90 196 -211c0 -258 -135 -434 -422 -462zM246 278c0 -40 17 -64 49 -64c20 0 54 10 74 24c5 24 9 50 9 88c0 47 -14 74 -51 74
c-42 0 -81 -40 -81 -122z" />
    <glyph glyph-name="dollar.tosf" 
d="M22 69l76 129c38 -27 115 -61 169 -61c40 0 76 15 76 59c0 43 -53 58 -109 80c-64 24 -127 63 -127 166c0 119 78 189 196 205l16 100h155l-18 -113c54 -18 99 -50 128 -83l-97 -101c-44 37 -92 65 -139 65c-38 0 -66 -15 -66 -49c0 -47 40 -56 108 -87
c64 -28 132 -67 132 -165c0 -108 -71 -183 -179 -209l-18 -103h-155l17 100c-76 13 -138 44 -165 67z" />
    <glyph glyph-name="Euro.tosf" 
d="M82 263l22 124h104c-23 13 -38 48 -38 83c0 128 110 187 247 187c67 0 159 -31 208 -84l-92 -101c-38 35 -77 50 -121 50c-48 0 -92 -20 -92 -73c0 -28 17 -62 75 -62h129l-22 -124h-126c-51 0 -105 -18 -105 -78c0 -39 28 -69 81 -69c46 0 94 13 156 51l47 -112
c-85 -55 -156 -72 -246 -72c-147 0 -205 64 -205 144c0 65 32 102 82 136h-104z" />
    <glyph glyph-name="cent.tosf" 
d="M343 110c34 0 63 20 96 50l80 -98c-44 -44 -91 -67 -143 -77l-20 -115h-155l21 121c-76 27 -119 96 -119 200c0 188 99 282 208 309l21 115h155l-21 -120c39 -17 77 -49 100 -99l-109 -72c-18 32 -39 57 -75 57c-72 0 -113 -77 -113 -173c0 -64 20 -98 74 -98z" />
    <glyph glyph-name="sterling.tosf" 
d="M47 128l20 112h87l84 218c59 154 119 199 248 199c98 0 159 -59 182 -89l-96 -90c-23 26 -50 50 -87 50c-48 0 -69 -26 -95 -93l-75 -195h138l-19 -111h-160l-19 -47c-22 -53 -54 -96 -103 -130l1 -3c34 11 66 17 90 17c63 0 110 -20 170 -20c26 0 54 3 84 14l-40 -135
c-27 -4 -53 -7 -76 -7c-96 0 -182 35 -280 35c-47 0 -106 -14 -153 -35l22 130c48 17 86 44 114 110l30 70h-67z" />
    <glyph glyph-name="yen.tosf" 
d="M194 125h-134l17 98h135l11 62h-135l18 98h81l-82 261h166l58 -233h4l146 233h172l-182 -261h79l-17 -98h-137l-11 -62h137l-18 -98h-136l-22 -125h-171z" />
    <glyph glyph-name="florin.tosf" 
d="M79 258l44 131h117l26 82c34 105 77 186 227 186c64 0 130 -25 165 -49l-65 -97c-18 11 -49 21 -77 21c-37 0 -67 -17 -86 -71l-25 -72h139l-46 -131h-138l-88 -270c-40 -123 -91 -198 -230 -198c-74 0 -131 19 -164 43l60 107c19 -13 54 -25 83 -25c40 0 66 16 82 66
l90 277h-114z" />
    <glyph glyph-name="a.alt" horiz-adv-x="525" 
d="M152 379l-12 116c42 14 132 32 209 32c119 0 172 -37 172 -132c0 -19 -2 -40 -6 -64l-35 -200c-4 -23 0 -35 18 -35c8 0 18 3 30 7v-93c-35 -16 -76 -23 -106 -23c-49 0 -80 26 -84 65c-44 -39 -95 -65 -156 -65c-91 0 -136 56 -136 139c0 146 91 184 229 184
c30 0 65 -3 74 -4l5 32c2 10 3 20 3 27c0 30 -17 38 -48 38c-37 0 -107 -9 -157 -24zM318 126l14 85c-6 1 -25 3 -44 3c-41 0 -77 -8 -77 -66c0 -31 13 -45 40 -45c25 0 49 10 67 23z" />
    <glyph glyph-name="e.alt" horiz-adv-x="498" 
d="M356 527c104 0 182 -60 182 -157c0 -60 -19 -124 -31 -153h-278c-2 -73 25 -105 89 -105c47 0 94 18 132 41l36 -114c-1 -1 -87 -55 -208 -55c-155 0 -214 99 -214 219c0 169 90 324 292 324zM338 405c-50 0 -85 -32 -96 -95h137c7 18 10 33 10 51c0 27 -17 44 -51 44z
" />
    <glyph glyph-name="g.alt" horiz-adv-x="511" 
d="M505 346c0 -111 -87 -184 -220 -184c-18 0 -33 2 -45 4l-21 -42l88 -13c130 -19 205 -45 205 -140c0 -109 -94 -195 -290 -195c-155 0 -217 45 -217 110s41 97 98 136c-40 20 -33 58 -6 98l46 68c-41 28 -61 87 -61 132c0 127 87 207 231 207c50 0 98 -11 126 -26l161 20
l-19 -113l-93 10l-5 -7c12 -15 22 -42 22 -65zM276 -22l-77 12c-29 -21 -49 -37 -49 -66c0 -18 14 -42 94 -42c58 0 99 13 99 57c0 25 -20 32 -67 39zM286 262c43 0 70 40 70 110c0 40 -17 57 -44 57c-40 0 -68 -29 -68 -111c0 -38 14 -56 42 -56z" />
    <glyph glyph-name="k.alt" horiz-adv-x="532" 
d="M340 695l-79 -438h3l181 255h177l-178 -243l79 -269h-178l-39 144l-109 -144h-144l123 695h164z" />
    <glyph glyph-name="v.alt" horiz-adv-x="544" 
d="M429 512h196l-236 -512h-223l-67 512h184l10 -355h6z" />
    <glyph glyph-name="w.alt" horiz-adv-x="742" 
d="M641 512h183l-204 -512h-193l-8 272h-2l-105 -272h-187l-28 512h182l-2 -304h4l109 304h141l10 -306h3z" />
    <glyph glyph-name="y.alt" horiz-adv-x="507" 
d="M418 512h178l-259 -514c-83 -166 -146 -222 -273 -222c-55 0 -111 20 -141 40l58 117c21 -11 47 -23 81 -23c42 0 63 16 87 58l23 39l-83 505h175l22 -301h3z" />
    <glyph glyph-name="z.alt" horiz-adv-x="464" 
d="M445 0h-420l19 105l250 276h-189l22 131h400l-18 -102l-251 -278h210z" />
    <glyph glyph-name="ae.alt" horiz-adv-x="762" 
d="M250 104c32 0 60 16 82 33c-4 24 -4 49 -2 78c-10 1 -19 1 -29 1c-47 0 -90 -10 -90 -67c0 -31 13 -45 39 -45zM609 410c-49 0 -89 -42 -103 -106h137c7 17 12 37 12 55c0 27 -11 51 -46 51zM645 527c89 0 157 -55 157 -152c0 -60 -23 -128 -36 -158h-273
c-11 -73 25 -109 89 -109c48 0 96 19 134 43l29 -112c-1 -1 -87 -55 -203 -55c-89 0 -147 28 -180 75c-46 -40 -100 -72 -184 -72c-88 0 -132 51 -132 138c0 139 93 186 250 186c19 0 36 -1 54 -3l4 30c10 51 -9 65 -46 65c-36 0 -108 -13 -160 -35l-7 120
c69 24 137 39 208 39c62 0 109 -21 132 -63c38 37 93 63 164 63z" />
    <glyph glyph-name="oe.alt" horiz-adv-x="802" 
d="M670 527c100 0 172 -55 172 -152c0 -60 -23 -128 -37 -158h-272c-11 -74 25 -109 89 -109c47 0 94 18 132 41l33 -110c-1 -1 -84 -55 -197 -55c-81 0 -134 32 -165 69c-47 -45 -102 -69 -170 -69c-124 0 -194 72 -194 200c0 24 1 53 6 81c37 210 168 262 278 262
c55 0 115 -23 146 -69c39 40 106 69 179 69zM280 106c49 0 78 43 95 141c6 32 8 61 8 83c0 48 -15 77 -50 77c-47 0 -78 -46 -93 -129c-6 -32 -9 -66 -9 -92c0 -44 12 -80 49 -80zM649 410c-50 0 -89 -42 -103 -106h137c7 18 12 39 12 57c0 27 -12 49 -46 49z" />
    <glyph glyph-name="ampersand.alt" horiz-adv-x="716" 
d="M374 481c0 -69 83 -157 139 -214c17 35 25 80 29 123h143c-6 -76 -26 -151 -69 -221c40 -38 83 -75 104 -91l-114 -123c-28 22 -69 58 -109 95c-49 -38 -118 -66 -214 -66c-154 0 -209 90 -209 179c0 115 63 181 153 230c-12 19 -22 51 -22 85c0 116 94 198 229 198
c109 0 167 -51 199 -116l-124 -72c-17 37 -42 63 -74 63c-40 0 -61 -30 -61 -70zM307 112c39 0 71 15 91 32c-41 41 -83 91 -112 137c-31 -20 -56 -54 -56 -98c0 -40 25 -71 77 -71z" />
    <glyph glyph-name="Q.alt" horiz-adv-x="666" 
d="M692 319c-30 -175 -118 -275 -239 -313c82 -25 143 -79 252 -61l-40 -129c-10 -1 -20 -1 -30 -1c-137 0 -214 95 -324 98c-26 0 -46 -1 -70 -6l32 86c-123 19 -190 110 -190 252c0 30 2 67 8 103c45 256 217 329 366 329c131 0 242 -79 242 -257c0 -30 -1 -64 -7 -101z
M270 344c-5 -26 -8 -56 -8 -83c0 -68 21 -131 97 -131c92 0 138 91 155 192c4 23 6 52 6 78c0 67 -20 134 -93 134c-90 0 -139 -91 -157 -190z" />
    <glyph glyph-name="Euro.alt" 
d="M369 129c38 0 80 16 118 44l61 -109c-68 -53 -143 -76 -217 -76c-138 0 -210 77 -210 227c0 13 1 28 2 42h-73l22 128h68c41 213 185 272 298 272c82 0 156 -39 196 -115l-117 -83c-20 32 -46 55 -90 55c-59 0 -101 -38 -119 -129h164l-22 -128h-161
c-1 -11 -2 -22 -2 -32c0 -60 24 -96 82 -96z" />
    <glyph glyph-name="Euro_tf.alt" 
d="M369 129c38 0 80 16 118 44l61 -109c-68 -53 -143 -76 -217 -76c-138 0 -210 77 -210 227c0 13 1 28 2 42h-73l22 128h68c41 213 185 272 298 272c82 0 156 -39 196 -115l-117 -83c-20 32 -46 55 -90 55c-59 0 -101 -38 -119 -129h164l-22 -128h-161
c-1 -11 -2 -22 -2 -32c0 -60 24 -96 82 -96z" />
    <glyph glyph-name="amacron.alt" horiz-adv-x="525" 
d="M152 379l-12 116c42 14 132 32 209 32c119 0 172 -37 172 -132c0 -19 -2 -40 -6 -64l-35 -200c-4 -23 0 -35 18 -35c8 0 18 3 30 7v-93c-35 -16 -76 -23 -106 -23c-49 0 -80 26 -84 65c-44 -39 -95 -65 -156 -65c-91 0 -136 56 -136 139c0 146 91 184 229 184
c30 0 65 -3 74 -4l5 32c2 10 3 20 3 27c0 30 -17 38 -48 38c-37 0 -107 -9 -157 -24zM318 126l14 85c-6 1 -25 3 -44 3c-41 0 -77 -8 -77 -66c0 -31 13 -45 40 -45c25 0 49 10 67 23zM188 618l20 113h317l-20 -113h-317z" />
    <glyph glyph-name="abreve.alt" horiz-adv-x="525" 
d="M152 379l-12 116c42 14 132 32 209 32c119 0 172 -37 172 -132c0 -19 -2 -40 -6 -64l-35 -200c-4 -23 0 -35 18 -35c8 0 18 3 30 7v-93c-35 -16 -76 -23 -106 -23c-49 0 -80 26 -84 65c-44 -39 -95 -65 -156 -65c-91 0 -136 56 -136 139c0 146 91 184 229 184
c30 0 65 -3 74 -4l5 32c2 10 3 20 3 27c0 30 -17 38 -48 38c-37 0 -107 -9 -157 -24zM318 126l14 85c-6 1 -25 3 -44 3c-41 0 -77 -8 -77 -66c0 -31 13 -45 40 -45c25 0 49 10 67 23zM456 771l90 -23c-34 -96 -93 -154 -201 -154c-114 0 -154 81 -159 154l89 23
c12 -58 37 -79 84 -79c41 0 68 19 97 79z" />
    <glyph glyph-name="aogonek.alt" horiz-adv-x="525" 
d="M150 368l-9 120c44 16 131 39 208 39c119 0 172 -37 172 -132c0 -19 -2 -40 -6 -64l-35 -200c-4 -23 0 -35 18 -35c8 0 18 3 30 7v-93c-50 -29 -108 -87 -108 -136c0 -14 7 -27 30 -27c20 0 32 4 50 11l14 -83c-25 -13 -65 -22 -106 -22c-76 0 -106 39 -106 84
c0 66 56 122 93 153c-33 8 -54 31 -57 62c-44 -39 -95 -65 -156 -65c-92 0 -136 57 -136 142c0 142 104 181 243 181c21 0 51 -3 60 -4l5 32c2 10 3 20 3 27c0 30 -17 38 -48 38c-37 0 -108 -17 -159 -35zM318 126l15 90c-6 1 -25 3 -44 3c-41 0 -78 -13 -78 -71
c0 -31 13 -48 40 -48c25 0 49 13 67 26z" />
    <glyph glyph-name="emacron.alt" horiz-adv-x="498" 
d="M356 527c-202 0 -292 -155 -292 -324c0 -120 59 -219 214 -219c121 0 207 54 208 55l-36 114c-38 -23 -85 -41 -132 -41c-64 0 -91 32 -89 105h278c12 29 31 93 31 153c0 97 -78 157 -182 157zM338 405c34 0 51 -17 51 -44c0 -18 -3 -33 -10 -51h-137c11 63 46 95 96 95z
M210 618l20 113h317l-20 -113h-317z" />
    <glyph glyph-name="ebreve.alt" horiz-adv-x="498" 
d="M356 527c-202 0 -292 -155 -292 -324c0 -120 59 -219 214 -219c121 0 207 54 208 55l-36 114c-38 -23 -85 -41 -132 -41c-64 0 -91 32 -89 105h278c12 29 31 93 31 153c0 97 -78 157 -182 157zM338 405c34 0 51 -17 51 -44c0 -18 -3 -33 -10 -51h-137c11 63 46 95 96 95z
M485 771l90 -23c-34 -96 -93 -154 -201 -154c-114 0 -154 81 -159 154l89 23c12 -58 37 -79 84 -79c41 0 68 19 97 79z" />
    <glyph glyph-name="edotaccent.alt" horiz-adv-x="498" 
d="M356 527c-202 0 -292 -155 -292 -324c0 -120 59 -219 214 -219c121 0 207 54 208 55l-36 114c-38 -23 -85 -41 -132 -41c-64 0 -91 32 -89 105h278c12 29 31 93 31 153c0 97 -78 157 -182 157zM338 405c34 0 51 -17 51 -44c0 -18 -3 -33 -10 -51h-137c11 63 46 95 96 95z
M290 644c0 52 44 97 104 97c47 0 76 -32 76 -71c0 -53 -46 -95 -105 -95c-48 0 -75 29 -75 69z" />
    <glyph glyph-name="eogonek.alt" horiz-adv-x="498" 
d="M356 527c104 0 182 -60 182 -157c0 -60 -19 -124 -31 -153h-278c-2 -73 25 -105 89 -105c47 0 94 18 132 41l36 -114c-1 -1 -30 -17 -70 -38c-46 -24 -101 -84 -101 -127c0 -14 7 -27 30 -27c20 0 32 4 50 11l14 -83c-25 -13 -65 -22 -106 -22c-76 0 -106 39 -106 84
c0 62 50 115 86 147h-5c-155 0 -214 99 -214 219c0 169 90 324 292 324zM338 405c-50 0 -85 -32 -96 -95h137c7 18 10 33 10 51c0 27 -17 44 -51 44z" />
    <glyph glyph-name="ecaron.alt" horiz-adv-x="498" 
d="M356 527c-202 0 -292 -155 -292 -324c0 -120 59 -219 214 -219c121 0 207 54 208 55l-36 114c-38 -23 -85 -41 -132 -41c-64 0 -91 32 -89 105h278c12 29 31 93 31 153c0 97 -78 157 -182 157zM338 405c34 0 51 -17 51 -44c0 -18 -3 -33 -10 -51h-137c11 63 46 95 96 95z
M530 795l51 -43c-36 -42 -94 -106 -136 -145c-31 -29 -44 -39 -73 -39c-31 0 -39 10 -60 39c-27 40 -66 105 -87 145l58 42l106 -105z" />
    <glyph glyph-name="gcircumflex.alt" horiz-adv-x="511" 
d="M505 346c0 -111 -87 -184 -220 -184c-18 0 -33 2 -45 4l-21 -42l88 -13c130 -19 205 -45 205 -140c0 -109 -94 -195 -290 -195c-155 0 -217 45 -217 110s41 97 98 136c-40 20 -33 58 -6 98l46 68c-41 28 -61 87 -61 132c0 127 87 207 231 207c50 0 98 -11 126 -26l161 20
l-19 -113l-93 10l-5 -7c12 -15 22 -42 22 -65zM276 -22l-77 12c-29 -21 -49 -37 -49 -66c0 -18 14 -42 94 -42c58 0 99 13 99 57c0 25 -20 32 -67 39zM286 262c43 0 70 40 70 110c0 40 -17 57 -44 57c-40 0 -68 -29 -68 -111c0 -38 14 -56 42 -56zM217 568l-51 43
c35 43 94 106 135 145c32 29 44 39 73 39c31 0 39 -10 60 -39c27 -39 66 -107 86 -145l-55 -42l-107 106z" />
    <glyph glyph-name="gbreve.alt" horiz-adv-x="511" 
d="M505 346c0 -111 -87 -184 -220 -184c-18 0 -33 2 -45 4l-21 -42l88 -13c130 -19 205 -45 205 -140c0 -109 -94 -195 -290 -195c-155 0 -217 45 -217 110s41 97 98 136c-40 20 -33 58 -6 98l46 68c-41 28 -61 87 -61 132c0 127 87 207 231 207c50 0 98 -11 126 -26l161 20
l-19 -113l-93 10l-5 -7c12 -15 22 -42 22 -65zM276 -22l-77 12c-29 -21 -49 -37 -49 -66c0 -18 14 -42 94 -42c58 0 99 13 99 57c0 25 -20 32 -67 39zM286 262c43 0 70 40 70 110c0 40 -17 57 -44 57c-40 0 -68 -29 -68 -111c0 -38 14 -56 42 -56zM450 771l90 -23
c-34 -96 -93 -154 -201 -154c-114 0 -154 81 -159 154l89 23c12 -58 37 -79 84 -79c41 0 68 19 97 79z" />
    <glyph glyph-name="gdotaccent.alt" horiz-adv-x="511" 
d="M505 346c0 -111 -87 -184 -220 -184c-18 0 -33 2 -45 4l-21 -42l88 -13c130 -19 205 -45 205 -140c0 -109 -94 -195 -290 -195c-155 0 -217 45 -217 110s41 97 98 136c-40 20 -33 58 -6 98l46 68c-41 28 -61 87 -61 132c0 127 87 207 231 207c50 0 98 -11 126 -26l161 20
l-19 -113l-93 10l-5 -7c12 -15 22 -42 22 -65zM276 -22l-77 12c-29 -21 -49 -37 -49 -66c0 -18 14 -42 94 -42c58 0 99 13 99 57c0 25 -20 32 -67 39zM286 262c43 0 70 40 70 110c0 40 -17 57 -44 57c-40 0 -68 -29 -68 -111c0 -38 14 -56 42 -56zM255 644
c0 52 44 97 104 97c47 0 76 -32 76 -71c0 -53 -46 -95 -105 -95c-48 0 -75 29 -75 69z" />
    <glyph glyph-name="gcommaaccent.alt" horiz-adv-x="511" 
d="M505 346c0 -111 -87 -184 -220 -184c-18 0 -33 2 -45 4l-21 -42l88 -13c130 -19 205 -45 205 -140c0 -109 -94 -195 -290 -195c-155 0 -217 45 -217 110s41 97 98 136c-40 20 -33 58 -6 98l46 68c-41 28 -61 87 -61 132c0 127 87 207 231 207c50 0 98 -11 126 -26l161 20
l-19 -113l-93 10l-5 -7c12 -15 22 -42 22 -65zM276 -22l-77 12c-29 -21 -49 -37 -49 -66c0 -18 14 -42 94 -42c58 0 99 13 99 57c0 25 -20 32 -67 39zM286 262c43 0 70 40 70 110c0 40 -17 57 -44 57c-40 0 -68 -29 -68 -111c0 -38 14 -56 42 -56zM463 779l-98 -212
c-39 3 -98 7 -98 50c0 17 12 38 30 63c36 46 83 95 114 127z" />
    <glyph glyph-name="kcommaaccent.alt" horiz-adv-x="532" 
d="M340 695l-79 -438h3l181 255h177l-178 -243l79 -269h-178l-39 144l-109 -144h-144l123 695h164zM228 -51l-98 -210l52 -28c31 33 78 80 114 128c18 24 30 46 30 63c0 42 -59 46 -98 47z" />
    <glyph glyph-name="wcircumflex.alt" horiz-adv-x="742" 
d="M641 512h183l-204 -512h-193l-8 272h-2l-105 -272h-187l-28 512h182l-2 -304h4l109 304h141l10 -306h3zM331 568l-51 43c35 43 94 106 135 145c32 29 44 39 73 39c31 0 39 -10 60 -39c27 -39 66 -107 86 -145l-55 -42l-107 106z" />
    <glyph glyph-name="wgrave.alt" horiz-adv-x="742" 
d="M641 512h183l-204 -512h-193l-8 272h-2l-105 -272h-187l-28 512h182l-2 -304h4l109 304h141l10 -306h3zM439 806l104 -206l-53 -36c-29 25 -83 73 -116 111c-15 20 -23 37 -23 52c0 48 52 68 88 79z" />
    <glyph glyph-name="wacute.alt" horiz-adv-x="742" 
d="M641 512h183l-204 -512h-193l-8 272h-2l-105 -272h-187l-28 512h182l-2 -304h4l109 304h141l10 -306h3zM358 604l148 195c30 -9 78 -29 78 -70c0 -20 -11 -36 -44 -63c-43 -36 -105 -77 -143 -102z" />
    <glyph glyph-name="wdieresis.alt" horiz-adv-x="742" 
d="M641 512h183l-204 -512h-193l-8 272h-2l-105 -272h-187l-28 512h182l-2 -304h4l109 304h141l10 -306h3zM514 665c0 45 38 83 91 83c41 0 65 -26 65 -61c0 -45 -39 -83 -91 -83c-41 0 -65 26 -65 61zM296 665c0 45 38 83 91 83c41 0 65 -26 65 -61c0 -45 -39 -83 -91 -83
c-41 0 -65 26 -65 61z" />
    <glyph glyph-name="ygrave.alt" horiz-adv-x="507" 
d="M418 512h178l-259 -514c-83 -166 -146 -222 -273 -222c-55 0 -111 20 -141 40l58 117c21 -11 47 -23 81 -23c42 0 63 16 87 58l23 39l-83 505h175l22 -301h3zM310 806l104 -206l-53 -36c-29 25 -83 73 -116 111c-15 20 -23 37 -23 52c0 48 52 68 88 79z" />
    <glyph glyph-name="ycircumflex.alt" horiz-adv-x="507" 
d="M418 512h178l-259 -514c-83 -166 -146 -222 -273 -222c-55 0 -111 20 -141 40l58 117c21 -11 47 -23 81 -23c42 0 63 16 87 58l23 39l-83 505h175l22 -301h3zM219 568l-51 43c35 43 94 106 135 145c32 29 44 39 73 39c31 0 39 -10 60 -39c27 -39 66 -107 86 -145l-55 -42
l-107 106z" />
    <glyph glyph-name="zacute.alt" horiz-adv-x="464" 
d="M445 0h-420l19 105l250 276h-189l22 131h400l-18 -102l-251 -278h210zM268 604l148 195c30 -9 78 -29 78 -70c0 -20 -11 -36 -44 -63c-43 -36 -105 -77 -143 -102z" />
    <glyph glyph-name="zdotaccent.alt" horiz-adv-x="464" 
d="M445 0h-420l19 105l250 276h-189l22 131h400l-18 -102l-251 -278h210zM258 644c0 52 44 97 104 97c47 0 76 -32 76 -71c0 -53 -46 -95 -105 -95c-48 0 -75 29 -75 69z" />
    <glyph glyph-name="zcaron.alt" horiz-adv-x="464" 
d="M445 0h-420l19 105l250 276h-189l22 131h400l-18 -102l-251 -278h210zM494 795l51 -43c-36 -42 -94 -106 -136 -145c-31 -29 -44 -39 -73 -39c-31 0 -39 10 -60 39c-27 40 -66 105 -87 145l58 42l106 -105z" />
    <glyph glyph-name="yacute.alt" horiz-adv-x="507" 
d="M418 512h178l-259 -514c-83 -166 -146 -222 -273 -222c-55 0 -111 20 -141 40l58 117c21 -11 47 -23 81 -23c42 0 63 16 87 58l23 39l-83 505h175l22 -301h3zM260 604l148 195c30 -9 78 -29 78 -70c0 -20 -11 -36 -44 -63c-43 -36 -105 -77 -143 -102z" />
    <glyph glyph-name="ydieresis.alt" horiz-adv-x="507" 
d="M418 512h178l-259 -514c-83 -166 -146 -222 -273 -222c-55 0 -111 20 -141 40l58 117c21 -11 47 -23 81 -23c42 0 63 16 87 58l23 39l-83 505h175l22 -301h3zM402 665c0 45 38 83 91 83c41 0 65 -26 65 -61c0 -45 -39 -83 -91 -83c-41 0 -65 26 -65 61zM184 665
c0 45 38 83 91 83c41 0 65 -26 65 -61c0 -45 -39 -83 -91 -83c-41 0 -65 26 -65 61z" />
    <glyph glyph-name="agrave.alt" horiz-adv-x="525" 
d="M152 379l-12 116c42 14 132 32 209 32c119 0 172 -37 172 -132c0 -19 -2 -40 -6 -64l-35 -200c-4 -23 0 -35 18 -35c8 0 18 3 30 7v-93c-35 -16 -76 -23 -106 -23c-49 0 -80 26 -84 65c-44 -39 -95 -65 -156 -65c-91 0 -136 56 -136 139c0 146 91 184 229 184
c30 0 65 -3 74 -4l5 32c2 10 3 20 3 27c0 30 -17 38 -48 38c-37 0 -107 -9 -157 -24zM318 126l14 85c-6 1 -25 3 -44 3c-41 0 -77 -8 -77 -66c0 -31 13 -45 40 -45c25 0 49 10 67 23zM333 806l104 -206l-53 -36c-29 25 -83 73 -116 111c-15 20 -23 37 -23 52
c0 48 52 68 88 79z" />
    <glyph glyph-name="aacute.alt" horiz-adv-x="525" 
d="M152 379l-12 116c42 14 132 32 209 32c119 0 172 -37 172 -132c0 -19 -2 -40 -6 -64l-35 -200c-4 -23 0 -35 18 -35c8 0 18 3 30 7v-93c-35 -16 -76 -23 -106 -23c-49 0 -80 26 -84 65c-44 -39 -95 -65 -156 -65c-91 0 -136 56 -136 139c0 146 91 184 229 184
c30 0 65 -3 74 -4l5 32c2 10 3 20 3 27c0 30 -17 38 -48 38c-37 0 -107 -9 -157 -24zM318 126l14 85c-6 1 -25 3 -44 3c-41 0 -77 -8 -77 -66c0 -31 13 -45 40 -45c25 0 49 10 67 23zM260 604l148 195c30 -9 78 -29 78 -70c0 -20 -11 -36 -44 -63
c-43 -36 -105 -77 -143 -102z" />
    <glyph glyph-name="acircumflex.alt" horiz-adv-x="525" 
d="M152 379l-12 116c42 14 132 32 209 32c119 0 172 -37 172 -132c0 -19 -2 -40 -6 -64l-35 -200c-4 -23 0 -35 18 -35c8 0 18 3 30 7v-93c-35 -16 -76 -23 -106 -23c-49 0 -80 26 -84 65c-44 -39 -95 -65 -156 -65c-91 0 -136 56 -136 139c0 146 91 184 229 184
c30 0 65 -3 74 -4l5 32c2 10 3 20 3 27c0 30 -17 38 -48 38c-37 0 -107 -9 -157 -24zM318 126l14 85c-6 1 -25 3 -44 3c-41 0 -77 -8 -77 -66c0 -31 13 -45 40 -45c25 0 49 10 67 23zM219 568l-51 43c35 43 94 106 135 145c32 29 44 39 73 39c31 0 39 -10 60 -39
c27 -39 66 -107 86 -145l-55 -42l-107 106z" />
    <glyph glyph-name="atilde.alt" horiz-adv-x="525" 
d="M152 379l-12 116c42 14 132 32 209 32c119 0 172 -37 172 -132c0 -19 -2 -40 -6 -64l-35 -200c-4 -23 0 -35 18 -35c8 0 18 3 30 7v-93c-35 -16 -76 -23 -106 -23c-49 0 -80 26 -84 65c-44 -39 -95 -65 -156 -65c-91 0 -136 56 -136 139c0 146 91 184 229 184
c30 0 65 -3 74 -4l5 32c2 10 3 20 3 27c0 30 -17 38 -48 38c-37 0 -107 -9 -157 -24zM318 126l14 85c-6 1 -25 3 -44 3c-41 0 -77 -8 -77 -66c0 -31 13 -45 40 -45c25 0 49 10 67 23zM204 612l5 93c33 22 65 31 93 31c54 0 88 -27 136 -27c22 0 46 8 68 19l-8 -98
c-24 -13 -45 -20 -74 -20c-46 0 -98 24 -139 24c-29 0 -52 -7 -81 -22z" />
    <glyph glyph-name="adieresis.alt" horiz-adv-x="525" 
d="M152 379l-12 116c42 14 132 32 209 32c119 0 172 -37 172 -132c0 -19 -2 -40 -6 -64l-35 -200c-4 -23 0 -35 18 -35c8 0 18 3 30 7v-93c-35 -16 -76 -23 -106 -23c-49 0 -80 26 -84 65c-44 -39 -95 -65 -156 -65c-91 0 -136 56 -136 139c0 146 91 184 229 184
c30 0 65 -3 74 -4l5 32c2 10 3 20 3 27c0 30 -17 38 -48 38c-37 0 -107 -9 -157 -24zM318 126l14 85c-6 1 -25 3 -44 3c-41 0 -77 -8 -77 -66c0 -31 13 -45 40 -45c25 0 49 10 67 23zM378 665c0 45 38 83 91 83c41 0 65 -26 65 -61c0 -45 -39 -83 -91 -83
c-41 0 -65 26 -65 61zM160 665c0 45 38 83 91 83c41 0 65 -26 65 -61c0 -45 -39 -83 -91 -83c-41 0 -65 26 -65 61z" />
    <glyph glyph-name="aring.alt" horiz-adv-x="525" 
d="M152 379l-12 116c42 14 132 32 209 32c119 0 172 -37 172 -132c0 -19 -2 -40 -6 -64l-35 -200c-4 -23 0 -35 18 -35c8 0 18 3 30 7v-93c-35 -16 -76 -23 -106 -23c-49 0 -80 26 -84 65c-44 -39 -95 -65 -156 -65c-91 0 -136 56 -136 139c0 146 91 184 229 184
c30 0 65 -3 74 -4l5 32c2 10 3 20 3 27c0 30 -17 38 -48 38c-37 0 -107 -9 -157 -24zM318 126l14 85c-6 1 -25 3 -44 3c-41 0 -77 -8 -77 -66c0 -31 13 -45 40 -45c25 0 49 10 67 23zM251 636c0 66 44 108 114 108c60 0 88 -32 88 -78c0 -66 -44 -109 -110 -109
c-59 0 -92 31 -92 79zM357 683c-23 0 -36 -15 -36 -37c0 -17 11 -27 28 -27c22 0 34 16 34 38c0 16 -8 26 -26 26z" />
    <glyph glyph-name="egrave.alt" horiz-adv-x="498" 
d="M356 527c-202 0 -292 -155 -292 -324c0 -120 59 -219 214 -219c121 0 207 54 208 55l-36 114c-38 -23 -85 -41 -132 -41c-64 0 -91 32 -89 105h278c12 29 31 93 31 153c0 97 -78 157 -182 157zM338 405c34 0 51 -17 51 -44c0 -18 -3 -33 -10 -51h-137c11 63 46 95 96 95z
M359 806l104 -206l-53 -36c-29 25 -83 73 -116 111c-15 20 -23 37 -23 52c0 48 52 68 88 79z" />
    <glyph glyph-name="eacute.alt" horiz-adv-x="498" 
d="M356 527c104 0 182 -60 182 -157c0 -60 -19 -124 -31 -153h-278c-2 -73 25 -105 89 -105c47 0 94 18 132 41l36 -114c-1 -1 -87 -55 -208 -55c-155 0 -214 99 -214 219c0 169 90 324 292 324zM338 405c-50 0 -85 -32 -96 -95h137c7 18 10 33 10 51c0 27 -17 44 -51 44z
M288 604l148 195c30 -9 78 -29 78 -70c0 -20 -11 -36 -44 -63c-43 -36 -105 -77 -143 -102z" />
    <glyph glyph-name="ecircumflex.alt" horiz-adv-x="498" 
d="M356 527c-202 0 -292 -155 -292 -324c0 -120 59 -219 214 -219c121 0 207 54 208 55l-36 114c-38 -23 -85 -41 -132 -41c-64 0 -91 32 -89 105h278c12 29 31 93 31 153c0 97 -78 157 -182 157zM338 405c34 0 51 -17 51 -44c0 -18 -3 -33 -10 -51h-137c11 63 46 95 96 95z
M242 568l-51 43c35 43 94 106 135 145c32 29 44 39 73 39c31 0 39 -10 60 -39c27 -39 66 -107 86 -145l-55 -42l-107 106z" />
    <glyph glyph-name="edieresis.alt" horiz-adv-x="498" 
d="M356 527c-202 0 -292 -155 -292 -324c0 -120 59 -219 214 -219c121 0 207 54 208 55l-36 114c-38 -23 -85 -41 -132 -41c-64 0 -91 32 -89 105h278c12 29 31 93 31 153c0 97 -78 157 -182 157zM338 405c34 0 51 -17 51 -44c0 -18 -3 -33 -10 -51h-137c11 63 46 95 96 95z
M406 665c0 45 38 83 91 83c41 0 65 -26 65 -61c0 -45 -39 -83 -91 -83c-41 0 -65 26 -65 61zM188 665c0 45 38 83 91 83c41 0 65 -26 65 -61c0 -45 -39 -83 -91 -83c-41 0 -65 26 -65 61z" />
    </font>
</defs>
</svg>
