<?xml version="1.0" standalone="no"?>
<!DOCTYPE svg PUBLIC "-//W3C//DTD SVG 1.1//EN" "http://www.w3.org/Graphics/SVG/1.1/DTD/svg11.dtd" >
<svg xmlns="http://www.w3.org/2000/svg" xmlns:xlink="http://www.w3.org/1999/xlink" version="1.1">
<metadata>
Created by FontForge 20141024 at Fri Mar 27 14:09:10 2015
 By System Administrator
Copyright (c) 2008 by TypeTogether. All rights reserved.
</metadata>
<defs>
<font id="Bree-Oblique" horiz-adv-x="535" >
  <font-face 
    font-family="Bree Rg"
    font-weight="400"
    font-style="oblique"
    font-stretch="normal"
    units-per-em="1000"
    panose-1="2 0 5 3 0 0 0 9 0 4"
    ascent="720"
    descent="-280"
    x-height="503"
    cap-height="665"
    bbox="-133 -281 1057 907"
    underline-thickness="50"
    underline-position="-50"
    slope="-10"
    stemh="106"
    stemv="119"
    unicode-range="U+000D-FB04"
  />
<missing-glyph horiz-adv-x="500" 
 />
    <glyph glyph-name="ff" unicode="ff" horiz-adv-x="627" 
d="M256 410l-110 -620h-118l132 751c16 93 53 182 212 182c52 0 112 -18 149 -36c29 22 69 36 128 36c43 0 100 -15 133 -36l-42 -78c-27 14 -59 24 -87 24c-50 0 -78 -27 -87 -83l-8 -47h147l-16 -93h-148l-109 -620h-119l109 620h-166zM280 550l-8 -47h166l7 38
c4 22 10 47 21 71c-29 14 -62 21 -93 21c-56 0 -82 -25 -93 -83z" />
    <glyph glyph-name="fi" unicode="fi" horiz-adv-x="525" 
d="M256 410l-110 -620h-118l132 751c16 91 54 182 213 182c70 0 141 -25 177 -45l-43 -79c-38 20 -88 34 -128 34c-57 0 -88 -25 -99 -83l-8 -47h282l-89 -503h-119l72 410h-162z" />
    <glyph glyph-name="fl" unicode="fl" horiz-adv-x="607" 
d="M256 410l-110 -620h-118l132 751c16 93 53 182 214 182c52 0 102 -15 144 -32c24 -3 47 -6 70 -9l-92 -519c-11 -62 -2 -85 38 -85c20 0 44 6 66 16l12 -80c-31 -20 -81 -31 -122 -31c-151 0 -125 109 -108 210l38 217h-164zM280 550l-8 -47h165l19 114
c-27 11 -55 16 -83 16c-56 0 -82 -25 -93 -83z" />
    <glyph glyph-name="ffi" unicode="ffi" horiz-adv-x="809" 
d="M540 410l-110 -620h-118l109 620h-165l-110 -620h-118l132 751c16 92 53 182 211 182c52 0 114 -18 151 -37c31 23 75 37 137 37c68 0 139 -26 174 -46l-42 -78c-38 20 -84 34 -124 34c-57 0 -92 -21 -103 -83l-8 -47h282l-89 -503h-119l72 410h-162zM280 550l-8 -47h165
l7 38c4 22 10 47 21 71c-31 13 -61 21 -92 21c-56 0 -82 -25 -93 -83z" />
    <glyph glyph-name="ffl" unicode="ffl" horiz-adv-x="892" 
d="M541 410l-110 -620h-119l110 620h-166l-110 -620h-118l132 751c15 87 54 182 214 182c64 0 115 -18 151 -37c45 25 84 37 147 37c46 0 124 -11 201 -40l-92 -519c-3 -16 -4 -29 -4 -40c0 -32 12 -45 43 -45c20 0 43 7 66 16l16 -81c-30 -17 -85 -29 -128 -29
c-85 0 -119 40 -119 110c0 16 2 34 5 53l46 262h-165zM438 503l7 38c4 22 8 43 20 67c-26 14 -61 25 -92 25c-60 0 -83 -27 -95 -94l-6 -36h166zM565 550l-8 -47h165l20 113c-28 11 -56 17 -84 17c-56 0 -83 -29 -93 -83z" />
    <glyph glyph-name="tt" unicode="tt" horiz-adv-x="658" 
d="M494 695h119l-34 -192h135l-16 -93h-135l-45 -254c-2 -11 -3 -26 -3 -34c1 -39 17 -46 51 -46c25 0 57 12 75 22l24 -77c-33 -21 -94 -36 -141 -36c-103 0 -131 48 -132 104c0 22 3 43 7 68l44 253h-187l-45 -254c-2 -11 -3 -26 -3 -34c1 -39 17 -46 51 -46
c25 0 57 12 75 22l24 -77c-33 -21 -94 -36 -141 -36c-103 0 -131 48 -132 104c0 22 3 43 7 68l95 538h119l-34 -192h188z" />
    <glyph glyph-name=".notdef" horiz-adv-x="500" 
 />
    <glyph glyph-name=".null" horiz-adv-x="0" 
 />
    <glyph glyph-name=".null" horiz-adv-x="0" 
 />
    <glyph glyph-name="CR" unicode="&#xd;" horiz-adv-x="220" 
 />
    <glyph glyph-name="space" unicode=" " horiz-adv-x="206" 
 />
    <glyph glyph-name="quotesingle" unicode="'" horiz-adv-x="206" 
d="M173 665h93l-50 -230h-73z" />
    <glyph glyph-name="quotedbl" unicode="&#x22;" horiz-adv-x="349" 
d="M173 665h93l-50 -230h-73zM316 665h94l-50 -230h-74z" />
    <glyph glyph-name="numbersign" unicode="#" horiz-adv-x="534" 
d="M289 0l41 157h-110l-41 -157h-73l41 157h-101l12 66h106l42 156h-101l11 66h107l43 160h73l-43 -160h110l43 160h73l-43 -160h101l-12 -66h-106l-42 -156h101l-11 -66h-107l-41 -157h-73zM279 379l-42 -156h110l42 156h-110z" />
    <glyph glyph-name="ampersand" unicode="&#x26;" horiz-adv-x="803" 
d="M366 82c100 0 196 53 245 195h185l-16 -91h-98c-53 -104 -144 -198 -332 -198c-189 0 -249 117 -249 236c0 167 109 327 303 327c84 0 147 -42 147 -108c0 -40 -22 -82 -61 -109c132 53 195 181 231 275l105 -33c-59 -140 -151 -250 -296 -304c-73 -28 -191 -45 -310 -47
c-5 -102 62 -143 146 -143zM383 457c-53 0 -120 -39 -151 -150c63 3 200 15 200 109c0 20 -13 41 -49 41z" />
    <glyph glyph-name="asterisk" unicode="*" horiz-adv-x="412" 
d="M320 541c35 -4 101 -36 101 -81c0 -26 -17 -44 -44 -44c-58 0 -60 85 -57 125zM340 575c22 42 71 82 118 82c25 0 38 -16 38 -37c0 -44 -51 -58 -90 -58c-20 0 -48 3 -66 13zM282 541c-5 -41 -27 -82 -43 -100c-19 -22 -36 -25 -53 -25c-24 0 -35 18 -35 35
c0 56 89 87 131 90zM274 575c-22 -10 -49 -13 -68 -13c-30 0 -74 11 -74 49c0 27 21 46 45 46c46 0 86 -43 97 -82zM312 603c-21 23 -27 57 -27 80c0 39 19 75 54 75c26 0 36 -16 36 -41c0 -49 -29 -90 -63 -114z" />
    <glyph glyph-name="comma" unicode="," horiz-adv-x="231" 
d="M207 74l-144 -229l-59 21c28 99 49 159 65 197c15 35 32 53 61 53c34 0 66 -27 77 -42z" />
    <glyph glyph-name="hyphen" unicode="-" horiz-adv-x="322" 
d="M71 242l16 92h262l-16 -92h-262z" />
    <glyph glyph-name="period" unicode="." horiz-adv-x="219" 
d="M48 41c0 45 35 80 82 80c39 0 60 -22 60 -55c0 -43 -32 -81 -81 -81c-41 0 -61 23 -61 56z" />
    <glyph glyph-name="colon" unicode=":" horiz-adv-x="219" 
d="M48 41c0 45 35 80 82 80c39 0 60 -22 60 -55c0 -43 -32 -81 -81 -81c-41 0 -61 23 -61 56zM115 418c0 44 34 80 81 80c40 0 61 -22 61 -55c0 -43 -32 -81 -82 -81c-40 0 -60 23 -60 56z" />
    <glyph glyph-name="semicolon" unicode=";" horiz-adv-x="231" 
d="M207 74l-144 -229l-60 21c29 99 50 159 66 197c14 35 31 53 60 53c35 0 66 -27 78 -42zM133 418c0 44 34 80 81 80c40 0 61 -22 61 -55c0 -43 -32 -81 -82 -81c-40 0 -60 23 -60 56z" />
    <glyph glyph-name="question" unicode="?" horiz-adv-x="383" 
d="M233 440c49 31 93 55 93 107c0 37 -23 54 -55 54c-28 0 -70 -10 -119 -27l-4 92c50 17 98 29 148 29c103 0 146 -58 146 -128c0 -90 -41 -133 -144 -198c-39 -24 -57 -39 -64 -79l-20 -110h-91c1 23 6 80 11 105c13 76 32 113 99 155zM80 40c0 41 37 76 80 76
c39 0 60 -23 60 -55c0 -40 -34 -77 -80 -77c-40 0 -60 24 -60 56z" />
    <glyph glyph-name="exclam" unicode="!" horiz-adv-x="265" 
d="M172 530l21 118c5 25 22 47 64 47c43 0 52 -22 47 -49l-21 -116l-81 -350h-71zM72 40c0 41 37 76 80 76c39 0 60 -23 60 -55c0 -40 -34 -77 -80 -77c-40 0 -60 24 -60 56z" />
    <glyph glyph-name="exclamdown" unicode="&#xa1;" horiz-adv-x="264" 
d="M189 -29l-21 -118c-5 -25 -22 -47 -64 -47c-43 0 -52 22 -47 49l21 116l81 350h71zM289 461c0 -41 -37 -76 -80 -76c-39 0 -60 23 -60 55c0 40 34 77 80 77c40 0 60 -24 60 -56z" />
    <glyph glyph-name="questiondown" unicode="&#xbf;" horiz-adv-x="375" 
d="M246 62c-49 -31 -93 -55 -93 -107c0 -37 23 -54 55 -54c28 0 70 10 119 27l4 -92c-50 -17 -98 -29 -148 -29c-103 0 -146 58 -146 128c0 90 41 133 144 198c39 24 57 39 64 79l20 110h91c-1 -23 -6 -80 -11 -105c-13 -76 -32 -113 -99 -155zM399 462
c0 -41 -37 -76 -80 -76c-39 0 -60 23 -60 55c0 40 34 77 80 77c40 0 60 -24 60 -56z" />
    <glyph glyph-name="at" unicode="@" horiz-adv-x="953" 
d="M854 341c0 135 -78 230 -254 230c-267 0 -411 -195 -411 -422c0 -156 80 -266 252 -266c54 0 107 8 163 31l12 -73c-55 -22 -119 -34 -192 -34c-235 0 -328 156 -328 331c0 330 228 514 511 514c199 0 338 -111 338 -301c0 -231 -129 -351 -309 -351h-57l2 55
c-1 0 -2 1 -3 1c-25 -31 -63 -59 -128 -59c-100 0 -133 69 -133 151c0 172 99 292 265 292c29 0 87 -7 143 -29l-58 -340c100 7 187 78 187 270zM583 154l36 205c-13 5 -32 9 -57 9c-102 0 -146 -112 -146 -206c0 -48 14 -89 69 -89c46 0 86 26 98 81z" />
    <glyph glyph-name="A" unicode="A" horiz-adv-x="625" 
d="M141 0h-129l341 665h144l116 -665h-120l-28 176h-234zM409 553l-141 -285h185l-39 285h-5z" />
    <glyph glyph-name="B" unicode="B" horiz-adv-x="580" 
d="M187 665h225c102 0 191 -29 191 -136c0 -85 -52 -137 -121 -170c62 -17 102 -61 102 -131c0 -142 -105 -228 -295 -228h-219zM245 304l-36 -210h95c119 0 149 61 149 125c0 55 -39 85 -108 85h-100zM293 573l-32 -180h75c98 0 139 48 139 111c0 56 -43 69 -100 69h-82z
" />
    <glyph glyph-name="C" unicode="C" horiz-adv-x="590" 
d="M364 89c56 0 110 25 168 70l52 -80c-78 -62 -158 -91 -245 -91c-153 0 -245 93 -245 265c0 317 185 424 358 424c93 0 171 -43 216 -128l-93 -58c-32 53 -73 83 -133 83c-129 0 -220 -118 -220 -304c0 -113 44 -181 142 -181z" />
    <glyph glyph-name="D" unicode="D" horiz-adv-x="644" 
d="M70 0l117 665h217c166 0 265 -87 265 -253c0 -295 -176 -412 -377 -412h-222zM292 568l-83 -472h100c142 0 234 117 234 303c0 130 -70 169 -161 169h-90z" />
    <glyph glyph-name="E" unicode="E" horiz-adv-x="509" 
d="M70 0l117 665h401l-18 -106h-280l-29 -167h240l-19 -105h-240l-31 -181h286l-19 -106h-408z" />
    <glyph glyph-name="F" unicode="F" horiz-adv-x="517" 
d="M187 665h426l-18 -106h-305l-30 -171h253l-19 -106h-253l-49 -282h-122z" />
    <glyph glyph-name="G" unicode="G" horiz-adv-x="626" 
d="M634 348l-53 -296c-61 -36 -151 -64 -244 -64c-152 0 -243 87 -243 266c0 312 182 423 354 423c86 0 172 -34 220 -128l-95 -57c-34 55 -76 82 -135 82c-127 0 -217 -120 -217 -311c0 -110 43 -176 140 -176c50 0 91 12 114 25l27 144h-98l14 92h216z" />
    <glyph glyph-name="H" unicode="H" horiz-adv-x="668" 
d="M592 665h123l-117 -665h-123l51 287h-283l-51 -287h-122l117 665h122l-47 -272h283z" />
    <glyph glyph-name="I" unicode="I" horiz-adv-x="266" 
d="M194 0h-122l117 665h122z" />
    <glyph glyph-name="J" unicode="J" horiz-adv-x="430" 
d="M16 42l52 88c26 -20 66 -39 108 -39c61 0 86 35 96 90l85 484h122l-75 -426c-5 -31 -14 -71 -23 -105c-28 -104 -84 -146 -197 -146c-74 0 -136 28 -168 54z" />
    <glyph glyph-name="K" unicode="K" horiz-adv-x="580" 
d="M676 665l-237 -270l137 -395h-134l-100 298l-122 -131l-29 -167h-121l117 665h121l-59 -324h3l289 324h135z" />
    <glyph glyph-name="L" unicode="L" horiz-adv-x="500" 
d="M71 0l117 665h122l-98 -559h282l-19 -106h-404z" />
    <glyph glyph-name="M" unicode="M" horiz-adv-x="808" 
d="M443 229l243 436h140l-81 -665h-116l56 458h-3l-221 -383h-92l-83 379h-2l-105 -454h-116l155 665h133l89 -436h3z" />
    <glyph glyph-name="N" unicode="N" horiz-adv-x="666" 
d="M592 665h121l-117 -665h-117l-204 469h-2l-82 -469h-121l117 665h123l200 -462h1z" />
    <glyph glyph-name="O" unicode="O" horiz-adv-x="664" 
d="M678 323c-36 -238 -174 -335 -349 -335c-149 0 -236 92 -236 252c0 31 2 73 9 110c46 262 217 327 351 327c132 0 233 -82 233 -253c0 -31 -2 -63 -8 -101zM229 343c-5 -29 -9 -62 -9 -91c0 -84 26 -163 131 -163c121 0 179 115 200 235c4 25 7 53 7 81
c0 84 -27 169 -123 169c-120 0 -185 -112 -206 -231z" />
    <glyph glyph-name="P" unicode="P" horiz-adv-x="568" 
d="M233 233l-41 -233h-122l117 665h225c130 0 209 -60 209 -172c0 -169 -121 -260 -300 -260h-88zM250 330h72c98 0 171 38 171 148c0 81 -58 90 -130 90h-71z" />
    <glyph glyph-name="Q" unicode="Q" horiz-adv-x="659" 
d="M398 576c-111 0 -159 -68 -159 -136c0 -61 23 -91 93 -112l-25 -81c-96 11 -190 65 -190 183c0 145 113 247 300 247c147 0 248 -80 248 -252c0 -130 -58 -248 -135 -341c72 -80 131 -131 245 -149l-41 -93c-118 16 -203 76 -280 166c-70 -58 -148 -85 -225 -85
c-115 0 -152 68 -152 126c0 96 60 152 178 152c64 0 137 -24 185 -58c54 66 97 167 97 266c0 95 -36 167 -139 167zM376 70c-39 26 -83 43 -120 43c-35 0 -66 -15 -66 -53c0 -27 16 -48 59 -48c52 0 87 23 127 58z" />
    <glyph glyph-name="R" unicode="R" horiz-adv-x="595" 
d="M239 265l-47 -265h-122l117 665h223c133 0 212 -48 212 -156c0 -122 -78 -181 -153 -204c26 -11 36 -28 47 -67l67 -238h-131l-56 213c-10 33 -23 52 -58 52h-99zM254 354h100c84 0 141 50 141 137c0 66 -49 77 -132 77h-71z" />
    <glyph glyph-name="S" unicode="S" horiz-adv-x="538" 
d="M45 60l59 95c33 -24 107 -63 176 -63c58 0 124 20 124 97c0 61 -65 79 -128 106c-71 30 -148 68 -148 174c0 132 99 208 247 208c99 0 183 -48 225 -97l-77 -78c-45 43 -100 72 -156 72c-55 0 -111 -18 -111 -84c0 -61 60 -84 123 -111c72 -31 155 -70 155 -175
c0 -132 -98 -217 -258 -217c-108 0 -199 45 -231 73z" />
    <glyph glyph-name="T" unicode="T" horiz-adv-x="538" 
d="M134 665h504l-18 -106h-194l-98 -559h-122l99 559h-189z" />
    <glyph glyph-name="U" unicode="U" horiz-adv-x="629" 
d="M182 665h121l-78 -448c-2 -13 -4 -25 -4 -36c0 -69 43 -91 112 -91c82 0 132 36 147 122l80 453h121l-83 -469c-25 -141 -119 -209 -274 -209c-150 0 -226 54 -226 170c0 18 1 37 5 58z" />
    <glyph glyph-name="V" unicode="V" horiz-adv-x="592" 
d="M360 0h-128l-105 665h118l71 -523h2l254 523h127z" />
    <glyph glyph-name="W" unicode="W" horiz-adv-x="815" 
d="M517 0l-21 335l-10 97l-182 -432h-139l-29 665h120l11 -505h1l187 452h127l26 -443h2l181 496h122l-260 -665h-136z" />
    <glyph glyph-name="X" unicode="X" horiz-adv-x="610" 
d="M564 665h143l-267 -318l173 -347h-137l-124 253l-207 -253h-148l296 354l-151 311h139l101 -226z" />
    <glyph glyph-name="Y" unicode="Y" horiz-adv-x="559" 
d="M540 665h135l-291 -411l-45 -254h-122l45 254l-144 411h128l94 -294h1z" />
    <glyph glyph-name="Z" unicode="Z" horiz-adv-x="505" 
d="M574 584l-388 -489h314l-18 -95h-455l15 83l386 487h-294l16 95h438z" />
    <glyph glyph-name="a" unicode="a" horiz-adv-x="539" 
d="M561 483l-68 -387l-7 -96h-103l2 53c-2 0 -2 1 -4 1c-40 -48 -85 -68 -151 -68c-106 0 -158 75 -158 183c0 207 111 349 310 349c41 0 112 -9 179 -35zM387 159l45 260c-14 7 -41 12 -71 12c-131 0 -170 -152 -170 -249c0 -58 19 -110 82 -110c64 0 106 44 114 87z" />
    <glyph glyph-name="b" unicode="b" horiz-adv-x="536" 
d="M67 28l119 667h119l-40 -223c34 29 79 46 129 46c102 0 161 -66 161 -187c0 -214 -107 -346 -295 -346c-70 0 -154 19 -193 43zM245 356l-47 -266c18 -10 46 -19 79 -19c77 0 157 90 157 243c0 56 -19 117 -88 117c-47 0 -93 -30 -101 -75z" />
    <glyph glyph-name="c" unicode="c" horiz-adv-x="460" 
d="M300 80c38 0 76 12 121 42l36 -81c-43 -32 -114 -56 -189 -56c-124 0 -192 78 -192 210c0 242 149 323 274 323c68 0 140 -27 175 -103l-82 -54c-23 39 -52 62 -94 62c-88 0 -151 -82 -151 -215c0 -77 31 -128 102 -128z" />
    <glyph glyph-name="d" unicode="d" horiz-adv-x="539" 
d="M369 518c31 0 58 -5 79 -12l34 189h118l-106 -596l-8 -99h-102l2 54c-2 0 -3 1 -5 1c-38 -46 -93 -70 -147 -70c-122 0 -162 91 -162 187c0 198 109 346 297 346zM387 156l45 261c-20 6 -39 8 -57 8c-115 0 -182 -107 -182 -239c0 -64 20 -113 80 -113
c64 0 107 44 114 83z" />
    <glyph glyph-name="e" unicode="e" horiz-adv-x="470" 
d="M403 385c0 31 -22 47 -53 47c-83 0 -129 -81 -144 -147c58 -1 197 14 197 100zM368 518c91 0 144 -47 144 -117c0 -175 -210 -196 -317 -197c-5 -64 18 -127 103 -127c58 0 102 27 129 44l36 -78c-25 -19 -95 -58 -194 -58c-137 0 -194 85 -194 201
c0 173 111 332 293 332z" />
    <glyph glyph-name="f" unicode="f" horiz-adv-x="339" 
d="M256 410l-110 -620h-118l130 741c16 89 49 182 197 182c51 0 109 -18 139 -36l-41 -78c-27 14 -63 24 -91 24c-50 0 -72 -23 -83 -83l-7 -37h148l-16 -93h-148z" />
    <glyph glyph-name="g" unicode="g" horiz-adv-x="536" 
d="M211 -264c-99 0 -151 48 -151 125c0 97 53 141 157 185c-74 8 -139 58 -139 176c0 188 123 296 292 296c59 0 140 -11 192 -35l-67 -383c-6 -35 -17 -92 -25 -127c-37 -166 -122 -237 -259 -237zM395 208l38 212c-23 6 -44 9 -64 9c-109 0 -173 -90 -173 -208
c0 -58 17 -111 85 -111c54 0 103 34 114 98zM170 -120c0 -38 23 -56 60 -56c80 0 111 70 129 174l12 64c-23 -24 -57 -45 -95 -65c-63 -33 -106 -62 -106 -117z" />
    <glyph glyph-name="h" unicode="h" horiz-adv-x="537" 
d="M180 0h-119l123 695h119l-42 -235c40 40 94 58 145 58c87 0 134 -41 134 -122c0 -17 -2 -40 -6 -63l-59 -333h-119l57 321c2 15 4 31 4 44c0 37 -12 61 -57 61c-62 0 -114 -48 -123 -99z" />
    <glyph glyph-name="i" unicode="i" horiz-adv-x="244" 
d="M185 0h-120l89 503h120zM169 636c0 43 35 78 81 78c36 0 59 -25 59 -56c0 -44 -37 -77 -82 -77c-37 0 -58 23 -58 55z" />
    <glyph glyph-name="j" unicode="j" horiz-adv-x="244" 
d="M59 -39l95 542h119l-95 -537c-18 -100 -38 -189 -179 -189c-42 0 -101 13 -132 35l45 83c22 -12 46 -21 71 -21c43 0 63 21 76 87zM171 636c0 43 36 78 82 78c35 0 58 -25 58 -56c0 -44 -37 -77 -82 -77c-37 0 -58 23 -58 55z" />
    <glyph glyph-name="k" unicode="k" horiz-adv-x="516" 
d="M551 398c0 -86 -49 -155 -136 -196l79 -202h-133l-62 169c-24 -6 -58 -11 -89 -13l-28 -156h-119l123 695h119l-56 -285l4 -1c38 64 102 109 180 109c65 0 118 -35 118 -120zM431 378c0 30 -16 46 -45 46c-64 0 -139 -100 -159 -180c128 10 204 71 204 134z" />
    <glyph glyph-name="l" unicode="l" horiz-adv-x="323" 
d="M186 694h119l-93 -529c-3 -18 -6 -35 -6 -46c1 -31 14 -41 44 -41c20 0 43 8 66 17l15 -80c-31 -19 -83 -30 -126 -30c-91 0 -120 45 -120 112c0 20 3 42 7 66z" />
    <glyph glyph-name="m" unicode="m" horiz-adv-x="817" 
d="M184 0h-119l73 416l7 87h99l-2 -62c43 49 97 77 160 77s107 -24 124 -80c40 52 97 80 161 80c85 0 132 -42 132 -126c0 -16 -2 -36 -5 -54l-60 -338h-119l56 317c3 15 5 30 5 43c0 38 -12 66 -57 66c-59 0 -104 -50 -113 -102l-57 -324h-119l56 317c3 15 5 30 5 44
c0 36 -10 65 -58 65c-60 0 -104 -50 -113 -104z" />
    <glyph glyph-name="n" unicode="n" horiz-adv-x="541" 
d="M183 0h-118l73 416l7 87h100l-1 -63c44 50 101 78 167 78c85 0 132 -39 133 -123c0 -15 -2 -39 -5 -57l-60 -338h-119l56 318c3 16 4 30 4 45c0 36 -11 63 -56 63c-63 0 -115 -49 -124 -100z" />
    <glyph glyph-name="o" unicode="o" horiz-adv-x="526" 
d="M273 73c73 0 119 68 137 172c5 30 6 57 6 80c0 64 -22 105 -78 105c-73 0 -120 -67 -137 -163c-5 -29 -7 -61 -7 -88c0 -60 18 -106 79 -106zM78 261c34 207 173 257 279 257c68 0 183 -29 183 -188c0 -22 -1 -51 -5 -79c-30 -195 -147 -266 -280 -266
c-117 0 -183 69 -183 194c0 25 1 52 6 82z" />
    <glyph glyph-name="p" unicode="p" horiz-adv-x="538" 
d="M186 14l-40 -224h-119l122 695c79 23 156 33 207 33c132 0 195 -69 195 -203c0 -200 -103 -330 -263 -330c-39 0 -79 13 -102 29zM256 416l-54 -311c18 -19 52 -34 87 -34c74 0 142 93 142 242c0 65 -20 115 -92 115c-29 0 -61 -5 -83 -12z" />
    <glyph glyph-name="q" unicode="q" 
d="M558 481l-122 -691h-119l43 244h-3c-31 -29 -70 -49 -128 -49c-99 0 -156 68 -156 193c0 211 119 340 300 340c55 0 124 -11 185 -37zM381 152l47 268c-19 4 -37 7 -55 7c-102 0 -182 -73 -182 -243c0 -58 17 -112 77 -112c63 0 107 47 113 80z" />
    <glyph glyph-name="r" unicode="r" horiz-adv-x="366" 
d="M240 317l-56 -317h-119l75 423l5 80h98l-1 -72c30 58 82 87 134 87c32 0 61 -8 79 -20l-38 -97c-18 10 -40 16 -66 16c-54 0 -98 -42 -111 -100z" />
    <glyph glyph-name="s" unicode="s" horiz-adv-x="419" 
d="M31 39l48 82c30 -20 84 -48 137 -48c49 0 87 21 87 65c0 42 -42 59 -85 75c-57 22 -126 48 -126 140c0 110 91 165 200 165c76 0 145 -34 179 -75l-65 -64c-33 32 -73 52 -114 52c-44 0 -81 -18 -81 -61c0 -45 47 -58 100 -80c55 -22 112 -56 112 -135
c0 -111 -82 -170 -209 -170c-88 0 -159 34 -183 54z" />
    <glyph glyph-name="t" unicode="t" horiz-adv-x="351" 
d="M187 695h119l-34 -192h135l-16 -93h-135l-45 -254c-2 -11 -3 -26 -3 -34c1 -39 17 -46 51 -46c25 0 57 12 75 22l24 -77c-33 -21 -94 -36 -141 -36c-103 0 -131 48 -132 104c0 22 3 43 7 68z" />
    <glyph glyph-name="u" unicode="u" horiz-adv-x="540" 
d="M447 503h119l-74 -419l-7 -84h-102l2 58l-6 1c-40 -52 -94 -73 -153 -73c-96 0 -139 49 -139 130c0 16 2 32 5 50l59 337h119l-56 -319c-3 -15 -5 -30 -5 -44c0 -35 13 -62 65 -62c56 0 106 48 115 100z" />
    <glyph glyph-name="v" unicode="v" horiz-adv-x="531" 
d="M413 503h118c3 -28 5 -79 5 -114c0 -256 -97 -403 -298 -403c-99 0 -151 43 -152 129c0 16 2 37 5 56l58 332h120l-56 -315c-4 -19 -6 -38 -6 -54c0 -33 12 -55 55 -55c103 0 156 155 156 303c0 42 -3 93 -5 121z" />
    <glyph glyph-name="w" unicode="w" horiz-adv-x="799" 
d="M680 503h117c3 -29 7 -80 7 -117c0 -230 -85 -400 -274 -400c-75 0 -116 34 -126 84c-48 -62 -110 -84 -174 -84c-92 0 -143 41 -144 125c0 15 2 32 5 49l60 343h119l-55 -316c-4 -19 -7 -38 -7 -55c1 -32 13 -54 56 -54c55 0 99 45 108 96l57 329h119l-57 -316
c-3 -17 -6 -38 -6 -53c0 -32 11 -56 54 -56c96 0 147 144 147 305c0 39 -3 91 -6 120z" />
    <glyph glyph-name="x" unicode="x" horiz-adv-x="471" 
d="M427 503h127l-205 -242l125 -261h-124l-80 172l-142 -172h-131l222 263l-114 240h120l71 -160z" />
    <glyph glyph-name="y" unicode="y" horiz-adv-x="537" 
d="M565 503l-77 -440c-6 -36 -19 -104 -30 -138c-39 -125 -118 -191 -247 -191c-98 0 -150 50 -150 123c0 81 38 134 141 182c-80 10 -109 50 -109 115c0 14 1 28 4 44l54 305h119l-51 -292c-3 -15 -5 -30 -5 -43c0 -36 15 -62 71 -62c50 0 98 38 108 95l54 302h118z
M172 -121c0 -37 24 -56 61 -56c70 0 104 55 120 142l18 97c-27 -26 -55 -45 -96 -66c-65 -33 -103 -59 -103 -117z" />
    <glyph glyph-name="z" unicode="z" horiz-adv-x="414" 
d="M97 -108c0 -38 17 -67 62 -67c77 0 122 74 122 152c0 38 -13 64 -33 83c-104 -39 -151 -109 -151 -168zM484 503l-13 -75l-255 -222l56 -30c86 -46 124 -100 124 -186c0 -147 -103 -255 -252 -255c-108 0 -159 56 -159 139c0 103 56 177 191 239c-29 16 -56 28 -84 41
l13 71l214 185h-227l17 93h375z" />
    <glyph glyph-name="bracketleft" unicode="[" horiz-adv-x="300" 
d="M51 -166l155 880h211l-15 -81h-101l-126 -718h100l-14 -81h-210z" />
    <glyph glyph-name="bracketright" unicode="]" horiz-adv-x="300" 
d="M346 714l-155 -880h-211l14 81h101l126 718h-100l15 81h210z" />
    <glyph glyph-name="parenleft" unicode="(" horiz-adv-x="320" 
d="M105 164c0 194 84 381 220 565l93 -51c-126 -185 -195 -330 -195 -511c0 -96 18 -208 49 -303l-102 -42c-42 103 -65 233 -65 342z" />
    <glyph glyph-name="parenright" unicode=")" horiz-adv-x="320" 
d="M310 379c0 -201 -78 -374 -222 -559l-89 56c124 186 194 320 194 508c0 96 -20 206 -51 300l105 39c41 -103 63 -233 63 -344z" />
    <glyph glyph-name="braceleft" unicode="{" horiz-adv-x="316" 
d="M199 281c26 -13 46 -42 46 -85c0 -60 -49 -198 -49 -241c0 -28 10 -46 41 -46c11 0 23 1 40 5l-3 -75c-29 -8 -59 -10 -81 -10c-71 0 -106 34 -108 90c0 15 2 29 4 38c10 53 47 181 47 232c0 35 -15 53 -50 57l12 74c58 7 77 34 86 117c5 46 10 101 15 137
c10 91 49 145 146 145c25 0 58 -4 85 -11l-23 -73c-16 3 -28 5 -39 5c-44 0 -54 -20 -62 -72c-7 -46 -12 -121 -19 -164c-10 -66 -36 -103 -88 -123z" />
    <glyph glyph-name="braceright" unicode="}" horiz-adv-x="316" 
d="M217 281c-33 15 -47 43 -47 86c0 72 44 185 44 229c0 28 -10 44 -41 44c-11 0 -23 -2 -40 -5l3 74c29 7 59 10 81 10c69 0 106 -26 109 -82c0 -17 -2 -36 -5 -48c-15 -68 -42 -163 -42 -214c0 -35 14 -53 50 -57l-12 -73c-58 -8 -77 -41 -84 -119
c-6 -64 -12 -122 -17 -158c-15 -103 -59 -139 -153 -139c-23 0 -52 4 -77 12l22 74c16 -4 28 -6 40 -6c43 0 54 24 62 76c7 45 12 134 20 180c13 72 32 98 87 116z" />
    <glyph glyph-name="backslash" unicode="\" horiz-adv-x="428" 
d="M112 719l111 27l185 -813l-110 -26z" />
    <glyph glyph-name="slash" unicode="/" horiz-adv-x="428" 
d="M70 -120l-92 50l467 815l94 -48z" />
    <glyph glyph-name="brokenbar" unicode="&#xa6;" horiz-adv-x="275" 
d="M69 -88l66 374h105l-66 -374h-105zM156 403l60 344h105l-60 -344h-105z" />
    <glyph glyph-name="bar" unicode="|" horiz-adv-x="274" 
d="M69 -88l148 835h105l-148 -835h-105z" />
    <glyph glyph-name="asciicircum" unicode="^" horiz-adv-x="553" 
d="M562 301l-97 -15l-83 266l-178 -267l-102 17l253 372h87z" />
    <glyph glyph-name="underscore" unicode="_" horiz-adv-x="500" 
d="M-26 -147l13 73h500l-13 -73h-500z" />
    <glyph glyph-name="asciitilde" unicode="~" horiz-adv-x="598" 
d="M444 218c-85 0 -132 75 -186 75c-33 0 -66 -28 -99 -67l-62 56c50 64 102 107 165 107c81 0 123 -78 187 -78c31 0 62 20 96 66l63 -55c-50 -76 -109 -104 -164 -104z" />
    <glyph glyph-name="uni00A0" unicode="&#xa0;" horiz-adv-x="207" 
 />
    <glyph glyph-name="zero" unicode="0" 
d="M387 657c113 0 181 -77 181 -224c0 -35 -1 -75 -9 -121c-41 -237 -144 -322 -296 -322c-121 0 -184 72 -184 215c0 37 3 83 11 131c40 230 154 321 297 321zM282 86c66 0 125 40 159 230c8 46 8 89 8 120c0 90 -33 123 -82 123c-70 0 -125 -50 -158 -239
c-8 -44 -10 -84 -10 -114c0 -87 32 -120 83 -120z" />
    <glyph glyph-name="one" unicode="1" horiz-adv-x="454" 
d="M99 92h118l74 423l-144 -69l-30 77l218 121h106l-25 -94l-80 -458h114l-17 -92h-351z" />
    <glyph glyph-name="two" unicode="2" horiz-adv-x="513" 
d="M187 480l-53 79c68 58 153 98 238 98c107 0 166 -63 166 -149c0 -81 -36 -148 -119 -224l-205 -187h283l-18 -97h-444l14 77l262 247c63 59 98 101 98 158c0 45 -31 68 -69 68c-56 0 -106 -34 -153 -70z" />
    <glyph glyph-name="three" unicode="3" horiz-adv-x="515" 
d="M177 485l-46 75c50 42 147 97 249 97c112 0 159 -64 159 -134s-30 -122 -109 -169c34 -41 63 -93 63 -154c0 -110 -73 -212 -247 -212c-84 0 -164 28 -202 53l49 91c39 -24 103 -44 156 -44c70 0 123 38 123 106c0 36 -13 68 -40 101c-35 -14 -85 -26 -118 -33l-18 88
c127 30 218 62 218 145c0 38 -27 59 -68 59c-49 0 -105 -25 -169 -69z" />
    <glyph glyph-name="four" unicode="4" horiz-adv-x="536" 
d="M428 436h75l-34 -187h90l-16 -95h-90l-27 -154h-121l28 155h-266l14 83l273 421l90 -47l-235 -363h146l13 69z" />
    <glyph glyph-name="five" unicode="5" horiz-adv-x="507" 
d="M129 303l103 341h330l-18 -99h-235l-49 -160c120 -7 227 -52 227 -181c0 -104 -63 -215 -256 -215c-80 0 -168 30 -200 55l52 92c34 -21 93 -48 152 -48c90 0 127 50 127 110c0 101 -133 103 -233 105z" />
    <glyph glyph-name="six" unicode="6" 
d="M498 671l9 -92c-142 -24 -238 -100 -272 -211c39 21 102 42 152 42c94 0 142 -68 142 -150c0 -16 0 -38 -3 -56c-20 -135 -111 -215 -253 -215c-130 0 -180 90 -180 205c0 29 2 69 8 102c33 184 139 340 397 375zM409 208c2 12 3 22 3 32c0 55 -25 85 -72 85
c-36 0 -95 -20 -121 -39c-8 -35 -9 -67 -9 -95c0 -66 23 -110 79 -110s106 34 120 127z" />
    <glyph glyph-name="seven" unicode="7" horiz-adv-x="468" 
d="M119 545l18 99h430l-15 -83c-227 -166 -284 -381 -307 -513l-8 -48h-126l10 56c25 141 82 325 272 489h-274z" />
    <glyph glyph-name="eight" unicode="8" 
d="M77 135c0 108 88 168 154 206c-36 26 -75 68 -75 129c0 103 86 187 226 187c123 0 169 -65 169 -131c0 -77 -56 -135 -124 -178c57 -38 91 -87 91 -148c0 -108 -75 -211 -253 -211c-141 0 -188 76 -188 146zM391 183c0 54 -43 87 -84 110c-55 -31 -114 -74 -114 -140
c0 -40 23 -76 86 -76c70 0 112 48 112 106zM370 574c-60 0 -97 -38 -97 -86c0 -42 29 -72 73 -97c49 30 95 71 95 122c0 38 -28 61 -71 61z" />
    <glyph glyph-name="nine" unicode="9" 
d="M150 -18l-10 90c137 22 237 91 270 205c-39 -28 -93 -43 -140 -43c-102 0 -156 64 -156 163c0 144 93 260 253 260c134 0 186 -92 186 -217c0 -192 -95 -423 -403 -458zM234 406c0 -52 25 -88 79 -88c36 0 85 17 116 43c5 29 7 59 7 86c0 70 -20 117 -82 117
c-65 0 -120 -54 -120 -158z" />
    <glyph glyph-name="dollar" unicode="$" 
d="M68 77l55 89c26 -19 70 -45 122 -53l32 184c-1 0 -3 1 -4 2c-66 28 -137 63 -137 159c0 117 81 187 204 196l17 93h75l-17 -97c62 -12 118 -47 150 -84l-72 -72c-32 30 -60 52 -95 60l-31 -175l6 -2c67 -29 140 -65 140 -163c0 -114 -80 -190 -211 -201l-21 -121h-75
l21 123c-73 9 -134 40 -159 62zM390 200c0 31 -18 51 -43 66l-27 -150c38 9 70 32 70 84zM257 481c0 -31 16 -52 41 -68l25 141c-36 -8 -66 -29 -66 -73z" />
    <glyph glyph-name="Euro" unicode="&#x20ac;" 
d="M499 221l15 82h-435l-15 -82h105c-38 -24 -62 -61 -62 -107c0 -64 44 -128 186 -128c77 0 156 12 243 62l-35 85c-58 -32 -111 -54 -179 -54c-58 0 -89 25 -89 66c0 47 34 76 90 76h176zM535 422l-15 -82h-435l15 82h95c-14 16 -22 44 -22 71c0 110 109 164 235 164
c77 0 151 -25 216 -90l-67 -71c-48 40 -91 69 -159 69c-50 0 -109 -18 -109 -80c0 -37 25 -63 70 -63h176z" />
    <glyph glyph-name="cent" unicode="&#xa2;" 
d="M259 -60l18 106c-98 15 -151 90 -151 207c0 223 126 309 244 321l20 111h75l-20 -114c53 -10 102 -39 130 -98l-82 -54c-17 29 -38 49 -65 58l-59 -338c32 3 64 16 102 41l36 -81c-37 -27 -93 -49 -155 -55l-18 -104h-75zM248 266c0 -54 15 -95 48 -115l56 321
c-63 -24 -104 -98 -104 -206z" />
    <glyph glyph-name="sterling" unicode="&#xa3;" horiz-adv-x="552" 
d="M59 143l14 84h101l92 237c59 153 127 193 233 193c80 0 135 -41 159 -66l-69 -71c-22 22 -52 43 -92 43c-62 0 -89 -32 -120 -113l-87 -223h159l-14 -83h-175l-32 -79c-24 -58 -54 -99 -104 -132v-2c29 9 58 14 80 14c64 0 108 -23 177 -23c28 0 60 3 97 13l-29 -97
c-34 -6 -65 -9 -90 -9c-95 0 -159 32 -250 32c-39 0 -95 -12 -138 -30l16 99c51 20 91 53 118 120l39 93h-85z" />
    <glyph glyph-name="yen" unicode="&#xa5;" horiz-adv-x="544" 
d="M237 145h-153l13 76h154l13 75h-154l14 76h112l-95 272h120l78 -255h2l169 255h125l-193 -272h109l-13 -76h-153l-13 -75h152l-13 -76h-153l-25 -145h-121z" />
    <glyph glyph-name="florin" unicode="&#x192;" horiz-adv-x="547" 
d="M129 294l32 95h109l29 87c36 110 79 181 213 181c56 0 111 -20 144 -40l-47 -73c-22 12 -54 22 -84 22c-51 0 -84 -26 -106 -88l-31 -89h148l-34 -95h-146l-110 -312c-44 -125 -86 -192 -214 -192c-63 0 -115 18 -144 38l44 78c21 -12 55 -25 89 -25c53 0 81 28 102 87
l113 326h-107z" />
    <glyph glyph-name="section" unicode="&#xa7;" horiz-adv-x="552" 
d="M120 379l88 15c-6 -26 -8 -48 -8 -69c0 -87 38 -128 90 -161c77 -48 128 -95 128 -182c0 -110 -76 -186 -204 -186c-61 0 -119 21 -143 34l37 79c24 -13 61 -26 106 -26c53 0 92 31 92 83c0 57 -47 82 -108 123s-95 87 -95 179c0 32 5 68 17 111zM497 84l-88 -15
c6 26 8 48 8 69c0 87 -38 128 -90 161c-77 48 -128 95 -128 182c0 110 85 186 213 186c61 0 114 -18 138 -31l-41 -82c-24 13 -61 26 -100 26c-53 0 -98 -29 -98 -81c0 -57 53 -86 108 -125c52 -36 95 -87 95 -179c0 -32 -5 -68 -17 -111z" />
    <glyph glyph-name="copyright" unicode="&#xa9;" horiz-adv-x="814" 
d="M809 332c0 -200 -145 -352 -351 -352c-212 0 -342 144 -342 346c0 195 141 350 342 350c207 0 351 -155 351 -344zM730 329c0 157 -117 275 -271 275c-158 0 -264 -121 -264 -278c0 -168 110 -274 264 -274c156 0 271 117 271 277zM465 198c41 0 68 19 96 42l40 -54
c-28 -29 -75 -56 -138 -56c-118 0 -175 79 -175 201c0 155 101 199 173 199c62 0 114 -26 150 -75l-56 -44c-24 26 -52 50 -96 50s-91 -30 -91 -129c0 -83 30 -134 97 -134z" />
    <glyph glyph-name="registered" unicode="&#xae;" horiz-adv-x="463" 
d="M368 459l36 -81h-50l-31 70c-4 9 -8 14 -16 14h-19v-84h-45v211h76c43 0 70 -18 70 -57c0 -31 -15 -49 -34 -58c7 -3 11 -10 13 -15zM288 498h16c23 0 36 8 36 30s-15 25 -36 25h-16v-55zM514 483c0 -115 -84 -197 -204 -197c-123 0 -199 82 -199 195
c0 112 82 196 199 196c120 0 204 -84 204 -194zM461 481c0 87 -64 150 -151 150c-89 0 -146 -63 -146 -150c0 -89 61 -150 146 -150c88 0 151 59 151 150z" />
    <glyph glyph-name="trademark" unicode="&#x2122;" horiz-adv-x="690" 
d="M106 665h266v-69h-95v-267h-80v267h-91v69zM651 665h80l20 -336h-72l-10 208l-66 -184h-59l-65 183l-11 -207h-71l21 336h82l74 -222z" />
    <glyph glyph-name="ordfeminine" unicode="&#xaa;" horiz-adv-x="414" 
d="M462 586l-44 -249l-4 -73h-82l1 39h-4c-25 -26 -57 -47 -101 -47c-80 0 -110 58 -110 128c0 130 77 226 209 226c34 0 88 -6 135 -24zM331 367l30 169c-10 5 -27 7 -45 7c-75 0 -104 -88 -104 -149c0 -42 15 -71 51 -71c38 0 65 25 68 44z" />
    <glyph glyph-name="ordmasculine" unicode="&#xba;" horiz-adv-x="406" 
d="M260 324c53 0 90 52 91 147c0 46 -14 73 -54 73c-60 0 -88 -68 -88 -144c0 -41 13 -76 51 -76zM114 394c0 170 108 217 195 217c63 0 137 -30 137 -136c0 -136 -80 -219 -194 -219c-91 0 -138 53 -138 138z" />
    <glyph glyph-name="guillemotleft" unicode="&#xab;" horiz-adv-x="530" 
d="M366 402l-154 -145l88 -158l-52 -40c-45 42 -115 124 -143 173c-6 10 -8 20 -8 31c0 18 12 33 34 51c51 42 125 93 194 140zM570 402l-154 -145l88 -158l-52 -40c-45 42 -115 124 -143 173c-6 10 -8 20 -8 31c0 18 12 33 34 51c51 42 125 93 194 140z" />
    <glyph glyph-name="guillemotright" unicode="&#xbb;" horiz-adv-x="530" 
d="M208 268l-99 142l52 44c53 -47 103 -97 141 -139c11 -14 20 -25 20 -43c0 -14 -6 -26 -19 -40c-39 -42 -144 -131 -204 -173l-41 48zM412 268l-99 142l52 44c53 -47 103 -97 141 -139c11 -14 20 -25 20 -43c0 -14 -6 -26 -19 -40c-39 -42 -144 -131 -204 -173l-41 48z
" />
    <glyph glyph-name="guilsinglleft" unicode="&#x2039;" horiz-adv-x="326" 
d="M366 402l-154 -145l88 -158l-52 -40c-45 42 -115 124 -143 173c-6 10 -8 20 -8 31c0 18 12 33 34 51c51 42 125 93 194 140z" />
    <glyph glyph-name="guilsinglright" unicode="&#x203a;" horiz-adv-x="326" 
d="M208 268l-99 142l52 44c53 -47 103 -97 141 -139c11 -14 20 -25 20 -43c0 -14 -6 -26 -19 -40c-39 -42 -144 -131 -204 -173l-41 48z" />
    <glyph glyph-name="quoteleft" unicode="&#x2018;" horiz-adv-x="219" 
d="M229 477c-8 -1 -20 -2 -32 -2c-32 0 -68 8 -68 43c0 46 81 149 137 215l60 -24z" />
    <glyph glyph-name="quoteright" unicode="&#x2019;" horiz-adv-x="215" 
d="M211 724c9 2 21 3 34 3c32 0 68 -8 68 -42c0 -44 -71 -138 -133 -217l-61 20z" />
    <glyph glyph-name="quotesinglbase" unicode="&#x201a;" horiz-adv-x="223" 
d="M206 73l-142 -220l-61 21c32 101 50 148 66 184c15 36 33 53 62 53c30 0 62 -24 75 -38z" />
    <glyph glyph-name="quotedblleft" unicode="&#x201c;" horiz-adv-x="379" 
d="M226 477c-8 -1 -20 -2 -32 -2c-32 0 -68 8 -68 43c0 46 81 149 137 215l60 -24zM392 477c-8 -1 -20 -2 -32 -2c-32 0 -68 8 -68 43c0 46 81 149 137 215l60 -24z" />
    <glyph glyph-name="quotedblright" unicode="&#x201d;" horiz-adv-x="378" 
d="M211 724c9 2 21 3 34 3c32 0 68 -8 68 -42c0 -44 -71 -138 -133 -217l-61 20zM377 724c9 2 21 3 34 3c32 0 68 -8 68 -42c0 -44 -71 -138 -133 -217l-61 20z" />
    <glyph glyph-name="quotedblbase" unicode="&#x201e;" horiz-adv-x="393" 
d="M206 73l-142 -220l-61 21c32 101 50 148 66 184c15 36 33 53 62 53c30 0 62 -24 75 -38zM372 73l-142 -220l-61 21c32 101 50 148 66 184c15 36 33 53 62 53c30 0 62 -24 75 -38z" />
    <glyph glyph-name="dagger" unicode="&#x2020;" horiz-adv-x="441" 
d="M295 438c-33 -28 -58 -67 -66 -110l-66 -373c-5 -27 -10 -82 22 -126c35 21 61 73 69 119l65 371c6 32 8 75 -24 119zM303 495c-17 21 -28 54 -28 86c0 35 13 84 58 84c27 0 38 -20 38 -47c0 -48 -30 -90 -68 -123zM325 466c40 32 89 44 112 44c38 0 59 -12 59 -41
c0 -37 -38 -51 -75 -51c-36 0 -80 18 -96 48zM274 467c-27 -29 -72 -49 -110 -49c-37 0 -61 13 -61 44c0 34 35 48 74 48c25 0 68 -12 97 -43z" />
    <glyph glyph-name="daggerdbl" unicode="&#x2021;" horiz-adv-x="442" 
d="M250 13c39 32 88 44 111 44c37 0 59 -12 59 -42c0 -35 -32 -49 -69 -49c-25 0 -79 16 -101 47zM199 14c-27 -28 -73 -49 -114 -49c-38 0 -57 16 -57 41c0 39 35 51 73 51c25 0 68 -12 98 -43zM220 -18c-37 -32 -69 -72 -69 -126c0 -25 11 -44 39 -44c36 0 57 34 57 78
c0 25 -6 64 -27 92zM297 438c-33 -28 -58 -67 -66 -110l-21 -159c-4 -27 -10 -82 22 -126c35 21 63 73 69 119l20 157c6 32 8 75 -24 119zM305 495c-17 21 -28 54 -28 86c0 35 13 84 58 84c27 0 38 -20 38 -47c0 -48 -30 -90 -68 -123zM327 466c40 32 89 44 112 44
c38 0 59 -12 59 -41c0 -37 -38 -51 -75 -51c-36 0 -80 18 -96 48zM276 467c-27 -29 -72 -49 -110 -49c-37 0 -61 13 -61 44c0 34 35 48 74 48c25 0 68 -12 97 -43z" />
    <glyph glyph-name="bullet" unicode="&#x2022;" horiz-adv-x="500" 
d="M186 289c0 86 63 144 138 144c59 0 100 -40 100 -102c0 -87 -64 -145 -137 -145c-64 0 -101 42 -101 103z" />
    <glyph glyph-name="ellipsis" unicode="&#x2026;" horiz-adv-x="727" 
d="M48 41c0 45 35 80 82 80c39 0 60 -22 60 -55c0 -43 -32 -81 -81 -81c-41 0 -61 23 -61 56zM306 41c0 45 35 80 82 80c39 0 60 -22 60 -55c0 -43 -32 -81 -81 -81c-41 0 -61 23 -61 56zM556 41c0 45 35 80 82 80c39 0 60 -22 60 -55c0 -43 -32 -81 -81 -81
c-41 0 -61 23 -61 56z" />
    <glyph glyph-name="paragraph" unicode="&#xb6;" horiz-adv-x="527" 
d="M353 63l91 516h-72l-64 -364c-103 3 -185 58 -185 175c0 194 129 275 311 275h140l-100 -571c-30 -172 -69 -258 -298 -299l-15 98c142 31 176 75 192 170z" />
    <glyph glyph-name="periodcentered" unicode="&#xb7;" horiz-adv-x="309" 
d="M138 295c0 45 34 80 81 80c40 0 61 -22 61 -55c0 -43 -32 -80 -82 -80c-40 0 -60 22 -60 55z" />
    <glyph glyph-name="uni00AD" unicode="&#xad;" horiz-adv-x="322" 
d="M85 244l16 93h237l-16 -93h-237z" />
    <glyph glyph-name="endash" unicode="&#x2013;" horiz-adv-x="500" 
d="M43 244l14 83h500l-14 -83h-500z" />
    <glyph glyph-name="emdash" unicode="&#x2014;" horiz-adv-x="1000" 
d="M43 244l14 83h1000l-14 -83h-1000z" />
    <glyph glyph-name="hyphen.case" horiz-adv-x="322" 
d="M78 280l16 92h262l-16 -92h-262z" />
    <glyph glyph-name="Agrave" unicode="&#xc0;" horiz-adv-x="625" 
d="M141 0h-129l341 665h144l116 -665h-120l-28 176h-234zM409 553l-141 -285h185l-39 285h-5zM380 902l140 -158l-33 -35c-47 27 -101 59 -136 81c-22 14 -31 27 -31 45c0 29 26 49 60 67z" />
    <glyph glyph-name="Aacute" unicode="&#xc1;" horiz-adv-x="625" 
d="M141 0h-129l341 665h144l116 -665h-120l-28 176h-234zM409 553l-141 -285h185l-39 285h-5zM351 748l181 148c24 -15 49 -38 49 -61s-20 -40 -50 -56c-43 -23 -101 -47 -152 -70z" />
    <glyph glyph-name="Acircumflex" unicode="&#xc2;" horiz-adv-x="625" 
d="M141 0h-129l341 665h144l116 -665h-120l-28 176h-234zM409 553l-141 -285h185l-39 285h-5zM316 709l-38 35c50 50 96 92 131 120c20 16 33 24 53 24c19 0 32 -11 48 -29c26 -29 59 -73 86 -115l-41 -34l-104 90z" />
    <glyph glyph-name="Atilde" unicode="&#xc3;" horiz-adv-x="625" 
d="M141 0h-129l341 665h144l116 -665h-120l-28 176h-234zM409 553l-141 -285h185l-39 285h-5zM300 733l4 74c30 20 62 29 88 29c52 0 85 -26 131 -26c21 0 45 7 65 18l-5 -79c-23 -11 -43 -18 -71 -18c-44 0 -94 22 -134 22c-27 0 -50 -6 -78 -20z" />
    <glyph glyph-name="Adieresis" unicode="&#xc4;" horiz-adv-x="625" 
d="M141 0h-129l341 665h144l116 -665h-120l-28 176h-234zM409 553l-141 -285h185l-39 285h-5zM480 773c0 39 33 71 76 71c32 0 53 -23 53 -52c0 -39 -34 -71 -76 -71c-33 0 -53 22 -53 52zM285 773c0 39 33 71 76 71c32 0 53 -23 53 -52c0 -39 -34 -71 -76 -71
c-33 0 -53 22 -53 52z" />
    <glyph glyph-name="Aring" unicode="&#xc5;" horiz-adv-x="625" 
d="M337 717c0 57 46 107 111 107c55 0 82 -35 82 -80c0 -32 -13 -60 -35 -79l118 -665h-120l-28 176h-234l-90 -176h-129l342 664c-11 14 -17 32 -17 53zM409 553l-141 -285h185l-39 285h-5zM440 772c-24 0 -43 -20 -43 -49c0 -19 10 -34 31 -34c26 0 43 22 43 51
c0 17 -9 32 -31 32z" />
    <glyph glyph-name="AE" unicode="&#xc6;" horiz-adv-x="820" 
d="M486 0l-30 186h-227l-95 -186h-127l343 665h549l-18 -106h-359l31 -167h259l-19 -105h-234l33 -181h215l-18 -106h-303zM404 549l-136 -270h179l-41 270h-2z" />
    <glyph glyph-name="Ccedilla" unicode="&#xc7;" horiz-adv-x="590" 
d="M364 89c56 0 110 25 168 70l52 -80c-70 -55 -141 -84 -217 -90l-25 -55c46 -3 80 -29 80 -75c0 -77 -69 -100 -129 -100c-36 0 -74 8 -94 19l25 54c13 -6 41 -14 65 -14c36 0 56 14 56 37c0 28 -32 36 -84 35l49 99c-136 11 -216 103 -216 264c0 317 185 424 358 424
c93 0 171 -43 216 -128l-93 -58c-32 53 -73 83 -133 83c-129 0 -220 -118 -220 -304c0 -113 44 -181 142 -181z" />
    <glyph glyph-name="Egrave" unicode="&#xc8;" horiz-adv-x="509" 
d="M70 0l117 665h401l-18 -106h-280l-29 -167h240l-19 -105h-240l-31 -181h286l-19 -106h-408zM351 902l140 -158l-33 -35c-47 27 -101 59 -136 81c-22 14 -31 27 -31 45c0 29 26 49 60 67z" />
    <glyph glyph-name="Eacute" unicode="&#xc9;" horiz-adv-x="509" 
d="M70 0l117 665h401l-18 -106h-280l-29 -167h240l-19 -105h-240l-31 -181h286l-19 -106h-408zM305 748l181 148c24 -15 49 -38 49 -61s-20 -40 -50 -56c-43 -23 -101 -47 -152 -70z" />
    <glyph glyph-name="Ecircumflex" unicode="&#xca;" horiz-adv-x="509" 
d="M70 0l117 665h401l-18 -106h-280l-29 -167h240l-19 -105h-240l-31 -181h286l-19 -106h-408zM277 709l-38 35c50 50 96 92 131 120c20 16 33 24 53 24c19 0 32 -11 48 -29c26 -29 59 -73 86 -115l-41 -34l-104 90z" />
    <glyph glyph-name="Edieresis" unicode="&#xcb;" horiz-adv-x="509" 
d="M70 0l117 665h401l-18 -106h-280l-29 -167h240l-19 -105h-240l-31 -181h286l-19 -106h-408zM439 773c0 39 33 71 76 71c32 0 53 -23 53 -52c0 -39 -34 -71 -76 -71c-33 0 -53 22 -53 52zM244 773c0 39 33 71 76 71c32 0 53 -23 53 -52c0 -39 -34 -71 -76 -71
c-33 0 -53 22 -53 52z" />
    <glyph glyph-name="Igrave" unicode="&#xcc;" horiz-adv-x="266" 
d="M194 0h-122l117 665h122zM211 902l140 -158l-33 -35c-47 27 -101 59 -136 81c-22 14 -31 27 -31 45c0 29 26 49 60 67z" />
    <glyph glyph-name="Iacute" unicode="&#xcd;" horiz-adv-x="266" 
d="M194 0h-122l117 665h122zM172 748l181 148c24 -15 49 -38 49 -61s-20 -40 -50 -56c-43 -23 -101 -47 -152 -70z" />
    <glyph glyph-name="Icircumflex" unicode="&#xce;" horiz-adv-x="266" 
d="M194 0h-122l117 665h122zM144 709l-38 35c50 50 96 92 131 120c20 16 33 24 53 24c19 0 32 -11 48 -29c26 -29 59 -73 86 -115l-41 -34l-104 90z" />
    <glyph glyph-name="Idieresis" unicode="&#xcf;" horiz-adv-x="266" 
d="M194 0h-122l117 665h122zM306 773c0 39 33 71 76 71c32 0 53 -23 53 -52c0 -39 -34 -71 -76 -71c-33 0 -53 22 -53 52zM111 773c0 39 33 71 76 71c32 0 53 -23 53 -52c0 -39 -34 -71 -76 -71c-33 0 -53 22 -53 52z" />
    <glyph glyph-name="Eth" unicode="&#xd0;" horiz-adv-x="652" 
d="M78 0l50 287h-69l17 96h69l50 282h217c166 0 265 -87 265 -253c0 -295 -176 -412 -377 -412h-222zM300 568l-33 -185h170l-17 -96h-170l-33 -191h100c142 0 234 117 234 303c0 130 -70 169 -161 169h-90z" />
    <glyph glyph-name="Ntilde" unicode="&#xd1;" horiz-adv-x="666" 
d="M592 665h121l-117 -665h-117l-204 469h-2l-82 -469h-121l117 665h123l200 -462h1zM326 733l4 74c30 20 62 29 88 29c52 0 85 -26 131 -26c21 0 45 7 65 18l-5 -79c-23 -11 -43 -18 -71 -18c-44 0 -94 22 -134 22c-27 0 -50 -6 -78 -20z" />
    <glyph glyph-name="Ograve" unicode="&#xd2;" horiz-adv-x="663" 
d="M678 323c-36 -238 -174 -335 -349 -335c-149 0 -236 92 -236 252c0 31 2 73 9 110c46 262 217 327 351 327c132 0 233 -82 233 -253c0 -31 -2 -63 -8 -101zM229 343c-5 -29 -9 -62 -9 -91c0 -84 26 -163 131 -163c121 0 179 115 200 235c4 25 7 53 7 81
c0 84 -27 169 -123 169c-120 0 -185 -112 -206 -231zM420 902l140 -158l-33 -35c-47 27 -101 59 -136 81c-22 14 -31 27 -31 45c0 29 26 49 60 67z" />
    <glyph glyph-name="Oacute" unicode="&#xd3;" horiz-adv-x="663" 
d="M678 323c-36 -238 -174 -335 -349 -335c-149 0 -236 92 -236 252c0 31 2 73 9 110c46 262 217 327 351 327c132 0 233 -82 233 -253c0 -31 -2 -63 -8 -101zM229 343c-5 -29 -9 -62 -9 -91c0 -84 26 -163 131 -163c121 0 179 115 200 235c4 25 7 53 7 81
c0 84 -27 169 -123 169c-120 0 -185 -112 -206 -231zM368 748l181 148c24 -15 49 -38 49 -61s-20 -40 -50 -56c-43 -23 -101 -47 -152 -70z" />
    <glyph glyph-name="Ocircumflex" unicode="&#xd4;" horiz-adv-x="663" 
d="M678 323c-36 -238 -174 -335 -349 -335c-149 0 -236 92 -236 252c0 31 2 73 9 110c46 262 217 327 351 327c132 0 233 -82 233 -253c0 -31 -2 -63 -8 -101zM229 343c-5 -29 -9 -62 -9 -91c0 -84 26 -163 131 -163c121 0 179 115 200 235c4 25 7 53 7 81
c0 84 -27 169 -123 169c-120 0 -185 -112 -206 -231zM348 709l-38 35c50 50 96 92 131 120c20 16 33 24 53 24c19 0 32 -11 48 -29c26 -29 59 -73 86 -115l-41 -34l-104 90z" />
    <glyph glyph-name="Otilde" unicode="&#xd5;" horiz-adv-x="663" 
d="M678 323c-36 -238 -174 -335 -349 -335c-149 0 -236 92 -236 252c0 31 2 73 9 110c46 262 217 327 351 327c132 0 233 -82 233 -253c0 -31 -2 -63 -8 -101zM229 343c-5 -29 -9 -62 -9 -91c0 -84 26 -163 131 -163c121 0 179 115 200 235c4 25 7 53 7 81
c0 84 -27 169 -123 169c-120 0 -185 -112 -206 -231zM329 733l4 74c30 20 62 29 88 29c52 0 85 -26 131 -26c21 0 45 7 65 18l-5 -79c-23 -11 -43 -18 -71 -18c-44 0 -94 22 -134 22c-27 0 -50 -6 -78 -20z" />
    <glyph glyph-name="Odieresis" unicode="&#xd6;" horiz-adv-x="663" 
d="M678 323c-36 -238 -174 -335 -349 -335c-149 0 -236 92 -236 252c0 31 2 73 9 110c46 262 217 327 351 327c132 0 233 -82 233 -253c0 -31 -2 -63 -8 -101zM229 343c-5 -29 -9 -62 -9 -91c0 -84 26 -163 131 -163c121 0 179 115 200 235c4 25 7 53 7 81
c0 84 -27 169 -123 169c-120 0 -185 -112 -206 -231zM507 773c0 39 33 71 76 71c32 0 53 -23 53 -52c0 -39 -34 -71 -76 -71c-33 0 -53 22 -53 52zM312 773c0 39 33 71 76 71c32 0 53 -23 53 -52c0 -39 -34 -71 -76 -71c-33 0 -53 22 -53 52z" />
    <glyph glyph-name="Oslash" unicode="&#xd8;" horiz-adv-x="664" 
d="M678 323c-36 -238 -174 -335 -349 -335c-36 0 -68 6 -96 15l-71 -105l-78 48l72 107c-41 43 -63 106 -63 187c0 31 2 73 9 110c46 262 217 327 351 327c39 0 75 -7 107 -22l60 90l80 -47l-67 -100c33 -41 53 -99 53 -174c0 -31 -2 -63 -8 -101zM229 343
c-5 -29 -9 -62 -9 -91c0 -30 3 -60 12 -85l263 392c-16 9 -36 15 -60 15c-120 0 -185 -112 -206 -231zM558 405c0 24 -2 48 -8 70l-254 -377c15 -6 34 -9 55 -9c121 0 179 115 200 235c4 25 7 53 7 81z" />
    <glyph glyph-name="Ugrave" unicode="&#xd9;" horiz-adv-x="629" 
d="M182 665h121l-78 -448c-2 -13 -4 -25 -4 -36c0 -69 43 -91 112 -91c82 0 132 36 147 122l80 453h121l-83 -469c-25 -141 -119 -209 -274 -209c-150 0 -226 54 -226 170c0 18 1 37 5 58zM397 902l140 -158l-33 -35c-47 27 -101 59 -136 81c-22 14 -31 27 -31 45
c0 29 26 49 60 67z" />
    <glyph glyph-name="Uacute" unicode="&#xda;" horiz-adv-x="629" 
d="M182 665h121l-78 -448c-2 -13 -4 -25 -4 -36c0 -69 43 -91 112 -91c82 0 132 36 147 122l80 453h121l-83 -469c-25 -141 -119 -209 -274 -209c-150 0 -226 54 -226 170c0 18 1 37 5 58zM351 748l181 148c24 -15 49 -38 49 -61s-20 -40 -50 -56c-43 -23 -101 -47 -152 -70
z" />
    <glyph glyph-name="Ucircumflex" unicode="&#xdb;" horiz-adv-x="629" 
d="M182 665h121l-78 -448c-2 -13 -4 -25 -4 -36c0 -69 43 -91 112 -91c82 0 132 36 147 122l80 453h121l-83 -469c-25 -141 -119 -209 -274 -209c-150 0 -226 54 -226 170c0 18 1 37 5 58zM325 709l-38 35c50 50 96 92 131 120c20 16 33 24 53 24c19 0 32 -11 48 -29
c26 -29 59 -73 86 -115l-41 -34l-104 90z" />
    <glyph glyph-name="Udieresis" unicode="&#xdc;" horiz-adv-x="629" 
d="M182 665h121l-78 -448c-2 -13 -4 -25 -4 -36c0 -69 43 -91 112 -91c82 0 132 36 147 122l80 453h121l-83 -469c-25 -141 -119 -209 -274 -209c-150 0 -226 54 -226 170c0 18 1 37 5 58zM503 773c0 39 33 71 76 71c32 0 53 -23 53 -52c0 -39 -34 -71 -76 -71
c-33 0 -53 22 -53 52zM308 773c0 39 33 71 76 71c32 0 53 -23 53 -52c0 -39 -34 -71 -76 -71c-33 0 -53 22 -53 52z" />
    <glyph glyph-name="Yacute" unicode="&#xdd;" horiz-adv-x="556" 
d="M540 665h135l-291 -411l-45 -254h-122l45 254l-144 411h128l94 -294h1zM312 748l181 148c24 -15 49 -38 49 -61s-20 -40 -50 -56c-43 -23 -101 -47 -152 -70z" />
    <glyph glyph-name="Thorn" unicode="&#xde;" horiz-adv-x="570" 
d="M214 130l-23 -130h-122l117 665h122l-18 -103h104c130 0 208 -63 208 -177c0 -172 -125 -255 -297 -255h-91zM231 227h72c102 0 171 35 171 146c0 76 -55 92 -123 92h-77z" />
    <glyph glyph-name="germandbls" unicode="&#xdf;" horiz-adv-x="585" 
d="M389 -15c-55 0 -119 17 -149 38l42 83c28 -17 66 -32 102 -32c48 0 86 24 86 77c0 78 -132 83 -132 182c1 115 170 153 170 239c0 39 -38 61 -98 61c-78 0 -123 -42 -135 -113l-129 -730h-118l129 730c18 106 72 203 265 203c137 0 201 -60 201 -132
c0 -128 -169 -164 -169 -229c0 -62 135 -82 135 -199c0 -119 -87 -178 -200 -178z" />
    <glyph glyph-name="agrave" unicode="&#xe0;" horiz-adv-x="539" 
d="M561 483l-68 -387l-7 -96h-103l2 53c-2 0 -2 1 -4 1c-40 -48 -85 -68 -151 -68c-106 0 -158 75 -158 183c0 207 111 349 310 349c41 0 112 -9 179 -35zM387 159l45 260c-14 7 -41 12 -71 12c-131 0 -170 -152 -170 -249c0 -58 19 -110 82 -110c64 0 106 44 114 87z
M374 784l94 -190l-42 -29c-37 38 -79 82 -107 115c-13 15 -19 31 -19 44c0 38 40 52 74 60z" />
    <glyph glyph-name="aacute" unicode="&#xe1;" horiz-adv-x="539" 
d="M561 483l-68 -387l-7 -96h-103l2 53c-2 0 -2 1 -4 1c-40 -48 -85 -68 -151 -68c-106 0 -158 75 -158 183c0 207 111 349 310 349c41 0 112 -9 179 -35zM387 159l45 260c-14 7 -41 12 -71 12c-131 0 -170 -152 -170 -249c0 -58 19 -110 82 -110c64 0 106 44 114 87z
M314 596l145 184c27 -7 67 -22 67 -53c0 -17 -13 -33 -37 -55c-36 -32 -92 -73 -141 -107z" />
    <glyph glyph-name="acircumflex" unicode="&#xe2;" horiz-adv-x="539" 
d="M561 483l-68 -387l-7 -96h-103l2 53c-2 0 -2 1 -4 1c-40 -48 -85 -68 -151 -68c-106 0 -158 75 -158 183c0 207 111 349 310 349c41 0 112 -9 179 -35zM387 159l45 260c-14 7 -41 12 -71 12c-131 0 -170 -152 -170 -249c0 -58 19 -110 82 -110c64 0 106 44 114 87z
M270 576l-39 33c44 52 93 104 126 136c24 22 37 32 61 32c25 0 34 -8 50 -32c23 -33 55 -86 79 -138l-41 -31l-100 105z" />
    <glyph glyph-name="atilde" unicode="&#xe3;" horiz-adv-x="539" 
d="M561 483l-68 -387l-7 -96h-103l2 53c-2 0 -2 1 -4 1c-40 -48 -85 -68 -151 -68c-106 0 -158 75 -158 183c0 207 111 349 310 349c41 0 112 -9 179 -35zM387 159l45 260c-14 7 -41 12 -71 12c-131 0 -170 -152 -170 -249c0 -58 19 -110 82 -110c64 0 106 44 114 87z
M261 615l4 74c30 21 62 29 88 29c52 0 85 -26 131 -26c21 0 44 8 65 18l-5 -78c-24 -12 -44 -19 -72 -19c-44 0 -94 23 -133 23c-28 0 -50 -7 -78 -21z" />
    <glyph glyph-name="adieresis" unicode="&#xe4;" horiz-adv-x="539" 
d="M561 483l-68 -387l-7 -96h-103l2 53c-2 0 -2 1 -4 1c-40 -48 -85 -68 -151 -68c-106 0 -158 75 -158 183c0 207 111 349 310 349c41 0 112 -9 179 -35zM387 159l45 260c-14 7 -41 12 -71 12c-131 0 -170 -152 -170 -249c0 -58 19 -110 82 -110c64 0 106 44 114 87z
M438 655c0 39 33 71 76 71c32 0 53 -23 53 -52c0 -39 -34 -71 -76 -71c-33 0 -53 22 -53 52zM243 655c0 39 33 71 76 71c32 0 53 -23 53 -52c0 -39 -34 -71 -76 -71c-33 0 -53 22 -53 52z" />
    <glyph glyph-name="aring" unicode="&#xe5;" horiz-adv-x="539" 
d="M561 483l-68 -387l-7 -96h-103l2 53c-2 0 -2 1 -4 1c-40 -48 -85 -68 -151 -68c-106 0 -158 75 -158 183c0 207 111 349 310 349c41 0 112 -9 179 -35zM387 159l45 260c-14 7 -41 12 -71 12c-131 0 -170 -152 -170 -249c0 -58 19 -110 82 -110c64 0 106 44 114 87z
M303 643c0 57 46 107 111 107c55 0 82 -35 82 -80c0 -59 -45 -106 -111 -106c-55 0 -82 35 -82 79zM406 698c-24 0 -43 -20 -43 -49c0 -19 10 -34 31 -34c26 0 43 22 43 51c0 17 -9 32 -31 32z" />
    <glyph glyph-name="ae" unicode="&#xe6;" horiz-adv-x="742" 
d="M652 518c87 0 137 -42 137 -118c0 -172 -217 -194 -316 -196c-10 -69 20 -128 102 -128c59 0 103 25 130 42l31 -76c-22 -17 -98 -57 -193 -57c-71 0 -122 22 -149 57c-39 -29 -95 -57 -158 -57c-121 0 -164 84 -164 185c0 202 114 348 313 348c41 0 96 -12 137 -33
c38 21 81 33 130 33zM354 432c-111 0 -161 -138 -161 -243c0 -63 22 -116 83 -116c34 0 65 13 87 32c-7 19 -11 51 -11 78c0 88 32 166 85 230c-19 10 -46 19 -83 19zM681 385c0 31 -26 47 -53 47c-83 0 -130 -85 -145 -151c57 -1 198 18 198 104z" />
    <glyph glyph-name="ccedilla" unicode="&#xe7;" horiz-adv-x="460" 
d="M300 80c38 0 76 12 121 42l36 -81c-38 -28 -97 -50 -162 -55l-24 -52c46 -3 80 -29 80 -75c0 -77 -69 -100 -129 -100c-36 0 -74 8 -94 19l25 54c13 -6 41 -14 65 -14c36 0 56 14 56 37c0 28 -32 36 -84 35l48 97c-105 12 -162 87 -162 208c0 242 149 323 274 323
c68 0 140 -27 175 -103l-82 -54c-23 39 -52 62 -94 62c-88 0 -151 -82 -151 -215c0 -77 31 -128 102 -128z" />
    <glyph glyph-name="egrave" unicode="&#xe8;" horiz-adv-x="470" 
d="M403 385c0 31 -22 47 -53 47c-83 0 -129 -81 -144 -147c58 -1 197 14 197 100zM368 518c91 0 144 -47 144 -117c0 -175 -210 -196 -317 -197c-5 -64 18 -127 103 -127c58 0 102 27 129 44l36 -78c-25 -19 -95 -58 -194 -58c-137 0 -194 85 -194 201
c0 173 111 332 293 332zM347 784l94 -190l-42 -29c-37 38 -79 82 -107 115c-13 15 -19 31 -19 44c0 38 40 52 74 60z" />
    <glyph glyph-name="eacute" unicode="&#xe9;" horiz-adv-x="470" 
d="M403 385c0 31 -22 47 -53 47c-83 0 -129 -81 -144 -147c58 -1 197 14 197 100zM368 518c91 0 144 -47 144 -117c0 -175 -210 -196 -317 -197c-5 -64 18 -127 103 -127c58 0 102 27 129 44l36 -78c-25 -19 -95 -58 -194 -58c-137 0 -194 85 -194 201
c0 173 111 332 293 332zM279 596l145 184c27 -7 67 -22 67 -53c0 -17 -13 -33 -37 -55c-36 -32 -92 -73 -141 -107z" />
    <glyph glyph-name="ecircumflex" unicode="&#xea;" horiz-adv-x="470" 
d="M403 385c0 31 -22 47 -53 47c-83 0 -129 -81 -144 -147c58 -1 197 14 197 100zM368 518c91 0 144 -47 144 -117c0 -175 -210 -196 -317 -197c-5 -64 18 -127 103 -127c58 0 102 27 129 44l36 -78c-25 -19 -95 -58 -194 -58c-137 0 -194 85 -194 201
c0 173 111 332 293 332zM253 576l-39 33c44 52 93 104 126 136c24 22 37 32 61 32c25 0 34 -8 50 -32c23 -33 55 -86 79 -138l-41 -31l-100 105z" />
    <glyph glyph-name="edieresis" unicode="&#xeb;" horiz-adv-x="470" 
d="M403 385c0 31 -22 47 -53 47c-83 0 -129 -81 -144 -147c58 -1 197 14 197 100zM368 518c91 0 144 -47 144 -117c0 -175 -210 -196 -317 -197c-5 -64 18 -127 103 -127c58 0 102 27 129 44l36 -78c-25 -19 -95 -58 -194 -58c-137 0 -194 85 -194 201
c0 173 111 332 293 332zM412 655c0 39 33 71 76 71c32 0 53 -23 53 -52c0 -39 -34 -71 -76 -71c-33 0 -53 22 -53 52zM217 655c0 39 33 71 76 71c32 0 53 -23 53 -52c0 -39 -34 -71 -76 -71c-33 0 -53 22 -53 52z" />
    <glyph glyph-name="igrave" unicode="&#xec;" horiz-adv-x="244" 
d="M185 0h-120l89 503h120zM221 784l94 -190l-42 -29c-37 38 -79 82 -107 115c-13 15 -19 31 -19 44c0 38 40 52 74 60z" />
    <glyph glyph-name="iacute" unicode="&#xed;" horiz-adv-x="244" 
d="M185 0h-120l89 503h120zM146 596l145 184c27 -7 67 -22 67 -53c0 -17 -13 -33 -37 -55c-36 -32 -92 -73 -141 -107z" />
    <glyph glyph-name="icircumflex" unicode="&#xee;" horiz-adv-x="244" 
d="M185 0h-120l89 503h120zM114 576l-39 33c44 52 93 104 126 136c24 22 37 32 61 32c25 0 34 -8 50 -32c23 -33 55 -86 79 -138l-41 -31l-100 105z" />
    <glyph glyph-name="idieresis" unicode="&#xef;" horiz-adv-x="244" 
d="M185 0h-120l89 503h120zM275 655c0 39 33 71 76 71c32 0 53 -23 53 -52c0 -39 -34 -71 -76 -71c-33 0 -53 22 -53 52zM80 655c0 39 33 71 76 71c32 0 53 -23 53 -52c0 -39 -34 -71 -76 -71c-33 0 -53 22 -53 52z" />
    <glyph glyph-name="eth" unicode="&#xf0;" horiz-adv-x="508" 
d="M296 482l-39 63l75 48c-25 17 -57 30 -93 37l33 87c68 -9 120 -32 159 -65l90 55l38 -63l-75 -47c37 -63 53 -139 53 -204c0 -39 -3 -87 -10 -125c-28 -162 -111 -282 -282 -282c-128 0 -184 80 -184 177c0 18 1 46 5 66c27 143 111 216 234 216c39 0 87 -13 120 -38
c-1 49 -11 93 -34 130zM190 220c-3 -16 -4 -34 -4 -47c0 -57 26 -92 76 -92c75 0 124 78 142 180c2 13 7 41 8 55c-19 19 -63 37 -100 37c-65 0 -106 -44 -122 -133z" />
    <glyph glyph-name="ntilde" unicode="&#xf1;" horiz-adv-x="538" 
d="M183 0h-118l73 416l7 87h100l-1 -63c44 50 101 78 167 78c85 0 132 -39 133 -123c0 -15 -2 -39 -5 -57l-60 -338h-119l56 318c3 16 4 30 4 45c0 36 -11 63 -56 63c-63 0 -115 -49 -124 -100zM242 615l4 74c30 21 62 29 88 29c52 0 85 -26 131 -26c21 0 44 8 65 18l-5 -78
c-24 -12 -44 -19 -72 -19c-44 0 -94 23 -133 23c-28 0 -50 -7 -78 -21z" />
    <glyph glyph-name="ograve" unicode="&#xf2;" horiz-adv-x="526" 
d="M273 73c-61 0 -79 46 -79 106c0 27 2 59 7 88c17 96 64 163 137 163c56 0 78 -41 78 -105c0 -23 -1 -50 -6 -80c-18 -104 -64 -172 -137 -172zM78 261c-5 -30 -6 -57 -6 -82c0 -125 66 -194 183 -194c133 0 250 71 280 266c4 28 5 57 5 79c0 159 -115 188 -183 188
c-106 0 -245 -50 -279 -257zM353 784l94 -190l-42 -29c-37 38 -79 82 -107 115c-13 15 -19 31 -19 44c0 38 40 52 74 60z" />
    <glyph glyph-name="oacute" unicode="&#xf3;" horiz-adv-x="526" 
d="M273 73c73 0 119 68 137 172c5 30 6 57 6 80c0 64 -22 105 -78 105c-73 0 -120 -67 -137 -163c-5 -29 -7 -61 -7 -88c0 -60 18 -106 79 -106zM78 261c34 207 173 257 279 257c68 0 183 -29 183 -188c0 -22 -1 -51 -5 -79c-30 -195 -147 -266 -280 -266
c-117 0 -183 69 -183 194c0 25 1 52 6 82zM293 596l145 184c27 -7 67 -22 67 -53c0 -17 -13 -33 -37 -55c-36 -32 -92 -73 -141 -107z" />
    <glyph glyph-name="ocircumflex" unicode="&#xf4;" horiz-adv-x="526" 
d="M273 73c-61 0 -79 46 -79 106c0 27 2 59 7 88c17 96 64 163 137 163c56 0 78 -41 78 -105c0 -23 -1 -50 -6 -80c-18 -104 -64 -172 -137 -172zM78 261c-5 -30 -6 -57 -6 -82c0 -125 66 -194 183 -194c133 0 250 71 280 266c4 28 5 57 5 79c0 159 -115 188 -183 188
c-106 0 -245 -50 -279 -257zM253 576l-39 33c44 52 93 104 126 136c24 22 37 32 61 32c25 0 34 -8 50 -32c23 -33 55 -86 79 -138l-41 -31l-100 105z" />
    <glyph glyph-name="otilde" unicode="&#xf5;" horiz-adv-x="526" 
d="M273 73c73 0 119 68 137 172c5 30 6 57 6 80c0 64 -22 105 -78 105c-73 0 -120 -67 -137 -163c-5 -29 -7 -61 -7 -88c0 -60 18 -106 79 -106zM78 261c34 207 173 257 279 257c68 0 183 -29 183 -188c0 -22 -1 -51 -5 -79c-30 -195 -147 -266 -280 -266
c-117 0 -183 69 -183 194c0 25 1 52 6 82zM238 615l4 74c30 21 62 29 88 29c52 0 85 -26 131 -26c21 0 44 8 65 18l-5 -78c-24 -12 -44 -19 -72 -19c-44 0 -94 23 -133 23c-28 0 -50 -7 -78 -21z" />
    <glyph glyph-name="odieresis" unicode="&#xf6;" horiz-adv-x="526" 
d="M273 73c-61 0 -79 46 -79 106c0 27 2 59 7 88c17 96 64 163 137 163c56 0 78 -41 78 -105c0 -23 -1 -50 -6 -80c-18 -104 -64 -172 -137 -172zM78 261c-5 -30 -6 -57 -6 -82c0 -125 66 -194 183 -194c133 0 250 71 280 266c4 28 5 57 5 79c0 159 -115 188 -183 188
c-106 0 -245 -50 -279 -257zM414 655c0 39 33 71 76 71c32 0 53 -23 53 -52c0 -39 -34 -71 -76 -71c-33 0 -53 22 -53 52zM219 655c0 39 33 71 76 71c32 0 53 -23 53 -52c0 -39 -34 -71 -76 -71c-33 0 -53 22 -53 52z" />
    <glyph glyph-name="oslash" unicode="&#xf8;" horiz-adv-x="526" 
d="M78 261c34 207 173 257 279 257c23 0 51 -4 79 -14l52 75l65 -40l-55 -78c25 -29 42 -70 42 -131c0 -22 -1 -51 -5 -79c-30 -195 -147 -266 -280 -266c-29 0 -55 4 -78 13l-59 -87l-65 41l61 88c-28 33 -42 80 -42 139c0 25 1 52 6 82zM338 430c-73 0 -120 -67 -137 -163
c-5 -29 -7 -61 -7 -88c0 -8 0 -16 1 -23l183 264c-11 7 -24 10 -40 10zM273 73c73 0 119 68 137 172c5 30 6 57 6 80c0 5 0 11 -1 16l-180 -260c10 -5 23 -8 38 -8z" />
    <glyph glyph-name="ugrave" unicode="&#xf9;" horiz-adv-x="540" 
d="M447 503h119l-74 -419l-7 -84h-102l2 58l-6 1c-40 -52 -94 -73 -153 -73c-96 0 -139 49 -139 130c0 16 2 32 5 50l59 337h119l-56 -319c-3 -15 -5 -30 -5 -44c0 -35 13 -62 65 -62c56 0 106 48 115 100zM348 784l94 -190l-42 -29c-37 38 -79 82 -107 115
c-13 15 -19 31 -19 44c0 38 40 52 74 60z" />
    <glyph glyph-name="uacute" unicode="&#xfa;" horiz-adv-x="540" 
d="M447 503h119l-74 -419l-7 -84h-102l2 58l-6 1c-40 -52 -94 -73 -153 -73c-96 0 -139 49 -139 130c0 16 2 32 5 50l59 337h119l-56 -319c-3 -15 -5 -30 -5 -44c0 -35 13 -62 65 -62c56 0 106 48 115 100zM298 596l145 184c27 -7 67 -22 67 -53c0 -17 -13 -33 -37 -55
c-36 -32 -92 -73 -141 -107z" />
    <glyph glyph-name="ucircumflex" unicode="&#xfb;" horiz-adv-x="540" 
d="M447 503h119l-74 -419l-7 -84h-102l2 58l-6 1c-40 -52 -94 -73 -153 -73c-96 0 -139 49 -139 130c0 16 2 32 5 50l59 337h119l-56 -319c-3 -15 -5 -30 -5 -44c0 -35 13 -62 65 -62c56 0 106 48 115 100zM255 576l-39 33c44 52 93 104 126 136c24 22 37 32 61 32
c25 0 34 -8 50 -32c23 -33 55 -86 79 -138l-41 -31l-100 105z" />
    <glyph glyph-name="udieresis" unicode="&#xfc;" horiz-adv-x="540" 
d="M447 503h119l-74 -419l-7 -84h-102l2 58l-6 1c-40 -52 -94 -73 -153 -73c-96 0 -139 49 -139 130c0 16 2 32 5 50l59 337h119l-56 -319c-3 -15 -5 -30 -5 -44c0 -35 13 -62 65 -62c56 0 106 48 115 100zM419 655c0 39 33 71 76 71c32 0 53 -23 53 -52
c0 -39 -34 -71 -76 -71c-33 0 -53 22 -53 52zM224 655c0 39 33 71 76 71c32 0 53 -23 53 -52c0 -39 -34 -71 -76 -71c-33 0 -53 22 -53 52z" />
    <glyph glyph-name="yacute" unicode="&#xfd;" horiz-adv-x="537" 
d="M565 503l-77 -440c-6 -36 -19 -104 -30 -138c-39 -125 -118 -191 -247 -191c-98 0 -150 50 -150 123c0 81 38 134 141 182c-80 10 -109 50 -109 115c0 14 1 28 4 44l54 305h119l-51 -292c-3 -15 -5 -30 -5 -43c0 -36 15 -62 71 -62c50 0 98 38 108 95l54 302h118z
M172 -121c0 -37 24 -56 61 -56c70 0 104 55 120 142l18 97c-27 -26 -55 -45 -96 -66c-65 -33 -103 -59 -103 -117zM291 596l145 184c27 -7 67 -22 67 -53c0 -17 -13 -33 -37 -55c-36 -32 -92 -73 -141 -107z" />
    <glyph glyph-name="thorn" unicode="&#xfe;" horiz-adv-x="530" 
d="M181 10l-39 -220h-119l160 905h119l-34 -191c39 8 73 13 105 13c118 0 174 -69 174 -193c0 -209 -108 -341 -268 -341c-39 0 -75 12 -98 27zM426 309c0 65 -21 117 -96 117c-25 0 -54 -3 -77 -11l-55 -308c20 -20 55 -35 86 -35c75 0 142 100 142 237z" />
    <glyph glyph-name="ydieresis" unicode="&#xff;" horiz-adv-x="537" 
d="M565 503l-77 -440c-6 -36 -19 -104 -30 -138c-39 -125 -118 -191 -247 -191c-98 0 -150 50 -150 123c0 81 38 134 141 182c-80 10 -109 50 -109 115c0 14 1 28 4 44l54 305h119l-51 -292c-3 -15 -5 -30 -5 -43c0 -36 15 -62 71 -62c50 0 98 38 108 95l54 302h118z
M172 -121c0 -37 24 -56 61 -56c70 0 104 55 120 142l18 97c-27 -26 -55 -45 -96 -66c-65 -33 -103 -59 -103 -117zM420 655c0 39 33 71 76 71c32 0 53 -23 53 -52c0 -39 -34 -71 -76 -71c-33 0 -53 22 -53 52zM225 655c0 39 33 71 76 71c32 0 53 -23 53 -52
c0 -39 -34 -71 -76 -71c-33 0 -53 22 -53 52z" />
    <glyph glyph-name="Amacron" unicode="&#x100;" horiz-adv-x="625" 
d="M141 0h-129l341 665h144l116 -665h-120l-28 176h-234zM409 553l-141 -285h185l-39 285h-5zM295 734l16 87h287l-16 -87h-287z" />
    <glyph glyph-name="amacron" unicode="&#x101;" horiz-adv-x="539" 
d="M561 483l-68 -387l-7 -96h-103l2 53c-2 0 -2 1 -4 1c-40 -48 -85 -68 -151 -68c-106 0 -158 75 -158 183c0 207 111 349 310 349c41 0 112 -9 179 -35zM387 159l45 260c-14 7 -41 12 -71 12c-131 0 -170 -152 -170 -249c0 -58 19 -110 82 -110c64 0 106 44 114 87z
M244 619l15 86h287l-15 -86h-287z" />
    <glyph glyph-name="Abreve" unicode="&#x102;" horiz-adv-x="625" 
d="M141 0h-129l341 665h144l116 -665h-120l-28 176h-234zM409 553l-141 -285h185l-39 285h-5zM556 876l70 -30c-33 -70 -86 -126 -188 -126s-142 63 -149 124l75 29c11 -50 35 -77 86 -77c50 0 78 25 106 80z" />
    <glyph glyph-name="abreve" unicode="&#x103;" horiz-adv-x="539" 
d="M561 483l-68 -387l-7 -96h-103l2 53c-2 0 -2 1 -4 1c-40 -48 -85 -68 -151 -68c-106 0 -158 75 -158 183c0 207 111 349 310 349c41 0 112 -9 179 -35zM387 159l45 260c-14 7 -41 12 -71 12c-131 0 -170 -152 -170 -249c0 -58 19 -110 82 -110c64 0 106 44 114 87z
M506 744l70 -17c-34 -91 -94 -143 -186 -143c-101 0 -140 70 -143 143l71 16c9 -61 37 -83 83 -83c41 0 72 20 105 84z" />
    <glyph glyph-name="Aogonek" unicode="&#x104;" horiz-adv-x="625" 
d="M141 0h-129l343 665h140l118 -665c-52 -31 -103 -93 -103 -135c0 -18 9 -31 33 -31c19 0 35 4 52 11l10 -65c-26 -13 -59 -21 -96 -21c-68 0 -92 37 -92 77c0 70 65 133 102 164h-26l-28 176h-234zM409 553l-141 -285h185l-39 285h-5z" />
    <glyph glyph-name="aogonek" unicode="&#x105;" horiz-adv-x="539" 
d="M561 483l-68 -387l-7 -96c-49 -31 -100 -93 -100 -135c0 -18 9 -31 33 -31c19 0 35 4 52 11l10 -65c-26 -13 -59 -21 -96 -21c-68 0 -92 37 -92 77c0 70 43 122 90 164l2 53c-2 0 -2 1 -4 1c-40 -48 -85 -68 -151 -68c-106 0 -158 75 -158 183c0 207 111 349 310 349
c41 0 112 -9 179 -35zM387 159l45 260c-14 7 -41 12 -71 12c-131 0 -170 -152 -170 -249c0 -58 19 -110 82 -110c64 0 106 44 114 87z" />
    <glyph glyph-name="Cacute" unicode="&#x106;" horiz-adv-x="590" 
d="M364 89c56 0 110 25 168 70l52 -80c-78 -62 -158 -91 -245 -91c-153 0 -245 93 -245 265c0 317 185 424 358 424c93 0 171 -43 216 -128l-93 -58c-32 53 -73 83 -133 83c-129 0 -220 -118 -220 -304c0 -113 44 -181 142 -181zM372 748l181 148c24 -15 49 -38 49 -61
s-20 -40 -50 -56c-43 -23 -101 -47 -152 -70z" />
    <glyph glyph-name="cacute" unicode="&#x107;" horiz-adv-x="460" 
d="M300 80c38 0 76 12 121 42l36 -81c-43 -32 -114 -56 -189 -56c-124 0 -192 78 -192 210c0 242 149 323 274 323c68 0 140 -27 175 -103l-82 -54c-23 39 -52 62 -94 62c-88 0 -151 -82 -151 -215c0 -77 31 -128 102 -128zM291 596l145 184c27 -7 67 -22 67 -53
c0 -17 -13 -33 -37 -55c-36 -32 -92 -73 -141 -107z" />
    <glyph glyph-name="Ccircumflex" unicode="&#x108;" horiz-adv-x="590" 
d="M364 89c56 0 110 25 168 70l52 -80c-78 -62 -158 -91 -245 -91c-153 0 -245 93 -245 265c0 317 185 424 358 424c93 0 171 -43 216 -128l-93 -58c-32 53 -73 83 -133 83c-129 0 -220 -118 -220 -304c0 -113 44 -181 142 -181zM329 709l-38 35c50 50 96 92 131 120
c20 16 33 24 53 24c19 0 32 -11 48 -29c26 -29 59 -73 86 -115l-41 -34l-104 90z" />
    <glyph glyph-name="ccircumflex" unicode="&#x109;" horiz-adv-x="460" 
d="M300 80c38 0 76 12 121 42l36 -81c-43 -32 -114 -56 -189 -56c-124 0 -192 78 -192 210c0 242 149 323 274 323c68 0 140 -27 175 -103l-82 -54c-23 39 -52 62 -94 62c-88 0 -151 -82 -151 -215c0 -77 31 -128 102 -128zM256 577l-39 33c44 52 93 104 126 136
c24 22 37 32 61 32c25 0 34 -8 50 -32c23 -33 55 -86 79 -138l-41 -31l-100 105z" />
    <glyph glyph-name="Cdotaccent" unicode="&#x10a;" horiz-adv-x="590" 
d="M364 89c56 0 110 25 168 70l52 -80c-78 -62 -158 -91 -245 -91c-153 0 -245 93 -245 265c0 317 185 424 358 424c93 0 171 -43 216 -128l-93 -58c-32 53 -73 83 -133 83c-129 0 -220 -118 -220 -304c0 -113 44 -181 142 -181zM391 783c0 42 36 77 81 77
c36 0 59 -25 59 -56c0 -44 -37 -77 -82 -77c-37 0 -58 23 -58 56z" />
    <glyph glyph-name="cdotaccent" unicode="&#x10b;" horiz-adv-x="460" 
d="M300 80c38 0 76 12 121 42l36 -81c-43 -32 -114 -56 -189 -56c-124 0 -192 78 -192 210c0 242 149 323 274 323c68 0 140 -27 175 -103l-82 -54c-23 39 -52 62 -94 62c-88 0 -151 -82 -151 -215c0 -77 31 -128 102 -128zM305 636c0 43 36 78 82 78c35 0 58 -25 58 -56
c0 -44 -37 -77 -82 -77c-37 0 -58 23 -58 55z" />
    <glyph glyph-name="Ccaron" unicode="&#x10c;" horiz-adv-x="590" 
d="M364 89c56 0 110 25 168 70l52 -80c-78 -62 -158 -91 -245 -91c-153 0 -245 93 -245 265c0 317 185 424 358 424c93 0 171 -43 216 -128l-93 -58c-32 53 -73 83 -133 83c-129 0 -220 -118 -220 -304c0 -113 44 -181 142 -181zM366 888l103 -92l136 95l37 -37
c-47 -50 -88 -85 -123 -113c-23 -20 -42 -32 -62 -32c-19 0 -34 10 -51 31c-27 33 -52 64 -83 114z" />
    <glyph glyph-name="ccaron" unicode="&#x10d;" horiz-adv-x="460" 
d="M300 80c38 0 76 12 121 42l36 -81c-43 -32 -114 -56 -189 -56c-124 0 -192 78 -192 210c0 242 149 323 274 323c68 0 140 -27 175 -103l-82 -54c-23 39 -52 62 -94 62c-88 0 -151 -82 -151 -215c0 -77 31 -128 102 -128zM510 777l39 -33c-45 -52 -94 -104 -127 -136
c-23 -22 -37 -32 -61 -32c-25 0 -34 8 -50 32c-23 33 -55 86 -80 137l44 32l99 -105z" />
    <glyph glyph-name="Dcaron" unicode="&#x10e;" horiz-adv-x="644" 
d="M70 0l117 665h217c166 0 265 -87 265 -253c0 -295 -176 -412 -377 -412h-222zM292 568l-83 -472h100c142 0 234 117 234 303c0 130 -70 169 -161 169h-90zM314 888l103 -92l136 95l37 -37c-47 -50 -88 -85 -123 -113c-23 -20 -42 -32 -62 -32c-19 0 -34 10 -51 31
c-27 33 -52 64 -83 114z" />
    <glyph glyph-name="dcaron" unicode="&#x10f;" horiz-adv-x="617" 
d="M369 518c31 0 58 -5 79 -12l34 189h118l-106 -596l-8 -99h-102l2 54c-2 0 -3 1 -5 1c-38 -46 -93 -70 -147 -70c-122 0 -162 91 -162 187c0 198 109 346 297 346zM387 156l45 261c-20 6 -39 8 -57 8c-115 0 -182 -107 -182 -239c0 -64 20 -113 80 -113
c64 0 107 44 114 83zM639 480l37 209c16 4 34 7 52 7c27 0 41 -12 41 -33c0 -38 -57 -144 -83 -193z" />
    <glyph glyph-name="Dcroat" unicode="&#x110;" horiz-adv-x="652" 
d="M78 0l50 287h-69l17 96h69l50 282h217c166 0 265 -87 265 -253c0 -295 -176 -412 -377 -412h-222zM300 568l-33 -185h170l-17 -96h-170l-33 -191h100c142 0 234 117 234 303c0 130 -70 169 -161 169h-90z" />
    <glyph glyph-name="dcroat" unicode="&#x111;" horiz-adv-x="539" 
d="M365 500c31 0 58 -5 79 -12l12 68h-159l13 78h161l11 61h118l-11 -61h56l-13 -78h-57l-81 -457l-8 -99h-102l2 54c-2 0 -3 1 -5 1c-38 -46 -93 -70 -147 -70c-122 0 -162 91 -162 187c0 198 105 328 293 328zM387 156l41 243c-20 6 -39 8 -57 8
c-115 0 -178 -89 -178 -221c0 -64 20 -113 80 -113c64 0 107 44 114 83z" />
    <glyph glyph-name="Emacron" unicode="&#x112;" horiz-adv-x="509" 
d="M70 0l117 665h401l-18 -106h-280l-29 -167h240l-19 -105h-240l-31 -181h286l-19 -106h-408zM249 734l16 87h287l-16 -87h-287z" />
    <glyph glyph-name="emacron" unicode="&#x113;" horiz-adv-x="470" 
d="M403 385c0 31 -22 47 -53 47c-83 0 -129 -81 -144 -147c58 -1 197 14 197 100zM368 518c91 0 144 -47 144 -117c0 -175 -210 -196 -317 -197c-5 -64 18 -127 103 -127c58 0 102 27 129 44l36 -78c-25 -19 -95 -58 -194 -58c-137 0 -194 85 -194 201
c0 173 111 332 293 332zM230 619l15 86h287l-15 -86h-287z" />
    <glyph glyph-name="Ebreve" unicode="&#x114;" horiz-adv-x="509" 
d="M70 0l117 665h401l-18 -106h-280l-29 -167h240l-19 -105h-240l-31 -181h286l-19 -106h-408zM516 876l70 -30c-33 -70 -86 -126 -188 -126s-142 63 -149 124l75 29c11 -50 35 -77 86 -77c50 0 78 25 106 80z" />
    <glyph glyph-name="ebreve" unicode="&#x115;" horiz-adv-x="470" 
d="M403 385c0 31 -22 47 -53 47c-83 0 -129 -81 -144 -147c58 -1 197 14 197 100zM368 518c91 0 144 -47 144 -117c0 -175 -210 -196 -317 -197c-5 -64 18 -127 103 -127c58 0 102 27 129 44l36 -78c-25 -19 -95 -58 -194 -58c-137 0 -194 85 -194 201
c0 173 111 332 293 332zM487 744l70 -17c-34 -91 -94 -143 -186 -143c-101 0 -140 70 -143 143l71 16c9 -61 37 -83 83 -83c41 0 72 20 105 84z" />
    <glyph glyph-name="Edotaccent" unicode="&#x116;" horiz-adv-x="509" 
d="M70 0l117 665h401l-18 -106h-280l-29 -167h240l-19 -105h-240l-31 -181h286l-19 -106h-408zM331 783c0 42 36 77 81 77c36 0 59 -25 59 -56c0 -44 -37 -77 -82 -77c-37 0 -58 23 -58 56z" />
    <glyph glyph-name="edotaccent" unicode="&#x117;" horiz-adv-x="470" 
d="M403 385c0 31 -22 47 -53 47c-83 0 -129 -81 -144 -147c58 -1 197 14 197 100zM368 518c91 0 144 -47 144 -117c0 -175 -210 -196 -317 -197c-5 -64 18 -127 103 -127c58 0 102 27 129 44l36 -78c-25 -19 -95 -58 -194 -58c-137 0 -194 85 -194 201
c0 173 111 332 293 332zM309 636c0 43 36 78 82 78c35 0 58 -25 58 -56c0 -44 -37 -77 -82 -77c-37 0 -58 23 -58 55z" />
    <glyph glyph-name="Eogonek" unicode="&#x118;" horiz-adv-x="509" 
d="M70 0l117 665h401l-18 -106h-280l-29 -167h240l-19 -105h-240l-31 -181h286l-19 -106c-66 -31 -117 -93 -117 -135c0 -18 9 -31 33 -31c19 0 35 4 52 11l10 -65c-26 -13 -59 -21 -96 -21c-68 0 -92 37 -92 77c0 70 65 133 102 164h-300z" />
    <glyph glyph-name="eogonek" unicode="&#x119;" horiz-adv-x="465" 
d="M368 518c91 0 144 -43 144 -117c0 -175 -217 -195 -317 -197c-5 -64 19 -128 104 -128c58 0 102 27 129 44l34 -77c-13 -10 -40 -25 -72 -44c-58 -34 -101 -92 -101 -134c0 -18 9 -31 33 -31c19 0 35 4 52 11l10 -65c-26 -13 -59 -21 -96 -21c-68 0 -92 37 -92 77
c0 60 48 115 85 149h-12c-137 0 -194 85 -194 201c0 173 111 332 293 332zM403 385c0 31 -22 47 -53 47c-83 0 -129 -81 -144 -147c58 -1 197 14 197 100z" />
    <glyph glyph-name="Ecaron" unicode="&#x11a;" horiz-adv-x="509" 
d="M70 0l117 665h401l-18 -106h-280l-29 -167h240l-19 -105h-240l-31 -181h286l-19 -106h-408zM298 888l103 -92l136 95l37 -37c-47 -50 -88 -85 -123 -113c-23 -20 -42 -32 -62 -32c-19 0 -34 10 -51 31c-27 33 -52 64 -83 114z" />
    <glyph glyph-name="ecaron" unicode="&#x11b;" horiz-adv-x="470" 
d="M403 385c0 31 -22 47 -53 47c-83 0 -129 -81 -144 -147c58 -1 197 14 197 100zM368 518c91 0 144 -47 144 -117c0 -175 -210 -196 -317 -197c-5 -64 18 -127 103 -127c58 0 102 27 129 44l36 -78c-25 -19 -95 -58 -194 -58c-137 0 -194 85 -194 201
c0 173 111 332 293 332zM517 777l39 -33c-45 -52 -94 -104 -127 -136c-23 -22 -37 -32 -61 -32c-25 0 -34 8 -50 32c-23 33 -55 86 -80 137l44 32l99 -105z" />
    <glyph glyph-name="Gcircumflex" unicode="&#x11c;" horiz-adv-x="629" 
d="M634 348l-53 -296c-61 -36 -151 -64 -244 -64c-152 0 -243 87 -243 266c0 312 182 423 354 423c86 0 172 -34 220 -128l-95 -57c-34 55 -76 82 -135 82c-127 0 -217 -120 -217 -311c0 -110 43 -176 140 -176c50 0 91 12 114 25l27 144h-98l14 92h216zM347 709l-38 35
c50 50 96 92 131 120c20 16 33 24 53 24c19 0 32 -11 48 -29c26 -29 59 -73 86 -115l-41 -34l-104 90z" />
    <glyph glyph-name="gcircumflex" unicode="&#x11d;" horiz-adv-x="536" 
d="M211 -264c-99 0 -151 48 -151 125c0 97 53 141 157 185c-74 8 -139 58 -139 176c0 188 123 296 292 296c59 0 140 -11 192 -35l-67 -383c-6 -35 -17 -92 -25 -127c-37 -166 -122 -237 -259 -237zM395 208l38 212c-23 6 -44 9 -64 9c-109 0 -173 -90 -173 -208
c0 -58 17 -111 85 -111c54 0 103 34 114 98zM170 -120c0 -38 23 -56 60 -56c80 0 111 70 129 174l12 64c-23 -24 -57 -45 -95 -65c-63 -33 -106 -62 -106 -117zM265 576l-39 33c44 52 93 104 126 136c24 22 37 32 61 32c25 0 34 -8 50 -32c23 -33 55 -86 79 -138l-41 -31
l-100 105z" />
    <glyph glyph-name="Gbreve" unicode="&#x11e;" horiz-adv-x="629" 
d="M634 348l-53 -296c-61 -36 -151 -64 -244 -64c-152 0 -243 87 -243 266c0 312 182 423 354 423c86 0 172 -34 220 -128l-95 -57c-34 55 -76 82 -135 82c-127 0 -217 -120 -217 -311c0 -110 43 -176 140 -176c50 0 91 12 114 25l27 144h-98l14 92h216zM585 876l70 -30
c-33 -70 -86 -126 -188 -126s-142 63 -149 124l75 29c11 -50 35 -77 86 -77c50 0 78 25 106 80z" />
    <glyph glyph-name="gbreve" unicode="&#x11f;" horiz-adv-x="536" 
d="M211 -264c-99 0 -151 48 -151 125c0 97 53 141 157 185c-74 8 -139 58 -139 176c0 188 123 296 292 296c59 0 140 -11 192 -35l-67 -383c-6 -35 -17 -92 -25 -127c-37 -166 -122 -237 -259 -237zM395 208l38 212c-23 6 -44 9 -64 9c-109 0 -173 -90 -173 -208
c0 -58 17 -111 85 -111c54 0 103 34 114 98zM170 -120c0 -38 23 -56 60 -56c80 0 111 70 129 174l12 64c-23 -24 -57 -45 -95 -65c-63 -33 -106 -62 -106 -117zM505 744l70 -17c-34 -91 -94 -143 -186 -143c-101 0 -140 70 -143 143l71 16c9 -61 37 -83 83 -83
c41 0 72 20 105 84z" />
    <glyph glyph-name="Gdotaccent" unicode="&#x120;" horiz-adv-x="629" 
d="M634 348l-53 -296c-61 -36 -151 -64 -244 -64c-152 0 -243 87 -243 266c0 312 182 423 354 423c86 0 172 -34 220 -128l-95 -57c-34 55 -76 82 -135 82c-127 0 -217 -120 -217 -311c0 -110 43 -176 140 -176c50 0 91 12 114 25l27 144h-98l14 92h216zM400 783
c0 42 36 77 81 77c36 0 59 -25 59 -56c0 -44 -37 -77 -82 -77c-37 0 -58 23 -58 56z" />
    <glyph glyph-name="gdotaccent" unicode="&#x121;" horiz-adv-x="536" 
d="M211 -264c-99 0 -151 48 -151 125c0 97 53 141 157 185c-74 8 -139 58 -139 176c0 188 123 296 292 296c59 0 140 -11 192 -35l-67 -383c-6 -35 -17 -92 -25 -127c-37 -166 -122 -237 -259 -237zM395 208l38 212c-23 6 -44 9 -64 9c-109 0 -173 -90 -173 -208
c0 -58 17 -111 85 -111c54 0 103 34 114 98zM170 -120c0 -38 23 -56 60 -56c80 0 111 70 129 174l12 64c-23 -24 -57 -45 -95 -65c-63 -33 -106 -62 -106 -117zM327 636c0 43 36 78 82 78c35 0 58 -25 58 -56c0 -44 -37 -77 -82 -77c-37 0 -58 23 -58 55z" />
    <glyph glyph-name="Gcommaaccent" unicode="&#x122;" horiz-adv-x="629" 
d="M634 348l-53 -296c-61 -36 -151 -64 -244 -64c-152 0 -243 87 -243 266c0 312 182 423 354 423c86 0 172 -34 220 -128l-95 -57c-34 55 -76 82 -135 82c-127 0 -217 -120 -217 -311c0 -110 43 -176 140 -176c50 0 91 12 114 25l27 144h-98l14 92h216zM287 -61l-94 -199
l40 -21c40 47 78 88 107 128c13 18 25 38 25 53c0 34 -45 38 -78 39z" />
    <glyph glyph-name="gcommaaccent" unicode="&#x123;" horiz-adv-x="536" 
d="M211 -264c-99 0 -151 48 -151 125c0 97 53 141 157 185c-74 8 -139 58 -139 176c0 188 123 296 292 296c59 0 140 -11 192 -35l-67 -383c-6 -35 -17 -92 -25 -127c-37 -166 -122 -237 -259 -237zM395 208l38 212c-23 6 -44 9 -64 9c-109 0 -173 -90 -173 -208
c0 -58 17 -111 85 -111c54 0 103 34 114 98zM170 -120c0 -38 23 -56 60 -56c80 0 111 70 129 174l12 64c-23 -24 -57 -45 -95 -65c-63 -33 -106 -62 -106 -117zM492 775l-95 -200c-33 2 -78 7 -78 40c0 16 12 35 25 53c29 40 67 82 107 129z" />
    <glyph glyph-name="Hcircumflex" unicode="&#x124;" horiz-adv-x="668" 
d="M592 665h123l-117 -665h-123l51 287h-283l-51 -287h-122l117 665h122l-47 -272h283zM340 709l-38 35c50 50 96 92 131 120c20 16 33 24 53 24c19 0 32 -11 48 -29c26 -29 59 -73 86 -115l-41 -34l-104 90z" />
    <glyph glyph-name="hcircumflex" unicode="&#x125;" horiz-adv-x="534" 
d="M180 0h-119l123 695h119l-42 -235c40 40 94 58 145 58c87 0 134 -41 134 -122c0 -17 -2 -40 -6 -63l-59 -333h-119l57 321c2 15 4 31 4 44c0 37 -12 61 -57 61c-62 0 -114 -48 -123 -99zM232 722l-38 35c50 50 96 92 131 120c20 16 33 24 53 24c19 0 32 -11 48 -29
c26 -29 59 -73 86 -115l-41 -34l-104 90z" />
    <glyph glyph-name="Hbar" unicode="&#x126;" horiz-adv-x="672" 
d="M594 665h123l-18 -100h62l-13 -78h-62l-86 -487h-123l51 287h-283l-51 -287h-122l86 487h-63l13 78h63l18 100h122l-18 -100h283zM264 393h283l16 94h-283z" />
    <glyph glyph-name="hbar" unicode="&#x127;" horiz-adv-x="537" 
d="M180 0h-119l98 556h-57l14 78h57l11 61h119l-11 -61h159l-14 -78h-160l-20 -114c40 40 94 58 145 58c87 0 134 -41 134 -122c0 -17 -2 -40 -6 -63l-55 -315h-119l53 303c2 15 4 31 4 44c0 37 -12 61 -57 61c-62 0 -114 -48 -123 -99z" />
    <glyph glyph-name="Itilde" unicode="&#x128;" horiz-adv-x="266" 
d="M194 0h-122l117 665h122zM128 733l4 74c30 20 62 29 88 29c52 0 85 -26 131 -26c21 0 45 7 65 18l-5 -79c-23 -11 -43 -18 -71 -18c-44 0 -94 22 -134 22c-27 0 -50 -6 -78 -20z" />
    <glyph glyph-name="itilde" unicode="&#x129;" horiz-adv-x="244" 
d="M185 0h-120l89 503h120zM99 615l4 74c30 21 62 29 88 29c52 0 85 -26 131 -26c21 0 44 8 65 18l-5 -78c-24 -12 -44 -19 -72 -19c-44 0 -94 23 -133 23c-28 0 -50 -7 -78 -21z" />
    <glyph glyph-name="Imacron" unicode="&#x12a;" horiz-adv-x="266" 
d="M194 0h-122l117 665h122zM120 734l16 87h287l-16 -87h-287z" />
    <glyph glyph-name="imacron" unicode="&#x12b;" horiz-adv-x="244" 
d="M185 0h-120l89 503h120zM91 619l15 86h287l-15 -86h-287z" />
    <glyph glyph-name="Ibreve" unicode="&#x12c;" horiz-adv-x="266" 
d="M194 0h-122l117 665h122zM382 876l70 -30c-33 -70 -86 -126 -188 -126s-142 63 -149 124l75 29c11 -50 35 -77 86 -77c50 0 78 25 106 80z" />
    <glyph glyph-name="ibreve" unicode="&#x12d;" horiz-adv-x="244" 
d="M185 0h-120l89 503h120zM348 744l70 -17c-34 -91 -94 -143 -186 -143c-101 0 -140 70 -143 143l71 16c9 -61 37 -83 83 -83c41 0 72 20 105 84z" />
    <glyph glyph-name="Iogonek" unicode="&#x12e;" horiz-adv-x="266" 
d="M194 0c-47 -31 -98 -93 -98 -135c0 -18 9 -31 33 -31c19 0 35 4 52 11l10 -65c-26 -13 -59 -21 -96 -21c-68 0 -92 37 -92 77c0 70 65 133 102 164h-33l117 665h122z" />
    <glyph glyph-name="iogonek" unicode="&#x12f;" horiz-adv-x="244" 
d="M185 0c-51 -31 -102 -93 -102 -135c0 -18 9 -31 33 -31c19 0 35 4 52 11l10 -65c-26 -13 -59 -21 -96 -21c-68 0 -92 37 -92 77c0 70 65 133 102 164h-27l89 503h120zM169 636c0 43 35 78 81 78c36 0 59 -25 59 -56c0 -44 -37 -77 -82 -77c-37 0 -58 23 -58 55z" />
    <glyph glyph-name="Idotaccent" unicode="&#x130;" horiz-adv-x="266" 
d="M194 0h-122l117 665h122zM195 783c0 42 36 77 81 77c36 0 59 -25 59 -56c0 -44 -37 -77 -82 -77c-37 0 -58 23 -58 56z" />
    <glyph glyph-name="dotlessi" unicode="&#x131;" horiz-adv-x="244" 
d="M185 0h-120l89 503h120z" />
    <glyph glyph-name="IJ" unicode="&#x132;" horiz-adv-x="695" 
d="M194 0h-122l117 665h122zM282 42l52 88c26 -20 66 -39 108 -39c61 0 86 35 96 90l85 484h122l-75 -426c-5 -31 -14 -71 -23 -105c-28 -104 -84 -146 -197 -146c-74 0 -136 28 -168 54z" />
    <glyph glyph-name="ij" unicode="&#x133;" horiz-adv-x="488" 
d="M185 0h-120l89 503h120zM169 636c0 43 35 78 81 78c36 0 59 -25 59 -56c0 -44 -37 -77 -82 -77c-37 0 -58 23 -58 55zM303 -39l95 542h119l-95 -537c-18 -100 -38 -189 -179 -189c-42 0 -101 13 -132 35l45 83c22 -12 46 -21 71 -21c43 0 63 21 76 87zM415 636
c0 43 36 78 82 78c35 0 58 -25 58 -56c0 -44 -37 -77 -82 -77c-37 0 -58 23 -58 55z" />
    <glyph glyph-name="Jcircumflex" unicode="&#x134;" horiz-adv-x="429" 
d="M16 42l52 88c26 -20 66 -39 108 -39c61 0 86 35 96 90l85 484h122l-75 -426c-5 -31 -14 -71 -23 -105c-28 -104 -84 -146 -197 -146c-74 0 -136 28 -168 54zM303 710l-38 35c50 50 96 92 131 120c20 16 33 24 53 24c19 0 32 -11 48 -29c26 -29 59 -73 86 -115l-41 -34
l-104 90z" />
    <glyph glyph-name="jcircumflex" unicode="&#x135;" horiz-adv-x="244" 
d="M59 -39l95 542h119l-95 -537c-17 -96 -38 -189 -180 -189c-41 0 -100 13 -131 35l46 83c22 -13 45 -21 70 -21c39 0 63 21 76 87zM109 576l-39 33c44 52 93 104 126 136c24 22 37 32 61 32c25 0 34 -8 50 -32c23 -33 55 -86 79 -138l-41 -31l-100 105z" />
    <glyph glyph-name="Kcommaaccent" unicode="&#x136;" horiz-adv-x="580" 
d="M676 665l-237 -270l137 -395h-134l-100 298l-122 -131l-29 -167h-121l117 665h121l-59 -324h3l289 324h135zM288 -61l-94 -199l40 -21c40 47 78 88 107 128c13 18 25 38 25 53c0 34 -45 38 -78 39z" />
    <glyph glyph-name="kcommaaccent" unicode="&#x137;" horiz-adv-x="516" 
d="M551 398c0 -86 -49 -155 -136 -196l79 -202h-133l-62 169c-24 -6 -58 -11 -89 -13l-28 -156h-119l123 695h119l-56 -285l4 -1c38 64 102 109 180 109c65 0 118 -35 118 -120zM431 378c0 30 -16 46 -45 46c-64 0 -139 -100 -159 -180c128 10 204 71 204 134zM235 -61
l-94 -199l40 -21c40 47 78 88 107 128c13 18 25 38 25 53c0 34 -45 38 -78 39z" />
    <glyph glyph-name="kgreenlandic" unicode="&#x138;" horiz-adv-x="511" 
d="M551 398c0 -86 -49 -155 -136 -196l79 -202h-133l-62 169c-27 -4 -57 -6 -88 -6l-29 -163h-119l86 492h115l-15 -82l4 -1c38 64 102 109 180 109c65 0 118 -35 118 -120zM431 378c0 30 -18 49 -47 49c-64 0 -137 -95 -156 -176c125 3 203 64 203 127z" />
    <glyph glyph-name="Lacute" unicode="&#x139;" horiz-adv-x="500" 
d="M71 0l117 665h122l-98 -559h282l-19 -106h-404zM170 748l181 148c24 -15 49 -38 49 -61s-20 -40 -50 -56c-43 -23 -101 -47 -152 -70z" />
    <glyph glyph-name="lacute" unicode="&#x13a;" horiz-adv-x="323" 
d="M186 694h119l-93 -529c-3 -18 -6 -35 -6 -46c1 -31 14 -41 44 -41c20 0 43 8 66 17l15 -80c-31 -19 -83 -30 -126 -30c-91 0 -120 45 -120 112c0 20 3 42 7 66zM169 759l181 148c24 -15 49 -38 49 -61s-20 -40 -50 -56c-43 -23 -101 -47 -152 -70z" />
    <glyph glyph-name="Lcommaaccent" unicode="&#x13b;" horiz-adv-x="500" 
d="M71 0l117 665h122l-98 -559h282l-19 -106h-404zM232 -61l-94 -199l40 -21c40 47 78 88 107 128c13 18 25 38 25 53c0 34 -45 38 -78 39z" />
    <glyph glyph-name="lcommaaccent" unicode="&#x13c;" horiz-adv-x="323" 
d="M186 694h119l-93 -529c-3 -18 -6 -35 -6 -46c1 -31 14 -41 44 -41c20 0 43 8 66 17l15 -80c-31 -19 -83 -30 -126 -30c-91 0 -120 45 -120 112c0 20 3 42 7 66zM139 -61l-94 -199l40 -21c40 47 78 88 107 128c13 18 25 38 25 53c0 34 -45 38 -78 39z" />
    <glyph glyph-name="Lcaron" unicode="&#x13d;" horiz-adv-x="500" 
d="M71 0l117 665h122l-98 -559h282l-19 -106h-404zM440 657l-37 -209l47 -10c26 49 83 155 83 193c0 21 -14 33 -41 33c-18 0 -36 -3 -52 -7z" />
    <glyph glyph-name="lcaron" unicode="&#x13e;" horiz-adv-x="331" 
d="M186 694h119l-93 -529c-3 -18 -6 -35 -6 -46c1 -31 14 -41 44 -41c20 0 43 8 66 17l15 -80c-31 -19 -83 -30 -126 -30c-91 0 -120 45 -120 112c0 20 3 42 7 66zM343 480l37 209c16 4 34 7 52 7c27 0 41 -12 41 -33c0 -38 -57 -144 -83 -193z" />
    <glyph glyph-name="Ldot" unicode="&#x13f;" horiz-adv-x="500" 
d="M71 0l117 665h122l-98 -559h282l-19 -106h-404zM365 345c0 42 36 77 81 77c36 0 59 -25 59 -56c0 -44 -37 -77 -82 -77c-37 0 -58 23 -58 56z" />
    <glyph glyph-name="ldot" unicode="&#x140;" horiz-adv-x="381" 
d="M186 694h119l-93 -529c-3 -18 -6 -35 -6 -46c1 -31 14 -41 44 -41c20 0 43 8 66 17l15 -80c-31 -19 -83 -30 -126 -30c-91 0 -120 45 -120 112c0 20 3 42 7 66zM303 341c0 42 36 77 81 77c36 0 59 -25 59 -56c0 -44 -37 -77 -82 -77c-37 0 -58 23 -58 56z" />
    <glyph glyph-name="Lslash" unicode="&#x141;" horiz-adv-x="498" 
d="M51 227l-31 75l114 52l54 311h122l-46 -264l170 79l29 -76l-216 -99l-35 -199h282l-19 -106h-404l46 259z" />
    <glyph glyph-name="lslash" unicode="&#x142;" horiz-adv-x="373" 
d="M231 694h119l-47 -266l99 62l36 -67l-151 -90l-30 -168c-11 -63 -2 -86 39 -86c20 0 42 7 66 16l11 -80c-31 -19 -81 -30 -124 -30c-133 0 -128 88 -112 178l21 117l-72 -45l-33 68l122 72z" />
    <glyph glyph-name="Nacute" unicode="&#x143;" horiz-adv-x="666" 
d="M592 665h121l-117 -665h-117l-204 469h-2l-82 -469h-121l117 665h123l200 -462h1zM372 748l181 148c24 -15 49 -38 49 -61s-20 -40 -50 -56c-43 -23 -101 -47 -152 -70z" />
    <glyph glyph-name="nacute" unicode="&#x144;" horiz-adv-x="538" 
d="M183 0h-118l73 416l7 87h100l-1 -63c44 50 101 78 167 78c85 0 132 -39 133 -123c0 -15 -2 -39 -5 -57l-60 -338h-119l56 318c3 16 4 30 4 45c0 36 -11 63 -56 63c-63 0 -115 -49 -124 -100zM300 596l145 184c27 -7 67 -22 67 -53c0 -17 -13 -33 -37 -55
c-36 -32 -92 -73 -141 -107z" />
    <glyph glyph-name="Ncommaaccent" unicode="&#x145;" horiz-adv-x="666" 
d="M592 665h121l-117 -665h-117l-204 469h-2l-82 -469h-121l117 665h123l200 -462h1zM304 -61l-94 -199l40 -21c40 47 78 88 107 128c13 18 25 38 25 53c0 34 -45 38 -78 39z" />
    <glyph glyph-name="ncommaaccent" unicode="&#x146;" horiz-adv-x="538" 
d="M183 0h-118l73 416l7 87h100l-1 -63c44 50 101 78 167 78c85 0 132 -39 133 -123c0 -15 -2 -39 -5 -57l-60 -338h-119l56 318c3 16 4 30 4 45c0 36 -11 63 -56 63c-63 0 -115 -49 -124 -100zM233 -61l-94 -199l40 -21c40 47 78 88 107 128c13 18 25 38 25 53
c0 34 -45 38 -78 39z" />
    <glyph glyph-name="Ncaron" unicode="&#x147;" horiz-adv-x="666" 
d="M592 665h121l-117 -665h-117l-204 469h-2l-82 -469h-121l117 665h123l200 -462h1zM364 888l103 -92l136 95l37 -37c-47 -50 -88 -85 -123 -113c-23 -20 -42 -32 -62 -32c-19 0 -34 10 -51 31c-27 33 -52 64 -83 114z" />
    <glyph glyph-name="ncaron" unicode="&#x148;" horiz-adv-x="538" 
d="M183 0h-118l73 416l7 87h100l-1 -63c44 50 101 78 167 78c85 0 132 -39 133 -123c0 -15 -2 -39 -5 -57l-60 -338h-119l56 318c3 16 4 30 4 45c0 36 -11 63 -56 63c-63 0 -115 -49 -124 -100zM519 777l39 -33c-45 -52 -94 -104 -127 -136c-23 -22 -37 -32 -61 -32
c-25 0 -34 8 -50 32c-23 33 -55 86 -80 137l44 32l99 -105z" />
    <glyph glyph-name="napostrophe" unicode="&#x149;" horiz-adv-x="538" 
d="M183 0h-118l73 416l7 87h100l-1 -63c44 50 101 78 167 78c85 0 132 -39 133 -123c0 -15 -2 -39 -5 -57l-60 -338h-119l56 318c3 16 4 30 4 45c0 36 -11 63 -56 63c-63 0 -115 -49 -124 -100zM81 527l71 208c9 1 19 3 29 3c25 0 49 -7 49 -34c0 -35 -53 -110 -110 -190z
" />
    <glyph glyph-name="Eng" unicode="&#x14a;" horiz-adv-x="667" 
d="M592 665h122l-124 -702c-17 -98 -57 -180 -197 -180c-62 0 -120 25 -148 50l52 82c22 -19 52 -34 87 -34c55 0 78 34 88 89l6 35l-202 464h-2l-83 -469h-121l117 665h124l199 -462h1z" />
    <glyph glyph-name="eng" unicode="&#x14b;" horiz-adv-x="539" 
d="M183 0h-118l73 416l7 87h100l-1 -63c44 50 104 78 168 78c100 0 149 -57 128 -175l-67 -381c-17 -96 -42 -185 -182 -185c-42 0 -98 12 -129 34l47 84c22 -13 48 -21 72 -21c38 0 60 19 72 85l63 358c11 61 8 108 -57 108c-56 0 -109 -48 -118 -99z" />
    <glyph glyph-name="Omacron" unicode="&#x14c;" horiz-adv-x="663" 
d="M678 323c-36 -238 -174 -335 -349 -335c-149 0 -236 92 -236 252c0 31 2 73 9 110c46 262 217 327 351 327c132 0 233 -82 233 -253c0 -31 -2 -63 -8 -101zM229 343c-5 -29 -9 -62 -9 -91c0 -84 26 -163 131 -163c121 0 179 115 200 235c4 25 7 53 7 81
c0 84 -27 169 -123 169c-120 0 -185 -112 -206 -231zM321 734l16 87h287l-16 -87h-287z" />
    <glyph glyph-name="omacron" unicode="&#x14d;" horiz-adv-x="526" 
d="M273 73c-61 0 -79 46 -79 106c0 27 2 59 7 88c17 96 64 163 137 163c56 0 78 -41 78 -105c0 -23 -1 -50 -6 -80c-18 -104 -64 -172 -137 -172zM78 261c-5 -30 -6 -57 -6 -82c0 -125 66 -194 183 -194c133 0 250 71 280 266c4 28 5 57 5 79c0 159 -115 188 -183 188
c-106 0 -245 -50 -279 -257zM230 619l15 86h287l-15 -86h-287z" />
    <glyph glyph-name="Obreve" unicode="&#x14e;" horiz-adv-x="663" 
d="M678 323c-36 -238 -174 -335 -349 -335c-149 0 -236 92 -236 252c0 31 2 73 9 110c46 262 217 327 351 327c132 0 233 -82 233 -253c0 -31 -2 -63 -8 -101zM229 343c-5 -29 -9 -62 -9 -91c0 -84 26 -163 131 -163c121 0 179 115 200 235c4 25 7 53 7 81
c0 84 -27 169 -123 169c-120 0 -185 -112 -206 -231zM582 876l70 -30c-33 -70 -86 -126 -188 -126s-142 63 -149 124l75 29c11 -50 35 -77 86 -77c50 0 78 25 106 80z" />
    <glyph glyph-name="obreve" unicode="&#x14f;" horiz-adv-x="526" 
d="M273 73c-61 0 -79 46 -79 106c0 27 2 59 7 88c17 96 64 163 137 163c56 0 78 -41 78 -105c0 -23 -1 -50 -6 -80c-18 -104 -64 -172 -137 -172zM78 261c-5 -30 -6 -57 -6 -82c0 -125 66 -194 183 -194c133 0 250 71 280 266c4 28 5 57 5 79c0 159 -115 188 -183 188
c-106 0 -245 -50 -279 -257zM487 744l70 -17c-34 -91 -94 -143 -186 -143c-101 0 -140 70 -143 143l71 16c9 -61 37 -83 83 -83c41 0 72 20 105 84z" />
    <glyph glyph-name="Ohungarumlaut" unicode="&#x150;" horiz-adv-x="663" 
d="M678 323c-36 -238 -174 -335 -349 -335c-149 0 -236 92 -236 252c0 31 2 73 9 110c46 262 217 327 351 327c132 0 233 -82 233 -253c0 -31 -2 -63 -8 -101zM229 343c-5 -29 -9 -62 -9 -91c0 -84 26 -163 131 -163c121 0 179 115 200 235c4 25 7 53 7 81
c0 84 -27 169 -123 169c-120 0 -185 -112 -206 -231zM334 749l176 145c22 -17 43 -37 43 -59c0 -21 -13 -35 -50 -55c-41 -24 -103 -51 -147 -70zM523 749l175 144c21 -15 44 -36 44 -58s-14 -36 -50 -55c-43 -23 -104 -53 -147 -70z" />
    <glyph glyph-name="ohungarumlaut" unicode="&#x151;" horiz-adv-x="526" 
d="M273 73c73 0 119 68 137 172c5 30 6 57 6 80c0 64 -22 105 -78 105c-73 0 -120 -67 -137 -163c-5 -29 -7 -61 -7 -88c0 -60 18 -106 79 -106zM78 261c34 207 173 257 279 257c68 0 183 -29 183 -188c0 -22 -1 -51 -5 -79c-30 -195 -147 -266 -280 -266
c-117 0 -183 69 -183 194c0 25 1 52 6 82zM235 596l135 180c28 -8 66 -22 66 -52c0 -18 -13 -34 -37 -56c-36 -32 -80 -65 -130 -103zM411 596l136 180c27 -7 65 -22 65 -53c0 -17 -12 -33 -37 -55c-36 -32 -80 -65 -130 -103z" />
    <glyph glyph-name="OE" unicode="&#x152;" horiz-adv-x="877" 
d="M458 677c31 0 82 -5 112 -12h386l-18 -106h-279l-29 -167h239l-19 -105h-239l-32 -181h286l-19 -106h-397c-35 -8 -74 -14 -114 -14c-154 0 -241 98 -241 269c0 316 188 422 364 422zM221 266c0 -96 33 -178 146 -178c33 0 65 5 89 15l80 454c-19 9 -50 17 -88 17
c-162 0 -227 -166 -227 -308z" />
    <glyph glyph-name="oe" unicode="&#x153;" horiz-adv-x="790" 
d="M693 518c91 0 144 -43 144 -117c0 -175 -217 -195 -317 -197c-5 -64 19 -128 104 -128c58 0 102 27 129 44l34 -77c-25 -19 -98 -58 -193 -58c-79 0 -127 28 -153 73c-49 -52 -113 -73 -186 -73c-117 0 -183 69 -183 194c0 25 1 52 6 82c34 207 173 257 279 257
c48 0 113 -15 147 -79c46 49 109 79 189 79zM273 73c73 0 119 68 137 172c5 30 6 57 6 80c0 64 -22 105 -78 105c-73 0 -120 -67 -137 -163c-5 -29 -7 -61 -7 -88c0 -60 18 -106 79 -106zM728 385c0 31 -22 47 -53 47c-83 0 -130 -81 -145 -151c58 -1 198 18 198 104z" />
    <glyph glyph-name="Racute" unicode="&#x154;" horiz-adv-x="595" 
d="M239 265l-47 -265h-122l117 665h223c133 0 212 -48 212 -156c0 -122 -78 -181 -153 -204c26 -11 36 -28 47 -67l67 -238h-131l-56 213c-10 33 -23 52 -58 52h-99zM254 354h100c84 0 141 50 141 137c0 66 -49 77 -132 77h-71zM325 748l181 148c24 -15 49 -38 49 -61
s-20 -40 -50 -56c-43 -23 -101 -47 -152 -70z" />
    <glyph glyph-name="racute" unicode="&#x155;" horiz-adv-x="366" 
d="M240 317l-56 -317h-119l75 423l5 80h98l-1 -72c30 58 82 87 134 87c32 0 61 -8 79 -20l-38 -97c-18 10 -40 16 -66 16c-54 0 -98 -42 -111 -100zM252 596l145 184c27 -7 67 -22 67 -53c0 -17 -13 -33 -37 -55c-36 -32 -92 -73 -141 -107z" />
    <glyph glyph-name="Rcommaaccent" unicode="&#x156;" horiz-adv-x="595" 
d="M239 265l-47 -265h-122l117 665h223c133 0 212 -48 212 -156c0 -122 -78 -181 -153 -204c26 -11 36 -28 47 -67l67 -238h-131l-56 213c-10 33 -23 52 -58 52h-99zM254 354h100c84 0 141 50 141 137c0 66 -49 77 -132 77h-71zM251 -61l-94 -199l40 -21
c40 47 78 88 107 128c13 18 25 38 25 53c0 34 -45 38 -78 39z" />
    <glyph glyph-name="rcommaaccent" unicode="&#x157;" horiz-adv-x="366" 
d="M240 317l-56 -317h-119l75 423l5 80h98l-1 -72c30 58 82 87 134 87c32 0 61 -8 79 -20l-38 -97c-18 10 -40 16 -66 16c-54 0 -98 -42 -111 -100zM91 -61l-94 -199l40 -21c40 47 78 88 107 128c13 18 25 38 25 53c0 34 -45 38 -78 39z" />
    <glyph glyph-name="Rcaron" unicode="&#x158;" horiz-adv-x="595" 
d="M239 265l-47 -265h-122l117 665h223c133 0 212 -48 212 -156c0 -122 -78 -181 -153 -204c26 -11 36 -28 47 -67l67 -238h-131l-56 213c-10 33 -23 52 -58 52h-99zM254 354h100c84 0 141 50 141 137c0 66 -49 77 -132 77h-71zM300 888l103 -92l136 95l37 -37
c-47 -50 -88 -85 -123 -113c-23 -20 -42 -32 -62 -32c-19 0 -34 10 -51 31c-27 33 -52 64 -83 114z" />
    <glyph glyph-name="rcaron" unicode="&#x159;" horiz-adv-x="366" 
d="M240 317l-56 -317h-119l75 423l5 80h98l-1 -72c30 58 82 87 134 87c32 0 61 -8 79 -20l-38 -97c-18 10 -40 16 -66 16c-54 0 -98 -42 -111 -100zM448 777l39 -33c-45 -52 -94 -104 -127 -136c-23 -22 -37 -32 -61 -32c-25 0 -34 8 -50 32c-23 33 -55 86 -80 137l44 32
l99 -105z" />
    <glyph glyph-name="Sacute" unicode="&#x15a;" horiz-adv-x="537" 
d="M45 60l59 95c33 -24 107 -63 176 -63c58 0 124 20 124 97c0 61 -65 79 -128 106c-71 30 -148 68 -148 174c0 132 99 208 247 208c99 0 183 -48 225 -97l-77 -78c-45 43 -100 72 -156 72c-55 0 -111 -18 -111 -84c0 -61 60 -84 123 -111c72 -31 155 -70 155 -175
c0 -132 -98 -217 -258 -217c-108 0 -199 45 -231 73zM303 748l181 148c24 -15 49 -38 49 -61s-20 -40 -50 -56c-43 -23 -101 -47 -152 -70z" />
    <glyph glyph-name="sacute" unicode="&#x15b;" horiz-adv-x="419" 
d="M31 39l48 82c30 -20 84 -48 137 -48c49 0 87 21 87 65c0 42 -42 59 -85 75c-57 22 -126 48 -126 140c0 110 91 165 200 165c76 0 145 -34 179 -75l-65 -64c-33 32 -73 52 -114 52c-44 0 -81 -18 -81 -61c0 -45 47 -58 100 -80c55 -22 112 -56 112 -135
c0 -111 -82 -170 -209 -170c-88 0 -159 34 -183 54zM249 596l145 184c27 -7 67 -22 67 -53c0 -17 -13 -33 -37 -55c-36 -32 -92 -73 -141 -107z" />
    <glyph glyph-name="Scircumflex" unicode="&#x15c;" horiz-adv-x="537" 
d="M45 60l59 95c33 -24 107 -63 176 -63c58 0 124 20 124 97c0 61 -65 79 -128 106c-71 30 -148 68 -148 174c0 132 99 208 247 208c99 0 183 -48 225 -97l-77 -78c-45 43 -100 72 -156 72c-55 0 -111 -18 -111 -84c0 -61 60 -84 123 -111c72 -31 155 -70 155 -175
c0 -132 -98 -217 -258 -217c-108 0 -199 45 -231 73zM289 709l-38 35c50 50 96 92 131 120c20 16 33 24 53 24c19 0 32 -11 48 -29c26 -29 59 -73 86 -115l-41 -34l-104 90z" />
    <glyph glyph-name="scircumflex" unicode="&#x15d;" horiz-adv-x="419" 
d="M31 39l48 82c30 -20 84 -48 137 -48c49 0 87 21 87 65c0 42 -42 59 -85 75c-57 22 -126 48 -126 140c0 110 91 165 200 165c76 0 145 -34 179 -75l-65 -64c-33 32 -73 52 -114 52c-44 0 -81 -18 -81 -61c0 -45 47 -58 100 -80c55 -22 112 -56 112 -135
c0 -111 -82 -170 -209 -170c-88 0 -159 34 -183 54zM204 576l-39 33c44 52 93 104 126 136c24 22 37 32 61 32c25 0 34 -8 50 -32c23 -33 55 -86 79 -138l-41 -31l-100 105z" />
    <glyph glyph-name="Scedilla" unicode="&#x15e;" horiz-adv-x="538" 
d="M45 60l59 96c33 -24 107 -63 176 -63c58 0 124 19 124 96c0 61 -65 79 -128 106c-71 30 -150 68 -150 171c0 135 101 211 249 211c99 0 183 -48 225 -97l-77 -78c-45 43 -97 71 -153 71c-52 0 -114 -17 -114 -83c0 -61 64 -84 127 -111c72 -31 153 -70 153 -175
c0 -125 -89 -207 -233 -216l-25 -54c46 -3 80 -29 80 -75c0 -77 -69 -100 -129 -100c-36 0 -74 8 -94 19l25 54c13 -6 41 -14 65 -14c36 0 56 14 56 37c0 28 -32 36 -84 35l48 98c-94 8 -171 46 -200 72z" />
    <glyph glyph-name="scedilla" unicode="&#x15f;" horiz-adv-x="419" 
d="M31 39l48 82c30 -20 84 -48 137 -48c49 0 87 21 87 65c0 42 -42 59 -85 75c-57 22 -126 48 -126 140c0 110 91 165 200 165c76 0 145 -34 179 -75l-65 -64c-33 32 -73 52 -114 52c-44 0 -81 -18 -81 -61c0 -45 47 -58 100 -80c55 -22 112 -56 112 -135
c0 -103 -70 -161 -181 -169l-24 -52c46 -3 80 -29 80 -75c0 -77 -69 -100 -129 -100c-36 0 -74 8 -94 19l25 54c13 -6 41 -14 65 -14c36 0 56 14 56 37c0 28 -32 36 -84 35l47 97c-74 6 -132 34 -153 52z" />
    <glyph glyph-name="Scaron" unicode="&#x160;" horiz-adv-x="537" 
d="M45 60l59 95c33 -24 107 -63 176 -63c58 0 124 20 124 97c0 61 -65 79 -128 106c-71 30 -148 68 -148 174c0 132 99 208 247 208c99 0 183 -48 225 -97l-77 -78c-45 43 -100 72 -156 72c-55 0 -111 -18 -111 -84c0 -61 60 -84 123 -111c72 -31 155 -70 155 -175
c0 -132 -98 -217 -258 -217c-108 0 -199 45 -231 73zM310 888l103 -92l136 95l37 -37c-47 -50 -88 -85 -123 -113c-23 -20 -42 -32 -62 -32c-19 0 -34 10 -51 31c-27 33 -52 64 -83 114z" />
    <glyph glyph-name="scaron" unicode="&#x161;" horiz-adv-x="419" 
d="M31 39l48 82c30 -20 84 -48 137 -48c49 0 87 21 87 65c0 42 -42 59 -85 75c-57 22 -126 48 -126 140c0 110 91 165 200 165c76 0 145 -34 179 -75l-65 -64c-33 32 -73 52 -114 52c-44 0 -81 -18 -81 -61c0 -45 47 -58 100 -80c55 -22 112 -56 112 -135
c0 -111 -82 -170 -209 -170c-88 0 -159 34 -183 54zM471 777l39 -33c-45 -52 -94 -104 -127 -136c-23 -22 -37 -32 -61 -32c-25 0 -34 8 -50 32c-23 33 -55 86 -80 137l44 32l99 -105z" />
    <glyph glyph-name="Scommaaccent" unicode="&#x218;" horiz-adv-x="537" 
d="M45 60l59 95c33 -24 107 -63 176 -63c58 0 124 20 124 97c0 61 -65 79 -128 106c-71 30 -148 68 -148 174c0 132 99 208 247 208c99 0 183 -48 225 -97l-77 -78c-45 43 -100 72 -156 72c-55 0 -111 -18 -111 -84c0 -61 60 -84 123 -111c72 -31 155 -70 155 -175
c0 -132 -98 -217 -258 -217c-108 0 -199 45 -231 73zM218 -61l-94 -199l40 -21c40 47 78 88 107 128c13 18 25 38 25 53c0 34 -45 38 -78 39z" />
    <glyph glyph-name="scommaaccent" unicode="&#x219;" horiz-adv-x="419" 
d="M31 39l48 82c30 -20 84 -48 137 -48c49 0 87 21 87 65c0 42 -42 59 -85 75c-57 22 -126 48 -126 140c0 110 91 165 200 165c76 0 145 -34 179 -75l-65 -64c-33 32 -73 52 -114 52c-44 0 -81 -18 -81 -61c0 -45 47 -58 100 -80c55 -22 112 -56 112 -135
c0 -111 -82 -170 -209 -170c-88 0 -159 34 -183 54zM173 -61l-94 -199l40 -21c40 47 78 88 107 128c13 18 25 38 25 53c0 34 -45 38 -78 39z" />
    <glyph glyph-name="uni021A" unicode="&#x21a;" horiz-adv-x="538" 
d="M134 665h504l-18 -106h-194l-98 -559h-122l99 559h-189zM204 -61l-94 -199l40 -21c40 47 78 88 107 128c13 18 25 38 25 53c0 34 -45 38 -78 39z" />
    <glyph glyph-name="uni021B" unicode="&#x21b;" horiz-adv-x="350" 
d="M187 695h119l-34 -192h135l-16 -93h-135l-45 -254c-2 -11 -3 -26 -3 -34c1 -39 17 -46 51 -46c25 0 57 12 75 22l24 -77c-33 -21 -94 -36 -141 -36c-103 0 -131 48 -132 104c0 22 3 43 7 68zM144 -61l-94 -199l40 -21c40 47 78 88 107 128c13 18 25 38 25 53
c0 34 -45 38 -78 39z" />
    <glyph glyph-name="Tcaron" unicode="&#x164;" horiz-adv-x="538" 
d="M134 665h504l-18 -106h-194l-98 -559h-122l99 559h-189zM302 888l103 -92l136 95l37 -37c-47 -50 -88 -85 -123 -113c-23 -20 -42 -32 -62 -32c-19 0 -34 10 -51 31c-27 33 -52 64 -83 114z" />
    <glyph glyph-name="tcaron" unicode="&#x165;" horiz-adv-x="350" 
d="M187 695h119l-34 -192h135l-16 -93h-135l-45 -254c-2 -11 -3 -26 -3 -34c1 -39 17 -46 51 -46c25 0 57 12 75 22l24 -77c-33 -21 -94 -36 -141 -36c-103 0 -131 48 -132 104c0 22 3 43 7 68zM354 578l37 209c16 4 34 7 52 7c27 0 41 -12 41 -33c0 -38 -57 -144 -83 -193z
" />
    <glyph glyph-name="Tbar" unicode="&#x166;" horiz-adv-x="538" 
d="M134 665h504l-18 -106h-194l-37 -207h116l-14 -78h-115l-48 -274h-122l48 274h-113l14 78h113l37 207h-189z" />
    <glyph glyph-name="tbar" unicode="&#x167;" horiz-adv-x="351" 
d="M187 695h119l-34 -192h135l-16 -93h-135l-16 -89h133l-16 -93h-133l-13 -72c-2 -11 -3 -26 -3 -34c1 -39 17 -46 51 -46c25 0 57 12 75 22l24 -77c-33 -21 -94 -36 -141 -36c-103 0 -131 48 -132 104c0 22 3 43 7 68z" />
    <glyph glyph-name="uni0162" unicode="&#x162;" horiz-adv-x="538" 
d="M134 665h504l-18 -106h-194l-98 -559h-42l-30 -66c46 -3 80 -29 80 -75c0 -77 -69 -100 -129 -100c-36 0 -74 8 -94 19l25 54c13 -6 41 -14 65 -14c36 0 56 14 56 37c0 28 -32 36 -84 35l54 110h-23l99 559h-189z" />
    <glyph glyph-name="uni0163" unicode="&#x163;" horiz-adv-x="350" 
d="M187 695h119l-34 -192h135l-16 -93h-135l-45 -254c-2 -11 -3 -26 -3 -34c1 -39 17 -46 51 -46c25 0 57 12 75 22l24 -77c-30 -19 -84 -33 -129 -36l-23 -51c46 -3 80 -29 80 -75c0 -77 -69 -100 -129 -100c-36 0 -74 8 -94 19l25 54c13 -6 41 -14 65 -14
c36 0 56 14 56 37c0 28 -32 36 -84 35l48 99c-67 11 -87 53 -88 100c0 22 3 43 7 68z" />
    <glyph glyph-name="Utilde" unicode="&#x168;" horiz-adv-x="629" 
d="M182 665h121l-78 -448c-2 -13 -4 -25 -4 -36c0 -69 43 -91 112 -91c82 0 132 36 147 122l80 453h121l-83 -469c-25 -141 -119 -209 -274 -209c-150 0 -226 54 -226 170c0 18 1 37 5 58zM312 733l4 74c30 20 62 29 88 29c52 0 85 -26 131 -26c21 0 45 7 65 18l-5 -79
c-23 -11 -43 -18 -71 -18c-44 0 -94 22 -134 22c-27 0 -50 -6 -78 -20z" />
    <glyph glyph-name="utilde" unicode="&#x169;" horiz-adv-x="540" 
d="M447 503h119l-74 -419l-7 -84h-102l2 58l-6 1c-40 -52 -94 -73 -153 -73c-96 0 -139 49 -139 130c0 16 2 32 5 50l59 337h119l-56 -319c-3 -15 -5 -30 -5 -44c0 -35 13 -62 65 -62c56 0 106 48 115 100zM245 615l4 74c30 21 62 29 88 29c52 0 85 -26 131 -26
c21 0 44 8 65 18l-5 -78c-24 -12 -44 -19 -72 -19c-44 0 -94 23 -133 23c-28 0 -50 -7 -78 -21z" />
    <glyph glyph-name="Umacron" unicode="&#x16a;" horiz-adv-x="629" 
d="M182 665h121l-78 -448c-2 -13 -4 -25 -4 -36c0 -69 43 -91 112 -91c82 0 132 36 147 122l80 453h121l-83 -469c-25 -141 -119 -209 -274 -209c-150 0 -226 54 -226 170c0 18 1 37 5 58zM303 734l16 87h287l-16 -87h-287z" />
    <glyph glyph-name="umacron" unicode="&#x16b;" horiz-adv-x="540" 
d="M447 503h119l-74 -419l-7 -84h-102l2 58l-6 1c-40 -52 -94 -73 -153 -73c-96 0 -139 49 -139 130c0 16 2 32 5 50l59 337h119l-56 -319c-3 -15 -5 -30 -5 -44c0 -35 13 -62 65 -62c56 0 106 48 115 100zM237 619l15 86h287l-15 -86h-287z" />
    <glyph glyph-name="Ubreve" unicode="&#x16c;" horiz-adv-x="629" 
d="M182 665h121l-78 -448c-2 -13 -4 -25 -4 -36c0 -69 43 -91 112 -91c82 0 132 36 147 122l80 453h121l-83 -469c-25 -141 -119 -209 -274 -209c-150 0 -226 54 -226 170c0 18 1 37 5 58zM567 876l70 -30c-33 -70 -86 -126 -188 -126s-142 63 -149 124l75 29
c11 -50 35 -77 86 -77c50 0 78 25 106 80z" />
    <glyph glyph-name="ubreve" unicode="&#x16d;" horiz-adv-x="540" 
d="M447 503h119l-74 -419l-7 -84h-102l2 58l-6 1c-40 -52 -94 -73 -153 -73c-96 0 -139 49 -139 130c0 16 2 32 5 50l59 337h119l-56 -319c-3 -15 -5 -30 -5 -44c0 -35 13 -62 65 -62c56 0 106 48 115 100zM494 744l70 -17c-34 -91 -94 -143 -186 -143
c-101 0 -140 70 -143 143l71 16c9 -61 37 -83 83 -83c41 0 72 20 105 84z" />
    <glyph glyph-name="Uring" unicode="&#x16e;" horiz-adv-x="629" 
d="M182 665h121l-78 -448c-2 -13 -4 -25 -4 -36c0 -69 43 -91 112 -91c82 0 132 36 147 122l80 453h121l-83 -469c-25 -141 -119 -209 -274 -209c-150 0 -226 54 -226 170c0 18 1 37 5 58zM355 778c0 57 46 107 111 107c55 0 82 -35 82 -80c0 -59 -45 -106 -111 -106
c-55 0 -82 35 -82 79zM458 833c-24 0 -43 -20 -43 -49c0 -19 10 -34 31 -34c26 0 43 22 43 51c0 17 -9 32 -31 32z" />
    <glyph glyph-name="uring" unicode="&#x16f;" horiz-adv-x="540" 
d="M447 503h119l-74 -419l-7 -84h-102l2 58l-6 1c-40 -52 -94 -73 -153 -73c-96 0 -139 49 -139 130c0 16 2 32 5 50l59 337h119l-56 -319c-3 -15 -5 -30 -5 -44c0 -35 13 -62 65 -62c56 0 106 48 115 100zM294 643c0 57 46 107 111 107c55 0 82 -35 82 -80
c0 -59 -45 -106 -111 -106c-55 0 -82 35 -82 79zM397 698c-24 0 -43 -20 -43 -49c0 -19 10 -34 31 -34c26 0 43 22 43 51c0 17 -9 32 -31 32z" />
    <glyph glyph-name="Uhungarumlaut" unicode="&#x170;" horiz-adv-x="629" 
d="M182 665h121l-78 -448c-2 -13 -4 -25 -4 -36c0 -69 43 -91 112 -91c82 0 132 36 147 122l80 453h121l-83 -469c-25 -141 -119 -209 -274 -209c-150 0 -226 54 -226 170c0 18 1 37 5 58zM289 749l176 145c22 -17 43 -37 43 -59c0 -21 -13 -35 -50 -55
c-41 -24 -103 -51 -147 -70zM478 749l175 144c21 -15 44 -36 44 -58s-14 -36 -50 -55c-43 -23 -104 -53 -147 -70z" />
    <glyph glyph-name="uhungarumlaut" unicode="&#x171;" horiz-adv-x="540" 
d="M447 503h119l-74 -419l-7 -84h-102l2 58l-6 1c-40 -52 -94 -73 -153 -73c-96 0 -139 49 -139 130c0 16 2 32 5 50l59 337h119l-56 -319c-3 -15 -5 -30 -5 -44c0 -35 13 -62 65 -62c56 0 106 48 115 100zM234 596l135 180c28 -8 66 -22 66 -52c0 -18 -13 -34 -37 -56
c-36 -32 -80 -65 -130 -103zM410 596l136 180c27 -7 65 -22 65 -53c0 -17 -12 -33 -37 -55c-36 -32 -80 -65 -130 -103z" />
    <glyph glyph-name="Uogonek" unicode="&#x172;" horiz-adv-x="629" 
d="M182 665h121l-78 -448c-2 -13 -4 -25 -4 -36c0 -69 43 -91 112 -91c82 0 132 36 147 122l80 453h121l-83 -469c-20 -110 -77 -157 -169 -201c-47 -22 -100 -89 -100 -130c0 -18 9 -31 33 -31c19 0 35 4 52 11l10 -65c-26 -13 -59 -21 -96 -21c-68 0 -92 37 -92 77
c0 61 50 117 87 151c-149 0 -225 54 -225 170c0 18 1 37 5 58z" />
    <glyph glyph-name="uogonek" unicode="&#x173;" horiz-adv-x="540" 
d="M447 503h119l-74 -419l-7 -84c-46 -31 -97 -93 -97 -135c0 -18 9 -31 33 -31c19 0 35 4 52 11l10 -65c-26 -13 -59 -21 -96 -21c-68 0 -92 37 -92 77c0 70 65 133 102 164h-14l2 58l-6 1c-40 -52 -94 -73 -153 -73c-96 0 -139 49 -139 130c0 16 2 32 5 50l59 337h119
l-56 -319c-3 -15 -5 -30 -5 -44c0 -35 13 -62 65 -62c56 0 106 48 115 100z" />
    <glyph glyph-name="Wcircumflex" unicode="&#x174;" horiz-adv-x="815" 
d="M517 0l-21 335l-10 97l-182 -432h-139l-29 665h120l11 -505h1l187 452h127l26 -443h2l181 496h122l-260 -665h-136zM418 709l-38 35c50 50 96 92 131 120c20 16 33 24 53 24c19 0 32 -11 48 -29c26 -29 59 -73 86 -115l-41 -34l-104 90z" />
    <glyph glyph-name="wcircumflex" unicode="&#x175;" horiz-adv-x="799" 
d="M680 503h117c3 -29 7 -80 7 -117c0 -230 -85 -400 -274 -400c-75 0 -116 34 -126 84c-48 -62 -110 -84 -174 -84c-92 0 -143 41 -144 125c0 15 2 32 5 49l60 343h119l-55 -316c-4 -19 -7 -38 -7 -55c1 -32 13 -54 56 -54c55 0 99 45 108 96l57 329h119l-57 -316
c-3 -17 -6 -38 -6 -53c0 -32 11 -56 54 -56c96 0 147 144 147 305c0 39 -3 91 -6 120zM390 576l-39 33c44 52 93 104 126 136c24 22 37 32 61 32c25 0 34 -8 50 -32c23 -33 55 -86 79 -138l-41 -31l-100 105z" />
    <glyph glyph-name="Wgrave" unicode="&#x1e80;" horiz-adv-x="815" 
d="M517 0l-21 335l-10 97l-182 -432h-139l-29 665h120l11 -505h1l187 452h127l26 -443h2l181 496h122l-260 -665h-136zM488 902l140 -158l-33 -35c-47 27 -101 59 -136 81c-22 14 -31 27 -31 45c0 29 26 49 60 67z" />
    <glyph glyph-name="wgrave" unicode="&#x1e81;" horiz-adv-x="799" 
d="M680 503h117c3 -29 7 -80 7 -117c0 -230 -85 -400 -274 -400c-75 0 -116 34 -126 84c-48 -62 -110 -84 -174 -84c-92 0 -143 41 -144 125c0 15 2 32 5 49l60 343h119l-55 -316c-4 -19 -7 -38 -7 -55c1 -32 13 -54 56 -54c55 0 99 45 108 96l57 329h119l-57 -316
c-3 -17 -6 -38 -6 -53c0 -32 11 -56 54 -56c96 0 147 144 147 305c0 39 -3 91 -6 120zM486 784l94 -190l-42 -29c-37 38 -79 82 -107 115c-13 15 -19 31 -19 44c0 38 40 52 74 60z" />
    <glyph glyph-name="Wacute" unicode="&#x1e82;" horiz-adv-x="815" 
d="M517 0l-21 335l-10 97l-182 -432h-139l-29 665h120l11 -505h1l187 452h127l26 -443h2l181 496h122l-260 -665h-136zM443 748l181 148c24 -15 49 -38 49 -61s-20 -40 -50 -56c-43 -23 -101 -47 -152 -70z" />
    <glyph glyph-name="wacute" unicode="&#x1e83;" horiz-adv-x="799" 
d="M680 503h117c3 -29 7 -80 7 -117c0 -230 -85 -400 -274 -400c-75 0 -116 34 -126 84c-48 -62 -110 -84 -174 -84c-92 0 -143 41 -144 125c0 15 2 32 5 49l60 343h119l-55 -316c-4 -19 -7 -38 -7 -55c1 -32 13 -54 56 -54c55 0 99 45 108 96l57 329h119l-57 -316
c-3 -17 -6 -38 -6 -53c0 -32 11 -56 54 -56c96 0 147 144 147 305c0 39 -3 91 -6 120zM416 596l145 184c27 -7 67 -22 67 -53c0 -17 -13 -33 -37 -55c-36 -32 -92 -73 -141 -107z" />
    <glyph glyph-name="Wdieresis" unicode="&#x1e84;" horiz-adv-x="815" 
d="M517 0l-21 335l-10 97l-182 -432h-139l-29 665h120l11 -505h1l187 452h127l26 -443h2l181 496h122l-260 -665h-136zM580 773c0 39 33 71 76 71c32 0 53 -23 53 -52c0 -39 -34 -71 -76 -71c-33 0 -53 22 -53 52zM385 773c0 39 33 71 76 71c32 0 53 -23 53 -52
c0 -39 -34 -71 -76 -71c-33 0 -53 22 -53 52z" />
    <glyph glyph-name="wdieresis" unicode="&#x1e85;" horiz-adv-x="799" 
d="M680 503h117c3 -29 7 -80 7 -117c0 -230 -85 -400 -274 -400c-75 0 -116 34 -126 84c-48 -62 -110 -84 -174 -84c-92 0 -143 41 -144 125c0 15 2 32 5 49l60 343h119l-55 -316c-4 -19 -7 -38 -7 -55c1 -32 13 -54 56 -54c55 0 99 45 108 96l57 329h119l-57 -316
c-3 -17 -6 -38 -6 -53c0 -32 11 -56 54 -56c96 0 147 144 147 305c0 39 -3 91 -6 120zM548 655c0 39 33 71 76 71c32 0 53 -23 53 -52c0 -39 -34 -71 -76 -71c-33 0 -53 22 -53 52zM353 655c0 39 33 71 76 71c32 0 53 -23 53 -52c0 -39 -34 -71 -76 -71c-33 0 -53 22 -53 52
z" />
    <glyph glyph-name="Ygrave" unicode="&#x1ef2;" horiz-adv-x="556" 
d="M675 665h-135l-199 -294h-1l-94 294h-128l144 -411l-45 -254h122l45 254zM357 902l140 -158l-33 -35c-47 27 -101 59 -136 81c-22 14 -31 27 -31 45c0 29 26 49 60 67z" />
    <glyph glyph-name="ygrave" unicode="&#x1ef3;" horiz-adv-x="537" 
d="M565 503l-77 -440c-6 -36 -19 -104 -30 -138c-39 -125 -118 -191 -247 -191c-98 0 -150 50 -150 123c0 81 38 134 141 182c-80 10 -109 50 -109 115c0 14 1 28 4 44l54 305h119l-51 -292c-3 -15 -5 -30 -5 -43c0 -36 15 -62 71 -62c50 0 98 38 108 95l54 302h118z
M172 -121c0 -37 24 -56 61 -56c70 0 104 55 120 142l18 97c-27 -26 -55 -45 -96 -66c-65 -33 -103 -59 -103 -117zM354 784l94 -190l-42 -29c-37 38 -79 82 -107 115c-13 15 -19 31 -19 44c0 38 40 52 74 60z" />
    <glyph glyph-name="Ycircumflex" unicode="&#x176;" horiz-adv-x="556" 
d="M675 665h-135l-199 -294h-1l-94 294h-128l144 -411l-45 -254h122l45 254zM289 709l-38 35c50 50 96 92 131 120c20 16 33 24 53 24c19 0 32 -11 48 -29c26 -29 59 -73 86 -115l-41 -34l-104 90z" />
    <glyph glyph-name="ycircumflex" unicode="&#x177;" horiz-adv-x="537" 
d="M565 503l-77 -440c-6 -36 -19 -104 -30 -138c-39 -125 -118 -191 -247 -191c-98 0 -150 50 -150 123c0 81 38 134 141 182c-80 10 -109 50 -109 115c0 14 1 28 4 44l54 305h119l-51 -292c-3 -15 -5 -30 -5 -43c0 -36 15 -62 71 -62c50 0 98 38 108 95l54 302h118z
M172 -121c0 -37 24 -56 61 -56c70 0 104 55 120 142l18 97c-27 -26 -55 -45 -96 -66c-65 -33 -103 -59 -103 -117zM263 576l-39 33c44 52 93 104 126 136c24 22 37 32 61 32c25 0 34 -8 50 -32c23 -33 55 -86 79 -138l-41 -31l-100 105z" />
    <glyph glyph-name="Ydieresis" unicode="&#x178;" horiz-adv-x="556" 
d="M675 665h-135l-199 -294h-1l-94 294h-128l144 -411l-45 -254h122l45 254zM451 773c0 39 33 71 76 71c32 0 53 -23 53 -52c0 -39 -34 -71 -76 -71c-33 0 -53 22 -53 52zM256 773c0 39 33 71 76 71c32 0 53 -23 53 -52c0 -39 -34 -71 -76 -71c-33 0 -53 22 -53 52z" />
    <glyph glyph-name="Zacute" unicode="&#x179;" horiz-adv-x="505" 
d="M574 584l-388 -489h314l-18 -95h-455l15 83l386 487h-294l16 95h438zM303 748l181 148c24 -15 49 -38 49 -61s-20 -40 -50 -56c-43 -23 -101 -47 -152 -70z" />
    <glyph glyph-name="zacute" unicode="&#x17a;" horiz-adv-x="414" 
d="M97 -108c0 -38 17 -67 62 -67c77 0 122 74 122 152c0 38 -13 64 -33 83c-104 -39 -151 -109 -151 -168zM484 503l-13 -75l-255 -222l56 -30c86 -46 124 -100 124 -186c0 -147 -103 -255 -252 -255c-108 0 -159 56 -159 139c0 103 56 177 191 239c-29 16 -56 28 -84 41
l13 71l214 185h-227l17 93h375zM252 596l145 184c27 -7 67 -22 67 -53c0 -17 -13 -33 -37 -55c-36 -32 -92 -73 -141 -107z" />
    <glyph glyph-name="Zdotaccent" unicode="&#x17b;" horiz-adv-x="505" 
d="M574 584l-388 -489h314l-18 -95h-455l15 83l386 487h-294l16 95h438zM304 783c0 42 36 77 81 77c36 0 59 -25 59 -56c0 -44 -37 -77 -82 -77c-37 0 -58 23 -58 56z" />
    <glyph glyph-name="zdotaccent" unicode="&#x17c;" horiz-adv-x="414" 
d="M97 -108c0 59 47 129 151 168c20 -19 33 -45 33 -83c0 -78 -45 -152 -122 -152c-45 0 -62 29 -62 67zM471 428l13 75h-375l-17 -93h227l-214 -185l-13 -71c28 -13 55 -25 84 -41c-135 -62 -191 -136 -191 -239c0 -83 51 -139 159 -139c149 0 252 108 252 255
c0 86 -38 140 -124 186l-56 30zM266 636c0 43 36 78 82 78c35 0 58 -25 58 -56c0 -44 -37 -77 -82 -77c-37 0 -58 23 -58 55z" />
    <glyph glyph-name="Zcaron" unicode="&#x17d;" horiz-adv-x="505" 
d="M574 584l-388 -489h314l-18 -95h-455l15 83l386 487h-294l16 95h438zM294 888l103 -92l136 95l37 -37c-47 -50 -88 -85 -123 -113c-23 -20 -42 -32 -62 -32c-19 0 -34 10 -51 31c-27 33 -52 64 -83 114z" />
    <glyph glyph-name="zcaron" unicode="&#x17e;" horiz-adv-x="414" 
d="M97 -108c0 59 47 129 151 168c20 -19 33 -45 33 -83c0 -78 -45 -152 -122 -152c-45 0 -62 29 -62 67zM471 428l13 75h-375l-17 -93h227l-214 -185l-13 -71c28 -13 55 -25 84 -41c-135 -62 -191 -136 -191 -239c0 -83 51 -139 159 -139c149 0 252 108 252 255
c0 86 -38 140 -124 186l-56 30zM469 777l39 -33c-45 -52 -94 -104 -127 -136c-23 -22 -37 -32 -61 -32c-25 0 -34 8 -50 32c-23 33 -55 86 -80 137l44 32l99 -105z" />
    <glyph glyph-name="longs" unicode="&#x17f;" horiz-adv-x="334" 
d="M280 550l-134 -760h-118l132 751c16 95 49 182 196 182c52 0 110 -18 140 -36l-41 -78c-27 14 -63 24 -91 24c-50 0 -72 -23 -84 -83z" />
    <glyph glyph-name="dotlessj" unicode="&#x237;" horiz-adv-x="244" 
d="M59 -39l95 542h119l-95 -537c-17 -96 -38 -189 -180 -189c-41 0 -100 13 -131 35l46 83c22 -13 45 -21 70 -21c39 0 63 21 76 87z" />
    <glyph glyph-name="circumflex" unicode="&#x2c6;" horiz-adv-x="500" 
d="M237 576l-39 33c44 52 93 104 126 136c24 22 37 32 61 32c25 0 34 -8 50 -32c23 -33 55 -86 79 -138l-41 -31l-100 105z" />
    <glyph glyph-name="caron" unicode="&#x2c7;" horiz-adv-x="500" 
d="M497 777l39 -33c-45 -52 -94 -104 -127 -136c-23 -22 -37 -32 -61 -32c-25 0 -34 8 -50 32c-23 33 -55 86 -80 137l44 32l99 -105z" />
    <glyph glyph-name="uni02C9" unicode="&#x2c9;" horiz-adv-x="500" 
d="M213 619l15 86h287l-15 -86h-287z" />
    <glyph glyph-name="breve" unicode="&#x2d8;" horiz-adv-x="500" 
d="M475 744l70 -17c-34 -91 -94 -143 -186 -143c-101 0 -140 70 -143 143l71 16c9 -61 37 -83 83 -83c41 0 72 20 105 84z" />
    <glyph glyph-name="dieresis" unicode="&#xa8;" horiz-adv-x="500" 
d="M402 655c0 39 33 71 76 71c32 0 53 -23 53 -52c0 -39 -34 -71 -76 -71c-33 0 -53 22 -53 52zM207 655c0 39 33 71 76 71c32 0 53 -23 53 -52c0 -39 -34 -71 -76 -71c-33 0 -53 22 -53 52z" />
    <glyph glyph-name="macron" unicode="&#xaf;" horiz-adv-x="500" 
d="M213 619l15 86h287l-15 -86h-287z" />
    <glyph glyph-name="degree" unicode="&#xb0;" horiz-adv-x="298" 
d="M134 576c0 84 60 138 137 138c63 0 96 -43 96 -94c0 -76 -52 -139 -135 -139c-67 0 -98 41 -98 95zM197 584c0 -27 14 -47 42 -47c41 0 64 34 64 73c0 28 -13 47 -42 47c-45 0 -64 -35 -64 -73z" />
    <glyph glyph-name="acute" unicode="&#xb4;" horiz-adv-x="500" 
d="M252 596l145 184c27 -7 67 -22 67 -53c0 -17 -13 -33 -37 -55c-36 -32 -92 -73 -141 -107z" />
    <glyph glyph-name="grave" unicode="`" horiz-adv-x="500" 
d="M359 784l94 -190l-42 -29c-37 38 -79 82 -107 115c-13 15 -19 31 -19 44c0 38 40 52 74 60z" />
    <glyph glyph-name="cedilla" unicode="&#xb8;" horiz-adv-x="500" 
d="M213 3h57l-32 -69c46 -3 80 -29 80 -75c0 -77 -69 -100 -129 -100c-36 0 -74 8 -94 19l25 54c13 -6 41 -14 65 -14c36 0 56 14 56 37c0 28 -32 36 -84 35z" />
    <glyph glyph-name="dotaccent" unicode="&#x2d9;" horiz-adv-x="500" 
d="M296 636c0 43 36 78 82 78c35 0 58 -25 58 -56c0 -44 -37 -77 -82 -77c-37 0 -58 23 -58 55z" />
    <glyph glyph-name="ring" unicode="&#x2da;" horiz-adv-x="500" 
d="M268 643c0 57 46 107 111 107c55 0 82 -35 82 -80c0 -59 -45 -106 -111 -106c-55 0 -82 35 -82 79zM371 698c-24 0 -43 -20 -43 -49c0 -19 10 -34 31 -34c26 0 43 22 43 51c0 17 -9 32 -31 32z" />
    <glyph glyph-name="ogonek" unicode="&#x2db;" horiz-adv-x="500" 
d="M228 2l83 -1c-42 -31 -95 -94 -95 -136c0 -18 9 -31 33 -31c19 0 35 4 52 11l10 -65c-26 -13 -59 -21 -96 -21c-68 0 -92 37 -92 77c0 71 68 135 105 166z" />
    <glyph glyph-name="tilde" unicode="&#x2dc;" horiz-adv-x="500" 
d="M221 615l4 74c30 21 62 29 88 29c52 0 85 -26 131 -26c21 0 44 8 65 18l-5 -78c-24 -12 -44 -19 -72 -19c-44 0 -94 23 -133 23c-28 0 -50 -7 -78 -21z" />
    <glyph glyph-name="hungarumlaut" unicode="&#x2dd;" horiz-adv-x="500" 
d="M198 596l135 180c28 -8 66 -22 66 -52c0 -18 -13 -34 -37 -56c-36 -32 -80 -65 -130 -103zM374 596l136 180c27 -7 65 -22 65 -53c0 -17 -12 -33 -37 -55c-36 -32 -80 -65 -130 -103z" />
    <glyph glyph-name="perthousand" unicode="&#x2030;" horiz-adv-x="925" 
d="M833 297c66 0 115 -40 115 -122c0 -118 -68 -189 -167 -189c-73 0 -114 42 -114 121c0 122 71 190 166 190zM790 44c37 0 80 36 80 128c0 47 -17 66 -48 66c-39 0 -76 -41 -77 -132c0 -43 17 -62 45 -62zM523 297c66 0 115 -40 115 -122c0 -118 -68 -189 -167 -189
c-73 0 -114 42 -114 121c0 122 71 190 166 190zM480 44c37 0 80 36 80 128c0 47 -17 66 -48 66c-39 0 -76 -41 -77 -132c0 -43 17 -62 45 -62zM267 657c66 0 115 -40 115 -122c0 -118 -68 -189 -167 -189c-73 0 -114 42 -114 121c0 122 71 190 166 190zM224 404
c37 0 80 36 80 128c0 47 -17 66 -48 66c-39 0 -76 -41 -77 -132c0 -43 17 -62 45 -62zM147 110l-42 66l506 369l43 -66z" />
    <glyph glyph-name="percent" unicode="%" horiz-adv-x="801" 
d="M633 49c46 0 95 41 96 159c0 54 -19 78 -53 78c-50 0 -96 -51 -96 -162c0 -53 21 -75 53 -75zM683 351c80 0 135 -46 135 -142c0 -135 -72 -222 -189 -222c-89 0 -136 49 -136 140c0 141 80 224 190 224zM294 657c79 0 131 -48 131 -144c0 -132 -73 -221 -193 -221
c-86 0 -132 51 -132 146c0 139 83 219 194 219zM243 356c46 0 93 41 94 159c0 54 -21 78 -55 78c-50 0 -94 -51 -94 -162c0 -53 23 -75 55 -75zM292 -9l-73 36l403 627l75 -35z" />
    <glyph glyph-name="fraction" unicode="&#x2044;" horiz-adv-x="193" 
d="M-5 -9l-73 36l403 627l75 -35z" />
    <glyph glyph-name="zerosuperior" unicode="&#x2070;" horiz-adv-x="377" 
d="M314 737c83 0 135 -47 135 -141c0 -19 -1 -38 -5 -62c-23 -144 -96 -198 -192 -198c-89 0 -137 50 -137 143c0 20 1 40 5 65c23 140 102 193 194 193zM259 406c44 0 79 24 97 126c4 23 5 44 5 60c0 53 -21 76 -56 76c-47 0 -80 -29 -98 -130c-4 -21 -5 -43 -5 -58
c0 -52 20 -74 57 -74z" />
    <glyph glyph-name="onesuperior" unicode="&#xb9;" horiz-adv-x="377" 
d="M158 411h75l40 228l-88 -36l-18 57l137 71h80l-18 -68l-45 -252h70l-13 -70h-232z" />
    <glyph glyph-name="twosuperior" unicode="&#xb2;" horiz-adv-x="377" 
d="M182 623l-35 56c48 33 99 58 160 58c74 0 107 -43 107 -96c0 -46 -19 -82 -74 -132l-106 -96h154l-13 -72h-274l10 58l152 139c36 33 57 60 57 90c0 23 -16 34 -39 34c-25 0 -61 -14 -99 -39z" />
    <glyph glyph-name="threesuperior" unicode="&#xb3;" horiz-adv-x="377" 
d="M189 636l-27 54c29 17 89 47 155 47c67 0 102 -36 102 -83c0 -41 -18 -72 -61 -98c16 -29 31 -62 31 -97c0 -63 -41 -123 -155 -123c-48 0 -103 16 -129 32l33 62c26 -15 60 -26 95 -26c43 0 68 18 68 53c0 18 -8 41 -17 62c-26 -9 -54 -16 -82 -21l-14 60
c34 7 141 25 141 74c0 26 -17 35 -40 35c-24 0 -66 -15 -100 -31z" />
    <glyph glyph-name="foursuperior" unicode="&#x2074;" horiz-adv-x="377" 
d="M333 596h55l-19 -104h61l-11 -66h-61l-16 -85h-87l15 87h-162l10 53l168 261l68 -33l-144 -217h73z" />
    <glyph glyph-name="fivesuperior" unicode="&#x2075;" horiz-adv-x="377" 
d="M177 529l63 202h207l-12 -68h-147l-26 -78c93 -2 151 -31 151 -107c0 -62 -36 -142 -167 -142c-63 0 -111 23 -127 34l35 63c19 -12 53 -28 93 -28c57 0 77 31 77 64c0 54 -57 60 -147 60z" />
    <glyph glyph-name="sixsuperior" unicode="&#x2076;" horiz-adv-x="377" 
d="M388 749l7 -63c-91 -10 -146 -56 -167 -119c29 16 65 28 98 28c64 0 98 -40 98 -97c0 -9 -1 -24 -3 -34c-13 -76 -71 -128 -161 -128c-87 0 -126 53 -126 131c0 16 2 44 5 62c19 108 88 201 249 220zM339 466c1 7 2 14 2 20c0 30 -15 45 -50 45c-22 0 -50 -9 -71 -23
c-2 -14 -3 -29 -3 -42c0 -35 13 -64 52 -64c32 0 62 19 70 64z" />
    <glyph glyph-name="sevensuperior" unicode="&#x2077;" horiz-adv-x="377" 
d="M174 664l12 67h278l-10 -57c-116 -87 -166 -192 -187 -312l-4 -21h-85l5 26c18 102 58 205 162 297h-171z" />
    <glyph glyph-name="eightsuperior" unicode="&#x2078;" horiz-adv-x="377" 
d="M123 425c0 70 61 107 104 124c-23 12 -53 37 -53 79c0 56 53 109 145 109c86 0 114 -41 114 -79c0 -53 -40 -81 -79 -106c37 -21 59 -51 59 -89c0 -58 -44 -127 -162 -127c-97 0 -128 46 -128 89zM330 451c0 28 -26 49 -51 60c-38 -14 -72 -42 -72 -74
c0 -20 14 -40 56 -40s67 27 67 54zM309 680c-38 0 -56 -23 -56 -43c0 -18 14 -39 44 -54c27 14 56 42 56 66c0 15 -11 31 -44 31z" />
    <glyph glyph-name="ninesuperior" unicode="&#x2079;" horiz-adv-x="377" 
d="M177 322l-6 65c91 13 148 63 166 116c-30 -15 -63 -25 -97 -25c-64 0 -98 39 -98 97c0 9 1 25 3 35c14 77 73 127 160 127s127 -54 127 -133c0 -16 0 -40 -3 -59c-16 -110 -79 -202 -252 -223zM226 608c-1 -7 -1 -15 -1 -21c0 -29 16 -45 51 -45c22 0 50 8 68 21
c2 14 4 28 4 41c0 35 -11 66 -50 66c-32 0 -64 -15 -72 -62z" />
    <glyph glyph-name="zeroinferior" unicode="&#x2080;" horiz-adv-x="377" 
d="M251 316c83 0 135 -47 135 -141c0 -19 -1 -38 -5 -62c-23 -144 -96 -198 -192 -198c-89 0 -137 50 -137 143c0 20 1 40 5 65c23 140 102 193 194 193zM196 -15c44 0 79 24 97 126c4 23 5 44 5 60c0 53 -21 76 -56 76c-47 0 -80 -29 -98 -130c-4 -21 -5 -43 -5 -58
c0 -52 20 -74 57 -74z" />
    <glyph glyph-name="oneinferior" unicode="&#x2081;" horiz-adv-x="377" 
d="M95 -10h75l40 228l-88 -36l-18 57l137 71h80l-18 -68l-45 -252h70l-13 -70h-232z" />
    <glyph glyph-name="twoinferior" unicode="&#x2082;" horiz-adv-x="377" 
d="M135 202l-35 56c48 33 99 58 160 58c74 0 107 -43 107 -96c0 -46 -19 -82 -74 -132l-106 -96h154l-13 -72h-274l10 58l152 139c36 33 57 60 57 90c0 23 -16 34 -39 34c-25 0 -61 -14 -99 -39z" />
    <glyph glyph-name="threeinferior" unicode="&#x2083;" horiz-adv-x="377" 
d="M142 215l-27 54c29 17 89 47 155 47c67 0 102 -36 102 -83c0 -41 -18 -72 -61 -98c16 -29 31 -62 31 -97c0 -63 -41 -123 -155 -123c-48 0 -103 16 -129 32l33 62c26 -15 60 -26 95 -26c43 0 68 18 68 53c0 18 -8 41 -17 62c-26 -9 -54 -16 -82 -21l-14 60
c34 7 141 25 141 74c0 26 -17 35 -40 35c-24 0 -66 -15 -100 -31z" />
    <glyph glyph-name="fourinferior" unicode="&#x2084;" horiz-adv-x="377" 
d="M270 175h55l-19 -104h61l-11 -66h-61l-16 -85h-87l15 87h-162l10 53l168 261l68 -33l-144 -217h73z" />
    <glyph glyph-name="fiveinferior" unicode="&#x2085;" horiz-adv-x="377" 
d="M103 108l63 202h207l-12 -68h-147l-26 -78c93 -2 151 -31 151 -107c0 -62 -36 -142 -167 -142c-63 0 -111 23 -127 34l35 63c19 -12 53 -28 93 -28c57 0 77 31 77 64c0 54 -57 60 -147 60z" />
    <glyph glyph-name="sixinferior" unicode="&#x2086;" horiz-adv-x="377" 
d="M321 328l7 -63c-91 -10 -146 -56 -167 -119c29 16 65 28 98 28c64 0 98 -40 98 -97c0 -9 -1 -24 -3 -34c-13 -76 -71 -128 -161 -128c-87 0 -126 53 -126 131c0 16 2 44 5 62c19 108 88 201 249 220zM272 45c1 7 2 14 2 20c0 30 -15 45 -50 45c-22 0 -50 -9 -71 -23
c-2 -14 -3 -29 -3 -42c0 -35 13 -64 52 -64c32 0 62 19 70 64z" />
    <glyph glyph-name="seveninferior" unicode="&#x2087;" horiz-adv-x="377" 
d="M111 243l12 67h278l-10 -57c-116 -87 -166 -192 -187 -312l-4 -21h-85l5 26c18 102 58 205 162 297h-171z" />
    <glyph glyph-name="eightinferior" unicode="&#x2088;" horiz-adv-x="377" 
d="M60 4c0 70 61 107 104 124c-23 12 -53 37 -53 79c0 56 53 109 145 109c86 0 114 -41 114 -79c0 -53 -40 -81 -79 -106c37 -21 59 -51 59 -89c0 -58 -44 -127 -162 -127c-97 0 -128 46 -128 89zM267 30c0 28 -26 49 -51 60c-38 -14 -72 -42 -72 -74c0 -20 14 -40 56 -40
s67 27 67 54zM246 259c-38 0 -56 -23 -56 -43c0 -18 14 -39 44 -54c27 14 56 42 56 66c0 15 -11 31 -44 31z" />
    <glyph glyph-name="nineinferior" unicode="&#x2089;" horiz-adv-x="377" 
d="M114 -99l-6 65c91 13 148 63 166 116c-30 -15 -63 -25 -97 -25c-64 0 -98 39 -98 97c0 9 1 25 3 35c14 77 73 127 160 127s127 -54 127 -133c0 -16 0 -40 -3 -59c-16 -110 -79 -202 -252 -223zM163 187c-1 -7 -1 -15 -1 -21c0 -29 16 -45 51 -45c22 0 50 8 68 21
c2 14 4 28 4 41c0 35 -11 66 -50 66c-32 0 -64 -15 -72 -62z" />
    <glyph glyph-name="zero.num" horiz-adv-x="377" 
d="M294 657c83 0 135 -47 135 -141c0 -19 -1 -38 -5 -62c-23 -144 -96 -198 -192 -198c-89 0 -137 50 -137 143c0 20 1 40 5 65c23 140 102 193 194 193zM239 326c44 0 79 24 97 126c4 23 5 44 5 60c0 53 -21 76 -56 76c-47 0 -80 -29 -98 -130c-4 -21 -5 -43 -5 -58
c0 -52 20 -74 57 -74z" />
    <glyph glyph-name="one.num" horiz-adv-x="377" 
d="M138 331h75l40 228l-88 -36l-18 57l137 71h80l-18 -68l-45 -252h70l-13 -70h-232z" />
    <glyph glyph-name="two.num" horiz-adv-x="377" 
d="M178 543l-35 56c48 33 99 58 160 58c74 0 107 -43 107 -96c0 -46 -19 -82 -74 -132l-106 -96h154l-13 -72h-274l10 58l152 139c36 33 57 60 57 90c0 23 -16 34 -39 34c-25 0 -61 -14 -99 -39z" />
    <glyph glyph-name="three.num" horiz-adv-x="377" 
d="M185 556l-27 54c29 17 89 47 155 47c67 0 102 -36 102 -83c0 -41 -18 -72 -61 -98c16 -29 31 -62 31 -97c0 -63 -41 -123 -155 -123c-48 0 -103 16 -129 32l33 62c26 -15 60 -26 95 -26c43 0 68 18 68 53c0 18 -8 41 -17 62c-26 -9 -54 -16 -82 -21l-14 60
c34 7 141 25 141 74c0 26 -17 35 -40 35c-24 0 -66 -15 -100 -31z" />
    <glyph glyph-name="four.num" horiz-adv-x="377" 
d="M313 516h55l-19 -104h61l-11 -66h-61l-16 -85h-87l15 87h-162l10 53l168 261l68 -33l-144 -217h73z" />
    <glyph glyph-name="five.num" horiz-adv-x="377" 
d="M148 449l63 202h207l-12 -68h-147l-26 -78c93 -2 151 -31 151 -107c0 -62 -36 -142 -167 -142c-63 0 -111 23 -127 34l35 63c19 -12 53 -28 93 -28c57 0 77 31 77 64c0 54 -57 60 -147 60z" />
    <glyph glyph-name="six.num" horiz-adv-x="377" 
d="M364 669l7 -63c-91 -10 -146 -56 -167 -119c29 16 65 28 98 28c64 0 98 -40 98 -97c0 -9 -1 -24 -3 -34c-13 -76 -71 -128 -161 -128c-87 0 -126 53 -126 131c0 16 2 44 5 62c19 108 88 201 249 220zM315 386c1 7 2 14 2 20c0 30 -15 45 -50 45c-22 0 -50 -9 -71 -23
c-2 -14 -3 -29 -3 -42c0 -35 13 -64 52 -64c32 0 62 19 70 64z" />
    <glyph glyph-name="seven.num" horiz-adv-x="377" 
d="M154 584l12 67h278l-10 -57c-116 -87 -166 -192 -187 -312l-4 -21h-85l5 26c18 102 58 205 162 297h-171z" />
    <glyph glyph-name="eight.num" horiz-adv-x="377" 
d="M103 345c0 70 61 107 104 124c-23 12 -53 37 -53 79c0 56 53 109 145 109c86 0 114 -41 114 -79c0 -53 -40 -81 -79 -106c37 -21 59 -51 59 -89c0 -58 -44 -127 -162 -127c-97 0 -128 46 -128 89zM310 371c0 28 -26 49 -51 60c-38 -14 -72 -42 -72 -74
c0 -20 14 -40 56 -40s67 27 67 54zM289 600c-38 0 -56 -23 -56 -43c0 -18 14 -39 44 -54c27 14 56 42 56 66c0 15 -11 31 -44 31z" />
    <glyph glyph-name="nine.num" horiz-adv-x="377" 
d="M157 242l-6 65c91 13 148 63 166 116c-30 -15 -63 -25 -97 -25c-64 0 -98 39 -98 97c0 9 1 25 3 35c14 77 73 127 160 127s127 -54 127 -133c0 -16 0 -40 -3 -59c-16 -110 -79 -202 -252 -223zM206 528c-1 -7 -1 -15 -1 -21c0 -29 16 -45 51 -45c22 0 50 8 68 21
c2 14 4 28 4 41c0 35 -11 66 -50 66c-32 0 -64 -15 -72 -62z" />
    <glyph glyph-name="zero.denom" horiz-adv-x="377" 
d="M254 396c83 0 135 -47 135 -141c0 -19 -1 -38 -5 -62c-23 -144 -96 -198 -192 -198c-89 0 -137 50 -137 143c0 20 1 40 5 65c23 140 102 193 194 193zM199 65c44 0 79 24 97 126c4 23 5 44 5 60c0 53 -21 76 -56 76c-47 0 -80 -29 -98 -130c-4 -21 -5 -43 -5 -58
c0 -52 20 -74 57 -74z" />
    <glyph glyph-name="one.denom" horiz-adv-x="377" 
d="M97 70h75l40 228l-88 -36l-18 57l137 71h80l-18 -68l-45 -252h70l-13 -70h-232z" />
    <glyph glyph-name="two.denom" horiz-adv-x="377" 
d="M127 282l-35 56c48 33 99 58 160 58c74 0 107 -43 107 -96c0 -46 -19 -82 -74 -132l-106 -96h154l-13 -72h-274l10 58l152 139c36 33 57 60 57 90c0 23 -16 34 -39 34c-25 0 -61 -14 -99 -39z" />
    <glyph glyph-name="three.denom" horiz-adv-x="377" 
d="M124 295l-27 54c29 17 89 47 155 47c67 0 102 -36 102 -83c0 -41 -18 -72 -61 -98c16 -29 31 -62 31 -97c0 -63 -41 -123 -155 -123c-48 0 -103 16 -129 32l33 62c26 -15 60 -26 95 -26c43 0 68 18 68 53c0 18 -8 41 -17 62c-26 -9 -54 -16 -82 -21l-14 60
c34 7 141 25 141 74c0 26 -17 35 -40 35c-24 0 -66 -15 -100 -31z" />
    <glyph glyph-name="four.denom" horiz-adv-x="377" 
d="M283 255h55l-19 -104h61l-11 -66h-61l-16 -85h-87l15 87h-162l10 53l168 261l68 -33l-144 -217h73z" />
    <glyph glyph-name="five.denom" horiz-adv-x="377" 
d="M96 188l63 202h207l-12 -68h-147l-26 -78c93 -2 151 -31 151 -107c0 -62 -36 -142 -167 -142c-63 0 -111 23 -127 34l35 63c19 -12 53 -28 93 -28c57 0 77 31 77 64c0 54 -57 60 -147 60z" />
    <glyph glyph-name="six.denom" horiz-adv-x="377" 
d="M324 408l7 -63c-91 -10 -146 -56 -167 -119c29 16 65 28 98 28c64 0 98 -40 98 -97c0 -9 -1 -24 -3 -34c-13 -76 -71 -128 -161 -128c-87 0 -126 53 -126 131c0 16 2 44 5 62c19 108 88 201 249 220zM275 125c1 7 2 14 2 20c0 30 -15 45 -50 45c-22 0 -50 -9 -71 -23
c-2 -14 -3 -29 -3 -42c0 -35 13 -64 52 -64c32 0 62 19 70 64z" />
    <glyph glyph-name="seven.denom" horiz-adv-x="377" 
d="M124 323l12 67h278l-10 -57c-116 -87 -166 -192 -187 -312l-4 -21h-85l5 26c18 102 58 205 162 297h-171z" />
    <glyph glyph-name="eight.denom" horiz-adv-x="377" 
d="M63 84c0 70 61 107 104 124c-23 12 -53 37 -53 79c0 56 53 109 145 109c86 0 114 -41 114 -79c0 -53 -40 -81 -79 -106c37 -21 59 -51 59 -89c0 -58 -44 -127 -162 -127c-97 0 -128 46 -128 89zM270 110c0 28 -26 49 -51 60c-38 -14 -72 -42 -72 -74c0 -20 14 -40 56 -40
s67 27 67 54zM249 339c-38 0 -56 -23 -56 -43c0 -18 14 -39 44 -54c27 14 56 42 56 66c0 15 -11 31 -44 31z" />
    <glyph glyph-name="nine.denom" horiz-adv-x="377" 
d="M127 -19l-6 65c91 13 148 63 166 116c-30 -15 -63 -25 -97 -25c-64 0 -98 39 -98 97c0 9 1 25 3 35c14 77 73 127 160 127s127 -54 127 -133c0 -16 0 -40 -3 -59c-16 -110 -79 -202 -252 -223zM176 267c-1 -7 -1 -15 -1 -21c0 -29 16 -45 51 -45c22 0 50 8 68 21
c2 14 4 28 4 41c0 35 -11 66 -50 66c-32 0 -64 -15 -72 -62z" />
    <glyph glyph-name="onehalf" unicode="&#xbd;" horiz-adv-x="825" 
d="M107 331h75l40 228l-88 -36l-18 57l137 71h80l-18 -68l-45 -252h70l-13 -70h-232zM302 -9l-73 36l403 627l75 -35zM621 282l-35 56c48 33 99 58 160 58c74 0 107 -43 107 -96c0 -46 -19 -82 -74 -132l-106 -96h154l-13 -72h-274l10 58l152 139c36 33 57 60 57 90
c0 23 -16 34 -39 34c-25 0 -61 -14 -99 -39z" />
    <glyph glyph-name="onequarter" unicode="&#xbc;" horiz-adv-x="825" 
d="M105 331h75l40 228l-88 -36l-18 57l137 71h80l-18 -68l-45 -252h70l-13 -70h-232zM323 -9l-73 36l403 627l75 -35zM746 255h55l-19 -104h61l-11 -66h-61l-16 -85h-87l15 87h-162l10 53l168 261l68 -33l-144 -217h73z" />
    <glyph glyph-name="threequarters" unicode="&#xbe;" horiz-adv-x="825" 
d="M164 556l-27 54c29 17 89 47 155 47c67 0 102 -36 102 -83c0 -41 -18 -72 -61 -98c16 -29 31 -62 31 -97c0 -63 -41 -123 -155 -123c-48 0 -103 16 -129 32l33 62c26 -15 60 -26 95 -26c43 0 68 18 68 53c0 18 -8 41 -17 62c-26 -9 -54 -16 -82 -21l-14 60
c34 7 141 25 141 74c0 26 -17 35 -40 35c-24 0 -66 -15 -100 -31zM315 -9l-73 36l403 627l75 -35zM733 255h55l-19 -104h61l-11 -66h-61l-16 -85h-87l15 87h-162l10 53l168 261l68 -33l-144 -217h73z" />
    <glyph glyph-name="onethird" unicode="&#x2153;" horiz-adv-x="825" 
d="M113 331h75l40 228l-88 -36l-18 57l137 71h80l-18 -68l-45 -252h70l-13 -70h-232zM324 -9l-73 36l403 627l75 -35zM634 295l-27 54c29 17 89 47 155 47c67 0 102 -36 102 -83c0 -41 -18 -72 -61 -98c16 -29 31 -62 31 -97c0 -63 -41 -123 -155 -123
c-48 0 -103 16 -129 32l33 62c26 -15 60 -26 95 -26c43 0 68 18 68 53c0 18 -8 41 -17 62c-26 -9 -54 -16 -82 -21l-14 60c34 7 141 25 141 74c0 26 -17 35 -40 35c-24 0 -66 -15 -100 -31z" />
    <glyph glyph-name="twothirds" unicode="&#x2154;" horiz-adv-x="825" 
d="M177 543l-35 56c48 33 99 58 160 58c74 0 107 -43 107 -96c0 -46 -19 -82 -74 -132l-106 -96h154l-13 -72h-274l10 58l152 139c36 33 57 60 57 90c0 23 -16 34 -39 34c-25 0 -61 -14 -99 -39zM343 -9l-73 36l403 627l75 -35zM646 295l-27 54c29 17 89 47 155 47
c67 0 102 -36 102 -83c0 -41 -18 -72 -61 -98c16 -29 31 -62 31 -97c0 -63 -41 -123 -155 -123c-48 0 -103 16 -129 32l33 62c26 -15 60 -26 95 -26c43 0 68 18 68 53c0 18 -8 41 -17 62c-26 -9 -54 -16 -82 -21l-14 60c34 7 141 25 141 74c0 26 -17 35 -40 35
c-24 0 -66 -15 -100 -31z" />
    <glyph glyph-name="onefifth" unicode="&#xf500;" horiz-adv-x="825" 
d="M104 331h75l40 228l-88 -36l-18 57l137 71h80l-18 -68l-45 -252h70l-13 -70h-232zM322 -9l-73 36l403 627l75 -35zM584 188l63 202h207l-12 -68h-147l-26 -78c93 -2 151 -31 151 -107c0 -62 -36 -142 -167 -142c-63 0 -111 23 -127 34l35 63c19 -12 53 -28 93 -28
c57 0 77 31 77 64c0 54 -57 60 -147 60z" />
    <glyph glyph-name="twofifths" unicode="&#xf501;" horiz-adv-x="825" 
d="M160 543l-35 56c48 33 99 58 160 58c74 0 107 -43 107 -96c0 -46 -19 -82 -74 -132l-106 -96h154l-13 -72h-274l10 58l152 139c36 33 57 60 57 90c0 23 -16 34 -39 34c-25 0 -61 -14 -99 -39zM331 -9l-73 36l403 627l75 -35zM588 188l63 202h207l-12 -68h-147l-26 -78
c93 -2 151 -31 151 -107c0 -62 -36 -142 -167 -142c-63 0 -111 23 -127 34l35 63c19 -12 53 -28 93 -28c57 0 77 31 77 64c0 54 -57 60 -147 60z" />
    <glyph glyph-name="threefifths" unicode="&#xf502;" horiz-adv-x="825" 
d="M178 556l-27 54c29 17 89 47 155 47c67 0 102 -36 102 -83c0 -41 -18 -72 -61 -98c16 -29 31 -62 31 -97c0 -63 -41 -123 -155 -123c-48 0 -103 16 -129 32l33 62c26 -15 60 -26 95 -26c43 0 68 18 68 53c0 18 -8 41 -17 62c-26 -9 -54 -16 -82 -21l-14 60
c34 7 141 25 141 74c0 26 -17 35 -40 35c-24 0 -66 -15 -100 -31zM330 -9l-73 36l403 627l75 -35zM597 188l63 202h207l-12 -68h-147l-26 -78c93 -2 151 -31 151 -107c0 -62 -36 -142 -167 -142c-63 0 -111 23 -127 34l35 63c19 -12 53 -28 93 -28c57 0 77 31 77 64
c0 54 -57 60 -147 60z" />
    <glyph glyph-name="fourfifths" unicode="&#xf503;" horiz-adv-x="825" 
d="M310 516h55l-19 -104h61l-11 -66h-61l-16 -85h-87l15 87h-162l10 53l168 261l68 -33l-144 -217h73zM338 -9l-73 36l403 627l75 -35zM599 188l63 202h207l-12 -68h-147l-26 -78c93 -2 151 -31 151 -107c0 -62 -36 -142 -167 -142c-63 0 -111 23 -127 34l35 63
c19 -12 53 -28 93 -28c57 0 77 31 77 64c0 54 -57 60 -147 60z" />
    <glyph glyph-name="onesixth" unicode="&#xf504;" horiz-adv-x="825" 
d="M114 331h75l40 228l-88 -36l-18 57l137 71h80l-18 -68l-45 -252h70l-13 -70h-232zM321 -9l-73 36l403 627l75 -35zM809 408l7 -63c-91 -10 -146 -56 -167 -119c29 16 65 28 98 28c64 0 98 -40 98 -97c0 -9 -1 -24 -3 -34c-13 -76 -71 -128 -161 -128
c-87 0 -126 53 -126 131c0 16 2 44 5 62c19 108 88 201 249 220zM760 125c1 7 2 14 2 20c0 30 -15 45 -50 45c-22 0 -50 -9 -71 -23c-2 -14 -3 -29 -3 -42c0 -35 13 -64 52 -64c32 0 62 19 70 64z" />
    <glyph glyph-name="fivesixths" unicode="&#xf505;" horiz-adv-x="825" 
d="M326 -9l-73 36l403 627l75 -35zM809 408l7 -63c-91 -10 -146 -56 -167 -119c29 16 65 28 98 28c64 0 98 -40 98 -97c0 -9 -1 -24 -3 -34c-13 -76 -71 -128 -161 -128c-87 0 -126 53 -126 131c0 16 2 44 5 62c19 108 88 201 249 220zM760 125c1 7 2 14 2 20
c0 30 -15 45 -50 45c-22 0 -50 -9 -71 -23c-2 -14 -3 -29 -3 -42c0 -35 13 -64 52 -64c32 0 62 19 70 64zM145 449l63 202h207l-12 -68h-147l-26 -78c93 -2 151 -31 151 -107c0 -62 -36 -142 -167 -142c-63 0 -111 23 -127 34l35 63c19 -12 53 -28 93 -28c57 0 77 31 77 64
c0 54 -57 60 -147 60z" />
    <glyph glyph-name="oneeighth" unicode="&#x215b;" horiz-adv-x="825" 
d="M109 331h75l40 228l-88 -36l-18 57l137 71h80l-18 -68l-45 -252h70l-13 -70h-232zM317 -9l-73 36l403 627l75 -35zM542 84c0 70 61 107 104 124c-23 12 -53 37 -53 79c0 56 53 109 145 109c86 0 114 -41 114 -79c0 -53 -40 -81 -79 -106c37 -21 59 -51 59 -89
c0 -58 -44 -127 -162 -127c-97 0 -128 46 -128 89zM749 110c0 28 -26 49 -51 60c-38 -14 -72 -42 -72 -74c0 -20 14 -40 56 -40s67 27 67 54zM728 339c-38 0 -56 -23 -56 -43c0 -18 14 -39 44 -54c27 14 56 42 56 66c0 15 -11 31 -44 31z" />
    <glyph glyph-name="threeeighths" unicode="&#x215c;" horiz-adv-x="825" 
d="M169 556l-27 54c29 17 89 47 155 47c67 0 102 -36 102 -83c0 -41 -18 -72 -61 -98c16 -29 31 -62 31 -97c0 -63 -41 -123 -155 -123c-48 0 -103 16 -129 32l33 62c26 -15 60 -26 95 -26c43 0 68 18 68 53c0 18 -8 41 -17 62c-26 -9 -54 -16 -82 -21l-14 60
c34 7 141 25 141 74c0 26 -17 35 -40 35c-24 0 -66 -15 -100 -31zM315 -9l-73 36l403 627l75 -35zM542 84c0 70 61 107 104 124c-23 12 -53 37 -53 79c0 56 53 109 145 109c86 0 114 -41 114 -79c0 -53 -40 -81 -79 -106c37 -21 59 -51 59 -89c0 -58 -44 -127 -162 -127
c-97 0 -128 46 -128 89zM749 110c0 28 -26 49 -51 60c-38 -14 -72 -42 -72 -74c0 -20 14 -40 56 -40s67 27 67 54zM728 339c-38 0 -56 -23 -56 -43c0 -18 14 -39 44 -54c27 14 56 42 56 66c0 15 -11 31 -44 31z" />
    <glyph glyph-name="fiveeighths" unicode="&#x215d;" horiz-adv-x="825" 
d="M142 449l63 202h207l-12 -68h-147l-26 -78c93 -2 151 -31 151 -107c0 -62 -36 -142 -167 -142c-63 0 -111 23 -127 34l35 63c19 -12 53 -28 93 -28c57 0 77 31 77 64c0 54 -57 60 -147 60zM316 -9l-73 36l403 627l75 -35zM544 84c0 70 61 107 104 124
c-23 12 -53 37 -53 79c0 56 53 109 145 109c86 0 114 -41 114 -79c0 -53 -40 -81 -79 -106c37 -21 59 -51 59 -89c0 -58 -44 -127 -162 -127c-97 0 -128 46 -128 89zM751 110c0 28 -26 49 -51 60c-38 -14 -72 -42 -72 -74c0 -20 14 -40 56 -40s67 27 67 54zM730 339
c-38 0 -56 -23 -56 -43c0 -18 14 -39 44 -54c27 14 56 42 56 66c0 15 -11 31 -44 31z" />
    <glyph glyph-name="seveneighths" unicode="&#x215e;" horiz-adv-x="825" 
d="M135 584l12 67h278l-10 -57c-116 -87 -166 -192 -187 -312l-4 -21h-85l5 26c18 102 58 205 162 297h-171zM268 -9l-73 36l403 627l75 -35zM528 84c0 70 61 107 104 124c-23 12 -53 37 -53 79c0 56 53 109 145 109c86 0 114 -41 114 -79c0 -53 -40 -81 -79 -106
c37 -21 59 -51 59 -89c0 -58 -44 -127 -162 -127c-97 0 -128 46 -128 89zM735 110c0 28 -26 49 -51 60c-38 -14 -72 -42 -72 -74c0 -20 14 -40 56 -40s67 27 67 54zM714 339c-38 0 -56 -23 -56 -43c0 -18 14 -39 44 -54c27 14 56 42 56 66c0 15 -11 31 -44 31z" />
    <glyph glyph-name="oneseventh" unicode="&#xf506;" horiz-adv-x="825" 
d="M106 331h75l40 228l-88 -36l-18 57l137 71h80l-18 -68l-45 -252h70l-13 -70h-232zM304 -9l-73 36l403 627l75 -35zM590 323l12 67h278l-10 -57c-116 -87 -166 -192 -187 -312l-4 -21h-85l5 26c18 102 58 205 162 297h-171z" />
    <glyph glyph-name="twosevenths" unicode="&#xf507;" horiz-adv-x="825" 
d="M162 543l-35 56c48 33 99 58 160 58c74 0 107 -43 107 -96c0 -46 -19 -82 -74 -132l-106 -96h154l-13 -72h-274l10 58l152 139c36 33 57 60 57 90c0 23 -16 34 -39 34c-25 0 -61 -14 -99 -39zM320 -9l-73 36l403 627l75 -35zM595 323l12 67h278l-10 -57
c-116 -87 -166 -192 -187 -312l-4 -21h-85l5 26c18 102 58 205 162 297h-171z" />
    <glyph glyph-name="threesevenths" unicode="&#xf508;" horiz-adv-x="825" 
d="M163 556l-27 54c29 17 89 47 155 47c67 0 102 -36 102 -83c0 -41 -18 -72 -61 -98c16 -29 31 -62 31 -97c0 -63 -41 -123 -155 -123c-48 0 -103 16 -129 32l33 62c26 -15 60 -26 95 -26c43 0 68 18 68 53c0 18 -8 41 -17 62c-26 -9 -54 -16 -82 -21l-14 60
c34 7 141 25 141 74c0 26 -17 35 -40 35c-24 0 -66 -15 -100 -31zM301 -9l-73 36l403 627l75 -35zM595 323l12 67h278l-10 -57c-116 -87 -166 -192 -187 -312l-4 -21h-85l5 26c18 102 58 205 162 297h-171z" />
    <glyph glyph-name="foursevenths" unicode="&#xf509;" horiz-adv-x="825" 
d="M305 516h55l-19 -104h61l-11 -66h-61l-16 -85h-87l15 87h-162l10 53l168 261l68 -33l-144 -217h73zM327 -9l-73 36l403 627l75 -35zM607 323l12 67h278l-10 -57c-116 -87 -166 -192 -187 -312l-4 -21h-85l5 26c18 102 58 205 162 297h-171z" />
    <glyph glyph-name="fivesevenths" unicode="&#xf50a;" horiz-adv-x="825" 
d="M137 449l63 202h207l-12 -68h-147l-26 -78c93 -2 151 -31 151 -107c0 -62 -36 -142 -167 -142c-63 0 -111 23 -127 34l35 63c19 -12 53 -28 93 -28c57 0 77 31 77 64c0 54 -57 60 -147 60zM312 -9l-73 36l403 627l75 -35zM597 323l12 67h278l-10 -57
c-116 -87 -166 -192 -187 -312l-4 -21h-85l5 26c18 102 58 205 162 297h-171z" />
    <glyph glyph-name="sixsevenths" unicode="&#xf50b;" horiz-adv-x="825" 
d="M343 669l7 -63c-91 -10 -146 -56 -167 -119c29 16 65 28 98 28c64 0 98 -40 98 -97c0 -9 -1 -24 -3 -34c-13 -76 -71 -128 -161 -128c-87 0 -126 53 -126 131c0 16 2 44 5 62c19 108 88 201 249 220zM294 386c1 7 2 14 2 20c0 30 -15 45 -50 45c-22 0 -50 -9 -71 -23
c-2 -14 -3 -29 -3 -42c0 -35 13 -64 52 -64c32 0 62 19 70 64zM308 -9l-73 36l403 627l75 -35zM594 323l12 67h278l-10 -57c-116 -87 -166 -192 -187 -312l-4 -21h-85l5 26c18 102 58 205 162 297h-171z" />
    <glyph glyph-name="oneninth" unicode="&#xf50c;" horiz-adv-x="825" 
d="M104 331h75l40 228l-88 -36l-18 57l137 71h80l-18 -68l-45 -252h70l-13 -70h-232zM309 -9l-73 36l403 627l75 -35zM608 -19l-6 65c91 13 148 63 166 116c-30 -15 -63 -25 -97 -25c-64 0 -98 39 -98 97c0 9 1 25 3 35c14 77 73 127 160 127s127 -54 127 -133
c0 -16 0 -40 -3 -59c-16 -110 -79 -202 -252 -223zM657 267c-1 -7 -1 -15 -1 -21c0 -29 16 -45 51 -45c22 0 50 8 68 21c2 14 4 28 4 41c0 35 -11 66 -50 66c-32 0 -64 -15 -72 -62z" />
    <glyph glyph-name="twoninths" unicode="&#xf50d;" horiz-adv-x="825" 
d="M166 543l-35 56c48 33 99 58 160 58c74 0 107 -43 107 -96c0 -46 -19 -82 -74 -132l-106 -96h154l-13 -72h-274l10 58l152 139c36 33 57 60 57 90c0 23 -16 34 -39 34c-25 0 -61 -14 -99 -39zM333 -9l-73 36l403 627l75 -35zM614 -19l-6 65c91 13 148 63 166 116
c-30 -15 -63 -25 -97 -25c-64 0 -98 39 -98 97c0 9 1 25 3 35c14 77 73 127 160 127s127 -54 127 -133c0 -16 0 -40 -3 -59c-16 -110 -79 -202 -252 -223zM663 267c-1 -7 -1 -15 -1 -21c0 -29 16 -45 51 -45c22 0 50 8 68 21c2 14 4 28 4 41c0 35 -11 66 -50 66
c-32 0 -64 -15 -72 -62z" />
    <glyph glyph-name="fourninths" unicode="&#xf50e;" horiz-adv-x="825" 
d="M306 516h55l-19 -104h61l-11 -66h-61l-16 -85h-87l15 87h-162l10 53l168 261l68 -33l-144 -217h73zM325 -9l-73 36l403 627l75 -35zM614 -19l-6 65c91 13 148 63 166 116c-30 -15 -63 -25 -97 -25c-64 0 -98 39 -98 97c0 9 1 25 3 35c14 77 73 127 160 127
s127 -54 127 -133c0 -16 0 -40 -3 -59c-16 -110 -79 -202 -252 -223zM663 267c-1 -7 -1 -15 -1 -21c0 -29 16 -45 51 -45c22 0 50 8 68 21c2 14 4 28 4 41c0 35 -11 66 -50 66c-32 0 -64 -15 -72 -62z" />
    <glyph glyph-name="fiveninths" unicode="&#xf50f;" horiz-adv-x="825" 
d="M138 449l63 202h207l-12 -68h-147l-26 -78c93 -2 151 -31 151 -107c0 -62 -36 -142 -167 -142c-63 0 -111 23 -127 34l35 63c19 -12 53 -28 93 -28c57 0 77 31 77 64c0 54 -57 60 -147 60zM307 -9l-73 36l403 627l75 -35zM595 -19l-6 65c91 13 148 63 166 116
c-30 -15 -63 -25 -97 -25c-64 0 -98 39 -98 97c0 9 1 25 3 35c14 77 73 127 160 127s127 -54 127 -133c0 -16 0 -40 -3 -59c-16 -110 -79 -202 -252 -223zM644 267c-1 -7 -1 -15 -1 -21c0 -29 16 -45 51 -45c22 0 50 8 68 21c2 14 4 28 4 41c0 35 -11 66 -50 66
c-32 0 -64 -15 -72 -62z" />
    <glyph glyph-name="sevenninths" unicode="&#xf510;" horiz-adv-x="825" 
d="M133 584l12 67h278l-10 -57c-116 -87 -166 -192 -187 -312l-4 -21h-85l5 26c18 102 58 205 162 297h-171zM253 -9l-73 36l403 627l75 -35zM579 -19l-6 65c91 13 148 63 166 116c-30 -15 -63 -25 -97 -25c-64 0 -98 39 -98 97c0 9 1 25 3 35c14 77 73 127 160 127
s127 -54 127 -133c0 -16 0 -40 -3 -59c-16 -110 -79 -202 -252 -223zM628 267c-1 -7 -1 -15 -1 -21c0 -29 16 -45 51 -45c22 0 50 8 68 21c2 14 4 28 4 41c0 35 -11 66 -50 66c-32 0 -64 -15 -72 -62z" />
    <glyph glyph-name="eightninths" unicode="&#xf511;" horiz-adv-x="825" 
d="M88 345c0 70 61 107 104 124c-23 12 -53 37 -53 79c0 56 53 109 145 109c86 0 114 -41 114 -79c0 -53 -40 -81 -79 -106c37 -21 59 -51 59 -89c0 -58 -44 -127 -162 -127c-97 0 -128 46 -128 89zM295 371c0 28 -26 49 -51 60c-38 -14 -72 -42 -72 -74
c0 -20 14 -40 56 -40s67 27 67 54zM274 600c-38 0 -56 -23 -56 -43c0 -18 14 -39 44 -54c27 14 56 42 56 66c0 15 -11 31 -44 31zM309 -9l-73 36l403 627l75 -35zM595 -19l-6 65c91 13 148 63 166 116c-30 -15 -63 -25 -97 -25c-64 0 -98 39 -98 97c0 9 1 25 3 35
c14 77 73 127 160 127s127 -54 127 -133c0 -16 0 -40 -3 -59c-16 -110 -79 -202 -252 -223zM644 267c-1 -7 -1 -15 -1 -21c0 -29 16 -45 51 -45c22 0 50 8 68 21c2 14 4 28 4 41c0 35 -11 66 -50 66c-32 0 -64 -15 -72 -62z" />
    <glyph glyph-name="minus" unicode="&#x2212;" 
d="M534 362l-17 -96h-405l17 96h405z" />
    <glyph glyph-name="uni2215" unicode="&#x2215;" horiz-adv-x="476" 
d="M113 -124l-95 38l431 814l97 -38z" />
    <glyph glyph-name="uni2219" unicode="&#x2219;" horiz-adv-x="315" 
d="M142 294c0 45 35 80 82 80c40 0 60 -22 60 -55c0 -43 -31 -80 -81 -80c-41 0 -61 22 -61 55z" />
    <glyph glyph-name="approxequal" unicode="&#x2248;" horiz-adv-x="620" 
d="M440 139c-91 0 -135 68 -193 68c-36 0 -69 -29 -102 -64l-58 56c48 59 103 104 167 104c78 0 126 -70 193 -70c35 0 65 21 102 63l60 -57c-50 -64 -108 -100 -169 -100zM474 346c-90 0 -136 69 -193 69c-37 0 -69 -30 -102 -65l-58 56c49 58 103 105 167 105
c78 0 126 -70 193 -70c35 0 65 20 103 62l58 -58c-50 -63 -107 -99 -168 -99z" />
    <glyph glyph-name="notequal" unicode="&#x2260;" 
d="M516 259l-18 -97h-199l-48 -105h-99l47 105h-106l18 97h132l43 95h-159l18 97h186l47 103h96l-46 -103h122l-18 -97h-148l-42 -95h174z" />
    <glyph glyph-name="lessequal" unicode="&#x2264;" 
d="M483 116l-17 -97h-390l17 97h390zM548 483l-284 -122l242 -125l-53 -85l-323 171l15 82l370 168z" />
    <glyph glyph-name="greaterequal" unicode="&#x2265;" 
d="M82 19l17 97h390l-17 -97h-390zM406 373l-240 123l47 81l326 -173l-15 -82l-375 -167l-34 87z" />
    <glyph glyph-name="less" unicode="&#x3c;" 
d="M523 536l31 -90l-301 -128l252 -131l-54 -87l-333 181l14 77z" />
    <glyph glyph-name="equal" unicode="=" 
d="M545 450l-17 -96h-405l17 96h405zM511 259l-18 -96h-405l18 96h405z" />
    <glyph glyph-name="greater" unicode="&#x3e;" 
d="M395 327l-248 128l51 82l334 -178l-14 -78l-388 -176l-34 90z" />
    <glyph glyph-name="logicalnot" unicode="&#xac;" 
d="M415 171l26 145h-333l17 96h429l-42 -241h-97z" />
    <glyph glyph-name="plus" unicode="+" 
d="M281 364l28 162h101l-28 -162h154l-17 -98h-154l-28 -159h-102l29 159h-155l17 98h155z" />
    <glyph glyph-name="plusminus" unicode="&#xb1;" 
d="M279 364l28 156h102l-28 -156h154l-17 -98h-154l-24 -133h154l-17 -98h-405l17 98h149l24 133h-149l17 98h149z" />
    <glyph glyph-name="divide" unicode="&#xf7;" 
d="M280 475c0 43 32 81 78 81c35 0 55 -23 55 -55c0 -44 -33 -81 -78 -81c-36 0 -55 22 -55 55zM225 120c0 43 32 81 78 81c35 0 55 -23 55 -55c0 -44 -33 -81 -78 -81c-36 0 -55 22 -55 55zM534 363l-17 -97h-405l17 97h405z" />
    <glyph glyph-name="multiply" unicode="&#xd7;" 
d="M253 314l-95 114l84 71l94 -114l133 114l59 -72l-134 -114l92 -110l-84 -72l-91 111l-133 -113l-59 72z" />
    <glyph glyph-name="partialdiff" unicode="&#x2202;" horiz-adv-x="555" 
d="M242 583l38 86c196 -38 269 -155 269 -311c0 -172 -67 -373 -281 -373c-132 0 -182 85 -182 181c0 152 99 254 233 254c52 0 93 -17 125 -43l3 1c-5 99 -83 182 -205 205zM284 71c80 0 122 79 140 182c2 11 4 26 5 37c-21 24 -60 45 -102 45c-78 0 -125 -72 -125 -162
c0 -62 28 -102 82 -102z" />
    <glyph glyph-name="Omega" unicode="&#x2126;" horiz-adv-x="781" 
d="M249 292c0 -102 48 -173 101 -207l-14 -85h-284l19 106h153c-47 37 -97 123 -97 209c0 211 158 344 365 344c180 0 286 -92 286 -249c0 -144 -85 -245 -180 -304h151l-19 -106h-277l15 86c68 42 180 123 180 293c0 117 -69 177 -167 177c-117 0 -232 -77 -232 -264z" />
    <glyph glyph-name="Delta" unicode="&#x2206;" horiz-adv-x="669" 
d="M652 0h-636l373 657h124zM520 93l-88 437l-32 -51c-71 -128 -142 -257 -212 -386h332z" />
    <glyph glyph-name="product" unicode="&#x220f;" horiz-adv-x="718" 
d="M623 -132h-123l120 683h-327l-120 -683h-124l139 789h574z" />
    <glyph glyph-name="summation" unicode="&#x2211;" horiz-adv-x="566" 
d="M530 -132h-526l16 95l312 305l-197 294l17 95h496l-19 -107h-342l187 -291l-289 -284h363z" />
    <glyph glyph-name="uni0394" unicode="&#x394;" horiz-adv-x="669" 
d="M652 0h-636l373 657h124zM520 93l-88 437l-32 -51c-71 -128 -142 -257 -212 -386h332z" />
    <glyph glyph-name="uni03A9" unicode="&#x3a9;" horiz-adv-x="781" 
d="M249 292c0 -102 48 -173 101 -207l-14 -85h-284l19 106h153c-47 37 -97 123 -97 209c0 211 158 344 365 344c180 0 286 -92 286 -249c0 -144 -85 -245 -180 -304h151l-19 -106h-277l15 86c68 42 180 123 180 293c0 117 -69 177 -167 177c-117 0 -232 -77 -232 -264z" />
    <glyph glyph-name="uni03BC" unicode="&#x3bc;" horiz-adv-x="584" 
d="M595 503l-70 -400c-5 -25 2 -33 19 -33c11 0 22 3 40 11l4 -69c-32 -16 -64 -24 -92 -24c-40 0 -75 25 -78 67c-33 -37 -62 -67 -133 -67c-53 0 -85 27 -96 49l-44 -253h-107l127 719h111l-55 -312c-12 -71 8 -119 77 -119c63 0 117 56 132 138l52 293h113z" />
    <glyph glyph-name="pi" unicode="&#x3c0;" horiz-adv-x="630" 
d="M667 410h-78l-51 -290c-6 -35 -5 -50 21 -50c16 0 31 4 44 8l3 -71c-26 -12 -66 -20 -99 -20c-82 0 -96 48 -86 106l56 317h-169l-73 -410h-112l73 410h-78l16 93h549z" />
    <glyph glyph-name="mu" unicode="&#xb5;" horiz-adv-x="584" 
d="M595 503l-70 -400c-5 -25 2 -33 19 -33c11 0 22 3 40 11l4 -69c-32 -16 -64 -24 -92 -24c-40 0 -75 25 -78 67c-33 -37 -62 -67 -133 -67c-53 0 -85 27 -96 49l-44 -253h-107l127 719h111l-55 -312c-12 -71 8 -119 77 -119c63 0 117 56 132 138l52 293h113z" />
    <glyph glyph-name="radical" unicode="&#x221a;" horiz-adv-x="666" 
d="M810 731l-394 -745h-112l-71 405l-104 -50l-21 82l218 101l62 -383l305 590h117z" />
    <glyph glyph-name="infinity" unicode="&#x221e;" horiz-adv-x="764" 
d="M782 357c0 -101 -66 -164 -155 -164c-77 0 -141 48 -184 97c-51 -60 -110 -99 -179 -99c-104 0 -164 63 -164 154c0 87 66 161 166 161c77 0 126 -36 178 -107c61 69 111 108 189 108c100 0 149 -71 149 -150zM684 350c0 42 -22 71 -67 71c-42 0 -74 -32 -108 -74
c30 -41 70 -72 109 -72c43 0 66 37 66 75zM376 345c-34 54 -66 76 -104 76c-51 0 -76 -34 -76 -74c0 -42 26 -72 74 -72c36 0 72 22 106 70z" />
    <glyph glyph-name="integral" unicode="&#x222b;" horiz-adv-x="390" 
d="M407 594c-23 7 -46 12 -67 12c-35 0 -52 -12 -49 -69c1 -27 3 -51 4 -72l25 -408c1 -18 4 -53 4 -69c3 -81 -38 -144 -131 -144c-40 0 -77 6 -112 20l16 75c23 -7 44 -12 65 -12c34 0 49 10 47 61c0 18 -2 37 -3 52l-25 434c-1 17 -3 38 -3 73c0 68 29 140 136 140
c36 0 73 -7 105 -18z" />
    <glyph glyph-name="lozenge" unicode="&#x25ca;" horiz-adv-x="581" 
d="M586 331l-189 -331h-102l-190 329l191 328h100zM471 331l-126 220l-123 -221l126 -227z" />
    <glyph glyph-name="commaaccent" horiz-adv-x="500" 
d="M100 -260l94 199c33 -1 78 -5 78 -39c0 -15 -12 -35 -25 -53c-29 -40 -67 -81 -107 -128z" />
    <glyph glyph-name="revcommaaccent" horiz-adv-x="500" 
d="M463 775l-95 -200c-33 2 -78 7 -78 40c0 16 12 35 25 53c29 40 67 82 107 129z" />
    <glyph glyph-name="tilde.cap" horiz-adv-x="500" 
d="M241 733l4 74c30 20 62 29 88 29c52 0 85 -26 131 -26c21 0 45 7 65 18l-5 -79c-23 -11 -43 -18 -71 -18c-44 0 -94 22 -134 22c-27 0 -50 -6 -78 -20z" />
    <glyph glyph-name="ring.cap" horiz-adv-x="500" 
d="M282 750c0 57 46 107 111 107c55 0 82 -35 82 -80c0 -59 -45 -106 -111 -106c-55 0 -82 35 -82 79zM385 805c-24 0 -43 -20 -43 -49c0 -19 10 -34 31 -34c26 0 43 22 43 51c0 17 -9 32 -31 32z" />
    <glyph glyph-name="circumflex.cap" horiz-adv-x="500" 
d="M259 709l-38 35c50 50 96 92 131 120c20 16 33 24 53 24c19 0 32 -11 48 -29c26 -29 59 -73 86 -115l-41 -34l-104 90z" />
    <glyph glyph-name="acute.cap" horiz-adv-x="500" 
d="M276 748l181 148c24 -15 49 -38 49 -61s-20 -40 -50 -56c-43 -23 -101 -47 -152 -70z" />
    <glyph glyph-name="grave.cap" horiz-adv-x="500" 
d="M357 902l140 -158l-33 -35c-47 27 -101 59 -136 81c-22 14 -31 27 -31 45c0 29 26 49 60 67z" />
    <glyph glyph-name="dieresis.cap" horiz-adv-x="500" 
d="M422 773c0 39 33 71 76 71c32 0 53 -23 53 -52c0 -39 -34 -71 -76 -71c-33 0 -53 22 -53 52zM227 773c0 39 33 71 76 71c32 0 53 -23 53 -52c0 -39 -34 -71 -76 -71c-33 0 -53 22 -53 52z" />
    <glyph glyph-name="caron.cap" horiz-adv-x="500" 
d="M283 888l103 -92l136 95l37 -37c-47 -50 -88 -85 -123 -113c-23 -20 -42 -32 -62 -32c-19 0 -34 10 -51 31c-27 33 -52 64 -83 114z" />
    <glyph glyph-name="macron.cap" horiz-adv-x="500" 
d="M234 734l16 87h287l-16 -87h-287z" />
    <glyph glyph-name="dotaccent.cap" horiz-adv-x="500" 
d="M312 783c0 42 36 77 81 77c36 0 59 -25 59 -56c0 -44 -37 -77 -82 -77c-37 0 -58 23 -58 56z" />
    <glyph glyph-name="cedilla.cap" horiz-adv-x="500" 
d="M213 3h57l-32 -69c46 -3 80 -29 80 -75c0 -77 -72 -100 -132 -100c-36 0 -71 8 -91 19l25 54c13 -6 41 -14 65 -14c36 0 56 14 56 37c0 28 -32 36 -84 35z" />
    <glyph glyph-name="hungarumlaut.cap" horiz-adv-x="500" 
d="M213 749l176 145c22 -17 43 -37 43 -59c0 -21 -13 -35 -50 -55c-41 -24 -103 -51 -147 -70zM402 749l175 144c21 -15 44 -36 44 -58s-14 -36 -50 -55c-43 -23 -104 -53 -147 -70z" />
    <glyph glyph-name="apostrophe" unicode="&#x2bc;" horiz-adv-x="252" 
d="M177 527l71 208c9 1 19 3 29 3c25 0 49 -7 49 -34c0 -35 -53 -110 -110 -190z" />
    <glyph glyph-name="commaaccent.cap" horiz-adv-x="500" 
d="M100 -260l94 199c33 -1 78 -5 78 -39c0 -15 -12 -35 -25 -53c-29 -40 -67 -81 -107 -128z" />
    <glyph glyph-name="breve.cap" horiz-adv-x="500" 
d="M500 876l70 -30c-33 -70 -86 -126 -188 -126s-142 63 -149 124l75 29c11 -50 35 -77 86 -77c50 0 78 25 106 80z" />
    <glyph glyph-name="caron.alt" horiz-adv-x="252" 
d="M171 479l37 209c16 4 34 7 52 7c27 0 41 -12 41 -33c0 -38 -57 -144 -83 -193z" />
    <glyph glyph-name="ogonek.cap" horiz-adv-x="500" 
d="M228 2l83 -1c-42 -31 -95 -94 -95 -136c0 -18 9 -31 33 -31c19 0 35 4 52 11l10 -65c-26 -13 -59 -21 -96 -21c-68 0 -92 37 -92 77c0 71 68 135 105 166z" />
    <glyph glyph-name="zero.tf" 
d="M387 657c113 0 181 -77 181 -224c0 -35 -1 -75 -9 -121c-41 -237 -144 -322 -296 -322c-121 0 -184 72 -184 215c0 37 3 83 11 131c40 230 154 321 297 321zM282 86c66 0 125 40 159 230c8 46 8 89 8 120c0 90 -33 123 -82 123c-70 0 -125 -50 -158 -239
c-8 -44 -10 -84 -10 -114c0 -87 32 -120 83 -120z" />
    <glyph glyph-name="one.tf" 
d="M138 92h118l74 423l-144 -69l-30 77l218 121h106l-25 -94l-80 -458h114l-17 -92h-351z" />
    <glyph glyph-name="two.tf" 
d="M196 480l-53 79c68 58 153 98 238 98c107 0 166 -63 166 -149c0 -81 -36 -148 -119 -224l-205 -187h283l-18 -97h-444l14 77l262 247c63 59 98 101 98 158c0 45 -31 68 -69 68c-56 0 -106 -34 -153 -70z" />
    <glyph glyph-name="three.tf" 
d="M187 485l-46 75c50 42 147 97 249 97c112 0 159 -64 159 -134s-30 -122 -109 -169c34 -41 63 -93 63 -154c0 -110 -73 -212 -247 -212c-84 0 -164 28 -202 53l49 91c39 -24 103 -44 156 -44c70 0 123 38 123 106c0 36 -13 68 -40 101c-35 -14 -85 -26 -118 -33l-18 88
c127 30 218 62 218 145c0 38 -27 59 -68 59c-49 0 -105 -25 -169 -69z" />
    <glyph glyph-name="four.tf" 
d="M434 436h75l-34 -187h90l-16 -95h-90l-27 -154h-121l28 155h-266l14 83l273 421l90 -47l-235 -363h146l13 69z" />
    <glyph glyph-name="five.tf" 
d="M142 303l103 341h330l-18 -99h-235l-49 -160c120 -7 227 -52 227 -181c0 -104 -63 -215 -256 -215c-80 0 -168 30 -200 55l52 92c34 -21 93 -48 152 -48c90 0 127 50 127 110c0 101 -133 103 -233 105z" />
    <glyph glyph-name="six.tf" 
d="M503 671l9 -92c-142 -24 -238 -100 -272 -211c39 21 102 42 152 42c94 0 142 -68 142 -150c0 -16 0 -38 -3 -56c-20 -135 -111 -215 -253 -215c-130 0 -180 90 -180 205c0 29 2 69 8 102c33 184 139 340 397 375zM414 208c2 12 3 22 3 32c0 55 -25 85 -72 85
c-36 0 -95 -20 -121 -39c-8 -35 -9 -67 -9 -95c0 -66 23 -110 79 -110s106 34 120 127z" />
    <glyph glyph-name="seven.tf" 
d="M166 545l18 99h430l-15 -83c-227 -166 -284 -381 -307 -513l-8 -48h-126l10 56c25 141 82 325 272 489h-274z" />
    <glyph glyph-name="eight.tf" 
d="M77 135c0 108 88 168 154 206c-36 26 -75 68 -75 129c0 103 86 187 226 187c123 0 169 -65 169 -131c0 -77 -56 -135 -124 -178c57 -38 91 -87 91 -148c0 -108 -75 -211 -253 -211c-141 0 -188 76 -188 146zM391 183c0 54 -43 87 -84 110c-55 -31 -114 -74 -114 -140
c0 -40 23 -76 86 -76c70 0 112 48 112 106zM370 574c-60 0 -97 -38 -97 -86c0 -42 29 -72 73 -97c49 30 95 71 95 122c0 38 -28 61 -71 61z" />
    <glyph glyph-name="nine.tf" 
d="M146 -18l-10 90c137 22 237 91 270 205c-39 -28 -93 -43 -140 -43c-102 0 -156 64 -156 163c0 144 93 260 253 260c134 0 186 -92 186 -217c0 -192 -95 -423 -403 -458zM230 406c0 -52 25 -88 79 -88c36 0 85 17 116 43c5 29 7 59 7 86c0 70 -20 117 -82 117
c-65 0 -120 -54 -120 -158z" />
    <glyph glyph-name="dollar.tf" 
d="M59 77l55 89c26 -19 70 -45 122 -53l32 184c-1 0 -3 1 -4 2c-66 28 -137 63 -137 159c0 117 81 187 204 196l17 93h75l-17 -97c62 -12 118 -47 150 -84l-72 -72c-32 30 -60 52 -95 60l-31 -175l6 -2c67 -29 140 -65 140 -163c0 -114 -80 -190 -211 -201l-21 -121h-75
l21 123c-73 9 -134 40 -159 62zM381 200c0 31 -18 51 -43 66l-27 -150c38 9 70 32 70 84zM248 481c0 -31 16 -52 41 -68l25 141c-36 -8 -66 -29 -66 -73z" />
    <glyph glyph-name="Euro.tf" 
d="M507 221l15 82h-435l-15 -82h105c-38 -24 -62 -61 -62 -107c0 -64 44 -128 186 -128c77 0 156 12 243 62l-35 85c-58 -32 -111 -54 -179 -54c-58 0 -89 25 -89 66c0 47 34 76 90 76h176zM543 422l-15 -82h-435l15 82h95c-14 16 -22 44 -22 71c0 110 109 164 235 164
c77 0 151 -25 216 -90l-67 -71c-48 40 -91 69 -159 69c-50 0 -109 -18 -109 -80c0 -37 25 -63 70 -63h176z" />
    <glyph glyph-name="cent.tf" 
d="M256 -60l18 106c-98 15 -151 90 -151 207c0 223 126 309 244 321l20 111h75l-20 -114c53 -10 102 -39 130 -98l-82 -54c-17 29 -38 49 -65 58l-59 -338c32 3 64 16 102 41l36 -81c-37 -27 -93 -49 -155 -55l-18 -104h-75zM245 266c0 -54 15 -95 48 -115l56 321
c-63 -24 -104 -98 -104 -206z" />
    <glyph glyph-name="sterling.tf" 
d="M52 143l14 84h101l92 237c59 153 127 193 233 193c80 0 135 -41 159 -66l-69 -71c-22 22 -52 43 -92 43c-62 0 -89 -32 -120 -113l-87 -223h159l-14 -83h-175l-32 -79c-24 -58 -54 -99 -104 -132v-2c29 9 58 14 80 14c64 0 108 -23 177 -23c28 0 60 3 97 13l-29 -97
c-34 -6 -65 -9 -90 -9c-95 0 -159 32 -250 32c-39 0 -95 -12 -138 -30l16 99c51 20 91 53 118 120l39 93h-85z" />
    <glyph glyph-name="yen.tf" 
d="M230 145h-153l13 76h154l13 75h-154l14 76h112l-95 272h120l78 -255h2l169 255h125l-193 -272h109l-13 -76h-153l-13 -75h152l-13 -76h-153l-25 -145h-121z" />
    <glyph glyph-name="florin.tf" horiz-adv-x="484" 
d="M108 294l32 95h109l29 87c36 110 79 181 213 181c56 0 111 -20 144 -40l-47 -73c-22 12 -54 22 -84 22c-51 0 -84 -26 -106 -88l-31 -89h148l-34 -95h-146l-110 -312c-44 -125 -86 -192 -214 -192c-63 0 -115 18 -144 38l44 78c21 -12 55 -25 89 -25c53 0 81 28 102 87
l113 326h-107z" />
    <glyph glyph-name="zero.osf" horiz-adv-x="524" 
d="M352 518c122 0 200 -77 200 -206c0 -16 0 -36 -4 -62c-25 -179 -143 -266 -287 -266c-136 0 -199 85 -199 203c0 21 2 51 6 75c32 180 145 256 284 256zM273 74c67 0 127 43 150 175c4 22 6 48 6 65c0 76 -36 113 -92 113c-71 0 -129 -44 -149 -174c-3 -20 -5 -47 -5 -64
c0 -77 34 -115 90 -115z" />
    <glyph glyph-name="one.osf" horiz-adv-x="466" 
d="M105 92h121l49 280l-142 -67l-30 78l218 120h106l-25 -94l-55 -317h119l-17 -92h-361z" />
    <glyph glyph-name="two.osf" horiz-adv-x="494" 
d="M145 342l-53 72c78 67 160 104 245 104c106 0 167 -54 167 -143c0 -91 -46 -143 -147 -207l-119 -76h242l-16 -92h-437l12 74l216 141c95 61 124 96 124 145c0 36 -24 59 -68 59c-56 0 -113 -36 -166 -77z" />
    <glyph glyph-name="three.osf" horiz-adv-x="476" 
d="M374 219c40 -46 65 -96 65 -147c0 -139 -127 -225 -408 -250l-5 93c162 18 291 52 291 149c0 34 -16 67 -43 97c-33 -13 -77 -25 -117 -33l-17 86c73 17 210 51 210 146c0 32 -17 57 -60 57c-45 0 -107 -28 -159 -60l-43 76c52 38 140 85 237 85c105 0 156 -60 156 -134
c0 -67 -30 -121 -107 -165z" />
    <glyph glyph-name="four.osf" horiz-adv-x="518" 
d="M405 295h80l-34 -200h89l-17 -95h-90l-28 -157h-120l29 157h-275l15 88l272 425l91 -47l-234 -371h147l13 66z" />
    <glyph glyph-name="five.osf" horiz-adv-x="469" 
d="M89 179l99 324h324l-17 -93h-225l-44 -144c120 -6 221 -50 221 -166c0 -164 -153 -262 -424 -280l-7 93c197 19 304 74 304 176c0 78 -87 93 -163 93c-25 0 -49 -2 -68 -3z" />
    <glyph glyph-name="six.osf" 
d="M501 671l9 -92c-142 -24 -238 -100 -272 -211c39 21 102 42 152 42c94 0 142 -68 142 -150c0 -16 0 -38 -3 -56c-20 -135 -111 -215 -253 -215c-130 0 -180 90 -180 205c0 29 2 69 8 102c33 184 139 340 397 375zM412 208c2 12 3 22 3 32c0 55 -25 85 -72 85
c-36 0 -95 -20 -121 -39c-8 -35 -9 -67 -9 -95c0 -66 23 -110 79 -110s106 34 120 127z" />
    <glyph glyph-name="seven.osf" horiz-adv-x="481" 
d="M79 405l17 98h433l-15 -83l-391 -577h-127l382 562h-299z" />
    <glyph glyph-name="eight.osf" horiz-adv-x="534" 
d="M77 135c0 108 88 168 154 206c-36 26 -75 68 -75 129c0 103 86 187 226 187c123 0 169 -65 169 -131c0 -77 -56 -135 -124 -178c57 -38 91 -87 91 -148c0 -108 -75 -211 -253 -211c-141 0 -188 76 -188 146zM391 183c0 54 -43 87 -84 110c-55 -31 -114 -74 -114 -140
c0 -40 23 -76 86 -76c70 0 112 48 112 106zM370 574c-60 0 -97 -38 -97 -86c0 -42 29 -72 73 -97c49 30 95 71 95 122c0 38 -28 61 -71 61z" />
    <glyph glyph-name="nine.osf" 
d="M129 -157l-10 90c137 22 237 91 270 205c-39 -28 -93 -43 -140 -43c-102 0 -156 64 -156 163c0 144 93 260 253 260c134 0 186 -92 186 -217c0 -192 -95 -423 -403 -458zM213 267c0 -52 25 -88 79 -88c36 0 85 17 116 43c5 29 7 59 7 86c0 70 -20 117 -82 117
c-65 0 -120 -54 -120 -158z" />
    <glyph glyph-name="dollar.osf" 
d="M58 77l55 89c26 -19 70 -45 122 -53l32 184c-1 0 -3 1 -4 2c-66 28 -137 63 -137 159c0 117 81 187 204 196l17 93h75l-17 -97c62 -12 118 -47 150 -84l-72 -72c-32 30 -60 52 -95 60l-31 -175l6 -2c67 -29 140 -65 140 -163c0 -114 -80 -190 -211 -201l-21 -121h-75
l21 123c-73 9 -134 40 -159 62zM380 200c0 31 -18 51 -43 66l-27 -150c38 9 70 32 70 84zM247 481c0 -31 16 -52 41 -68l25 141c-36 -8 -66 -29 -66 -73z" />
    <glyph glyph-name="Euro.osf" horiz-adv-x="543" 
d="M507 221l15 82h-435l-15 -82h105c-38 -24 -62 -61 -62 -107c0 -64 44 -128 186 -128c77 0 156 12 243 62l-35 85c-58 -32 -111 -54 -179 -54c-58 0 -89 25 -89 66c0 47 34 76 90 76h176zM543 422l-15 -82h-435l15 82h95c-14 16 -22 44 -22 71c0 110 109 164 235 164
c77 0 151 -25 216 -90l-67 -71c-48 40 -91 69 -159 69c-50 0 -109 -18 -109 -80c0 -37 25 -63 70 -63h176z" />
    <glyph glyph-name="cent.osf" 
d="M239 -130l18 106c-98 15 -151 90 -151 207c0 223 126 309 244 321l20 111h75l-20 -114c53 -10 102 -39 130 -98l-82 -54c-17 29 -38 49 -65 58l-59 -338c32 3 64 16 102 41l36 -81c-37 -27 -93 -49 -155 -55l-18 -104h-75zM228 196c0 -54 15 -95 48 -115l56 321
c-63 -24 -104 -98 -104 -206z" />
    <glyph glyph-name="sterling.osf" horiz-adv-x="558" 
d="M92 143l14 84h101l92 237c59 153 127 193 233 193c80 0 135 -41 159 -66l-69 -71c-22 22 -52 43 -92 43c-62 0 -89 -32 -120 -113l-87 -223h159l-14 -83h-175l-32 -79c-24 -58 -54 -99 -104 -132v-2c29 9 58 14 80 14c64 0 108 -23 177 -23c28 0 60 3 97 13l-29 -97
c-34 -6 -65 -9 -90 -9c-95 0 -159 32 -250 32c-39 0 -95 -12 -138 -30l16 99c51 20 91 53 118 120l39 93h-85z" />
    <glyph glyph-name="yen.osf" horiz-adv-x="533" 
d="M231 145h-153l13 76h154l13 75h-154l14 76h112l-95 272h120l78 -255h2l169 255h125l-193 -272h109l-13 -76h-153l-13 -75h152l-13 -76h-153l-25 -145h-121z" />
    <glyph glyph-name="florin.osf" horiz-adv-x="543" 
d="M139 294l32 95h109l29 87c36 110 79 181 213 181c56 0 111 -20 144 -40l-47 -73c-22 12 -54 22 -84 22c-51 0 -84 -26 -106 -88l-31 -89h148l-34 -95h-146l-110 -312c-44 -125 -86 -192 -214 -192c-63 0 -115 18 -144 38l44 78c21 -12 55 -25 89 -25c53 0 81 28 102 87
l113 326h-107z" />
    <glyph glyph-name="zero.tosf" unicode="&#xf81e;" 
d="M352 518c122 0 200 -77 200 -206c0 -16 0 -36 -4 -62c-25 -179 -143 -266 -287 -266c-136 0 -199 85 -199 203c0 21 2 51 6 75c32 180 145 256 284 256zM273 74c67 0 127 43 150 175c4 22 6 48 6 65c0 76 -36 113 -92 113c-71 0 -129 -44 -149 -174c-3 -20 -5 -47 -5 -64
c0 -77 34 -115 90 -115z" />
    <glyph glyph-name="one.tosf" unicode="&#xf81f;" 
d="M136 92h121l49 280l-142 -67l-30 78l218 120h106l-25 -94l-55 -317h119l-17 -92h-361z" />
    <glyph glyph-name="two.tosf" unicode="&#xf820;" 
d="M169 342l-53 72c78 67 160 104 245 104c106 0 167 -54 167 -143c0 -91 -46 -143 -147 -207l-119 -76h242l-16 -92h-437l12 74l216 141c95 61 124 96 124 145c0 36 -24 59 -68 59c-56 0 -113 -36 -166 -77z" />
    <glyph glyph-name="three.tosf" unicode="&#xf821;" 
d="M403 219c40 -46 65 -96 65 -147c0 -139 -127 -225 -408 -250l-5 93c162 18 291 52 291 149c0 34 -16 67 -43 97c-33 -13 -77 -25 -117 -33l-17 86c73 17 210 51 210 146c0 32 -17 57 -60 57c-45 0 -107 -28 -159 -60l-43 76c52 38 140 85 237 85c105 0 156 -60 156 -134
c0 -67 -30 -121 -107 -165z" />
    <glyph glyph-name="four.tosf" unicode="&#xf822;" 
d="M403 295h80l-34 -200h89l-17 -95h-90l-28 -157h-120l29 157h-275l15 88l272 425l91 -47l-234 -371h147l13 66z" />
    <glyph glyph-name="five.tosf" unicode="&#xf823;" 
d="M120 179l99 324h324l-17 -93h-225l-44 -144c120 -6 221 -50 221 -166c0 -164 -153 -262 -424 -280l-7 93c197 19 304 74 304 176c0 78 -87 93 -163 93c-25 0 -49 -2 -68 -3z" />
    <glyph glyph-name="six.tosf" unicode="&#xf824;" 
d="M491 671l9 -92c-142 -24 -238 -100 -272 -211c39 21 102 42 152 42c94 0 142 -68 142 -150c0 -16 0 -38 -3 -56c-20 -135 -111 -215 -253 -215c-130 0 -180 90 -180 205c0 29 2 69 8 102c33 184 139 340 397 375zM402 208c2 12 3 22 3 32c0 55 -25 85 -72 85
c-36 0 -95 -20 -121 -39c-8 -35 -9 -67 -9 -95c0 -66 23 -110 79 -110s106 34 120 127z" />
    <glyph glyph-name="seven.tosf" unicode="&#xf825;" 
d="M101 405l17 98h433l-15 -83l-391 -577h-127l382 562h-299z" />
    <glyph glyph-name="eight.tosf" unicode="&#xf826;" 
d="M77 135c0 108 88 168 154 206c-36 26 -75 68 -75 129c0 103 86 187 226 187c123 0 169 -65 169 -131c0 -77 -56 -135 -124 -178c57 -38 91 -87 91 -148c0 -108 -75 -211 -253 -211c-141 0 -188 76 -188 146zM391 183c0 54 -43 87 -84 110c-55 -31 -114 -74 -114 -140
c0 -40 23 -76 86 -76c70 0 112 48 112 106zM370 574c-60 0 -97 -38 -97 -86c0 -42 29 -72 73 -97c49 30 95 71 95 122c0 38 -28 61 -71 61z" />
    <glyph glyph-name="nine.tosf" unicode="&#xf827;" 
d="M125 -157l-10 90c137 22 237 91 270 205c-39 -28 -93 -43 -140 -43c-102 0 -156 64 -156 163c0 144 93 260 253 260c134 0 186 -92 186 -217c0 -192 -95 -423 -403 -458zM209 267c0 -52 25 -88 79 -88c36 0 85 17 116 43c5 29 7 59 7 86c0 70 -20 117 -82 117
c-65 0 -120 -54 -120 -158z" />
    <glyph glyph-name="dollar.tosf" 
d="M50 77l55 89c26 -19 70 -45 122 -53l32 184c-1 0 -3 1 -4 2c-66 28 -137 63 -137 159c0 117 81 187 204 196l17 93h75l-17 -97c62 -12 118 -47 150 -84l-72 -72c-32 30 -60 52 -95 60l-31 -175l6 -2c67 -29 140 -65 140 -163c0 -114 -80 -190 -211 -201l-21 -121h-75
l21 123c-73 9 -134 40 -159 62zM372 200c0 31 -18 51 -43 66l-27 -150c38 9 70 32 70 84zM239 481c0 -31 16 -52 41 -68l25 141c-36 -8 -66 -29 -66 -73z" />
    <glyph glyph-name="Euro.tosf" 
d="M507 221l15 82h-435l-15 -82h105c-38 -24 -62 -61 -62 -107c0 -64 44 -128 186 -128c77 0 156 12 243 62l-35 85c-58 -32 -111 -54 -179 -54c-58 0 -89 25 -89 66c0 47 34 76 90 76h176zM543 422l-15 -82h-435l15 82h95c-14 16 -22 44 -22 71c0 110 109 164 235 164
c77 0 151 -25 216 -90l-67 -71c-48 40 -91 69 -159 69c-50 0 -109 -18 -109 -80c0 -37 25 -63 70 -63h176z" />
    <glyph glyph-name="cent.tosf" 
d="M240 -130l18 106c-98 15 -151 90 -151 207c0 223 126 309 244 321l20 111h75l-20 -114c53 -10 102 -39 130 -98l-82 -54c-17 29 -38 49 -65 58l-59 -338c32 3 64 16 102 41l36 -81c-37 -27 -93 -49 -155 -55l-18 -104h-75zM229 196c0 -54 15 -95 48 -115l56 321
c-63 -24 -104 -98 -104 -206z" />
    <glyph glyph-name="sterling.tosf" 
d="M81 143l14 84h101l92 237c59 153 127 193 233 193c80 0 135 -41 159 -66l-69 -71c-22 22 -52 43 -92 43c-62 0 -89 -32 -120 -113l-87 -223h159l-14 -83h-175l-32 -79c-24 -58 -54 -99 -104 -132v-2c29 9 58 14 80 14c64 0 108 -23 177 -23c28 0 60 3 97 13l-29 -97
c-34 -6 -65 -9 -90 -9c-95 0 -159 32 -250 32c-39 0 -95 -12 -138 -30l16 99c51 20 91 53 118 120l39 93h-85z" />
    <glyph glyph-name="yen.tosf" 
d="M222 145h-153l13 76h154l13 75h-154l14 76h112l-95 272h120l78 -255h2l169 255h125l-193 -272h109l-13 -76h-153l-13 -75h152l-13 -76h-153l-25 -145h-121z" />
    <glyph glyph-name="florin.tosf" 
d="M130 294l32 95h109l29 87c36 110 79 181 213 181c56 0 111 -20 144 -40l-47 -73c-22 12 -54 22 -84 22c-51 0 -84 -26 -106 -88l-31 -89h148l-34 -95h-146l-110 -312c-44 -125 -86 -192 -214 -192c-63 0 -115 18 -144 38l44 78c21 -12 55 -25 89 -25c53 0 81 28 102 87
l113 326h-107z" />
    <glyph glyph-name="a.alt" horiz-adv-x="512" 
d="M159 401l-11 85c37 13 123 32 193 32c106 0 152 -36 154 -117c0 -19 -2 -42 -6 -66l-40 -230c-5 -26 2 -35 19 -35c11 0 23 3 41 11l4 -70c-32 -16 -69 -23 -97 -23c-44 0 -71 23 -70 65c-44 -39 -98 -67 -161 -67c-84 0 -129 52 -129 131c0 141 97 190 231 190
c28 0 60 -2 81 -5l6 38c2 13 3 27 3 36c0 42 -21 52 -63 52c-44 0 -111 -13 -155 -27zM335 116l19 108c-15 3 -41 6 -69 6c-61 0 -110 -15 -110 -95c0 -44 20 -62 58 -62c37 0 77 20 102 43z" />
    <glyph glyph-name="e.alt" horiz-adv-x="487" 
d="M352 518c103 0 165 -60 165 -147c0 -55 -17 -112 -35 -149h-288c-1 -11 -2 -20 -2 -30c0 -74 30 -112 108 -112c49 0 94 18 131 42l31 -82c-1 -1 -78 -55 -190 -55c-138 0 -199 90 -199 210c0 171 87 323 279 323zM341 427c-78 0 -121 -60 -135 -130h190
c9 22 12 41 12 62c0 43 -24 68 -67 68z" />
    <glyph glyph-name="g.alt" horiz-adv-x="489" 
d="M483 341c0 -102 -81 -178 -208 -178c-25 0 -44 4 -52 5l-28 -53l92 -15c118 -19 203 -40 203 -134c0 -104 -89 -189 -276 -189c-145 0 -202 49 -202 112c0 72 50 106 108 144c-25 8 -35 22 -35 39c0 13 6 28 16 43l50 74c-34 23 -58 70 -58 125c0 126 85 204 217 204
c50 0 95 -12 120 -28l145 20l-16 -89l-96 4c10 -18 20 -45 20 -84zM274 -1l-78 11c-44 -29 -76 -55 -76 -99c0 -26 19 -55 114 -55c79 0 134 35 134 87c0 36 -25 46 -94 56zM274 239c57 0 100 50 100 128c0 50 -25 76 -68 76c-54 0 -95 -44 -95 -129c0 -44 18 -75 63 -75z
" />
    <glyph glyph-name="k.alt" horiz-adv-x="503" 
d="M304 695l-94 -503l3 -1l241 312h127l-176 -230l83 -273h-126l-51 176l-135 -176h-112l123 695h117z" />
    <glyph glyph-name="v.alt" horiz-adv-x="501" 
d="M446 503h135l-247 -503h-158l-78 503h131l39 -392h4z" />
    <glyph glyph-name="w.alt" horiz-adv-x="722" 
d="M672 503h126l-215 -503h-139l-22 339h-2l-139 -339h-141l-39 503h124l18 -361h2l146 361h115l24 -363h2z" />
    <glyph glyph-name="y.alt" horiz-adv-x="475" 
d="M431 503h128l-264 -510c-78 -152 -126 -216 -246 -216c-51 0 -102 18 -129 37l44 86c22 -13 49 -26 85 -26c42 0 65 13 100 74l31 56l-85 499h124l44 -351h2z" />
    <glyph glyph-name="z.alt" horiz-adv-x="442" 
d="M426 0h-400l13 76l303 334h-227l16 93h376l-13 -71l-307 -338h256z" />
    <glyph glyph-name="ae.alt" horiz-adv-x="752" 
d="M234 76c46 0 93 28 121 52c-3 15 -5 31 -5 48c0 15 2 32 4 49c-17 3 -47 5 -70 5c-76 0 -109 -34 -109 -93c0 -46 22 -61 59 -61zM618 427c-77 0 -122 -58 -138 -130h189c8 21 13 38 13 59c0 44 -19 71 -64 71zM637 518c92 0 154 -58 154 -145c0 -55 -17 -114 -35 -151
h-288c-2 -13 -2 -25 -2 -36c0 -67 29 -106 105 -106c50 0 99 20 135 44l33 -84c-1 -1 -81 -55 -192 -55c-85 0 -142 29 -171 79c-45 -38 -102 -78 -189 -78c-89 0 -131 51 -131 137c0 133 89 184 234 184c27 0 51 -2 77 -5l7 38c2 12 3 22 3 31c0 44 -24 57 -66 57
c-41 0 -107 -11 -151 -27l-12 85c34 13 110 31 174 31c73 0 131 -17 148 -79c37 47 87 80 167 80z" />
    <glyph glyph-name="oe.alt" horiz-adv-x="801" 
d="M686 518c98 0 158 -60 158 -147c0 -55 -16 -112 -34 -149h-289c-1 -11 -2 -20 -2 -30c0 -74 32 -112 110 -112c49 0 93 18 130 42l32 -82c-1 -1 -78 -55 -190 -55c-85 0 -135 34 -160 88c-45 -59 -106 -88 -186 -88c-117 0 -183 69 -183 194c0 25 1 52 6 82
c34 207 166 257 272 257c50 0 116 -21 144 -87c43 48 104 87 192 87zM273 73c73 0 119 68 137 172c5 30 6 57 6 80c0 64 -22 105 -78 105c-73 0 -120 -67 -137 -163c-5 -29 -7 -61 -7 -88c0 -60 18 -106 79 -106zM671 427c-78 0 -123 -58 -138 -130h189c9 22 13 40 13 61
c0 43 -20 69 -64 69z" />
    <glyph glyph-name="ampersand.alt" horiz-adv-x="694" 
d="M344 491c0 -91 94 -196 170 -271c27 42 41 95 46 149h105c-8 -76 -31 -153 -78 -220c43 -40 86 -77 108 -95l-81 -87c-29 23 -69 59 -110 98c-53 -48 -126 -80 -223 -80c-145 0 -201 86 -201 177c0 111 70 184 163 235c-11 23 -20 57 -20 92c1 108 80 187 213 187
c98 0 151 -49 177 -100l-90 -56c-18 34 -47 64 -90 64c-55 0 -89 -37 -89 -93zM299 78c55 0 100 23 133 54c-56 56 -112 121 -147 183c-55 -28 -92 -78 -92 -140c0 -56 34 -97 106 -97z" />
    <glyph glyph-name="Q.alt" horiz-adv-x="664" 
d="M678 323c-29 -188 -120 -288 -243 -322c79 -21 148 -74 228 -74c10 0 20 1 31 3l-30 -94c-11 -1 -21 -1 -31 -1c-120 0 -210 98 -326 98c-17 0 -37 -1 -57 -6l22 66c-114 21 -179 108 -179 247c0 31 2 73 9 110c46 262 217 327 351 327c132 0 233 -82 233 -253
c0 -31 -2 -63 -8 -101zM229 343c-5 -29 -9 -62 -9 -91c0 -84 26 -163 131 -163c121 0 179 115 200 235c4 25 7 53 7 81c0 84 -27 169 -123 169c-120 0 -185 -112 -206 -231z" />
    <glyph glyph-name="Euro.alt" horiz-adv-x="561" 
d="M115 427h71c52 181 170 230 279 230c72 0 144 -31 186 -105l-85 -60c-27 37 -62 62 -112 62c-70 0 -115 -37 -146 -127h212l-15 -82h-405zM76 206l14 82h405l-14 -82h-211c2 -76 27 -117 104 -117c42 0 88 17 131 49l49 -84c-59 -46 -128 -66 -198 -66
c-133 0 -210 73 -205 218h-75z" />
    <glyph glyph-name="Euro_tf.alt" 
d="M88 427h71c52 181 170 230 279 230c72 0 144 -31 186 -105l-85 -60c-27 37 -62 62 -112 62c-70 0 -115 -37 -146 -127h212l-15 -82h-405zM49 206l14 82h405l-14 -82h-211c2 -76 27 -117 104 -117c42 0 88 17 131 49l49 -84c-59 -46 -128 -66 -198 -66
c-133 0 -210 73 -205 218h-75z" />
    <glyph glyph-name="yacute.alt" horiz-adv-x="475" 
d="M431 503h128l-264 -510c-78 -152 -126 -216 -246 -216c-51 0 -102 18 -129 37l44 86c22 -13 49 -26 85 -26c42 0 65 13 100 74l31 56l-85 499h124l44 -351h2zM266 596l145 184c27 -7 67 -22 67 -53c0 -17 -13 -33 -37 -55c-36 -32 -92 -73 -141 -107z" />
    <glyph glyph-name="ydieresis.alt" horiz-adv-x="475" 
d="M431 503h128l-264 -510c-78 -152 -126 -216 -246 -216c-51 0 -102 18 -129 37l44 86c22 -13 49 -26 85 -26c42 0 65 13 100 74l31 56l-85 499h124l44 -351h2zM379 655c0 39 33 71 76 71c32 0 53 -23 53 -52c0 -39 -34 -71 -76 -71c-33 0 -53 22 -53 52zM184 655
c0 39 33 71 76 71c32 0 53 -23 53 -52c0 -39 -34 -71 -76 -71c-33 0 -53 22 -53 52z" />
    <glyph glyph-name="ygrave.alt" horiz-adv-x="475" 
d="M431 503h128l-264 -510c-78 -152 -126 -216 -246 -216c-51 0 -102 18 -129 37l44 86c22 -13 49 -26 85 -26c42 0 65 13 100 74l31 56l-85 499h124l44 -351h2zM293 784l94 -190l-42 -29c-37 38 -79 82 -107 115c-13 15 -19 31 -19 44c0 38 40 52 74 60z" />
    <glyph glyph-name="ycircumflex.alt" horiz-adv-x="475" 
d="M431 503h128l-264 -510c-78 -152 -126 -216 -246 -216c-51 0 -102 18 -129 37l44 86c22 -13 49 -26 85 -26c42 0 65 13 100 74l31 56l-85 499h124l44 -351h2zM215 576l-39 33c44 52 93 104 126 136c24 22 37 32 61 32c25 0 34 -8 50 -32c23 -33 55 -86 79 -138l-41 -31
l-100 105z" />
    <glyph glyph-name="agrave.alt" horiz-adv-x="512" 
d="M159 401l-11 85c37 13 123 32 193 32c106 0 152 -36 154 -117c0 -19 -2 -42 -6 -66l-40 -230c-5 -26 2 -35 19 -35c11 0 23 3 41 11l4 -70c-32 -16 -69 -23 -97 -23c-44 0 -71 23 -70 65c-44 -39 -98 -67 -161 -67c-84 0 -129 52 -129 131c0 141 97 190 231 190
c28 0 60 -2 81 -5l6 38c2 13 3 27 3 36c0 42 -21 52 -63 52c-44 0 -111 -13 -155 -27zM335 116l19 108c-15 3 -41 6 -69 6c-61 0 -110 -15 -110 -95c0 -44 20 -62 58 -62c37 0 77 20 102 43zM333 784l94 -190l-42 -29c-37 38 -79 82 -107 115c-13 15 -19 31 -19 44
c0 38 40 52 74 60z" />
    <glyph glyph-name="aacute.alt" horiz-adv-x="512" 
d="M159 401l-11 85c37 13 123 32 193 32c106 0 152 -36 154 -117c0 -19 -2 -42 -6 -66l-40 -230c-5 -26 2 -35 19 -35c11 0 23 3 41 11l4 -70c-32 -16 -69 -23 -97 -23c-44 0 -71 23 -70 65c-44 -39 -98 -67 -161 -67c-84 0 -129 52 -129 131c0 141 97 190 231 190
c28 0 60 -2 81 -5l6 38c2 13 3 27 3 36c0 42 -21 52 -63 52c-44 0 -111 -13 -155 -27zM335 116l19 108c-15 3 -41 6 -69 6c-61 0 -110 -15 -110 -95c0 -44 20 -62 58 -62c37 0 77 20 102 43zM264 596l145 184c27 -7 67 -22 67 -53c0 -17 -13 -33 -37 -55
c-36 -32 -92 -73 -141 -107z" />
    <glyph glyph-name="acircumflex.alt" horiz-adv-x="512" 
d="M159 401l-11 85c37 13 123 32 193 32c106 0 152 -36 154 -117c0 -19 -2 -42 -6 -66l-40 -230c-5 -26 2 -35 19 -35c11 0 23 3 41 11l4 -70c-32 -16 -69 -23 -97 -23c-44 0 -71 23 -70 65c-44 -39 -98 -67 -161 -67c-84 0 -129 52 -129 131c0 141 97 190 231 190
c28 0 60 -2 81 -5l6 38c2 13 3 27 3 36c0 42 -21 52 -63 52c-44 0 -111 -13 -155 -27zM335 116l19 108c-15 3 -41 6 -69 6c-61 0 -110 -15 -110 -95c0 -44 20 -62 58 -62c37 0 77 20 102 43zM221 576l-39 33c44 52 93 104 126 136c24 22 37 32 61 32c25 0 34 -8 50 -32
c23 -33 55 -86 79 -138l-41 -31l-100 105z" />
    <glyph glyph-name="atilde.alt" horiz-adv-x="512" 
d="M159 401l-11 85c37 13 123 32 193 32c106 0 152 -36 154 -117c0 -19 -2 -42 -6 -66l-40 -230c-5 -26 2 -35 19 -35c11 0 23 3 41 11l4 -70c-32 -16 -69 -23 -97 -23c-44 0 -71 23 -70 65c-44 -39 -98 -67 -161 -67c-84 0 -129 52 -129 131c0 141 97 190 231 190
c28 0 60 -2 81 -5l6 38c2 13 3 27 3 36c0 42 -21 52 -63 52c-44 0 -111 -13 -155 -27zM335 116l19 108c-15 3 -41 6 -69 6c-61 0 -110 -15 -110 -95c0 -44 20 -62 58 -62c37 0 77 20 102 43zM201 615l4 74c30 21 62 29 88 29c52 0 85 -26 131 -26c21 0 44 8 65 18l-5 -78
c-24 -12 -44 -19 -72 -19c-44 0 -94 23 -133 23c-28 0 -50 -7 -78 -21z" />
    <glyph glyph-name="adieresis.alt" horiz-adv-x="512" 
d="M159 401l-11 85c37 13 123 32 193 32c106 0 152 -36 154 -117c0 -19 -2 -42 -6 -66l-40 -230c-5 -26 2 -35 19 -35c11 0 23 3 41 11l4 -70c-32 -16 -69 -23 -97 -23c-44 0 -71 23 -70 65c-44 -39 -98 -67 -161 -67c-84 0 -129 52 -129 131c0 141 97 190 231 190
c28 0 60 -2 81 -5l6 38c2 13 3 27 3 36c0 42 -21 52 -63 52c-44 0 -111 -13 -155 -27zM335 116l19 108c-15 3 -41 6 -69 6c-61 0 -110 -15 -110 -95c0 -44 20 -62 58 -62c37 0 77 20 102 43zM382 655c0 39 33 71 76 71c32 0 53 -23 53 -52c0 -39 -34 -71 -76 -71
c-33 0 -53 22 -53 52zM187 655c0 39 33 71 76 71c32 0 53 -23 53 -52c0 -39 -34 -71 -76 -71c-33 0 -53 22 -53 52z" />
    <glyph glyph-name="aring.alt" horiz-adv-x="512" 
d="M159 401l-11 85c37 13 123 32 193 32c106 0 152 -36 154 -117c0 -19 -2 -42 -6 -66l-40 -230c-5 -26 2 -35 19 -35c11 0 23 3 41 11l4 -70c-32 -16 -69 -23 -97 -23c-44 0 -71 23 -70 65c-44 -39 -98 -67 -161 -67c-84 0 -129 52 -129 131c0 141 97 190 231 190
c28 0 60 -2 81 -5l6 38c2 13 3 27 3 36c0 42 -21 52 -63 52c-44 0 -111 -13 -155 -27zM335 116l19 108c-15 3 -41 6 -69 6c-61 0 -110 -15 -110 -95c0 -44 20 -62 58 -62c37 0 77 20 102 43zM253 643c0 57 46 107 111 107c55 0 82 -35 82 -80c0 -59 -45 -106 -111 -106
c-55 0 -82 35 -82 79zM356 698c-24 0 -43 -20 -43 -49c0 -19 10 -34 31 -34c26 0 43 22 43 51c0 17 -9 32 -31 32z" />
    <glyph glyph-name="egrave.alt" horiz-adv-x="487" 
d="M352 518c-192 0 -279 -152 -279 -323c0 -120 61 -210 199 -210c112 0 189 54 190 55l-31 82c-37 -24 -82 -42 -131 -42c-78 0 -108 38 -108 112c0 10 1 19 2 30h288c18 37 35 94 35 149c0 87 -62 147 -165 147zM341 427c43 0 67 -25 67 -68c0 -21 -3 -40 -12 -62h-190
c14 70 57 130 135 130zM359 784l94 -190l-42 -29c-37 38 -79 82 -107 115c-13 15 -19 31 -19 44c0 38 40 52 74 60z" />
    <glyph glyph-name="eacute.alt" horiz-adv-x="487" 
d="M352 518c103 0 165 -60 165 -147c0 -55 -17 -112 -35 -149h-288c-1 -11 -2 -20 -2 -30c0 -74 30 -112 108 -112c49 0 94 18 131 42l31 -82c-1 -1 -78 -55 -190 -55c-138 0 -199 90 -199 210c0 171 87 323 279 323zM341 427c-78 0 -121 -60 -135 -130h190
c9 22 12 41 12 62c0 43 -24 68 -67 68zM292 596l145 184c27 -7 67 -22 67 -53c0 -17 -13 -33 -37 -55c-36 -32 -92 -73 -141 -107z" />
    <glyph glyph-name="ecircumflex.alt" horiz-adv-x="487" 
d="M352 518c-192 0 -279 -152 -279 -323c0 -120 61 -210 199 -210c112 0 189 54 190 55l-31 82c-37 -24 -82 -42 -131 -42c-78 0 -108 38 -108 112c0 10 1 19 2 30h288c18 37 35 94 35 149c0 87 -62 147 -165 147zM341 427c43 0 67 -25 67 -68c0 -21 -3 -40 -12 -62h-190
c14 70 57 130 135 130zM260 576l-39 33c44 52 93 104 126 136c24 22 37 32 61 32c25 0 34 -8 50 -32c23 -33 55 -86 79 -138l-41 -31l-100 105z" />
    <glyph glyph-name="edieresis.alt" horiz-adv-x="487" 
d="M352 518c-192 0 -279 -152 -279 -323c0 -120 61 -210 199 -210c112 0 189 54 190 55l-31 82c-37 -24 -82 -42 -131 -42c-78 0 -108 38 -108 112c0 10 1 19 2 30h288c18 37 35 94 35 149c0 87 -62 147 -165 147zM341 427c43 0 67 -25 67 -68c0 -21 -3 -40 -12 -62h-190
c14 70 57 130 135 130zM415 655c0 39 33 71 76 71c32 0 53 -23 53 -52c0 -39 -34 -71 -76 -71c-33 0 -53 22 -53 52zM220 655c0 39 33 71 76 71c32 0 53 -23 53 -52c0 -39 -34 -71 -76 -71c-33 0 -53 22 -53 52z" />
    <glyph glyph-name="amacron.alt" horiz-adv-x="512" 
d="M159 401l-11 85c37 13 123 32 193 32c106 0 152 -36 154 -117c0 -19 -2 -42 -6 -66l-40 -230c-5 -26 2 -35 19 -35c11 0 23 3 41 11l4 -70c-32 -16 -69 -23 -97 -23c-44 0 -71 23 -70 65c-44 -39 -98 -67 -161 -67c-84 0 -129 52 -129 131c0 141 97 190 231 190
c28 0 60 -2 81 -5l6 38c2 13 3 27 3 36c0 42 -21 52 -63 52c-44 0 -111 -13 -155 -27zM335 116l19 108c-15 3 -41 6 -69 6c-61 0 -110 -15 -110 -95c0 -44 20 -62 58 -62c37 0 77 20 102 43zM203 619l15 86h287l-15 -86h-287z" />
    <glyph glyph-name="abreve.alt" horiz-adv-x="512" 
d="M159 401l-11 85c37 13 123 32 193 32c106 0 152 -36 154 -117c0 -19 -2 -42 -6 -66l-40 -230c-5 -26 2 -35 19 -35c11 0 23 3 41 11l4 -70c-32 -16 -69 -23 -97 -23c-44 0 -71 23 -70 65c-44 -39 -98 -67 -161 -67c-84 0 -129 52 -129 131c0 141 97 190 231 190
c28 0 60 -2 81 -5l6 38c2 13 3 27 3 36c0 42 -21 52 -63 52c-44 0 -111 -13 -155 -27zM335 116l19 108c-15 3 -41 6 -69 6c-61 0 -110 -15 -110 -95c0 -44 20 -62 58 -62c37 0 77 20 102 43zM461 744l70 -17c-34 -91 -94 -143 -186 -143c-101 0 -140 70 -143 143l71 16
c9 -61 37 -83 83 -83c41 0 72 20 105 84z" />
    <glyph glyph-name="aogonek.alt" horiz-adv-x="512" 
d="M157 395l-9 87c39 15 123 36 193 36c106 0 152 -36 154 -117c0 -19 -2 -42 -6 -66l-40 -230c-5 -26 2 -35 19 -35c11 0 23 3 41 11l4 -70c-63 -41 -116 -104 -116 -146c0 -18 9 -31 33 -31c19 0 35 4 52 11l10 -65c-26 -13 -59 -21 -96 -21c-68 0 -92 37 -92 77
c0 63 53 120 91 154c-32 7 -50 28 -49 63c-44 -39 -98 -67 -161 -67c-84 0 -129 52 -129 131c0 141 96 185 230 185c28 0 60 -2 81 -5l7 43c2 13 3 27 3 36c0 42 -21 52 -63 52c-44 0 -112 -17 -157 -33zM335 116l20 110c-15 3 -41 6 -69 6c-61 0 -111 -17 -111 -97
c0 -44 20 -64 58 -64c37 0 77 22 102 45z" />
    <glyph glyph-name="emacron.alt" horiz-adv-x="487" 
d="M352 518c-192 0 -279 -152 -279 -323c0 -120 61 -210 199 -210c112 0 189 54 190 55l-31 82c-37 -24 -82 -42 -131 -42c-78 0 -108 38 -108 112c0 10 1 19 2 30h288c18 37 35 94 35 149c0 87 -62 147 -165 147zM341 427c43 0 67 -25 67 -68c0 -21 -3 -40 -12 -62h-190
c14 70 57 130 135 130zM233 619l15 86h287l-15 -86h-287z" />
    <glyph glyph-name="ebreve.alt" horiz-adv-x="487" 
d="M352 518c-192 0 -279 -152 -279 -323c0 -120 61 -210 199 -210c112 0 189 54 190 55l-31 82c-37 -24 -82 -42 -131 -42c-78 0 -108 38 -108 112c0 10 1 19 2 30h288c18 37 35 94 35 149c0 87 -62 147 -165 147zM341 427c43 0 67 -25 67 -68c0 -21 -3 -40 -12 -62h-190
c14 70 57 130 135 130zM495 744l70 -17c-34 -91 -94 -143 -186 -143c-101 0 -140 70 -143 143l71 16c9 -61 37 -83 83 -83c41 0 72 20 105 84z" />
    <glyph glyph-name="edotaccent.alt" horiz-adv-x="487" 
d="M352 518c-192 0 -279 -152 -279 -323c0 -120 61 -210 199 -210c112 0 189 54 190 55l-31 82c-37 -24 -82 -42 -131 -42c-78 0 -108 38 -108 112c0 10 1 19 2 30h288c18 37 35 94 35 149c0 87 -62 147 -165 147zM341 427c43 0 67 -25 67 -68c0 -21 -3 -40 -12 -62h-190
c14 70 57 130 135 130zM315 636c0 43 36 78 82 78c35 0 58 -25 58 -56c0 -44 -37 -77 -82 -77c-37 0 -58 23 -58 55z" />
    <glyph glyph-name="eogonek.alt" horiz-adv-x="477" 
d="M380 -6c-59 -36 -96 -87 -96 -129c0 -18 9 -31 33 -31c19 0 35 4 52 11l10 -65c-26 -13 -59 -21 -96 -21c-68 0 -92 37 -92 77c0 60 48 115 85 149h-4c-138 0 -199 90 -199 210c0 171 102 323 288 323c98 0 156 -58 156 -145c0 -55 -18 -114 -36 -151h-289
c-1 -11 -2 -20 -2 -30c0 -74 32 -116 110 -116c49 0 97 19 134 43l28 -79c-1 -1 -37 -19 -82 -46zM346 433c-78 0 -127 -70 -142 -142h194c9 22 14 46 14 67c0 43 -18 75 -66 75z" />
    <glyph glyph-name="ecaron.alt" horiz-adv-x="487" 
d="M352 518c-192 0 -279 -152 -279 -323c0 -120 61 -210 199 -210c112 0 189 54 190 55l-31 82c-37 -24 -82 -42 -131 -42c-78 0 -108 38 -108 112c0 10 1 19 2 30h288c18 37 35 94 35 149c0 87 -62 147 -165 147zM341 427c43 0 67 -25 67 -68c0 -21 -3 -40 -12 -62h-190
c14 70 57 130 135 130zM517 777l39 -33c-45 -52 -94 -104 -127 -136c-23 -22 -37 -32 -61 -32c-25 0 -34 8 -50 32c-23 33 -55 86 -80 137l44 32l99 -105z" />
    <glyph glyph-name="gcircumflex.alt" horiz-adv-x="489" 
d="M483 341c0 -102 -81 -178 -208 -178c-25 0 -44 4 -52 5l-28 -53l92 -15c118 -19 203 -40 203 -134c0 -104 -89 -189 -276 -189c-145 0 -202 49 -202 112c0 72 50 106 108 144c-25 8 -35 22 -35 39c0 13 6 28 16 43l50 74c-34 23 -58 70 -58 125c0 126 85 204 217 204
c50 0 95 -12 120 -28l145 20l-16 -89l-96 4c10 -18 20 -45 20 -84zM274 -1l-78 11c-44 -29 -76 -55 -76 -99c0 -26 19 -55 114 -55c79 0 134 35 134 87c0 36 -25 46 -94 56zM274 239c57 0 100 50 100 128c0 50 -25 76 -68 76c-54 0 -95 -44 -95 -129c0 -44 18 -75 63 -75z
M223 576l-39 33c44 52 93 104 126 136c24 22 37 32 61 32c25 0 34 -8 50 -32c23 -33 55 -86 79 -138l-41 -31l-100 105z" />
    <glyph glyph-name="gbreve.alt" horiz-adv-x="489" 
d="M483 341c0 -102 -81 -178 -208 -178c-25 0 -44 4 -52 5l-28 -53l92 -15c118 -19 203 -40 203 -134c0 -104 -89 -189 -276 -189c-145 0 -202 49 -202 112c0 72 50 106 108 144c-25 8 -35 22 -35 39c0 13 6 28 16 43l50 74c-34 23 -58 70 -58 125c0 126 85 204 217 204
c50 0 95 -12 120 -28l145 20l-16 -89l-96 4c10 -18 20 -45 20 -84zM274 -1l-78 11c-44 -29 -76 -55 -76 -99c0 -26 19 -55 114 -55c79 0 134 35 134 87c0 36 -25 46 -94 56zM274 239c57 0 100 50 100 128c0 50 -25 76 -68 76c-54 0 -95 -44 -95 -129c0 -44 18 -75 63 -75z
M455 744l70 -17c-34 -91 -94 -143 -186 -143c-101 0 -140 70 -143 143l71 16c9 -61 37 -83 83 -83c41 0 72 20 105 84z" />
    <glyph glyph-name="gdotaccent.alt" horiz-adv-x="489" 
d="M483 341c0 -102 -81 -178 -208 -178c-25 0 -44 4 -52 5l-28 -53l92 -15c118 -19 203 -40 203 -134c0 -104 -89 -189 -276 -189c-145 0 -202 49 -202 112c0 72 50 106 108 144c-25 8 -35 22 -35 39c0 13 6 28 16 43l50 74c-34 23 -58 70 -58 125c0 126 85 204 217 204
c50 0 95 -12 120 -28l145 20l-16 -89l-96 4c10 -18 20 -45 20 -84zM274 -1l-78 11c-44 -29 -76 -55 -76 -99c0 -26 19 -55 114 -55c79 0 134 35 134 87c0 36 -25 46 -94 56zM274 239c57 0 100 50 100 128c0 50 -25 76 -68 76c-54 0 -95 -44 -95 -129c0 -44 18 -75 63 -75z
M274 636c0 43 36 78 82 78c35 0 58 -25 58 -56c0 -44 -37 -77 -82 -77c-37 0 -58 23 -58 55z" />
    <glyph glyph-name="gcommaaccent.alt" horiz-adv-x="489" 
d="M483 341c0 -102 -81 -178 -208 -178c-25 0 -44 4 -52 5l-28 -53l92 -15c118 -19 203 -40 203 -134c0 -104 -89 -189 -276 -189c-145 0 -202 49 -202 112c0 72 50 106 108 144c-25 8 -35 22 -35 39c0 13 6 28 16 43l50 74c-34 23 -58 70 -58 125c0 126 85 204 217 204
c50 0 95 -12 120 -28l145 20l-16 -89l-96 4c10 -18 20 -45 20 -84zM274 -1l-78 11c-44 -29 -76 -55 -76 -99c0 -26 19 -55 114 -55c79 0 134 35 134 87c0 36 -25 46 -94 56zM274 239c57 0 100 50 100 128c0 50 -25 76 -68 76c-54 0 -95 -44 -95 -129c0 -44 18 -75 63 -75z
M455 775l-95 -200c-33 2 -78 7 -78 40c0 16 12 35 25 53c29 40 67 82 107 129z" />
    <glyph glyph-name="kcommaaccent.alt" horiz-adv-x="503" 
d="M304 695l-94 -503l3 -1l241 312h127l-176 -230l83 -273h-126l-51 176l-135 -176h-112l123 695h117zM225 -61l-94 -199l40 -21c40 47 78 88 107 128c13 18 25 38 25 53c0 34 -45 38 -78 39z" />
    <glyph glyph-name="wcircumflex.alt" horiz-adv-x="721" 
d="M672 503h126l-215 -503h-139l-22 339h-2l-139 -339h-141l-39 503h124l18 -361h2l146 361h115l24 -363h2zM337 576l-39 33c44 52 93 104 126 136c24 22 37 32 61 32c25 0 34 -8 50 -32c23 -33 55 -86 79 -138l-41 -31l-100 105z" />
    <glyph glyph-name="wgrave.alt" horiz-adv-x="721" 
d="M672 503h126l-215 -503h-139l-22 339h-2l-139 -339h-141l-39 503h124l18 -361h2l146 361h115l24 -363h2zM439 784l94 -190l-42 -29c-37 38 -79 82 -107 115c-13 15 -19 31 -19 44c0 38 40 52 74 60z" />
    <glyph glyph-name="wacute.alt" horiz-adv-x="721" 
d="M672 503h126l-215 -503h-139l-22 339h-2l-139 -339h-141l-39 503h124l18 -361h2l146 361h115l24 -363h2zM362 596l145 184c27 -7 67 -22 67 -53c0 -17 -13 -33 -37 -55c-36 -32 -92 -73 -141 -107z" />
    <glyph glyph-name="wdieresis.alt" horiz-adv-x="721" 
d="M672 503h126l-215 -503h-139l-22 339h-2l-139 -339h-141l-39 503h124l18 -361h2l146 361h115l24 -363h2zM516 655c0 39 33 71 76 71c32 0 53 -23 53 -52c0 -39 -34 -71 -76 -71c-33 0 -53 22 -53 52zM321 655c0 39 33 71 76 71c32 0 53 -23 53 -52c0 -39 -34 -71 -76 -71
c-33 0 -53 22 -53 52z" />
    <glyph glyph-name="zacute.alt" horiz-adv-x="441" 
d="M426 0h-400l13 76l303 334h-227l16 93h376l-13 -71l-307 -338h256zM272 596l145 184c27 -7 67 -22 67 -53c0 -17 -13 -33 -37 -55c-36 -32 -92 -73 -141 -107z" />
    <glyph glyph-name="zdotaccent.alt" horiz-adv-x="441" 
d="M426 0h-400l13 76l303 334h-227l16 93h376l-13 -71l-307 -338h256zM270 636c0 43 36 78 82 78c35 0 58 -25 58 -56c0 -44 -37 -77 -82 -77c-37 0 -58 23 -58 55z" />
    <glyph glyph-name="zcaron.alt" horiz-adv-x="441" 
d="M426 0h-400l13 76l303 334h-227l16 93h376l-13 -71l-307 -338h256zM484 777l39 -33c-45 -52 -94 -104 -127 -136c-23 -22 -37 -32 -61 -32c-25 0 -34 8 -50 32c-23 33 -55 86 -80 137l44 32l99 -105z" />
    </font>
</defs>
</svg>
